<?xml version="1.0" encoding="UTF-8" standalone="no"?>
<!-- Created with Inkscape (http://www.inkscape.org/) -->

<svg
   width="512"
   height="512"
   viewBox="0 0 512 512"
   version="1.1"
   id="svg1"
   xml:space="preserve"
   inkscape:version="1.3 (0e150ed6c4, 2023-07-21)"
   sodipodi:docname="marker-icons.svg"
   xmlns:inkscape="http://www.inkscape.org/namespaces/inkscape"
   xmlns:sodipodi="http://sodipodi.sourceforge.net/DTD/sodipodi-0.dtd"
   xmlns="http://www.w3.org/2000/svg"
   xmlns:svg="http://www.w3.org/2000/svg"><sodipodi:namedview
     id="namedview1"
     pagecolor="#b3b3b3"
     bordercolor="#000000"
     borderopacity="0.25"
     inkscape:showpageshadow="2"
     inkscape:pageopacity="0.0"
     inkscape:pagecheckerboard="true"
     inkscape:deskcolor="#d1d1d1"
     inkscape:document-units="px"
     inkscape:zoom="0.55657038"
     inkscape:cx="837.27058"
     inkscape:cy="439.29754"
     inkscape:window-width="1920"
     inkscape:window-height="1009"
     inkscape:window-x="905"
     inkscape:window-y="2152"
     inkscape:window-maximized="1"
     inkscape:current-layer="layer1"
     showgrid="true"
     borderlayer="true"
     showborder="true"><inkscape:page
       x="0"
       y="0"
       width="512"
       height="512"
       id="page4"
       margin="0"
       bleed="0" /><inkscape:grid
       id="grid6"
       units="px"
       originx="-1044"
       originy="0"
       spacingx="1"
       spacingy="1"
       empcolor="#0099e5"
       empopacity="0.30196078"
       color="#0099e5"
       opacity="0.14901961"
       empspacing="5"
       dotted="false"
       gridanglex="30"
       gridanglez="30"
       visible="true"
       enabled="false" /></sodipodi:namedview><defs
     id="defs1" /><g
     inkscape:label="Layer 1"
     inkscape:groupmode="layer"
     id="layer1"
     transform="translate(-1044)"><circle
       style="fill:#f9f9f9;stroke-width:6.441;stroke-linecap:round;stroke-linejoin:round;stroke-dashoffset:5.1584"
       id="path2-7-7"
       cx="1300"
       cy="256"
       r="256" /><path
       style="fill:#000000;fill-opacity:1;stroke-width:0.599826"
       d="m 1203.4291,313.30416 c -0.4908,-0.47091 -1.262,-1.65314 -1.7137,-2.62716 -0.4746,-1.02328 -1.7008,-2.27388 -2.9046,-2.96211 -1.9939,-1.14022 -2.0591,-1.3033 -1.518,-3.8047 0.5628,-2.60375 0.5549,-2.61998 -2.1122,-4.35482 -2.4516,-1.59453 -2.6801,-1.9442 -2.7102,-4.14548 -0.021,-1.46124 -0.5076,-2.82808 -1.2437,-3.48517 -3.7866,-3.38063 -4.1252,-4.21311 -3.2416,-7.97161 0.9823,-4.17963 0.8131,-4.94889 -1.6383,-7.44869 -1.9597,-1.99844 -3.0585,-5.91754 -2.1194,-7.55984 0.3092,-0.54072 0.2242,-1.52237 -0.1889,-2.18147 -0.4133,-0.65919 -0.5962,-2.03263 -0.4065,-3.05223 0.2157,-1.15802 -0.1521,-2.57968 -0.9797,-3.78874 -1.0423,-1.5226 -1.207,-2.63732 -0.773,-5.22991 0.3399,-2.0292 0.2033,-4.0497 -0.3557,-5.25996 -0.4989,-1.08076 -0.7125,-2.30587 -0.4744,-2.72237 0.2382,-0.41642 0.064,-2.36597 -0.3862,-4.33246 -0.7659,-3.34208 -0.7035,-3.78999 0.9559,-6.86593 1.3298,-2.46474 1.7953,-4.14461 1.8548,-6.69428 0.044,-1.87207 0.4232,-4.00453 0.8432,-4.73879 0.4197,-0.73426 1.1108,-2.98453 1.5355,-5.00062 0.4248,-2.01603 0.9795,-4.32449 1.2328,-5.12965 0.4204,-1.33612 -0.1572,-2.10334 -6.6112,-8.78019 -8.1977,-8.48116 -10.8958,-11.00138 -18.5963,-17.37055 -8.0229,-6.63594 -14.2688,-13.7418 -23.8618,-27.14735 -9.4221,-13.16667 -13.9892,-17.90668 -22.8547,-23.72005 -5.5104,-3.61326 -7.2349,-5.02331 -8.6236,-7.0511 -2.0032,-2.92464 -2.4862,-6.85728 -1.2417,-10.10659 0.4646,-1.21267 0.9064,-3.32327 0.9822,-4.68994 0.1709,-3.09007 1.4292,-5.3555 3.8126,-6.86429 1.0095,-0.63891 2.1735,-1.57401 2.5869,-2.07783 1.1653,-1.42103 3.0126,-1.795 7.991,-1.61762 2.5257,0.0901 5.0904,-0.0232 5.6996,-0.25154 0.665,-0.24924 1.9722,0.0793 3.271,0.82202 1.19,0.68044 2.8543,1.17376 3.6984,1.09626 0.8441,-0.0776 2.3182,0.34698 3.2758,0.94346 0.9578,0.59652 2.6331,1.0304 3.7229,0.96422 1.0901,-0.0661 2.795,0.38625 3.7889,1.00527 0.9938,0.61901 2.4634,1.13872 3.2657,1.15497 0.8022,0.0162 3.4803,1.11602 5.9511,2.44393 6.6317,3.564 14.6383,5.93387 26.923,7.9687 2.0262,0.33565 6.2318,2.45669 20.1115,10.14295 15.5738,8.62456 19.1192,10.37391 31.4944,15.54028 26.6865,11.14094 61.6063,27.82275 85.7491,40.96394 21.0191,11.44099 25.8812,13.29799 44.9756,17.17793 11.4793,2.3325 19.0139,4.85045 21.683,7.24597 2.8613,2.56786 2.5975,3.71635 -1.3408,5.83746 -7.1465,3.84892 -7.3274,6.89332 -0.6826,11.47616 5.7259,3.94912 15.9249,13.06905 32.3498,28.92743 16.7302,16.15318 25.003,24.84598 33.5195,35.22138 6.3954,7.79133 15.282,20.36321 19.4809,27.55953 2.282,3.91111 3.1512,4.86846 6.5784,7.2457 16.7449,11.6147 29.4248,24.89231 30.0836,31.50135 0.3051,3.05943 -0.7471,3.59359 -3.7427,1.9004 -5.6064,-3.16887 -6.7782,-3.16733 -14.9065,0.0185 l -2.473,0.96917 -0.1042,2.93368 c -0.1006,2.81717 -0.3935,3.44039 -7.3838,15.69995 -8.4303,14.78629 -8.9594,16.29872 -7.6401,21.86841 0.4932,2.08169 0.7396,4.05918 0.5479,4.39461 -0.7047,1.23229 -3.7053,0.18099 -6.6199,-2.31928 -7.1422,-6.12707 -13.7279,-22.27518 -14.6329,-35.87917 -0.4429,-6.6578 0.1612,-15.84349 1.4605,-22.21605 0.8134,-3.9889 0.867,-5.59403 0.2083,-6.2432 -2.8614,-2.82019 -24.0297,-16.46049 -38.1184,-24.56261 -22.2205,-12.77857 -32.5073,-17.06555 -53.0093,-22.09196 -43.4767,-10.65903 -79.9482,-23.5726 -106.9687,-37.87472 -2.5248,-1.33629 -4.5835,-2.22744 -4.5752,-1.98022 0.01,0.24726 1.842,4.19334 4.0746,8.76905 6.4392,13.19572 10.0689,21.52732 10.3365,23.72485 0.2249,1.85233 0.1036,2.12991 -1.3624,3.11221 -0.8849,0.59353 -3.3215,1.40548 -5.4141,1.80512 l -3.8049,0.72652 -4.8007,-3.19858 c -2.6404,-1.75917 -5.4403,-3.88277 -6.2221,-4.71918 -0.7814,-0.83621 -2.2708,-1.8154 -3.3096,-2.17577 -1.1523,-0.3999 -2.4491,-1.38421 -3.3261,-2.52447 -0.7905,-1.02791 -2.5227,-2.48968 -3.8489,-3.24805 -1.8174,-1.03919 -2.8874,-2.22927 -4.3427,-4.83007 -1.9211,-3.43312 -5.2448,-6.71867 -5.8053,-5.73857 -0.7766,1.35822 -0.4134,6.51829 0.8383,11.90775 1.6329,7.03052 1.6299,7.77344 -0.062,15.45046 -1.503,6.82065 -1.6444,8.91973 -0.8343,12.40088 1.577,6.77766 0.7665,9.80505 -2.765,10.32815 -1.0939,0.16219 -2.3804,0.0709 -2.859,-0.20279 -0.4785,-0.27357 -1.9991,-0.3657 -3.3789,-0.20462 -2.3937,0.27945 -4.0318,-0.32356 -5.9937,-2.20624 z"
       id="path5"
       sodipodi:nodetypes="ssssssssssssssssssssssssssssssssssssssssssssssssssssssscsssssssssssssssscssssssssssssss" /></g></svg>
