<?xml version="1.0" encoding="UTF-8" standalone="no"?>
<!-- Created with Inkscape (http://www.inkscape.org/) -->

<svg
   width="1264.1191"
   height="512"
   viewBox="0 0 1264.1191 512"
   version="1.1"
   id="svg1"
   xml:space="preserve"
   inkscape:version="1.3 (0e150ed6c4, 2023-07-21)"
   sodipodi:docname="icons.svg"
   xmlns:inkscape="http://www.inkscape.org/namespaces/inkscape"
   xmlns:sodipodi="http://sodipodi.sourceforge.net/DTD/sodipodi-0.dtd"
   xmlns="http://www.w3.org/2000/svg"
   xmlns:svg="http://www.w3.org/2000/svg"><sodipodi:namedview
     id="namedview1"
     pagecolor="#b3b3b3"
     bordercolor="#000000"
     borderopacity="0.25"
     inkscape:showpageshadow="2"
     inkscape:pageopacity="0.0"
     inkscape:pagecheckerboard="true"
     inkscape:deskcolor="#d1d1d1"
     inkscape:document-units="px"
     inkscape:zoom="0.39355469"
     inkscape:cx="7063.8213"
     inkscape:cy="372.24814"
     inkscape:window-width="1920"
     inkscape:window-height="1009"
     inkscape:window-x="905"
     inkscape:window-y="2152"
     inkscape:window-maximized="1"
     inkscape:current-layer="layer1"
     showgrid="true"
     borderlayer="true"
     showborder="true"><inkscape:grid
       id="grid6"
       units="px"
       originx="-7990.4073"
       originy="0"
       spacingx="1"
       spacingy="1"
       empcolor="#0099e5"
       empopacity="0.30196078"
       color="#0099e5"
       opacity="0.14901961"
       empspacing="5"
       dotted="false"
       gridanglex="30"
       gridanglez="30"
       visible="true"
       enabled="false" /><inkscape:page
       x="0"
       y="0"
       width="1264.1191"
       height="512"
       id="page26"
       margin="0"
       bleed="0"
       inkscape:export-filename="..\public\assets\corridor-key.svg"
       inkscape:export-xdpi="300"
       inkscape:export-ydpi="300" /></sodipodi:namedview><defs
     id="defs1"><inkscape:path-effect
       effect="bspline"
       id="path-effect24"
       is_visible="true"
       lpeversion="1.3"
       weight="33.333333"
       steps="2"
       helper_size="0"
       apply_no_weight="true"
       apply_with_weight="true"
       only_selected="false"
       uniform="false" /></defs><g
     inkscape:label="Layer 1"
     inkscape:groupmode="layer"
     id="layer1"
     transform="translate(-7990.4073)"><g
       id="text23-5"
       style="font-size:192px;line-height:1.1;font-family:WWF;-inkscape-font-specification:WWF;letter-spacing:-0.19px;fill:#f9f9f9;stroke:#ffffff;stroke-width:0.982677;stroke-linejoin:round"
       aria-label="MIGRATION&#10;CORRIDORS"><path
         d="M 8080.3224,219.616 V 110.944 l 21.312,108.672 h 17.28 l 21.312,-108.672 v 108.672 h 17.472 V 81.375997 h -27.264 L 8110.8504,181.792 8091.2664,81.375997 h -27.648 V 219.616 Z m 111.1701,0 V 81.375997 h -19.008 V 219.616 Z m 46.658,2.496 c 13.632,0 23.424,-5.184 28.224,-9.408 V 139.36 h -30.336 v 18.048 h 12.288 v 43.968 c -2.88,1.728 -6.528,2.688 -10.176,2.688 -9.792,0 -12.288,-7.296 -12.288,-16.32 v -74.688 c 0,-9.024 2.496,-16.320003 12.288,-16.320003 7.104,0 11.136,4.224003 14.208,8.256003 l 13.248,-12.480003 c -3.84,-7.488 -12.672,-13.824 -27.456,-13.824 -22.848,0 -32.448,13.824 -32.448,32.640003 v 78.144 c 0,18.816 9.6,32.64 32.448,32.64 z m 61.058,-2.496 v -57.408 h 5.568 c 9.408,0 13.056,3.264 14.784,19.2 l 4.224,38.208 h 20.16 l -6.144,-41.472 c -2.496,-17.088 -4.416,-23.424 -14.208,-25.152 11.904,-2.112 17.664,-10.176 17.664,-25.344 V 110.56 c 0,-16.128003 -7.872,-29.184003 -32.448,-29.184003 h -28.608 V 219.616 Z m 0,-120.192003 h 8.64 c 12.48,0 14.016,6.144003 14.016,16.320003 v 9.024 c 0,16.32 -2.688,19.776 -17.088,19.776 h -5.568 z m 70.4659,120.192003 4.992,-33.024 h 23.424 l 5.184,33.024 h 20.544 l -25.728,-138.240003 h -24 l -24,138.240003 z m 16.128,-109.44 9.216,58.56 h -17.856 z m 78.9138,109.44 V 99.615997 h 26.112 v -18.24 h -71.232 v 18.24 h 26.112 V 219.616 Z m 55.8739,0 V 81.375997 h -19.008 V 219.616 Z m 46.6581,2.496 c 22.656,0 32.256,-13.824 32.256,-32.64 v -78.144 c 0,-18.816003 -9.6,-32.640003 -32.256,-32.640003 -22.848,0 -32.448,13.824 -32.448,32.640003 v 78.144 c 0,18.816 9.6,32.64 32.448,32.64 z m 0,-18.048 c -9.792,0 -12.288,-7.296 -12.288,-16.32 v -74.688 c 0,-9.024 2.496,-16.320003 12.288,-16.320003 10.368,0 12.096,7.488003 12.096,16.320003 v 74.688 c 0,8.832 -1.728,16.32 -12.096,16.32 z m 63.17,15.552 v -87.552 l 25.152,87.552 h 20.352 V 81.375997 h -16.704 V 168.16 l -25.152,-86.784003 h -20.352 V 219.616 Z"
         id="path31" /><path
         d="m 8095.4904,433.312 c 14.784,0 24,-7.488 28.032,-14.4 l -13.248,-12.096 c -3.648,4.8 -7.488,8.448 -14.784,8.448 -9.792,0 -12.288,-7.296 -12.288,-16.32 v -74.688 c 0,-9.024 2.496,-16.32 12.288,-16.32 7.104,0 11.136,4.224 14.208,8.256 l 13.632,-12.48 c -4.224,-7.488 -13.056,-13.824 -27.84,-13.824 -22.848,0 -32.448,13.824 -32.448,32.64 v 78.144 c 0,18.816 9.6,32.64 32.448,32.64 z m 67.2019,0 c 22.656,0 32.256,-13.824 32.256,-32.64 v -78.144 c 0,-18.816 -9.6,-32.64 -32.256,-32.64 -22.848,0 -32.448,13.824 -32.448,32.64 v 78.144 c 0,18.816 9.6,32.64 32.448,32.64 z m 0,-18.048 c -9.792,0 -12.288,-7.296 -12.288,-16.32 v -74.688 c 0,-9.024 2.496,-16.32 12.288,-16.32 10.368,0 12.096,7.488 12.096,16.32 v 74.688 c 0,8.832 -1.728,16.32 -12.096,16.32 z m 65.4741,15.552 v -57.408 h 5.568 c 9.408,0 13.056,3.264 14.784,19.2 l 4.224,38.208 h 20.16 l -6.144,-41.472 c -2.496,-17.088 -4.416,-23.424 -14.208,-25.152 11.904,-2.112 17.664,-10.176 17.664,-25.344 V 321.76 c 0,-16.128 -7.872,-29.184 -32.448,-29.184 h -28.608 v 138.24 z m 0,-120.192 h 8.64 c 12.48,0 14.016,6.144 14.016,16.32 v 9.024 c 0,16.32 -2.688,19.776 -17.088,19.776 h -5.568 z m 74.498,120.192 v -57.408 h 5.568 c 9.408,0 13.056,3.264 14.784,19.2 l 4.224,38.208 h 20.16 l -6.144,-41.472 c -2.496,-17.088 -4.416,-23.424 -14.208,-25.152 11.904,-2.112 17.664,-10.176 17.664,-25.344 V 321.76 c 0,-16.128 -7.872,-29.184 -32.448,-29.184 h -28.608 v 138.24 z m 0,-120.192 h 8.64 c 12.48,0 14.016,6.144 14.016,16.32 v 9.024 c 0,16.32 -2.688,19.776 -17.088,19.776 h -5.568 z m 74.498,120.192 v -138.24 h -19.008 v 138.24 z m 45.314,0 c 24.576,0 32.448,-12.864 32.448,-28.992 V 321.76 c 0,-16.128 -7.872,-29.184 -32.448,-29.184 h -30.528 v 138.24 z m -11.52,-120.192 h 10.368 c 12.48,0 14.016,6.144 14.016,16.32 v 69.312 c 0,10.176 -1.536,16.32 -14.016,16.32 h -10.368 z m 90.05,122.688 c 22.656,0 32.256,-13.824 32.256,-32.64 v -78.144 c 0,-18.816 -9.6,-32.64 -32.256,-32.64 -22.848,0 -32.448,13.824 -32.448,32.64 v 78.144 c 0,18.816 9.6,32.64 32.448,32.64 z m 0,-18.048 c -9.792,0 -12.288,-7.296 -12.288,-16.32 v -74.688 c 0,-9.024 2.496,-16.32 12.288,-16.32 10.368,0 12.096,7.488 12.096,16.32 v 74.688 c 0,8.832 -1.728,16.32 -12.096,16.32 z m 65.4741,15.552 v -57.408 h 5.568 c 9.408,0 13.056,3.264 14.784,19.2 l 4.224,38.208 h 20.16 l -6.144,-41.472 c -2.496,-17.088 -4.416,-23.424 -14.208,-25.152 11.904,-2.112 17.664,-10.176 17.664,-25.344 V 321.76 c 0,-16.128 -7.872,-29.184 -32.448,-29.184 h -28.608 v 138.24 z m 0,-120.192 h 8.64 c 12.48,0 14.016,6.144 14.016,16.32 v 9.024 c 0,16.32 -2.688,19.776 -17.088,19.776 h -5.568 z m 80.0658,122.688 c 22.08,0 34.368,-14.976 34.368,-39.744 0,-24 -11.136,-33.792 -24.576,-43.776 -11.328,-8.448 -17.664,-14.4 -17.664,-25.92 0,-12.096 7.104,-16.32 13.824,-16.32 6.528,0 10.56,3.84 12.864,6.72 l 12.672,-12.096 c -4.992,-7.872 -14.016,-12.288 -25.536,-12.288 -17.472,0 -33.024,10.368 -33.024,35.52 0,20.928 10.944,30.144 24.192,40.128 10.56,7.872 17.856,14.4 17.856,29.76 0,15.168 -7.68,20.16 -15.168,20.16 -7.488,0 -12.288,-4.032 -16.128,-8.64 l -12.864,12.672 c 4.032,7.104 13.44,13.824 29.184,13.824 z"
         id="path32" /></g><path
       style="opacity:1;fill:#525aff;fill-opacity:0.454936;stroke:none;stroke-width:26.4567;stroke-linecap:butt;stroke-linejoin:round;stroke-dasharray:none;stroke-opacity:1;paint-order:normal"
       d="m 9256.655,102.90819 c -46.5839,-12.281226 -126.2001,-18.210093 -195.6531,13.1289 -69.4531,31.33899 -128.7406,99.94309 -110.953,162.19672 17.7875,62.25363 112.6475,118.15327 224.8738,139.75117 112.2262,21.59789 241.8117,8.89343 304.4883,-20.75137 62.6765,-29.6448 58.4417,-76.22782 78.3462,-122.81225 19.9045,-46.58442 63.9466,-93.16743 63.9462,-130.43486 -4e-4,-37.26742 -44.0426,-65.217271 -99.944,-62.252503 -55.9014,2.964768 -123.6585,36.843323 -164.3137,44.465963 -40.6553,7.62265 -54.2067,-11.01055 -100.7907,-23.29177 z"
       id="path24"
       inkscape:path-effect="#path-effect24"
       inkscape:original-d="m 9289.6873,96.555831 c -79.6162,-5.928867 -159.2324,-11.857734 -238.8486,-17.786601 -59.2899,68.60683 -118.5774,137.21092 -177.866,205.81638 94.8637,55.90186 189.7237,111.80148 284.5856,167.70223 129.5906,-12.70497 259.1761,-25.40943 388.7642,-38.11415 -4.235,-46.58488 -8.4698,-93.1679 -12.7047,-139.75186 44.0439,-46.58488 88.086,-93.1679 132.129,-139.75186 -44.0438,-27.95093 -88.086,-55.90074 -132.129,-83.851112 -67.7598,33.879917 -135.5169,67.758482 -203.2754,101.637712 -13.552,-18.63395 -27.1034,-37.26716 -40.6551,-55.900739 z"
       transform="matrix(0.57908911,0,0,0.96853489,3576.8552,8.8678906)" /></g></svg>
