<?xml version="1.0" encoding="UTF-8" standalone="no"?>
<!-- Created with Inkscape (http://www.inkscape.org/) -->

<svg
   width="512"
   height="512"
   viewBox="0 0 512 512"
   version="1.1"
   id="svg1"
   xml:space="preserve"
   inkscape:version="1.3 (0e150ed6c4, 2023-07-21)"
   sodipodi:docname="marker-icons.svg"
   xmlns:inkscape="http://www.inkscape.org/namespaces/inkscape"
   xmlns:sodipodi="http://sodipodi.sourceforge.net/DTD/sodipodi-0.dtd"
   xmlns="http://www.w3.org/2000/svg"
   xmlns:svg="http://www.w3.org/2000/svg"><sodipodi:namedview
     id="namedview1"
     pagecolor="#b3b3b3"
     bordercolor="#000000"
     borderopacity="0.25"
     inkscape:showpageshadow="2"
     inkscape:pageopacity="0.0"
     inkscape:pagecheckerboard="true"
     inkscape:deskcolor="#d1d1d1"
     inkscape:document-units="px"
     inkscape:zoom="0.55657038"
     inkscape:cx="837.27058"
     inkscape:cy="439.29754"
     inkscape:window-width="1920"
     inkscape:window-height="1009"
     inkscape:window-x="905"
     inkscape:window-y="2152"
     inkscape:window-maximized="1"
     inkscape:current-layer="layer1"
     showgrid="true"
     borderlayer="true"
     showborder="true"><inkscape:page
       x="0"
       y="0"
       width="512"
       height="512"
       id="page3"
       inkscape:export-filename="sperm.png"
       inkscape:export-xdpi="300"
       inkscape:export-ydpi="300"
       margin="0"
       bleed="0" /><inkscape:grid
       id="grid6"
       units="px"
       originx="-522"
       originy="0"
       spacingx="1"
       spacingy="1"
       empcolor="#0099e5"
       empopacity="0.30196078"
       color="#0099e5"
       opacity="0.14901961"
       empspacing="5"
       dotted="false"
       gridanglex="30"
       gridanglez="30"
       visible="true"
       enabled="false" /></sodipodi:namedview><defs
     id="defs1" /><g
     inkscape:label="Layer 1"
     inkscape:groupmode="layer"
     id="layer1"
     transform="translate(-522)"><circle
       style="fill:#f9f9f9;stroke-width:6.441;stroke-linecap:round;stroke-linejoin:round;stroke-dashoffset:5.1584"
       id="path2-7"
       cx="778"
       cy="256"
       r="256" /><path
       style="fill:#000000;stroke-width:0.757219"
       d="m 767.34736,440.59563 c -0.27374,-0.27471 -4.02197,-0.809 -8.32941,-1.18731 -11.48573,-1.00877 -18.28336,-2.21307 -27.51931,-4.87549 -2.49882,-0.72032 -5.48454,-1.48106 -6.63499,-1.69052 -1.15036,-0.20946 -2.27794,-0.6823 -2.50563,-1.05076 -0.2277,-0.36846 -1.22564,-0.66991 -2.21767,-0.66991 -0.99204,0 -2.01428,-0.34075 -2.27165,-0.75722 -0.25739,-0.41647 -1.13402,-0.75722 -1.94803,-0.75722 -0.81401,0 -2.07175,-0.32424 -2.7949,-0.72053 -0.72313,-0.39631 -2.67783,-1.28363 -4.3437,-1.97183 -10.06542,-4.15822 -23.12994,-10.77399 -27.75543,-14.05511 -1.10545,-0.78419 -2.21168,-1.42579 -2.45822,-1.42579 -0.58761,0 -10.1194,-6.7712 -16.35533,-11.61858 -7.60362,-5.91048 -20.70502,-19.00307 -27.39672,-27.3782 -3.3276,-4.1647 -6.57062,-8.21727 -7.20676,-9.00571 -1.46794,-1.81942 -7.01018,-10.39036 -9.60025,-14.84669 -6.16315,-10.60389 -16.37382,-33.82107 -16.37382,-37.23108 0,-0.71375 -0.34076,-1.50832 -0.75722,-1.76572 -0.41648,-0.25738 -0.75722,-1.45001 -0.75722,-2.65026 0,-1.20026 -0.30475,-2.37064 -0.67723,-2.60083 -0.37248,-0.23021 -0.86157,-1.6985 -1.08686,-3.26287 -0.2253,-1.56438 -0.73982,-4.37768 -1.14338,-6.2518 -0.91122,-4.23165 -2.05085,-10.82114 -3.10278,-17.94052 -1.03686,-7.0175 -1.04207,-35.04394 -0.008,-42.11254 1.86468,-12.74426 3.15621,-19.91756 3.8077,-21.14842 0.38276,-0.72317 0.69595,-2.32162 0.69595,-3.55211 0,-1.23048 0.34074,-2.44783 0.7572,-2.70522 0.41648,-0.2574 0.75722,-1.30437 0.75722,-2.32663 0,-1.02224 0.3015,-2.45032 0.66998,-3.17349 0.36847,-0.72317 1.42492,-3.7001 2.34766,-6.61539 5.29193,-16.71932 19.29276,-41.56491 32.0026,-56.79144 5.98847,-7.17421 21.59892,-22.72885 26.62792,-26.53268 1.62999,-1.23291 4.52635,-3.43896 6.43635,-4.90235 12.77869,-9.790689 27.64449,-17.737351 48.14862,-25.738361 0.83294,-0.325018 4.58118,-1.505479 8.32941,-2.623261 3.74823,-1.117768 7.86146,-2.347045 9.14039,-2.731728 1.27902,-0.384682 3.34056,-0.699421 4.58118,-0.699421 1.24071,0 2.57947,-0.309338 2.97511,-0.687418 0.39565,-0.378072 2.4231,-0.875421 4.50546,-1.105207 2.08235,-0.229785 7.19357,-0.844406 11.35828,-1.365833 16.8432,-2.108773 42.96681,-0.775651 60.19892,3.072029 9.73815,2.174363 16.14437,3.958497 16.99958,4.734369 0.39564,0.358922 1.33732,0.652595 2.09264,0.652595 0.75533,0 1.96499,0.314285 2.68813,0.698428 0.72315,0.384132 4.2112,1.817472 7.7512,3.185194 7.25469,2.802927 21.91385,10.046853 25.50254,12.602229 1.30339,0.92808 2.59658,1.687416 2.87387,1.687416 0.67203,0 14.75245,9.797829 16.67813,11.605509 0.83294,0.78188 2.70705,2.31315 4.16471,3.40281 4.49325,3.35895 16.53834,15.34352 21.82653,21.7168 2.76446,3.33177 5.24147,6.22814 5.50453,6.43637 0.68384,0.54146 11.70494,16.81208 12.30981,18.17326 0.27768,0.6247 1.22708,2.32844 2.10991,3.7861 1.73759,2.86898 8.06815,15.39199 9.95234,19.6877 1.8196,4.14834 6.323,16.67917 7.34768,20.4449 0.50999,1.87413 1.23245,4.19021 1.60561,5.14686 0.37307,0.95666 0.67831,2.67744 0.67831,3.82396 0,1.14653 0.30585,2.4083 0.67968,2.80395 0.37384,0.39565 0.85854,2.08234 1.07722,3.74823 0.21868,1.66588 1.09517,8.14011 1.94787,14.38717 2.48209,18.18573 1.7519,37.18909 -2.2257,57.92726 -0.43933,2.29059 -0.98786,5.44465 -1.21889,7.00902 -0.2311,1.56437 -0.72489,3.03266 -1.09736,3.26287 -0.37248,0.2302 -0.67726,1.13521 -0.67726,2.01114 0,1.44001 -4.32061,15.1477 -6.09304,19.33087 -0.39708,0.93706 -1.04276,2.47043 -1.43492,3.40748 -3.4792,8.31402 -10.43189,21.57307 -14.98921,28.58503 -2.3776,3.65813 -10.52807,14.87205 -11.55766,15.9016 -0.20824,0.20824 -2.06843,2.4231 -4.13374,4.92192 -10.93303,13.22759 -29.85223,29.13736 -45.84273,38.55049 -6.05124,3.56222 -23.89496,12.04987 -29.53154,14.04718 -1.45765,0.51651 -3.33177,1.20663 -4.1647,1.53361 -0.83295,0.32697 -3.04781,1.01291 -4.92193,1.52433 -1.87413,0.51141 -4.08899,1.19624 -4.92192,1.52184 -2.53139,0.98955 -15.61379,4.0024 -20.44492,4.7084 -13.13662,1.91977 -39.58227,3.53821 -40.63034,2.48653 z m 65.02771,-26.20417 c 1.5744,-0.87219 3.1863,-1.89444 3.58194,-2.27166 0.39565,-0.37722 1.18506,-0.68586 1.75425,-0.68586 1.25638,0 6.23441,-3.69947 6.23441,-4.63319 0,-1.38065 -2.88545,-0.57936 -7.14057,1.98293 -2.42068,1.45764 -4.52771,2.65026 -4.68234,2.65026 -0.60729,0 -4.07868,3.33861 -4.07868,3.92265 0,1.00818 1.28621,0.72156 4.33099,-0.96513 z m -2.00959,-9.79914 c 1.66588,-0.89152 1.98248,-3.00223 0.4504,-3.00223 -0.55785,0 -1.40245,0.85187 -1.87684,1.89305 -0.95402,2.09384 -0.7336,2.26522 1.42644,1.10918 z m 25.39789,-4.16396 c 0.64553,-0.97221 0.75094,-1.89123 0.30046,-2.62007 -0.57207,-0.92559 -1.16475,-0.66615 -3.37711,1.47813 -1.47583,1.43042 -2.68328,3.20848 -2.68328,3.95127 0,1.29178 0.10356,1.29262 2.3828,0.0193 1.3106,-0.73215 2.83027,-2.00504 3.37713,-2.82864 z m -15.65755,-5.04737 c 1.48718,-0.49971 3.72628,-1.62594 4.97569,-2.50275 1.24941,-0.87681 3.89657,-2.53056 5.8826,-3.675 3.87326,-2.23191 9.02961,-8.15937 10.81491,-12.43222 0.60343,-1.44417 1.09713,-4.43506 1.09713,-6.64643 0,-3.64241 -0.22352,-4.17985 -2.37615,-5.71261 l -2.37607,-1.69194 0.46274,-6.49973 c 0.25449,-3.57485 0.68482,-7.60716 0.95629,-8.96069 0.34786,-1.73442 0.21224,-2.46096 -0.45949,-2.46096 -1.37344,0 -4.53475,3.90834 -4.53582,5.60767 -5.3e-4,0.79362 -0.87163,2.58448 -1.93575,3.97966 -2.28248,2.99247 -3.92429,2.59675 -5.86679,-1.41405 -1.16505,-2.40561 -1.14249,-2.56 0.64697,-4.42781 2.17844,-2.2738 2.38525,-3.74182 0.529,-3.7546 -0.72882,-0.006 -2.78642,-0.84458 -4.57246,-1.8657 l -3.24734,-1.85657 -0.66757,1.75577 c -0.58685,1.54369 -1.34126,1.81683 -6.24562,2.26125 -3.59558,0.32581 -6.48217,0.19029 -8.12193,-0.38132 -3.22447,-1.12404 -6.24698,0.32244 -12.03434,5.75917 -3.83811,3.60559 -6.41742,5.03669 -10.79945,5.99199 -1.07767,0.23492 -2.8666,1.14076 -3.9754,2.01299 -1.78196,1.40166 -2.02177,2.12914 -2.06472,6.26351 -0.0507,4.85379 -1.45454,12.86958 -2.42415,13.8392 -0.30585,0.30585 -0.5561,1.35119 -0.5561,2.32294 0,1.38237 0.41419,1.76685 1.90327,1.76685 1.04686,0 2.49503,-0.30754 3.21818,-0.68341 0.72321,-0.37588 2.6779,-1.05452 4.34378,-1.50809 1.66589,-0.45357 5.29918,-1.52896 8.07393,-2.38975 5.42866,-1.68407 4.40444,-1.75864 18.61805,1.35562 1.40479,0.30779 1.70375,0.88147 1.70375,3.26922 0,2.88975 0.98461,4.45519 1.8854,2.99764 0.26162,-0.42326 0.98961,-0.76956 1.61779,-0.76956 1.31885,0 0.95879,1.78867 -1.23782,6.14837 -1.2766,2.53372 -1.28766,2.83421 -0.14653,3.9754 1.46916,1.46912 3.26044,1.55356 6.91402,0.32594 z m -166.631,-29.85214 c 1.39768,-0.97898 1.67256,-1.71106 1.35051,-3.5968 -1.15438,-6.75971 -1.98005,-10.3598 -2.67269,-11.65404 -0.42283,-0.78998 -0.78598,-6.56508 -0.80704,-12.83354 -0.031,-9.2237 0.17764,-11.57637 1.09373,-12.33668 1.69125,-1.40361 1.39192,-6.78277 -0.6372,-11.4502 -3.25786,-7.49399 -3.86129,-10.85265 -2.81345,-15.66106 1.01271,-4.64702 2.3442,-7.21923 9.48273,-18.31872 6.07767,-9.44998 7.9546,-13.36307 8.17199,-17.03742 l 0.17931,-3.02888 -3.7861,0.19021 c -2.08235,0.10456 -4.74027,0.57898 -5.90646,1.05414 -3.27679,1.33508 -5.53625,-0.33734 -8.28549,-6.13285 -1.29288,-2.72544 -2.93293,-5.80723 -3.6445,-6.8484 -2.23236,-3.26619 -6.77318,-12.19229 -6.77318,-13.31423 0,-0.59012 -0.34074,-1.07294 -0.7572,-1.07294 -0.41648,0 -0.75722,-0.61334 -0.75722,-1.36299 0,-0.74965 -0.27079,-1.6867 -0.60169,-2.08235 -0.33098,-0.39565 -1.21905,-2.76385 -1.97355,-5.26267 -0.75442,-2.49883 -1.67633,-5.32604 -2.0485,-6.2827 -0.91002,-2.33872 -0.85989,-6.21142 0.0804,-6.21142 0.41647,0 0.75722,0.38049 0.75722,0.84553 0,0.4811 0.6727,0.66962 1.5607,0.43739 0.86937,-0.22734 1.66845,-0.0148 1.80377,0.4796 2.01375,7.35639 2.93067,9.75254 7.42203,19.39505 3.41613,7.33397 5.87231,14.51787 5.87231,17.1753 0,4.20406 1.50112,4.55162 8.13391,1.88327 3.23105,-1.29983 6.67231,-2.3615 7.64731,-2.35925 0.97498,0.002 3.166,-1.18855 4.86891,-2.6462 1.70291,-1.45764 3.42748,-2.65027 3.83237,-2.65027 1.72131,0 14.13568,-10.15715 14.13568,-11.56551 0,-0.42435 -1.53337,-2.41084 -3.40748,-4.41443 -1.87412,-2.00358 -3.40749,-3.99823 -3.40749,-4.43253 0,-1.23725 -2.00443,-0.93029 -4.71437,0.72194 -3.5983,2.19389 -5.0315,1.93672 -6.31415,-1.13299 -0.73866,-1.76789 -1.60817,-2.65027 -2.61157,-2.65027 -0.95395,0 -1.5043,-0.50795 -1.5043,-1.38825 0,-0.76352 -0.23351,-1.62175 -0.51899,-1.90717 -1.25804,-1.25811 -2.28355,-5.7147 -1.49611,-6.50214 1.65831,-1.65824 3.51948,-0.67566 6.72532,3.5505 2.69781,3.55649 3.7655,4.39879 5.82892,4.59847 1.38942,0.13445 2.89174,-0.12111 3.3385,-0.56792 1.38745,-1.38741 2.69502,-0.90372 3.91035,1.44647 1.9244,3.72126 5.01794,4.81169 13.8366,4.8771 7.76376,0.0576 7.77331,0.0599 8.89731,2.22654 0.61881,1.1929 1.12516,2.58874 1.12516,3.10185 0,3.17456 4.4654,8.60865 7.58719,9.23299 1.63113,0.32623 2.55266,1.24658 3.70688,3.70214 1.76372,3.75218 3.8488,13.04047 3.84971,17.14943 3e-4,1.53718 0.34135,3.00548 0.75782,3.26287 0.41647,0.25739 0.76805,1.38493 0.7813,2.50565 0.0257,2.19803 1.5364,4.68793 2.84381,4.68793 1.04739,0 5.46152,-5.34982 5.46152,-6.61916 0,-0.53547 0.28524,-1.56526 0.63387,-2.28843 3.42021,-7.094 4.56633,-8.83588 6.52753,-9.92036 1.2317,-0.68109 2.82367,-1.74948 3.53773,-2.37419 1.30477,-1.14158 7.5394,-4.37919 11.48512,-5.96419 1.16491,-0.46793 4.30245,-0.85078 6.9724,-0.85078 h 4.85438 l 2.11423,3.5968 c 1.64195,2.79328 2.11431,4.55482 2.11431,7.88531 0,4.96338 0.3487,5.49395 3.63382,5.52926 l 2.42393,0.026 0.16325,5.30054 c 0.41322,13.4175 3.31618,26.18411 6.75819,29.72085 0.8708,0.89474 3.30102,1.34004 3.30102,0.60486 0,-0.62511 -2.12143,-8.34267 -2.71599,-9.8808 -0.77191,-1.99673 -4.32274,-7.50336 -5.0455,-7.8246 -1.30045,-0.57797 -0.43685,-4.71485 1.47642,-7.07238 1.1244,-1.38548 2.12431,-2.63872 2.22206,-2.78498 0.0978,-0.14626 1.00513,0.53524 2.01647,1.51444 1.82498,1.76705 3.38666,4.40648 4.97379,8.40603 0.45449,1.1453 1.26903,2.08235 1.80999,2.08235 1.64559,0 9.94131,-4.5145 11.35367,-6.17861 2.08894,-2.46138 1.64475,-6.62717 -1.32514,-12.42649 -2.97375,-5.80681 -3.27201,-7.9022 -1.30029,-9.13358 1.99739,-1.24737 5.70443,-1.87996 6.81573,-1.16307 1.02171,0.65905 0.48803,3.1563 -0.67454,3.1563 -0.37194,0 -0.67619,0.85188 -0.67619,1.89305 0,3.31765 3.10141,1.97879 5.70072,-2.46096 1.35952,-2.32215 1.68526,-2.46096 5.77615,-2.46096 2.3844,0 4.54596,-0.34076 4.80334,-0.75722 0.25738,-0.41647 1.07858,-0.75722 1.82497,-0.75722 1.53761,0 8.0974,-3.31723 10.10123,-5.10814 0.72883,-0.65138 1.33074,-1.55746 1.33763,-2.01351 0.008,-0.45603 1.60069,-2.36252 3.54189,-4.23664 l 3.52932,-3.40748 -0.0829,-6.43637 c -0.0801,-6.21147 -0.16409,-6.50444 -2.40606,-8.38456 -1.27774,-1.0715 -2.32315,-2.29173 -2.32315,-2.71161 0,-0.80968 2.31065,-2.13232 5.07253,-2.90356 2.3062,-0.64397 1.45039,-2.37853 -1.93673,-3.92543 -3.41052,-1.55757 -5.40746,-3.21008 -5.40746,-4.47471 0,-1.11437 4.11753,-3.34558 6.17406,-3.34558 1.62211,0 1.63279,0.0413 0.66651,2.58298 -0.73095,1.92246 -0.72829,1.92388 2.72493,1.45057 3.94458,-0.54068 4.97265,0.32281 4.31267,3.62245 -0.31031,1.55166 -0.0318,2.2505 1.1496,2.88265 1.27372,0.6817 1.60038,1.69941 1.78439,5.55966 0.21642,4.54016 0.29941,4.71705 2.11832,4.51682 2.5728,-0.28322 4.6856,-3.07187 4.14495,-5.47075 -1.14046,-5.0603 -1.73025,-7.3052 -2.23805,-8.51871 -0.39602,-0.94638 -0.20225,-1.32514 0.67794,-1.32514 0.67787,0 2.31323,-1.53337 3.63428,-3.40748 2.44332,-3.46641 4.67022,-4.33074 6.48421,-2.51672 2.01368,2.01367 5.33439,-3.18486 8.54992,-13.38488 0.91912,-2.9153 2.20578,-6.3948 2.85941,-7.73222 l 1.18838,-2.43169 1.02414,2.43169 c 0.56329,1.33742 1.22124,4.64655 1.46211,7.3536 0.45487,5.11172 1.27637,7.5722 2.52813,7.5722 0.40178,0 0.73057,-0.66139 0.73057,-1.46976 0,-0.80835 0.34075,-1.68033 0.75721,-1.93773 1.94546,-1.20235 0.24133,-10.61428 -3.11723,-17.21646 -0.36787,-0.72317 -0.66886,-1.67222 -0.66886,-2.109 0,-0.43677 -0.5542,-1.63996 -1.23162,-2.67378 -0.9107,-1.38995 -1.4815,-1.67225 -2.19078,-1.08357 -1.20149,0.9971 -6.19709,-1.31197 -6.81233,-3.1488 -0.22913,-0.68386 -1.08675,-1.41864 -1.90584,-1.63285 -0.81916,-0.21421 -1.48938,-0.95629 -1.48938,-1.64907 0,-1.27272 3.53198,-6.84932 5.73056,-9.04789 2.30429,-2.30432 7.85305,-1.15227 11.82958,2.4561 2.79604,2.53723 4.39922,1.76813 4.39922,-2.11049 0,-1.67894 0.22111,-3.05264 0.49144,-3.05264 0.27024,0 1.63324,1.17574 3.02887,2.61274 2.39501,2.46608 2.53744,2.91461 2.53744,7.99063 0,5.37995 1.69375,15.11661 3.06038,17.59278 0.39913,0.72317 0.72572,1.77825 0.72572,2.34462 0,1.42513 2.24954,5.80575 2.9814,5.80575 0.6475,0 1.56191,-5.53011 1.56191,-9.44586 0,-1.33074 -0.71065,-4.58424 -1.57918,-7.23 -0.91267,-2.78 -1.57244,-6.74812 -1.56312,-9.401 0.0174,-4.91653 0.21906,-4.51951 -7.19102,-14.14294 -3.5353,-4.59135 -19.27266,-20.83811 -24.55509,-25.34998 -4.98735,-4.25981 -9.75185,-8.05972 -12.00041,-9.57077 -6.59228,-4.43017 -15.44296,-9.66798 -16.33662,-9.66798 -0.57686,0 -1.25942,-0.34075 -1.51679,-0.75722 -0.62554,-1.01218 -3.65381,-0.96524 -4.69181,0.0727 -0.60177,0.60175 -1.73631,-0.0405 -4.12685,-2.33649 -5.06042,-4.860188 -8.51999,-6.822857 -12.02645,-6.822857 -1.69428,0 -4.51219,-0.722552 -6.26205,-1.605674 -1.74993,-0.883123 -4.71498,-2.353901 -6.5891,-3.268402 -5.81188,-2.835967 -13.84234,-4.673221 -23.47378,-5.370461 -5.87966,-0.425633 -6.75531,-0.302411 -10.12335,1.424477 -2.98836,1.532217 -4.0222,1.737724 -5.45576,1.084531 -2.62922,-1.197951 -8.65191,1.513665 -8.65191,3.895344 0,0.446224 -0.34075,0.811305 -0.75722,0.811305 -1.17854,0 -0.89859,-1.119687 0.75722,-3.02888 0.83294,-0.960379 1.51444,-2.205159 1.51444,-2.766132 0,-1.463376 -3.23885,-1.257984 -4.96849,0.31506 -0.80735,0.734282 -2.89621,1.969692 -4.64191,2.745365 -2.43143,1.080355 -3.45398,2.110136 -4.3709,4.401579 -0.65824,1.645204 -1.44477,2.876871 -1.74788,2.737046 -0.30304,-0.139837 -2.17315,-1.027689 -4.15562,-1.973004 -3.08537,-1.471176 -3.84887,-1.579479 -5.30054,-0.751881 -0.93281,0.531788 -3.74044,0.988246 -6.23926,1.014342 -4.04294,0.0422 -7.23764,0.741802 -12.11551,2.653055 -3.90058,1.528308 -5.56524,1.505779 -6.06925,-0.08218 l -0.4931,-1.553572 -2.75787,1.627229 c -1.51694,0.894974 -3.21159,2.274905 -3.76611,3.066517 -0.60229,0.859895 -1.90532,1.439283 -3.23681,1.439283 -2.63156,0 -2.71834,-0.267583 -0.73147,-2.254476 1.47438,-1.474389 1.41501,-3.05008 -0.19309,-5.128406 -1.29386,-1.672109 -4.70294,-1.021574 -11.221,2.141194 -3.49987,1.698249 -8.23749,3.977696 -10.52808,5.065448 -5.02361,2.38561 -7.71031,4.32902 -6.98603,5.05331 0.5842,0.5842 -2.14649,3.10694 -10.29394,9.51009 -2.91453,2.29059 -6.05585,5.48244 -6.98064,7.09301 -2.53715,4.4184 -15.76456,17.85123 -18.06575,18.34626 -1.08403,0.23322 -2.71901,0.78584 -3.63328,1.22811 -0.91434,0.44226 -2.82322,0.61572 -4.24209,0.38547 -1.85754,-0.30143 -2.87955,-0.0661 -3.65086,0.84073 -1.94091,2.28177 -9.35991,11.88874 -10.13242,13.12056 -0.41647,0.66408 -2.37169,3.63806 -4.34492,6.60886 -4.73551,7.12955 -9.80221,16.75413 -9.37037,17.79977 0.18938,0.45865 0.37127,0.23759 0.40413,-0.49123 0.0326,-0.72882 0.57095,-1.32513 1.19565,-1.32513 0.62471,0 1.13848,-0.25556 1.14174,-0.56791 0.008,-0.68004 3.67387,-2.46096 5.06692,-2.46096 0.54173,0 0.98493,0.79116 0.98493,1.75816 0,0.96698 0.55057,3.3741 1.22351,5.34913 1.21572,3.56774 1.23283,3.58107 2.65027,2.0596 1.56289,-1.67751 1.85246,-3.51387 0.66953,-4.24497 -0.93796,-0.5797 -1.01438,-10.22246 -0.0811,-10.22246 1.2114,0 1.79528,2.52003 2.36859,10.22246 0.30992,4.16471 0.95901,8.57022 1.44242,9.79004 l 0.87882,2.21784 1.57207,-1.57199 c 1.11001,-1.11004 1.55911,-2.50162 1.5283,-4.73528 -0.0424,-3.08428 0.0545,-3.20895 3.88505,-4.99246 4.95185,-2.30554 6.37731,-2.37695 4.36666,-0.21873 -1.87593,2.01352 -2.7905,7.45946 -1.62006,9.64644 0.73541,1.37412 1.54434,1.60104 5.70739,1.60104 2.66783,0 5.06125,-0.34075 5.31862,-0.75723 1.11864,-1.81007 1.89305,-0.46204 1.89305,3.29552 0,4.80493 -1.76258,7.86695 -6.69321,11.62764 -4.06839,3.10309 -7.28445,3.24841 -11.59999,0.52412 -2.89939,-1.83029 -7.14474,-2.56474 -8.82441,-1.52666 -0.39345,0.24317 -1.28394,1.64024 -1.97876,3.1046 -1.47589,3.11009 -2.89091,3.35064 -5.20399,0.88463 -0.91715,-0.97783 -2.47057,-2.20188 -3.45201,-2.72012 -1.68414,-0.88927 -1.75531,-1.21506 -1.26494,-5.79366 0.48068,-4.48876 0.41594,-4.81479 -0.8658,-4.36149 -2.00337,0.7085 -5.74927,3.59088 -8.61496,6.62913 -2.61679,2.77429 -3.70757,5.47696 -5.22496,12.94593 -0.50772,2.49882 -1.37821,6.24705 -1.93447,8.32941 -0.55633,2.08236 -1.29015,6.00096 -1.63075,8.70802 -0.81721,6.49414 -0.79647,39.16635 0.0288,45.43315 0.611,4.64021 2.09576,8.35147 3.32502,8.31151 0.30274,-0.01 1.55283,-1.37284 2.77802,-3.02888 2.49813,-3.37665 3.39817,-3.64729 5.26593,-1.58346 0.71056,0.78514 2.2478,1.61871 3.41619,1.85238 2.48989,0.49797 3.52924,2.69944 4.15493,8.80033 0.29018,2.82924 1.18846,5.33263 2.85291,7.9508 3.56892,5.61368 7.42195,13.45067 7.43657,15.12589 0.008,0.80337 0.39352,2.67749 0.85899,4.1647 1.0149,3.24276 6.73849,15.08665 7.85774,16.26026 0.43585,0.45701 2.14845,2.53172 3.80571,4.61044 1.65732,2.07873 4.09299,4.97509 5.41267,6.43637 1.31968,1.46127 3.18449,3.6791 4.14411,4.92851 0.95955,1.24941 3.15715,3.80503 4.88353,5.67915 1.72631,1.87411 4.24134,4.68529 5.58888,6.24706 2.682,3.10838 4.73036,3.54837 7.49715,1.6104 z m -21.8628,-187.92187 c 0,-1.26142 5.26448,-10.24491 7.09484,-12.10682 2.00868,-2.04324 6.0682,-2.64437 6.21063,-0.91965 0.25291,3.0629 0.2854,3.10305 1.83892,2.27165 0.83293,-0.44577 1.51442,-1.25682 1.51442,-1.80233 0,-1.19048 2.41205,-3.4982 3.65639,-3.4982 0.52703,0 0.88693,1.2055 0.88693,2.97087 0,2.22913 0.66166,3.83775 2.65027,6.44291 1.45765,1.90963 2.65026,3.77066 2.65026,4.13562 0,0.36497 -0.8879,1.24535 -1.97308,1.95639 -1.51027,0.98956 -2.79792,1.17127 -5.48984,0.7747 -5.26827,-0.77613 -16.20593,-0.84144 -17.71461,-0.10578 -0.81431,0.39704 -1.32513,0.35103 -1.32513,-0.11934 z m 57.99004,-72.74523 c -0.22293,-0.36062 -1.35043,-0.47607 -2.50571,-0.25656 -1.97468,0.37523 -2.03239,0.31266 -0.96456,-1.0451 0.62471,-0.79432 1.47658,-1.79585 1.89306,-2.22563 0.79015,-0.81538 10.22344,-1.21172 10.22109,-0.42943 0,0.62539 -6.41258,4.61238 -7.41628,4.61238 -0.45228,0 -1.00475,-0.29505 -1.2276,-0.65566 z m 57.67518,-1.15564 c -1.86094,-1.41265 -1.7282,-1.6053 1.89305,-2.74721 1.77,-0.55814 3.64412,-1.33591 4.16471,-1.728349 1.74819,-1.317883 0.9678,0.246079 -1.44682,2.899559 -2.68246,2.94784 -2.76612,2.97643 -4.61094,1.576 z m 12.52418,-5.003669 c -0.44071,-1.685212 -2.45756,-2.002222 -3.85402,-0.605776 -0.70679,0.706735 -0.90866,0.464256 -0.90866,-1.091144 0,-1.099893 0.34075,-2.210387 0.75722,-2.467785 0.41646,-0.257398 0.75722,-1.129378 0.75722,-1.937737 0,-0.808369 0.3777,-1.469748 0.83929,-1.469748 0.51514,0 0.65743,0.724634 0.36847,1.876065 -0.38732,1.543017 -0.14569,1.957685 1.3608,2.335791 1.0074,0.252846 2.03442,1.027168 2.28226,1.720722 0.24791,0.693555 0.64923,1.68694 0.89192,2.20753 0.25927,0.556332 -0.0822,0.946521 -0.82862,0.946521 -0.69839,0 -1.44803,-0.681503 -1.66588,-1.514439 z M 880.75387,341.09996 c -0.26987,-2.03429 -0.1519,-4.58975 0.26215,-5.67881 1.22572,-3.22389 0.0598,-6.3731 -4.00675,-10.8226 -4.55255,-4.98121 -6.26803,-5.82443 -8.70446,-4.27849 -2.4992,1.58577 -3.78064,0.78208 -4.05528,-2.54342 -0.17,-2.05808 -0.62683,-2.94935 -1.60691,-3.13519 -2.1729,-0.412 -3.85264,0.48281 -2.96806,1.58114 0.41526,0.51566 0.99665,2.13019 1.29189,3.58784 0.31493,1.55459 1.60326,3.65171 3.11634,5.07263 2.83518,2.66249 3.20152,4.34316 1.38449,6.35097 -1.10372,1.21963 -0.9737,1.52599 1.70375,4.01454 2.92105,2.71494 5.99657,3.49909 7.56644,1.92922 1.04783,-1.04784 3.28307,1.09131 3.28307,3.14192 0,1.71363 1.57516,4.47895 2.55137,4.47895 0.36991,0 0.45184,-1.66441 0.18196,-3.6987 z m -189.63394,-9.55264 c -0.13532,-6.24706 -0.57777,-12.43559 -0.98317,-13.75228 -1.1612,-3.77166 -2.69608,-3.72749 -4.45253,0.12814 -0.84196,1.84825 -2.25909,4.03889 -3.14913,4.86808 -1.55358,1.44735 -1.57122,1.6374 -0.44213,4.75324 0.64689,1.78508 1.35481,4.50385 1.57312,6.04171 0.21839,1.53786 1.09433,4.37252 1.94658,6.29923 1.36723,3.09079 1.79703,3.4747 3.65146,3.26165 l 2.10189,-0.24148 z m 197.54878,3.7861 c 0,-0.41647 -0.86248,-0.86504 -1.9166,-0.99682 -1.36595,-0.17077 -1.9166,0.11562 -1.9166,0.99682 0,0.88119 0.55065,1.16758 1.9166,0.99682 1.05412,-0.13178 1.9166,-0.58035 1.9166,-0.99682 z m -51.538,-9.46524 c 0,-0.41648 -0.85187,-0.75722 -1.89305,-0.75722 -1.04118,0 -1.89305,0.34074 -1.89305,0.75722 0,0.41647 0.85187,0.75722 1.89305,0.75722 1.04118,0 1.89305,-0.34075 1.89305,-0.75722 z m -14.38716,-2.97732 c 0,-1.80501 -3.60316,-4.45401 -7.81632,-5.74656 -1.73986,-0.53375 -4.16123,-1.49778 -5.38073,-2.14229 -2.35411,-1.24409 -3.46178,-1.04776 -3.46178,0.61361 0,1.14703 4.71081,4.15862 6.66891,4.26339 0.70505,0.0377 2.98563,1.02911 5.06799,2.20308 4.61608,2.60239 4.92193,2.65264 4.92193,0.80877 z m 20.10159,-11.72065 c 1.23555,-0.90342 1.21503,-0.99705 -0.30508,-1.39457 -1.05489,-0.27586 -1.47674,-0.82439 -1.19619,-1.55545 0.23838,-0.62111 0.0667,-1.35604 -0.38186,-1.63316 -0.44843,-0.2771 -1.0823,0.21799 -1.40865,1.10024 -0.32637,0.88224 -1.41911,2.01574 -2.42834,2.5189 -1.19481,0.59568 -2.07356,1.92369 -2.51889,3.80674 -0.81862,3.46158 0.35665,5.40459 1.72382,2.84994 1.15665,-2.16118 3.07242,-2.05448 3.07242,0.1711 0,3.51731 1.14748,2.81734 1.6271,-0.99248 0.30168,-2.39661 1.00241,-4.27655 1.81567,-4.87126 z m 12.83744,7.883 c 0.26093,-0.42225 -0.30547,-0.75209 -1.28047,-0.74562 -1.4066,0.009 -1.5264,0.15507 -0.61259,0.74562 1.40897,0.91056 1.33029,0.91056 1.89306,0 z m -47.78235,-9.18997 c 2.19147,-3.09618 2.19245,-3.10272 0.81363,-5.47367 -0.75934,-1.30559 -3.45042,-4.86319 -5.98022,-7.90578 -2.52986,-3.04261 -5.55472,-6.79084 -6.72183,-8.32941 -2.22327,-2.9307 -6.16944,-5.35936 -7.13664,-4.39218 -0.31122,0.31123 0.19393,1.81962 1.12251,3.35197 2.25363,3.71896 5.76546,10.98646 7.58544,15.69761 2.1134,5.47078 5.27062,10.18639 6.80732,10.16751 0.7236,-0.009 2.30301,-1.41111 3.50979,-3.11605 z m 22.59488,1.04986 c 0.69475,-1.14529 2.27334,-3.14105 3.50798,-4.43501 1.23457,-1.29395 2.67162,-3.84956 3.19342,-5.67913 0.5218,-1.82958 1.60136,-4.06087 2.39902,-4.95842 1.37776,-1.55026 1.38586,-1.73023 0.16288,-3.59679 -1.53314,-2.33983 -2.38395,-2.41805 -4.89936,-0.45043 -1.04117,0.81442 -2.31898,1.48833 -2.83957,1.49759 -0.52059,0.009 -0.94652,0.3576 -0.94652,0.77407 0,0.41646 -0.66144,0.75722 -1.46977,0.75722 -0.80833,0 -1.68034,0.34075 -1.93772,0.75721 -0.25739,0.41647 -1.4285,0.75722 -2.60249,0.75722 -1.17399,0 -3.36274,0.5132 -4.864,1.14045 -2.88227,1.20429 -3.17616,1.84428 -3.76035,8.1892 -0.32219,3.49901 -0.23761,3.69181 2.03784,4.64544 7.77239,3.25734 10.3299,3.38531 12.01864,0.60138 z m 26.40485,-1.47756 c 0.51165,-0.95609 0.67211,-1.99442 0.35649,-2.3074 -0.65983,-0.6544 -4.21475,3.49582 -4.22044,4.9272 -0.008,1.40542 2.68654,-0.41986 3.86395,-2.6198 z m -8.0987,-1.44135 c 1.80462,-0.69249 0.64774,-1.81371 -1.87139,-1.81371 -2.25128,0 -3.02312,1.067 -1.28045,1.77016 1.36345,0.55019 1.81535,0.55643 3.15184,0.0435 z m -54.6806,-7.26568 c -0.70679,-0.70675 -0.90866,-0.50482 -0.90866,0.90866 0,1.41347 0.20187,1.6154 0.90866,0.90866 0.70672,-0.70674 0.70672,-1.11059 0,-1.81732 z m 62.00988,-5.90631 c 1.32529,0 2.6118,-3.26811 1.80219,-4.57814 -1.32119,-2.13768 -4.90043,0.84945 -4.90043,4.08972 0,1.79336 0.20188,2.10381 0.90867,1.39707 0.49976,-0.49975 1.48505,-0.90865 2.18957,-0.90865 z m -4.81781,-4.24359 c -0.25153,-0.25162 -0.90464,-0.27852 -1.45128,-0.0597 -0.6041,0.24173 -0.42465,0.42116 0.45743,0.45749 0.79827,0.0329 1.24548,-0.14609 0.99385,-0.39771 z m 3.23401,-5.44882 c 0,-1.40448 -1.35299,-3.18032 -2.4231,-3.18032 -0.73079,0 -0.81393,3.32558 -0.10101,4.0385 0.99717,0.99712 2.5241,0.47796 2.5241,-0.85818 z m 3.62663,-3.48255 c -0.53702,-0.58271 -1.0957,-0.94613 -1.24153,-0.8076 -0.44911,0.42665 0.68922,1.86705 1.47551,1.86705 0.40829,0 0.30304,-0.47676 -0.23398,-1.05945 z m -101.30789,-6.59503 c 0,-2.52241 -1.9063,-6.73269 -3.04834,-6.73269 -0.4058,0 -0.73776,1.75137 -0.73776,3.89193 0,2.82324 0.36157,4.15631 1.31673,4.85477 1.76235,1.28865 2.46937,0.71202 2.46937,-2.01401 z m 94.25031,2.39193 c 0.24443,-0.39557 -0.27237,-1.10286 -1.14847,-1.57175 -1.4619,-0.78236 -1.52376,-0.72317 -0.75177,0.71922 0.93993,1.75628 1.25448,1.8974 1.90024,0.85253 z m 5.70261,0.0162 c 0,-0.38672 -0.5355,-1.23859 -1.18997,-1.89304 -0.65439,-0.65446 -1.50626,-1.18992 -1.89305,-1.18992 -1.23358,0 -0.75562,-3.09996 0.81894,-5.31124 1.40547,-1.97371 1.42774,-2.2319 0.29077,-3.36888 -1.50157,-1.50155 -2.86986,-1.16042 -3.17699,0.79207 -0.12555,0.79843 -0.61183,2.22347 -1.08055,3.16677 -0.83688,1.68426 -0.0462,3.36322 3.54682,7.53205 0.94099,1.09183 2.68403,1.26858 2.68403,0.27219 z m 1.21882,-27.01721 c 1.40548,-3.36386 1.08624,-3.7869 -1.38873,-1.84007 -2.556,2.01055 -3.24795,4.57219 -1.23503,4.57219 0.98665,0 1.8639,-0.91343 2.62376,-2.73212 z m 24.64196,-18.28072 c 0.0636,-0.72882 0.15553,-1.83625 0.20475,-2.46096 0.13501,-1.71487 5.51316,-1.34807 6.86003,0.46788 0.91805,1.23776 1.27197,1.29377 2.69161,0.42601 0.90972,-0.5561 3.18433,-0.90387 5.12948,-0.78425 l 3.49479,0.21491 0.99998,-4.51628 c 0.54997,-2.48396 1.34725,-5.6125 1.77167,-6.9523 0.54368,-1.71637 0.52104,-2.90438 -0.0768,-4.02142 -1.14128,-2.13249 -2.49261,-1.52691 -3.08794,1.38385 -0.61577,3.01096 -2.68123,6.20941 -4.00971,6.20941 -0.55898,0 -1.91091,0.70372 -3.00433,1.56383 -1.12062,0.88145 -2.89986,1.49244 -4.07756,1.40024 -4.44419,-0.34792 -6.14998,0.0583 -6.6327,1.57925 -0.26435,0.83294 -1.13924,1.51444 -1.94409,1.51444 -1.56162,0 -1.96801,1.11322 -0.69384,1.90068 0.42329,0.26158 0.57352,0.79282 0.33394,1.18051 -0.52552,0.85021 0.22277,2.21934 1.21284,2.21934 0.39186,0 0.7644,-0.59631 0.82786,-1.32514 z m 4.22286,-1.40401 c -0.25155,-0.25161 -0.90465,-0.27852 -1.45129,-0.0597 -0.60411,0.24173 -0.42465,0.42116 0.45744,0.45749 0.79826,0.0329 1.24547,-0.14608 0.99385,-0.3977 z m 21.93853,-22.08662 1.66709,-1.30829 -2.62384,-2.83957 c -2.82056,-3.05251 -4.87505,-3.67479 -4.87505,-1.47658 0,0.74965 -0.41896,1.78194 -0.931,2.29397 -0.73648,0.73648 -0.45963,1.3161 1.32514,2.77448 2.69592,2.20285 3.26497,2.26105 5.43766,0.55599 z M 642.7992,196.76239 c 0.48727,-1.2698 0.3624,-1.33245 -1.3477,-0.6762 -1.47937,0.56768 -1.57759,1.81203 -0.14296,1.81203 0.5801,0 1.25093,-0.51112 1.49066,-1.13583 z m 13.69477,-1.2005 c -0.24383,-0.39449 -0.76608,-0.51778 -1.16053,-0.27397 -0.39451,0.24381 -0.51777,0.76605 -0.27395,1.16054 0.24375,0.39448 0.766,0.51777 1.16051,0.27395 0.39451,-0.24379 0.51779,-0.76603 0.27397,-1.16052 z m -26.8413,-3.39834 c 0,-0.70515 -0.51522,-1.09143 -1.26244,-0.94652 -1.89963,0.36843 -2.1605,2.13787 -0.31516,2.13787 0.93018,0 1.5776,-0.48892 1.5776,-1.19135 z m 28.39571,-58.08536 c 4.76117,-3.88362 24.04693,-23.31803 23.59154,-23.77343 -1.36716,-1.36714 -20.13332,14.50211 -26.80972,22.67116 -3.42248,4.18764 -1.40964,4.87707 3.21818,1.10227 z m 81.40106,-41.433432 c 0,-0.416463 -0.34076,-0.75722 -0.75722,-0.75722 -0.41647,0 -0.75722,0.340757 -0.75722,0.75722 0,0.416474 0.34075,0.75722 0.75722,0.75722 0.41646,0 0.75722,-0.340746 0.75722,-0.75722 z m 16.65882,-5.632404 c 0,-0.990538 2.70653,-3.454237 3.79473,-3.454237 0.4117,0 0.74858,-0.340746 0.74858,-0.757216 0,-0.416463 -0.51112,-0.757209 -1.13583,-0.757209 -0.6247,0 -1.13582,0.340746 -1.13582,0.757209 0,0.41647 -0.48356,0.757216 -1.0745,0.757216 -3.17396,0 -6.90508,3.883549 -5.28637,5.502293 0.66272,0.662663 4.08921,-1.053496 4.08921,-2.048056 z"
       id="path3" /></g></svg>
