<?xml version="1.0" encoding="UTF-8" standalone="no"?>
<!-- Created with Inkscape (http://www.inkscape.org/) -->

<svg
   width="512"
   height="512"
   viewBox="0 0 512 512"
   version="1.1"
   id="svg1"
   xml:space="preserve"
   inkscape:version="1.3 (0e150ed6c4, 2023-07-21)"
   sodipodi:docname="icons.svg"
   xmlns:inkscape="http://www.inkscape.org/namespaces/inkscape"
   xmlns:sodipodi="http://sodipodi.sourceforge.net/DTD/sodipodi-0.dtd"
   xmlns="http://www.w3.org/2000/svg"
   xmlns:svg="http://www.w3.org/2000/svg"><sodipodi:namedview
     id="namedview1"
     pagecolor="#b3b3b3"
     bordercolor="#000000"
     borderopacity="0.25"
     inkscape:showpageshadow="2"
     inkscape:pageopacity="0.0"
     inkscape:pagecheckerboard="true"
     inkscape:deskcolor="#d1d1d1"
     inkscape:document-units="px"
     inkscape:zoom="0.27828519"
     inkscape:cx="4040.8187"
     inkscape:cy="781.57231"
     inkscape:window-width="1920"
     inkscape:window-height="1009"
     inkscape:window-x="-8"
     inkscape:window-y="-8"
     inkscape:window-maximized="1"
     inkscape:current-layer="layer1"
     showgrid="true"
     borderlayer="true"
     showborder="true"><inkscape:grid
       id="grid6"
       units="px"
       originx="-4176"
       originy="0"
       spacingx="1"
       spacingy="1"
       empcolor="#0099e5"
       empopacity="0.30196078"
       color="#0099e5"
       opacity="0.14901961"
       empspacing="5"
       dotted="false"
       gridanglex="30"
       gridanglez="30"
       visible="true"
       enabled="false" /><inkscape:page
       x="0"
       y="0"
       width="512"
       height="512"
       id="page9"
       inkscape:export-filename="..\public\assets\tts-button.svg"
       inkscape:export-xdpi="300"
       inkscape:export-ydpi="300"
       margin="0"
       bleed="0" /></sodipodi:namedview><defs
     id="defs1" /><g
     inkscape:label="Layer 1"
     inkscape:groupmode="layer"
     id="layer1"
     transform="translate(-4176)"><circle
       style="fill:#f9f9f9;stroke-width:6.4252;stroke-linecap:round;stroke-linejoin:round;stroke-dasharray:none;stroke-dashoffset:5.1584"
       id="path2-7-1-9"
       cx="4432"
       cy="256"
       r="256" /><path
       style="fill:#000000;stroke-width:0.650969"
       d="m 4392.2699,359.55016 c -37.0863,-62.96792 -44.0912,-75.46331 -51.303,-91.51541 -7.5192,-16.73608 -14.1355,-35.6401 -16.7266,-47.7909 -2.5079,-11.76058 -1.841,-27.50766 1.7824,-42.08503 10.9684,-44.12814 48.2503,-77.57592 93.6936,-84.058198 7.5292,-1.074001 24.3684,-1.074001 31.8976,0 45.4817,6.487748 82.7159,39.892768 93.6936,84.058198 3.6218,14.57133 4.2901,30.32544 1.7847,42.07337 -3.7535,17.60026 -14.712,42.94982 -28.284,65.42798 -4.5549,7.54382 -86.9085,139.95768 -87.2273,140.25022 -0.081,0.0743 -17.7709,-29.78786 -39.311,-66.36023 z m 53.463,-93.19932 c 13.7486,-2.39755 25.1254,-8.23268 34.8751,-17.88732 23.0672,-22.84251 25.7645,-58.52385 6.4043,-84.71985 -7.0864,-9.5884 -18.0142,-17.8678 -28.8424,-21.85228 -10.9581,-4.03229 -24.7866,-5.17496 -35.5242,-2.9354 -12.9406,2.69902 -24.3434,8.83824 -33.3979,17.98131 -8.1076,8.18696 -12.9799,16.47765 -16.4881,28.0567 -1.6395,5.41134 -1.7759,6.72864 -1.7851,17.25069 -0.01,9.679 0.2004,12.14803 1.3884,16.42008 5.0207,18.05562 16.6946,32.67187 32.8737,41.15921 12.6849,6.6544 26.7581,8.92259 40.4962,6.52686 z"
       id="path10" /></g></svg>
