<?xml version="1.0" encoding="UTF-8" standalone="no"?>
<!-- Created with Inkscape (http://www.inkscape.org/) -->

<svg
   width="1264.1191"
   height="512"
   viewBox="0 0 1264.1191 512"
   version="1.1"
   id="svg1"
   xml:space="preserve"
   inkscape:version="1.3 (0e150ed6c4, 2023-07-21)"
   sodipodi:docname="icons.svg"
   xmlns:inkscape="http://www.inkscape.org/namespaces/inkscape"
   xmlns:sodipodi="http://sodipodi.sourceforge.net/DTD/sodipodi-0.dtd"
   xmlns="http://www.w3.org/2000/svg"
   xmlns:svg="http://www.w3.org/2000/svg"><sodipodi:namedview
     id="namedview1"
     pagecolor="#b3b3b3"
     bordercolor="#000000"
     borderopacity="0.25"
     inkscape:showpageshadow="2"
     inkscape:pageopacity="0.0"
     inkscape:pagecheckerboard="true"
     inkscape:deskcolor="#d1d1d1"
     inkscape:document-units="px"
     inkscape:zoom="0.39355469"
     inkscape:cx="7063.8213"
     inkscape:cy="372.24814"
     inkscape:window-width="1920"
     inkscape:window-height="1009"
     inkscape:window-x="905"
     inkscape:window-y="2152"
     inkscape:window-maximized="1"
     inkscape:current-layer="layer1"
     showgrid="true"
     borderlayer="true"
     showborder="true"><inkscape:grid
       id="grid6"
       units="px"
       originx="-6264"
       originy="0"
       spacingx="1"
       spacingy="1"
       empcolor="#0099e5"
       empopacity="0.30196078"
       color="#0099e5"
       opacity="0.14901961"
       empspacing="5"
       dotted="false"
       gridanglex="30"
       gridanglez="30"
       visible="true"
       enabled="false" /><inkscape:page
       x="0"
       y="0"
       width="1264.1191"
       height="512"
       id="page13"
       margin="0"
       bleed="0"
       inkscape:export-filename="..\public\assets\corridor-key.svg"
       inkscape:export-xdpi="300"
       inkscape:export-ydpi="300" /></sodipodi:namedview><defs
     id="defs1"><inkscape:path-effect
       effect="bspline"
       id="path-effect23"
       is_visible="true"
       lpeversion="1.3"
       weight="33.333333"
       steps="2"
       helper_size="0"
       apply_no_weight="true"
       apply_with_weight="true"
       only_selected="false"
       uniform="false" /></defs><g
     inkscape:label="Layer 1"
     inkscape:groupmode="layer"
     id="layer1"
     transform="translate(-6264)"><g
       id="text23"
       style="font-size:192px;line-height:1.1;font-family:WWF;-inkscape-font-specification:WWF;letter-spacing:-0.19px;fill:#f9f9f9;stroke:#ffffff;stroke-width:0.982677;stroke-linejoin:round"
       aria-label="SATELLITE&#10;TRACKS"><path
         d="m 6360.1638,226.09898 c 22.08,0 34.368,-14.976 34.368,-39.744 0,-24 -11.136,-33.792 -24.576,-43.776 -11.328,-8.448 -17.664,-14.4 -17.664,-25.92 0,-12.096 7.104,-16.32 13.824,-16.32 6.528,0 10.56,3.84 12.864,6.72 l 12.672,-12.095998 c -4.992,-7.872 -14.016,-12.288 -25.536,-12.288 -17.472,0 -33.024,10.368 -33.024,35.519998 0,20.928 10.944,30.144 24.192,40.128 10.56,7.872 17.856,14.4 17.856,29.76 0,15.168 -7.68,20.16 -15.168,20.16 -7.488,0 -12.288,-4.032 -16.128,-8.64 l -12.864,12.672 c 4.032,7.104 13.44,13.824 29.184,13.824 z m 60.6738,-2.496 4.992,-33.024 h 23.424 l 5.184,33.024 h 20.544 l -25.728,-138.239998 h -24 l -24,138.239998 z m 16.128,-109.44 9.216,58.56 h -17.856 z m 78.9137,109.44 v -120 h 26.112 V 85.362982 h -71.232 v 18.239998 h 26.112 v 120 z m 91.97,0 v -18.432 h -36.096 v -43.968 h 33.216 v -18.048 h -33.216 v -39.552 h 34.752 V 85.362982 h -53.76 V 223.60298 Z m 63.17,0 v -18.432 h -32.832 V 85.362982 h -19.008 V 223.60298 Z m 63.17,0 v -18.432 h -32.832 V 85.362982 h -19.008 V 223.60298 Z m 30.3379,0 V 85.362982 h -19.008 V 223.60298 Z m 55.8741,0 v -120 h 26.112 V 85.362982 h -71.232 v 18.239998 h 26.112 v 120 z m 91.9699,0 v -18.432 h -36.096 v -43.968 h 33.216 v -18.048 h -33.216 v -39.552 h 34.752 V 85.362982 h -53.76 V 223.60298 Z"
         id="path26" /><path
         d="m 6375.5238,434.80299 v -120 h 26.112 v -18.24 h -71.232 v 18.24 h 26.112 v 120 z m 55.8739,0 v -57.408 h 5.568 c 9.408,0 13.056,3.264 14.784,19.2 l 4.224,38.208 h 20.16 l -6.144,-41.472 c -2.496,-17.088 -4.416,-23.424 -14.208,-25.152 11.904,-2.112 17.664,-10.176 17.664,-25.344 v -17.088 c 0,-16.128 -7.872,-29.184 -32.448,-29.184 h -28.608 v 138.24 z m 0,-120.192 h 8.64 c 12.48,0 14.016,6.144 14.016,16.32 v 9.024 c 0,16.32 -2.688,19.776 -17.088,19.776 h -5.568 z m 70.466,120.192 4.992,-33.024 h 23.424 l 5.184,33.024 h 20.544 l -25.728,-138.24 h -24 l -24,138.24 z m 16.128,-109.44 9.216,58.56 h -17.856 z m 77.762,111.936 c 14.784,0 24,-7.488 28.032,-14.4 l -13.248,-12.096 c -3.648,4.8 -7.488,8.448 -14.784,8.448 -9.792,0 -12.288,-7.296 -12.288,-16.32 v -74.688 c 0,-9.024 2.496,-16.32 12.288,-16.32 7.104,0 11.136,4.224 14.208,8.256 l 13.632,-12.48 c -4.224,-7.488 -13.056,-13.824 -27.84,-13.824 -22.848,0 -32.448,13.824 -32.448,32.64 v 78.144 c 0,18.816 9.6,32.64 32.448,32.64 z m 55.4901,-2.496 v -64.32 l 24.192,64.32 h 22.08 l -27.84,-68.736 25.536,-69.504 h -19.584 l -24.384,66.816 v -66.816 h -19.008 v 138.24 z m 77.5698,2.496 c 22.08,0 34.368,-14.976 34.368,-39.744 0,-24 -11.136,-33.792 -24.576,-43.776 -11.328,-8.448 -17.664,-14.4 -17.664,-25.92 0,-12.096 7.104,-16.32 13.824,-16.32 6.528,0 10.56,3.84 12.864,6.72 l 12.672,-12.096 c -4.992,-7.872 -14.016,-12.288 -25.536,-12.288 -17.472,0 -33.024,10.368 -33.024,35.52 0,20.928 10.944,30.144 24.192,40.128 10.56,7.872 17.856,14.4 17.856,29.76 0,15.168 -7.68,20.16 -15.168,20.16 -7.488,0 -12.288,-4.032 -16.128,-8.64 l -12.864,12.672 c 4.032,7.104 13.44,13.824 29.184,13.824 z"
         id="path27" /></g><path
       style="opacity:1;fill:none;fill-opacity:1;stroke:#83ddec;stroke-width:26.4567;stroke-linecap:butt;stroke-linejoin:round;stroke-dasharray:none;stroke-opacity:1;paint-order:normal"
       d="m 7107.8163,276.69457 c 219.1996,0 438.3991,0 657.5987,0"
       id="path23"
       inkscape:path-effect="#path-effect23"
       inkscape:original-d="m 7107.8163,276.69457 c 219.1996,0 438.3991,0 657.5987,0"
       transform="matrix(0.69398904,0,0,1,2066.0336,-7.4662203)" /></g></svg>
