<?xml version="1.0" encoding="UTF-8" standalone="no"?>
<!-- Created with Inkscape (http://www.inkscape.org/) -->

<svg
   width="512"
   height="512"
   viewBox="0 0 512 512"
   version="1.1"
   id="svg1"
   xml:space="preserve"
   inkscape:version="1.3 (0e150ed6c4, 2023-07-21)"
   sodipodi:docname="marker-icons.svg"
   xmlns:inkscape="http://www.inkscape.org/namespaces/inkscape"
   xmlns:sodipodi="http://sodipodi.sourceforge.net/DTD/sodipodi-0.dtd"
   xmlns="http://www.w3.org/2000/svg"
   xmlns:svg="http://www.w3.org/2000/svg"><sodipodi:namedview
     id="namedview1"
     pagecolor="#000000"
     bordercolor="#000000"
     borderopacity="0.25"
     inkscape:showpageshadow="2"
     inkscape:pageopacity="0.0"
     inkscape:pagecheckerboard="true"
     inkscape:deskcolor="#d1d1d1"
     inkscape:document-units="px"
     inkscape:zoom="0.55657038"
     inkscape:cx="837.27058"
     inkscape:cy="439.29754"
     inkscape:window-width="1920"
     inkscape:window-height="1009"
     inkscape:window-x="905"
     inkscape:window-y="2152"
     inkscape:window-maximized="1"
     inkscape:current-layer="layer1"
     showgrid="true"
     borderlayer="true"
     showborder="true"><inkscape:page
       x="0"
       y="0"
       width="512"
       height="512"
       id="page3"
       inkscape:export-filename="sperm.png"
       inkscape:export-xdpi="300"
       inkscape:export-ydpi="300"
       margin="0"
       bleed="0" /><inkscape:grid
       id="grid6"
       units="px"
       originx="-522"
       originy="0"
       spacingx="1"
       spacingy="1"
       empcolor="#0099e5"
       empopacity="0.30196078"
       color="#0099e5"
       opacity="0.14901961"
       empspacing="5"
       dotted="false"
       gridanglex="30"
       gridanglez="30"
       visible="true"
       enabled="false" /></sodipodi:namedview><defs
     id="defs1" /><g
     inkscape:label="Layer 1"
     inkscape:groupmode="layer"
     id="layer1"
     transform="translate(-522)"><circle
       style="fill:#f9f9f9;stroke-width:6.441;stroke-linecap:round;stroke-linejoin:round;stroke-dashoffset:5.1584"
       id="path2-7"
       cx="778"
       cy="256"
       r="256" /><path
       style="fill:#000000;fill-opacity:1;stroke-width:0.470084"
       d="m 596.82993,417.26577 c -0.83616,-2.17903 0.69804,-9.44357 2.79362,-13.22779 4.5888,-8.28658 13.63868,-16.23673 24.89104,-21.86626 4.60166,-2.3022 9.55696,-3.97212 17.02237,-5.73651 9.67428,-2.28642 19.4333,-7.92567 21.82338,-12.61061 0.79945,-1.56703 1.04357,-3.28608 1.37812,-9.70373 0.92483,-17.74128 2.71325,-28.3114 7.32455,-43.29069 7.40214,-24.04502 20.10054,-46.12429 46.18377,-80.30179 11.81448,-15.48081 24.18918,-26.63868 44.03428,-39.70432 10.9011,-7.1771 18.90207,-11.62649 39.45521,-21.94132 10.08331,-5.06042 21.5656,-11.20174 25.51624,-13.64739 8.88405,-5.49971 18.7083,-12.83666 26.42805,-19.737 3.23183,-2.8888 7.77988,-6.67863 10.1068,-8.42186 14.46788,-10.83876 33.70071,-19.71755 54.68686,-25.24607 7.5953,-2.000874 7.92703,-2.123454 11.01819,-4.071416 6.56237,-4.135399 12.31427,-4.844582 16.7947,-2.070711 0.90491,0.560232 3.08169,1.264308 4.83728,1.564589 3.62773,0.620506 4.91047,1.323403 6.70233,3.672668 4.44163,5.82327 -0.66389,21.52834 -13.33986,41.03441 -4.54467,6.99342 -6.28055,10.24618 -9.71716,18.20829 -7.54727,17.48601 -16.34642,31.46031 -29.59963,47.00841 -7.34213,8.61349 -19.45119,20.35478 -26.66444,25.85462 l -3.08268,2.35042 -1.0491,4.70083 c -1.3995,6.27092 -5.19785,18.8347 -7.34055,24.28021 -8.81569,22.40458 -21.95994,39.29847 -38.01403,48.85826 -4.357,2.59447 -11.13209,5.60061 -12.62238,5.60061 -0.86208,0 -2.20339,-1.52277 -2.20339,-2.50147 0,-0.43018 1.57375,-3.79813 3.49722,-7.48434 6.8199,-13.06981 14.93333,-31.21667 20.71601,-46.33422 1.21728,-3.18231 2.08962,-5.9096 1.93855,-6.06067 -0.47223,-0.47224 -8.4631,2.58458 -43.30986,16.56772 -30.01646,12.04485 -29.67365,11.89211 -34.41463,15.33269 -2.27275,1.64935 -5.01009,3.56537 -6.08301,4.25782 -3.59288,2.31883 -12.57048,6.39874 -17.86187,8.11744 -6.01398,1.9534 -8.44383,3.31771 -15.95019,8.95572 -16.04929,12.05459 -29.91023,28.18317 -39.77534,46.28257 -4.317,7.92036 -4.26678,8.94792 0.59872,12.252 4.31264,2.92866 9.19022,5.06327 15.07921,6.59921 7.18272,1.87336 13.76157,4.04422 16.6125,5.48172 11.41314,5.75474 18.82913,16.53179 21.61817,31.41592 0.73066,3.8993 0.70411,5.3662 -0.0971,5.3648 -0.20202,-3.7e-4 -2.16538,-1.49852 -4.36302,-3.32927 -5.08012,-4.23197 -9.1629,-6.65426 -13.68984,-8.12213 -4.30973,-1.39744 -12.33519,-2.64977 -16.99738,-2.65237 -11.42529,-0.007 -21.64494,-3.92104 -28.40121,-10.87918 -1.34384,-1.38398 -2.85477,-3.0402 -3.35765,-3.68051 l -0.91434,-1.16418 -4.3131,4.55739 c -6.31919,6.6771 -11.61524,9.87834 -18.90943,11.42993 -1.89098,0.40225 -7.9862,0.92941 -13.54494,1.17148 -5.55876,0.24205 -11.06165,0.63754 -12.22871,0.87884 -5.99385,1.23936 -12.45829,4.74274 -17.63583,9.55775 -3.38298,3.14608 -5.02673,3.8622 -5.57652,2.42949 z m 342.91309,-7.05199 c 0.0225,-0.54762 0.13397,-0.65901 0.28402,-0.284 0.13581,0.33933 0.11913,0.74479 -0.0371,0.90099 -0.1562,0.1562 -0.26734,-0.12144 -0.24693,-0.61699 z m 18.67812,-3.80758 c 0.33934,-0.13579 0.74479,-0.11909 0.90095,0.0372 0.15622,0.15621 -0.12142,0.26732 -0.61692,0.24691 -0.54765,-0.0225 -0.65904,-0.13394 -0.28403,-0.28402 z"
       id="path4" /></g></svg>
