<?xml version="1.0" encoding="UTF-8" standalone="no"?>
<!-- Created with Inkscape (http://www.inkscape.org/) -->

<svg
   width="39.420086mm"
   height="39.396748mm"
   viewBox="0 0 39.420086 39.396748"
   version="1.1"
   id="svg1"
   sodipodi:docname="graphics.svg"
   inkscape:version="1.3 (0e150ed6c4, 2023-07-21)"
   xml:space="preserve"
   xmlns:inkscape="http://www.inkscape.org/namespaces/inkscape"
   xmlns:sodipodi="http://sodipodi.sourceforge.net/DTD/sodipodi-0.dtd"
   xmlns="http://www.w3.org/2000/svg"
   xmlns:svg="http://www.w3.org/2000/svg"><sodipodi:namedview
     id="namedview1"
     pagecolor="#020417"
     bordercolor="#000000"
     borderopacity="0.25"
     inkscape:showpageshadow="2"
     inkscape:pageopacity="0.0"
     inkscape:pagecheckerboard="0"
     inkscape:deskcolor="#d1d1d1"
     inkscape:document-units="mm"
     inkscape:zoom="0.74029882"
     inkscape:cx="222.20757"
     inkscape:cy="522.08648"
     inkscape:window-width="1920"
     inkscape:window-height="1009"
     inkscape:window-x="-8"
     inkscape:window-y="-8"
     inkscape:window-maximized="1"
     inkscape:current-layer="layer1" /><defs
     id="defs1" /><g
     inkscape:label="Layer 1"
     inkscape:groupmode="layer"
     id="layer1"
     transform="translate(-31.453534,-112.68897)"><path
       style="fill:none;fill-opacity:1;stroke:#3bf9ff;stroke-width:1.304;stroke-linecap:round;stroke-linejoin:round;stroke-dasharray:none;stroke-dashoffset:5.1584;stroke-opacity:1"
       d="m 51.525643,117.07416 1.548363,2.11898 -1.910427,7.32671 -3.361232,4.91427 -4.446004,2.50842"
       id="path7"
       sodipodi:nodetypes="ccccc" /><path
       style="fill:#f9f9f9"
       d="m 46.308803,151.59993 c -3.95267,-0.97103 -8.22787,-3.71245 -10.61826,-6.80886 -1.77961,-2.30522 -3.37329,-5.56333 -3.86068,-7.89273 -0.50444,-2.41095 -0.50141,-6.47441 0.007,-8.91239 0.83492,-4.00635 3.74187,-8.62985 6.95618,-11.06379 3.86139,-2.92391 7.68172,-4.2332 12.35192,-4.2332 4.63342,0 8.46038,1.27811 12.1347,4.05269 7.19217,5.431 9.67689,15.92633 5.71158,24.12544 -0.56302,1.16417 -1.63125,2.91757 -2.37384,3.89645 -2.38962,3.15 -6.93853,6.00539 -11.02675,6.92158 -2.52671,0.56624 -6.78901,0.52712 -9.28151,-0.0852 z m 8.61729,-1.21633 c 1.12165,-0.22295 2.99186,-0.87207 4.15603,-1.44249 2.39439,-1.17321 5.42103,-3.50511 5.42977,-4.18343 0.003,-0.24805 0.23575,-0.95758 0.51678,-1.57672 0.48964,-1.07872 0.49133,-1.14499 0.0405,-1.5875 -1.09723,-1.07694 -1.65693,-2.4427 -1.87092,-4.56541 -0.28411,-2.81822 -0.63184,-3.21609 -2.74417,-3.13987 -1.74997,0.0632 -2.10908,-0.20085 -3.10348,-2.28151 -0.80491,-1.6842 -0.59209,-3.28652 0.60647,-4.56599 0.49905,-0.53274 0.51508,-0.63275 0.14845,-0.92604 -0.54615,-0.43689 -0.76317,-1.43239 -0.47658,-2.18616 0.20501,-0.53921 0.35918,-0.59287 1.32949,-0.46273 1.07181,0.14376 1.09548,0.13015 1.00753,-0.57971 -0.0751,-0.60588 0.0609,-0.79948 0.81675,-1.16253 1.19285,-0.57298 1.27469,-0.95119 0.29378,-1.3575 -0.79027,-0.32734 -1.07344,-0.92846 -0.5237,-1.11171 0.15401,-0.0513 0.31616,-0.60064 0.36032,-1.22068 0.0687,-0.96476 -0.0194,-1.19573 -0.61075,-1.60153 -0.782,-0.53659 -2.98357,-1.47582 -4.04149,-1.72417 -0.88455,-0.20765 -2.7371,0.71809 -4.73523,2.36624 -1.18703,0.97913 -1.60166,1.17423 -2.36537,1.113 -0.8604,-0.069 -0.94639,-0.15863 -1.213,-1.26486 -0.37081,-1.5386 -0.92081,-1.53717 -1.43284,0.004 -0.21828,0.6569 -0.4932,1.34151 -0.61093,1.52136 -0.2565,0.39183 -1.40733,0.43567 -1.63803,0.0624 -0.23678,-0.38313 -1.50639,-0.30922 -2.07377,0.12073 -0.71253,0.53994 -0.44219,1.27604 0.57588,1.56801 0.66836,0.19169 1.18764,0.14158 2.16127,-0.20853 0.70485,-0.25346 1.61784,-0.4223 2.02887,-0.37521 0.74517,0.0854 0.74708,0.0906 0.65894,1.80541 -0.0583,1.13447 -0.24217,1.8999 -0.54023,2.24896 -0.58889,0.68967 -1.35575,2.39836 -1.35575,3.02083 0,0.26913 -0.22996,0.54947 -0.51102,0.62296 -0.32807,0.0858 -0.61589,0.5231 -0.80395,1.22149 -0.34283,1.27319 -0.63948,1.34226 -1.64156,0.38221 -0.70861,-0.67889 -0.77937,-0.69235 -1.86656,-0.3551 -1.76798,0.54845 -2.32066,0.97951 -2.32066,1.81002 0,0.40539 0.1673,0.96587 0.37177,1.2455 0.35799,0.48958 0.40735,0.49146 1.33189,0.0506 1.38478,-0.66036 1.50079,-0.6029 1.30133,0.64446 -0.16171,1.01126 -0.13465,1.08533 0.3276,0.89665 1.03245,-0.42141 1.27231,-0.29982 1.44682,0.73349 0.0941,0.55696 0.42426,1.2659 0.73377,1.5754 l 0.56274,0.56275 0.7822,-0.74939 c 1.06748,-1.02271 2.60063,-0.98981 4.76394,0.10222 0.87561,0.44201 1.90381,0.80365 2.2849,0.80365 0.43869,0 0.94838,0.29119 1.38938,0.79375 0.43266,0.49307 0.95256,0.79375 1.37246,0.79375 1.64517,0 2.35453,1.49964 1.38762,2.93354 -0.25389,0.37652 -0.82043,1.21865 -1.25896,1.87139 -0.43854,0.65274 -1.23652,1.5724 -1.77328,2.04369 -0.53677,0.47129 -1.05411,1.11744 -1.14965,1.4359 -0.0955,0.31846 -0.57167,0.99574 -1.05808,1.50506 -0.91908,0.9624 -1.80552,2.72065 -1.51707,3.00911 0.30009,0.30008 2.97301,0.17333 5.0498,-0.23947 z m -7.35457,-0.18995 c -6.7e-4,-0.0364 -0.29551,-0.78052 -0.65518,-1.65364 -0.35967,-0.87313 -0.65678,-1.92061 -0.66023,-2.32774 -0.004,-0.43248 -0.26709,-0.98249 -0.6336,-1.32292 -0.34502,-0.32047 -1.07454,-1.56182 -1.62115,-2.75855 l -0.99383,-2.17587 0.44483,-1.26371 c 0.75621,-2.1483 0.76335,-2.18976 0.3774,-2.18976 -0.20082,0 -1.01838,-0.44469 -1.8168,-0.98821 -1.09424,-0.74489 -1.72618,-0.99099 -2.56656,-0.99951 -1.28188,-0.013 -2.49066,-0.77239 -2.77514,-1.74347 -1.05962,-3.61693 -1.14756,-3.80698 -2.03608,-4.40001 -0.49446,-0.33003 -0.98659,-0.60005 -1.09362,-0.60005 -0.32348,0 -0.53138,1.06664 -0.69802,3.58118 -0.38504,5.80998 2.25067,11.82004 6.72307,15.33028 2.45019,1.92307 5.75584,3.51122 7.41082,3.56043 0.32742,0.01 0.59476,-0.0121 0.59409,-0.0484 z"
       id="path6" /></g></svg>
