<?xml version="1.0" encoding="UTF-8" standalone="no"?>
<!-- Created with Inkscape (http://www.inkscape.org/) -->

<svg
   width="512"
   height="512"
   viewBox="0 0 512 512"
   version="1.1"
   id="svg1"
   xml:space="preserve"
   inkscape:version="1.3 (0e150ed6c4, 2023-07-21)"
   sodipodi:docname="icons.svg"
   xmlns:inkscape="http://www.inkscape.org/namespaces/inkscape"
   xmlns:sodipodi="http://sodipodi.sourceforge.net/DTD/sodipodi-0.dtd"
   xmlns="http://www.w3.org/2000/svg"
   xmlns:svg="http://www.w3.org/2000/svg"><sodipodi:namedview
     id="namedview1"
     pagecolor="#b3b3b3"
     bordercolor="#000000"
     borderopacity="0.25"
     inkscape:showpageshadow="2"
     inkscape:pageopacity="0.0"
     inkscape:pagecheckerboard="true"
     inkscape:deskcolor="#d1d1d1"
     inkscape:document-units="px"
     inkscape:zoom="0.55657038"
     inkscape:cx="2146.1796"
     inkscape:cy="394.37959"
     inkscape:window-width="1920"
     inkscape:window-height="1009"
     inkscape:window-x="905"
     inkscape:window-y="2152"
     inkscape:window-maximized="1"
     inkscape:current-layer="layer1"
     showgrid="true"
     borderlayer="true"
     showborder="true"><inkscape:grid
       id="grid6"
       units="px"
       originx="-2610"
       originy="0"
       spacingx="1"
       spacingy="1"
       empcolor="#0099e5"
       empopacity="0.30196078"
       color="#0099e5"
       opacity="0.14901961"
       empspacing="5"
       dotted="false"
       gridanglex="30"
       gridanglez="30"
       visible="true"
       enabled="false" /><inkscape:page
       x="0"
       y="0"
       width="512"
       height="512"
       id="page1"
       inkscape:export-filename="..\public\assets\info-icon.svg"
       inkscape:export-xdpi="300"
       inkscape:export-ydpi="300"
       margin="0"
       bleed="0" /></sodipodi:namedview><defs
     id="defs1" /><g
     inkscape:label="Layer 1"
     inkscape:groupmode="layer"
     id="layer1"
     transform="translate(-2610)"><path
       style="fill:#f9f9f9;stroke-width:2.00121"
       d="m 2826.1644,508.97421 c -108.8151,-16.65408 -196.955,-105.63441 -213.0305,-215.06168 -16.0763,-109.43236 38.9335,-215.761386 137.674,-266.111462 125.0671,-63.774697 279.5028,-13.017201 343.7854,112.989972 46.9314,91.99498 32.6468,205.61288 -35.6257,283.36267 -58.4904,66.60986 -145.2505,98.22039 -232.8032,84.8205 z m 75.2919,-39.77018 c 46.9562,-8.06564 82.7909,-26.7167 116.9529,-60.87116 26.4005,-26.39462 41.9939,-51.21162 52.8737,-84.14873 20.9576,-63.44628 11.6137,-131.63301 -25.912,-189.09327 -10.0922,-15.45332 -42.6345,-47.988351 -58.0912,-58.078228 -75.3813,-49.207492 -166.792,-49.207492 -242.1733,0 -15.4569,10.089877 -47.999,42.624908 -58.0912,58.078228 -49.2184,75.36453 -49.2184,166.75489 0,242.11943 10.0922,15.4533 42.6343,47.98833 58.0912,58.0782 47.4213,30.95573 103.1736,43.04958 156.3499,33.91553 z m -49.4272,-92.84031 -5.8504,-5.84905 v -71.15738 -71.1574 l 5.7996,-6.4893 c 4.7992,-5.37017 7.2506,-6.4893 14.2148,-6.4893 6.9639,0 9.4155,1.11913 14.2147,6.4893 l 5.7996,6.4893 v 71.1574 71.15738 l -5.8504,5.84905 c -4.5883,4.58726 -7.6437,5.84904 -14.1639,5.84904 -6.5203,0 -9.5757,-1.26178 -14.164,-5.84904 z m 2.6952,-189.21235 c -13.5908,-5.90697 -19.4258,-28.31503 -10.3703,-39.8247 16.0865,-20.44623 47.8707,-10.7834 47.8503,14.54713 0,11.68889 -5.8284,21.53895 -14.9829,25.36313 -8.5277,3.56232 -14.1534,3.54091 -22.4971,-0.0856 z"
       id="path8" /></g></svg>
