<?xml version="1.0" encoding="UTF-8" standalone="no"?>
<!-- Created with Inkscape (http://www.inkscape.org/) -->

<svg
   width="512"
   height="512"
   viewBox="0 0 512 512"
   version="1.1"
   id="svg1"
   xml:space="preserve"
   inkscape:version="1.3 (0e150ed6c4, 2023-07-21)"
   sodipodi:docname="icons.svg"
   xmlns:inkscape="http://www.inkscape.org/namespaces/inkscape"
   xmlns:sodipodi="http://sodipodi.sourceforge.net/DTD/sodipodi-0.dtd"
   xmlns="http://www.w3.org/2000/svg"
   xmlns:svg="http://www.w3.org/2000/svg"><sodipodi:namedview
     id="namedview1"
     pagecolor="#b3b3b3"
     bordercolor="#000000"
     borderopacity="0.25"
     inkscape:showpageshadow="2"
     inkscape:pageopacity="0.0"
     inkscape:pagecheckerboard="true"
     inkscape:deskcolor="#d1d1d1"
     inkscape:document-units="px"
     inkscape:zoom="0.39355469"
     inkscape:cx="3121.5484"
     inkscape:cy="107.99007"
     inkscape:window-width="1920"
     inkscape:window-height="1009"
     inkscape:window-x="-8"
     inkscape:window-y="-8"
     inkscape:window-maximized="1"
     inkscape:current-layer="layer1"
     showgrid="true"
     borderlayer="true"
     showborder="true"><inkscape:grid
       id="grid6"
       units="px"
       originx="-3654"
       originy="0"
       spacingx="1"
       spacingy="1"
       empcolor="#0099e5"
       empopacity="0.30196078"
       color="#0099e5"
       opacity="0.14901961"
       empspacing="5"
       dotted="false"
       gridanglex="30"
       gridanglez="30"
       visible="true"
       enabled="false" /><inkscape:page
       x="0"
       y="0"
       width="512"
       height="512"
       id="page9"
       margin="0"
       bleed="0" /></sodipodi:namedview><defs
     id="defs1" /><g
     inkscape:label="Layer 1"
     inkscape:groupmode="layer"
     id="layer1"
     transform="translate(-3654)"><g
       id="g9"
       transform="translate(81.54817,428.75051)"
       style="fill:#f9f9f9"><path
         style="fill:#f9f9f9;fill-opacity:1"
         d="m 3688.9509,10.510148 c 1.2375,-0.238353 3.2625,-0.238353 4.5,0 1.2375,0.238353 0.225,0.433369 -2.25,0.433369 -2.475,0 -3.4875,-0.195016 -2.25,-0.433369 z m -61.8257,-26.044267 -2.4243,-2.75 2.75,2.424314 c 2.5703,2.265887 3.2086,3.075686 2.4243,3.075686 -0.1791,0 -1.4166,-1.2375 -2.75,-2.75 z m 134.1547,-17.833333 c 0.048,-1.164943 0.2849,-1.401899 0.6041,-0.604167 0.2889,0.721875 0.2534,1.584375 -0.079,1.916667 -0.3323,0.332292 -0.5686,-0.258333 -0.5252,-1.3125 z m -26.329,-26.078947 c 0.6875,-0.277413 1.8125,-0.277413 2.5,0 0.6875,0.277412 0.125,0.504386 -1.25,0.504386 -1.375,0 -1.9375,-0.226974 -1.25,-0.504386 z m 151.25,-0.715275 c 0,-0.207655 0.7875,-0.995155 1.75,-1.75 1.5861,-1.243871 1.6215,-1.2085 0.3776,0.377555 -1.3064,1.665748 -2.1276,2.195479 -2.1276,1.372445 z m -53.75,-46.311766 c 0.9625,-0.25153 2.5375,-0.25153 3.5,0 0.9625,0.25152 0.175,0.45732 -1.75,0.45732 -1.925,0 -2.7125,-0.2058 -1.75,-0.45732 z m -24.171,-23.89401 c 0.048,-1.16494 0.2849,-1.4019 0.6041,-0.60417 0.2889,0.72188 0.2534,1.58438 -0.079,1.91667 -0.3323,0.33229 -0.5686,-0.25834 -0.5252,-1.3125 z m 6.421,-39.41667 c 9.8886,-9.9 18.2042,-18 18.4792,-18 0.275,0 -7.5906,8.1 -17.4792,18 -9.8885,9.9 -18.2041,18 -18.4791,18 -0.275,0 7.5906,-8.1 17.4791,-18 z m 215.5,-34.37755 c 0,-0.20766 0.7875,-0.99516 1.75,-1.75 1.5861,-1.24387 1.6215,-1.2085 0.3776,0.37755 -1.3064,1.66575 -2.1276,2.19548 -2.1276,1.37245 z m -201.1875,-54.30556 c 0.7219,-0.28887 1.5844,-0.25335 1.9167,0.0789 0.3323,0.3323 -0.2583,0.56865 -1.3125,0.52522 -1.1649,-0.048 -1.4019,-0.28494 -0.6042,-0.60416 z m 5,0 c 0.7219,-0.28887 1.5844,-0.25335 1.9167,0.0789 0.3323,0.3323 -0.2583,0.56865 -1.3125,0.52522 -1.1649,-0.048 -1.4019,-0.28494 -0.6042,-0.60416 z m 195.6246,-72.56689 -2.9371,-3.25 3.25,2.93709 c 1.7875,1.6154 3.25,3.0779 3.25,3.25 0,0.77256 -0.8251,0.0924 -3.5629,-2.93709 z"
         id="path13" /><path
         style="fill:#f9f9f9;fill-opacity:1"
         d="m 3752.7009,-14.784119 c 0.9955,-1.1 2.035,-2 2.31,-2 0.275,0 -0.3145,0.9 -1.31,2 -0.9955,1.1 -2.0349,2 -2.3099,2 -0.275,0 0.3144,-0.9 1.3099,-2 z m 136.5,-48.377555 c 0,-0.207655 0.7875,-0.995155 1.75,-1.75 1.5861,-1.243871 1.6215,-1.2085 0.3776,0.377555 -1.3064,1.665748 -2.1276,2.195479 -2.1276,1.372445 z m 7,-7 c 0,-0.207655 0.7875,-0.995155 1.75,-1.75 1.5861,-1.243871 1.6215,-1.2085 0.3776,0.377555 -1.3064,1.665748 -2.1276,2.195479 -2.1276,1.372445 z m 4,-4 c 0,-0.207655 0.7875,-0.995155 1.75,-1.75 1.5861,-1.243871 1.6215,-1.2085 0.3776,0.377555 -1.3064,1.665748 -2.1276,2.195479 -2.1276,1.372445 z m 7,-7 c 0,-0.207655 0.7875,-0.995155 1.75,-1.75 1.5861,-1.243871 1.6215,-1.2085 0.3776,0.377555 -1.3064,1.665748 -2.1276,2.195479 -2.1276,1.372445 z m 63,-63.122446 c 32.7216,-32.725 59.7187,-59.5 59.9937,-59.5 0.275,0 -26.2721,26.775 -58.9937,59.5 -32.7215,32.725 -59.7187,59.500001 -59.9937,59.500001 -0.275,0 26.2722,-26.775001 58.9937,-59.500001 z m -237,-32 c 39.8722,-39.875 72.7199,-72.5 72.9949,-72.5 0.275,0 -32.1227,32.625 -71.9949,72.5 -39.8721,39.875 -72.7198,72.5 -72.9948,72.5 -0.275,0 32.1227,-32.625 71.9948,-72.5 z m 141,40 c 12.9163,-12.925 23.7091,-23.5 23.9841,-23.5 0.275,0 -10.0678,10.575 -22.9841,23.5 -12.9162,12.925 -23.709,23.5 -23.984,23.5 -0.275,0 10.0678,-10.575 22.984,-23.5 z m -249.5,-3.5 c 0.9955,-1.1 2.035,-2 2.31,-2 0.275,0 -0.3145,0.9 -1.31,2 -0.9955,1.1 -2.0349,2 -2.3099,2 -0.275,0 0.3144,-0.9 1.3099,-2 z m 212.5,-31.5 c 12.3659,-12.375 22.7084,-22.5 22.9834,-22.5 0.275,0 -9.6175,10.125 -21.9834,22.5 -12.3658,12.375 -22.7083,22.5 -22.9833,22.5 -0.275,0 9.6175,-10.125 21.9833,-22.5 z m -199,18 c 1.2918,-1.375 2.5737,-2.5 2.8487,-2.5 0.275,0 -0.5569,1.125 -1.8487,2.5 -1.2917,1.375 -2.5736,2.5 -2.8486,2.5 -0.275,0 0.5569,-1.125 1.8486,-2.5 z m 4,-3.87755 c 0,-0.20766 0.7875,-0.99516 1.75,-1.75 1.5861,-1.24387 1.6215,-1.2085 0.3776,0.37755 -1.3064,1.66575 -2.1276,2.19548 -2.1276,1.37245 z m 7,-7 c 0,-0.20766 0.7875,-0.99516 1.75,-1.75 1.5861,-1.24387 1.6215,-1.2085 0.3776,0.37755 -1.3064,1.66575 -2.1276,2.19548 -2.1276,1.37245 z m 7,-7 c 0,-0.20766 0.7875,-0.99516 1.75,-1.75 1.5861,-1.24387 1.6215,-1.2085 0.3776,0.37755 -1.3064,1.66575 -2.1276,2.19548 -2.1276,1.37245 z m 4,-4 c 0,-0.20766 0.7875,-0.99516 1.75,-1.75 1.5861,-1.24387 1.6215,-1.2085 0.3776,0.37755 -1.3064,1.66575 -2.1276,2.19548 -2.1276,1.37245 z m 4,-4 c 0,-0.20766 0.7875,-0.99516 1.75,-1.75 1.5861,-1.24387 1.6215,-1.2085 0.3776,0.37755 -1.3064,1.66575 -2.1276,2.19548 -2.1276,1.37245 z m 4,-4 c 0,-0.20766 0.7875,-0.99516 1.75,-1.75 1.5861,-1.24387 1.6215,-1.2085 0.3776,0.37755 -1.3064,1.66575 -2.1276,2.19548 -2.1276,1.37245 z m 4,-4 c 0,-0.20766 0.7875,-0.99516 1.75,-1.75 1.5861,-1.24387 1.6215,-1.2085 0.3776,0.37755 -1.3064,1.66575 -2.1276,2.19548 -2.1276,1.37245 z m 8,-8 c 0,-0.20766 0.7875,-0.99516 1.75,-1.75 1.5861,-1.24387 1.6215,-1.2085 0.3776,0.37755 -1.3064,1.66575 -2.1276,2.19548 -2.1276,1.37245 z m 22,-22 c 0,-0.20766 0.7875,-0.99516 1.75,-1.75 1.5861,-1.24387 1.6215,-1.2085 0.3776,0.37755 -1.3064,1.66575 -2.1276,2.19548 -2.1276,1.37245 z m 45,-45 c 0,-0.20766 0.7875,-0.99516 1.75,-1.75 1.5861,-1.24387 1.6215,-1.2085 0.3776,0.37755 -1.3064,1.66575 -2.1276,2.19548 -2.1276,1.37245 z m 4,-4 c 0,-0.20766 0.7875,-0.99516 1.75,-1.75 1.5861,-1.24387 1.6215,-1.2085 0.3776,0.37755 -1.3064,1.66575 -2.1276,2.19548 -2.1276,1.37245 z m 4,-4 c 0,-0.20766 0.7875,-0.99516 1.75,-1.75 1.5861,-1.24387 1.6215,-1.2085 0.3776,0.37755 -1.3064,1.66575 -2.1276,2.19548 -2.1276,1.37245 z m 7,-7 c 0,-0.20766 0.7875,-0.99516 1.75,-1.75 1.5861,-1.24387 1.6215,-1.2085 0.3776,0.37755 -1.3064,1.66575 -2.1276,2.19548 -2.1276,1.37245 z m 7,-7 c 0,-0.20766 0.7875,-0.99516 1.75,-1.75 1.5861,-1.24387 1.6215,-1.2085 0.3776,0.37755 -1.3064,1.66575 -2.1276,2.19548 -2.1276,1.37245 z m 56.8125,-25.30556 c 0.7219,-0.28887 1.5844,-0.25335 1.9167,0.0789 0.3323,0.3323 -0.2583,0.56865 -1.3125,0.52522 -1.1649,-0.048 -1.4019,-0.28494 -0.6042,-0.60416 z m 11,0 c 0.7219,-0.28887 1.5844,-0.25335 1.9167,0.0789 0.3323,0.3323 -0.2583,0.56865 -1.3125,0.52522 -1.1649,-0.048 -1.4019,-0.28494 -0.6042,-0.60416 z"
         id="path12" /><path
         style="fill:#f9f9f9;fill-opacity:1"
         d="m 3688.0134,-40.467233 c 0.7219,-0.28887 1.5844,-0.253344 1.9167,0.07895 0.3323,0.332291 -0.2583,0.56864 -1.3125,0.525219 -1.1649,-0.04798 -1.4019,-0.28494 -0.6042,-0.604167 z m 3.9375,0.02083 c 0.6875,-0.277413 1.8125,-0.277413 2.5,0 0.6875,0.277412 0.125,0.504386 -1.25,0.504386 -1.375,0 -1.9375,-0.226974 -1.25,-0.504386 z m -28.8257,-11.08772 -2.4243,-2.75 2.75,2.424314 c 2.5703,2.265887 3.2086,3.075686 2.4243,3.075686 -0.1791,0 -1.4166,-1.2375 -2.75,-2.75 z m -61.8453,-21.833333 c 0.048,-1.164943 0.2849,-1.401899 0.6041,-0.604167 0.2889,0.721875 0.2534,1.584375 -0.079,1.916667 -0.3323,0.332292 -0.5686,-0.258333 -0.5252,-1.3125 z m 0,-11 c 0.048,-1.164943 0.2849,-1.401899 0.6041,-0.604167 0.2889,0.721875 0.2534,1.584375 -0.079,1.916667 -0.3323,0.332292 -0.5686,-0.258333 -0.5252,-1.3125 z m 322.421,-85.416664 c 39.5972,-39.6 72.2198,-72 72.4948,-72 0.275,0 -31.8976,32.4 -71.4948,72 -39.5971,39.6 -72.2198,71.999997 -72.4948,71.999997 -0.275,0 31.8977,-32.399997 71.4948,-71.999997 z m -187.3421,48 c 0,-1.375 0.227,-1.9375 0.5044,-1.25 0.2774,0.6875 0.2774,1.8125 0,2.5 -0.2774,0.6875 -0.5044,0.125 -0.5044,-1.25 z m 0,-9 c 0,-1.375 0.227,-1.9375 0.5044,-1.25 0.2774,0.6875 0.2774,1.8125 0,2.5 -0.2774,0.6875 -0.5044,0.125 -0.5044,-1.25 z m 22.8421,-55.25962 c 0,-0.14278 8.8875,-9.03028 19.75,-19.75 l 19.75,-19.49038 -19.4904,19.75 c -18.109,18.3503 -20.0096,20.20152 -20.0096,19.49038 z m 71.405,-36.99038 -1.905,-2.25 2.25,1.90499 c 1.2375,1.04774 2.25,2.06024 2.25,2.25 0,0.80025 -0.8048,0.20946 -2.595,-1.90499 z m 174.674,-44.33333 c 0.048,-1.16494 0.2849,-1.4019 0.6041,-0.60417 0.2889,0.72188 0.2534,1.58438 -0.079,1.91667 -0.3323,0.33229 -0.5686,-0.25834 -0.5252,-1.3125 z m -107.674,-12.66667 -1.905,-2.25 2.25,1.90499 c 2.1145,1.79022 2.7053,2.59501 1.905,2.59501 -0.1897,0 -1.2022,-1.0125 -2.25,-2.25 z m -6,-6 -1.905,-2.25 2.25,1.90499 c 1.2375,1.04774 2.25,2.06024 2.25,2.25 0,0.80025 -0.8048,0.20946 -2.595,-1.90499 z m 28.8641,-1.44299 c 0.9729,-0.25354 2.3229,-0.23687 3,0.037 0.677,0.27393 -0.1191,0.48137 -1.7691,0.46099 -1.65,-0.0204 -2.2039,-0.2445 -1.2309,-0.49804 z m 73.6034,-7.05701 c -1.2439,-1.58605 -1.2085,-1.62142 0.3775,-0.37755 0.9625,0.75484 1.75,1.54234 1.75,1.75 0,0.82303 -0.8212,0.2933 -2.1275,-1.37245 z m -164.1225,-14.95573 c 1.2375,-0.23835 3.2625,-0.23835 4.5,0 1.2375,0.23835 0.225,0.43337 -2.25,0.43337 -2.475,0 -3.4875,-0.19502 -2.25,-0.43337 z m 74.25,-21.79427 c 1.2918,-1.375 2.5737,-2.5 2.8487,-2.5 0.275,0 -0.5569,1.125 -1.8487,2.5 -1.2917,1.375 -2.5736,2.5 -2.8486,2.5 -0.275,0 0.5569,-1.125 1.8486,-2.5 z"
         id="path11" /><path
         style="fill:#f9f9f9;fill-opacity:1"
         d="m 3674.7009,8.765186 c -28.849,-5.796493 -51.457,-23.071011 -63.9924,-48.895879 -6.2898,-12.957923 -8.7963,-24.193015 -8.735,-39.153426 0.079,-19.392387 5.5481,-36.357071 16.7623,-52.000001 2.3657,-3.3 39.3256,-40.88325 82.1332,-83.51833 57.0815,-56.85153 79.3466,-78.40138 83.5134,-80.83052 15.9508,-9.29907 30.0538,-13.15115 48.1481,-13.15115 40.6084,0 75.1102,26.96491 85.8123,67.06683 2.8972,10.85611 3.16,30.79512 0.5441,41.29598 -2.5171,10.10469 -7.0765,20.83949 -12.3006,28.96101 -6.6768,10.37979 -55.0021,59.01576 -61.8854,62.28319 -16.3645,7.76808 -35.5085,-4.43408 -35.4682,-22.60701 0.022,-9.77879 1.8446,-12.25452 29.4819,-40.03883 27.6159,-27.76287 29.6602,-30.54467 31.2522,-42.52626 1.7359,-13.06486 -2.4352,-25.11036 -11.6942,-33.7711 -12.9871,-12.14787 -32.3397,-14.04808 -47.0717,-4.6219 -2.475,1.58362 -37.8531,36.30953 -78.618,77.16869 -83.4017,83.594453 -79.3765,78.85368 -80.1952,94.451751 -0.3635,6.926537 -0.05,9.458573 1.8119,14.608242 5.9398,16.433321 19.3285,25.987949 36.5013,26.048645 10.1053,0.03572 17.2093,-2.57966 25.7937,-9.495999 8.0788,-6.509022 10.835,-7.877817 17.1821,-8.532892 19.9277,-2.056725 34.1983,19.939149 24.1074,37.157913 -6.4893,11.073241 -26.1393,23.7136777 -44.562,28.6658268 -9.8813,2.6561784 -28.915,3.3653342 -38.5212,1.4352192 z m 138.0389,-46.592187 c -27.1028,-4.264409 -51.5942,-21.31936 -64.9377,-45.220365 -16.2169,-29.048004 -14.077,-67.614404 5.2567,-94.736754 4.5298,-6.35468 45.5615,-47.09481 49.6421,-49.28939 5.5906,-3.00661 16.3768,-3.00824 22.0682,-0.003 12.1736,6.42725 17.1021,20.33675 11.7827,33.25394 -0.8399,2.03957 -9.7602,11.89724 -21.7178,24 -11.1609,11.29633 -21.2294,22.11378 -22.3744,24.03878 -11.4824,19.30468 -3.2409,45.08781 17.5233,54.819945 5.064,2.373528 6.919,2.680056 16.218,2.680056 17.7251,0 11.2229,5.390891 97.6235,-80.938461 81.561,-81.49377 79.1741,-78.78879 81.2363,-92.06154 2.6575,-17.1042 -6.0655,-33.43438 -21.8569,-40.91819 -5.8445,-2.7698 -7.4647,-3.08181 -16.0029,-3.08181 -11.6624,0 -16.695,1.7355 -25.3202,8.73166 -8.3702,6.78926 -12.854,8.71967 -20.3156,8.74638 -11.8125,0.0423 -21.9956,-8.06875 -24.3464,-19.3924 -2.1378,-10.29771 0.5819,-17.17545 10.4372,-26.39462 17.4799,-16.35157 44.2478,-25.09916 68.4003,-22.35275 38.24,4.34834 67.703,30.02579 77.7338,67.74619 1.3684,5.14607 1.839,10.49771 1.839,20.91554 0,15.20982 -1.2688,21.98866 -6.4818,34.63029 -6.3576,15.41743 -7.9058,17.1313 -87.7908,97.18432 -41.6105,41.698032 -78.3555,77.874292 -81.6555,80.391688 -7.8769,6.008889 -22.0184,12.778677 -32,15.31893 -9.2563,2.355681 -26.2866,3.296748 -34.9611,1.931891 z"
         id="path10" /></g></g></svg>
