<?xml version="1.0" encoding="UTF-8" standalone="no"?>
<!-- Created with Inkscape (http://www.inkscape.org/) -->

<svg
   width="512"
   height="512"
   viewBox="0 0 512 512"
   version="1.1"
   id="svg1"
   xml:space="preserve"
   inkscape:version="1.3 (0e150ed6c4, 2023-07-21)"
   sodipodi:docname="icons.svg"
   xmlns:inkscape="http://www.inkscape.org/namespaces/inkscape"
   xmlns:sodipodi="http://sodipodi.sourceforge.net/DTD/sodipodi-0.dtd"
   xmlns="http://www.w3.org/2000/svg"
   xmlns:svg="http://www.w3.org/2000/svg"><sodipodi:namedview
     id="namedview1"
     pagecolor="#b3b3b3"
     bordercolor="#000000"
     borderopacity="0.25"
     inkscape:showpageshadow="2"
     inkscape:pageopacity="0.0"
     inkscape:pagecheckerboard="true"
     inkscape:deskcolor="#d1d1d1"
     inkscape:document-units="px"
     inkscape:zoom="0.27828519"
     inkscape:cx="4040.8187"
     inkscape:cy="781.57231"
     inkscape:window-width="1920"
     inkscape:window-height="1009"
     inkscape:window-x="-8"
     inkscape:window-y="-8"
     inkscape:window-maximized="1"
     inkscape:current-layer="layer1"
     showgrid="true"
     borderlayer="true"
     showborder="true"><inkscape:grid
       id="grid6"
       units="px"
       originx="-5742"
       originy="0"
       spacingx="1"
       spacingy="1"
       empcolor="#0099e5"
       empopacity="0.30196078"
       color="#0099e5"
       opacity="0.14901961"
       empspacing="5"
       dotted="false"
       gridanglex="30"
       gridanglez="30"
       visible="true"
       enabled="false" /><inkscape:page
       x="0"
       y="0"
       width="512"
       height="512"
       id="page12"
       margin="0"
       bleed="0" /></sodipodi:namedview><defs
     id="defs1" /><g
     inkscape:label="Layer 1"
     inkscape:groupmode="layer"
     id="layer1"
     transform="translate(-5742)"><ellipse
       style="fill:none;stroke:#ffffff;stroke-width:31.3759;stroke-linecap:butt;stroke-linejoin:round;stroke-dasharray:none;stroke-dashoffset:5.1584;stroke-opacity:1;paint-order:normal"
       id="path2-7-1-9-5-3"
       cx="5997.9775"
       cy="256"
       rx="240.30119"
       ry="240.26939" /><path
       style="fill:#ffffff;fill-opacity:1"
       d="m 5830.2307,410.10203 c -3.3483,-3.3484 0.4134,-8.8 6.0722,-8.8 3.2314,0 6.0337,-1.3183 13.5298,-6.3651 11.9132,-8.0206 23.6614,-7.5218 36.5655,1.5526 5.8221,4.0942 6.4889,4.3125 13.1723,4.3125 6.7371,0 7.3391,-0.2024 14,-4.7075 8.0007,-5.4113 14.3301,-7.2922 21.9074,-6.5101 5.8698,0.6058 9.4152,2.1423 17.3352,7.5128 4.1799,2.8343 6.4922,3.6694 11.0786,4.0011 6.1961,0.4482 7.5457,-0.07 18.997,-7.2977 10.2625,-6.4772 21.8947,-5.7559 33.8328,2.0981 7.9831,5.252 9.7466,5.8079 16.3963,5.169 3.5171,-0.338 6.5099,-1.5166 10.1957,-4.0154 7.8537,-5.3244 11.4126,-6.8634 17.2701,-7.4679 7.5642,-0.7807 13.9042,1.0972 21.8525,6.4726 6.0153,4.0681 7.6908,4.716 13,5.0266 5.5777,0.3263 6.5612,0.056 11.5946,-3.1889 8.7246,-5.624 13.8594,-7.77 19.8866,-8.3111 7.1964,-0.6461 12.6374,0.8599 19.2914,5.3398 7.7469,5.2156 10.321,6.3786 14.1174,6.3786 3.7506,0 6.7046,2.48 6.7046,5.6288 0,3.1363 -2.043,4.3712 -7.2321,4.3712 -5.7228,0 -9.1142,-1.3084 -17.5436,-6.7681 -9.7756,-6.3316 -17.4808,-6.5284 -25.2506,-0.6449 -6.7073,5.079 -12.9813,7.3927 -20.0744,7.4032 -8.193,0.012 -11.6576,-1.1362 -19.8993,-6.5953 -10.4468,-6.9198 -17.3635,-6.8573 -27.142,0.2452 -6.9367,5.0385 -10.9219,6.3625 -19.0758,6.3379 -8.0652,-0.024 -12.207,-1.4856 -20.627,-7.2775 -8.6662,-5.9613 -16.5325,-5.8317 -25.1551,0.4144 -7.2473,5.2499 -11.8038,6.8434 -19.5001,6.8193 -8.3101,-0.026 -12.6526,-1.4202 -19.1662,-6.1534 -9.9175,-7.2065 -17.2995,-7.3745 -26.9512,-0.6135 -7.558,5.2944 -12.1483,6.8376 -20.2583,6.8107 -7.3675,-0.024 -11.7616,-1.6317 -20.0534,-7.3355 -9.0344,-6.2145 -14.9824,-6.0898 -25.2012,0.5287 -3.5033,2.2691 -7.8177,4.7338 -9.5875,5.4772 -3.987,1.6746 -12.4678,1.766 -14.0822,0.1516 z m 196.279,-35.8832 c -5.3386,-0.6832 -10.7844,-3.1197 -16.4526,-7.361 -7.5914,-5.6803 -15.7847,-5.6313 -24.1815,0.1447 -8.42,5.7919 -12.5618,7.2532 -20.627,7.2775 -8.1824,0.025 -12.143,-1.2997 -19.3329,-6.4652 -9.4147,-6.7638 -17.7102,-6.7343 -27.027,0.096 -6.7797,4.9704 -10.9321,6.3914 -18.6766,6.3914 -8.4696,0 -11.9382,-1.1453 -19.9153,-6.5753 -9.8533,-6.7073 -17.3131,-6.7953 -26.266,-0.3098 -6.4968,4.7062 -11.9499,6.8387 -17.5501,6.8631 -5.5165,0.024 -7.45,-1.1754 -7.45,-4.6213 0,-2.8216 3.5188,-5.3517 7.4726,-5.3732 1.6651,-0.01 4.6746,-1.0215 6.6877,-2.25 2.0132,-1.2285 5.6752,-3.4842 8.1378,-5.0128 10.8083,-6.7089 22.2411,-6.0329 34.1583,2.0197 6.7818,4.5826 7.3103,4.7596 14.2183,4.7596 6.8105,0 7.4756,-0.2123 13.1052,-4.1824 8.0577,-5.6825 14.7116,-7.7602 22.3086,-6.9662 6.4847,0.6778 8.7872,1.6616 18.1915,7.773 5.9053,3.8375 6.5496,4.0242 12.7321,3.6896 5.7755,-0.3127 7.2045,-0.8382 12.6326,-4.6458 12.6965,-8.9061 25.884,-9.3631 37.0375,-1.2835 6.684,4.8418 9.9466,6.1153 15.6677,6.1153 4.6013,0 6.2817,-0.5609 10.7997,-3.6042 10.2158,-6.8815 12.6847,-7.7877 21.3504,-7.8364 8.6711,-0.049 10.5146,0.6115 20.3717,7.2972 4.9362,3.348 5.9495,3.6434 12.5,3.6434 6.8527,0 7.4007,-0.1841 14.172,-4.7596 11.9172,-8.0526 23.35,-8.7286 34.1583,-2.0197 2.4626,1.5286 6.1246,3.7843 8.1378,5.0128 2.0131,1.2285 5.278,2.241 7.2553,2.25 3.9873,0.018 6.9049,2.4363 6.9049,5.7227 0,7.1063 -13.5395,5.7106 -24.9769,-2.5746 -8.6465,-6.2635 -16.5039,-6.398 -25.1782,-0.4311 -8.1686,5.6189 -12.6298,7.2537 -19.8449,7.2719 -8.7735,0.022 -12.4556,-1.16 -19.8656,-6.3778 -8.5038,-5.9881 -13.9704,-6.8017 -21.3499,-3.1776 -2.9064,1.4274 -7.3401,3.9567 -9.8527,5.6206 -5.2087,3.4496 -12.0891,4.8216 -19.4528,3.8792 z m -154.812,-78.16678 c -13.5894,-34.2375 -24.6987,-63.1765 -24.6874,-64.30887 0.011,-1.13238 0.5829,-2.81992 1.2704,-3.75008 1.8513,-2.50464 145.1061,-62.74134 145.8575,-61.33109 0.3341,0.62702 1.1953,9.12754 1.9137,18.89004 0.7184,9.7625 1.6047,17.75 1.9695,17.75 0.3648,0 1.2565,-7.7625 1.9815,-17.25 0.725,-9.4875 1.5903,-17.98537 1.923,-18.88414 0.5175,-1.39804 2.772,-0.71666 15.6048,4.71616 8.25,3.49266 40.65,17.16398 72,30.38071 31.35,13.21673 57.5625,24.79297 58.25,25.72497 0.6875,0.93201 1.26,2.62105 1.2721,3.75343 0.012,1.13237 -11.0879,30.07137 -24.6668,64.30887 l -24.689,62.24998 h -3.63 c -2.6217,0 -5.5372,-1.2526 -10.4961,-4.5096 -15.3063,-10.0532 -28.774,-10.0532 -44.0803,0 -9.1847,6.0325 -12.9044,6.1064 -20.8537,0.414 -14.5033,-10.3856 -29.4027,-10.5979 -44.0933,-0.6283 -4.2302,2.8708 -7.3114,4.1815 -10.5,4.4668 -4.017,0.3593 -5.2724,-0.1 -11.4258,-4.1793 -15.2818,-10.131 -28.7799,-10.1534 -44.1272,-0.073 -4.9408,3.2451 -7.8782,4.5097 -10.4755,4.5097 h -3.6095 z m 105.5043,-82.40499 c 3.3221,-3.00644 1.7808,-8.41798 -2.7819,-9.76719 -3.0131,-0.89102 -6.6394,2.33389 -6.6394,5.90462 0,4.92832 5.6735,7.25433 9.4213,3.86257 z m 48.429,0.88967 c 2.3003,-1.53594 3.5115,-5.15734 2.412,-7.21177 -3.1556,-5.89632 -11.0123,-3.94853 -11.0123,2.73013 0,3.74932 5.4465,6.5875 8.6003,4.48164 z m -114.6003,-56.67798 v -35.4433 l 2.2226,-1.5567 c 1.7723,-1.24137 5.2665,-1.55655 17.25,-1.55596 l 15.0274,7.4e-4 -0.3263,-9.42388 c -0.4809,-13.890345 -0.8232,-13.577605 14.8615,-13.577605 h 12.9648 v -8.56575 c 0,-13.35435 -1.8499,-12.43425 25,-12.43425 26.85,0 25,-0.9201 25,12.43425 v 8.56575 h 12.9649 c 11.3284,0 13.0815,0.22088 13.8897,1.75 0.5088,0.9625 0.9888,6.001695 1.0668,11.198215 0.078,5.19651 0.3238,9.63032 0.5464,9.8529 0.2226,0.22258 6.7794,0.33675 14.5706,0.25371 11.3791,-0.12128 14.6377,0.15811 16.5638,1.42015 l 2.3978,1.57113 v 35.47695 c 0,19.51232 -0.18,35.47695 -0.4,35.47695 -0.2201,0 -19.1076,-7.875 -41.9723,-17.5 -23.3971,-9.84911 -42.9154,-17.5 -44.6446,-17.5 -1.7316,0 -21.1882,7.63734 -44.5822,17.5 -22.8304,9.625 -41.7103,17.5 -41.9553,17.5 -0.2451,0 -0.4456,-15.94949 -0.4456,-35.4433 z m 43.5,-14.5567 v -2.5 l -13.1043,-0.27801 c -10.7281,-0.2276 -13.3323,-0.003 -14.3618,1.23726 -0.6917,0.8334 -0.9915,2.20877 -0.6662,3.05636 0.5004,1.30418 2.7083,1.4983 14.3618,1.26274 l 13.7705,-0.27835 z m 57.2532,1.8468 c 0.7935,-0.79342 0.8449,-1.72937 0.1649,-3 -0.8829,-1.64955 -2.3694,-1.8468 -13.9181,-1.8468 -11.5486,0 -13.0352,0.19725 -13.918,1.8468 -1.839,3.43625 0.5636,4.1532 13.918,4.1532 8.1826,0 13.0043,-0.4043 13.7532,-1.1532 z m 57.8901,-0.35954 c 0.3193,-0.832 0.025,-2.182 -0.6538,-3 -1.8205,-2.19348 -26.7856,-2.18198 -27.6278,0.0127 -1.5384,4.00903 0,4.5 14.1383,4.5 11.1841,0 13.6646,-0.26532 14.1433,-1.51274 z"
       id="path12-0" /></g></svg>
