<?xml version="1.0" encoding="UTF-8" standalone="no"?>
<!-- Created with Inkscape (http://www.inkscape.org/) -->

<svg
   width="1264.1191"
   height="512"
   viewBox="0 0 1264.1191 512"
   version="1.1"
   id="svg1"
   xml:space="preserve"
   inkscape:version="1.3 (0e150ed6c4, 2023-07-21)"
   sodipodi:docname="icons.svg"
   xmlns:inkscape="http://www.inkscape.org/namespaces/inkscape"
   xmlns:sodipodi="http://sodipodi.sourceforge.net/DTD/sodipodi-0.dtd"
   xmlns:xlink="http://www.w3.org/1999/xlink"
   xmlns="http://www.w3.org/2000/svg"
   xmlns:svg="http://www.w3.org/2000/svg"><sodipodi:namedview
     id="namedview1"
     pagecolor="#b3b3b3"
     bordercolor="#000000"
     borderopacity="0.25"
     inkscape:showpageshadow="2"
     inkscape:pageopacity="0.0"
     inkscape:pagecheckerboard="true"
     inkscape:deskcolor="#d1d1d1"
     inkscape:document-units="px"
     inkscape:zoom="0.39355469"
     inkscape:cx="7063.8213"
     inkscape:cy="372.24814"
     inkscape:window-width="1920"
     inkscape:window-height="1009"
     inkscape:window-x="905"
     inkscape:window-y="2152"
     inkscape:window-maximized="1"
     inkscape:current-layer="layer1"
     showgrid="true"
     borderlayer="true"
     showborder="true"><inkscape:grid
       id="grid6"
       units="px"
       originx="-9716.8146"
       originy="0"
       spacingx="1"
       spacingy="1"
       empcolor="#0099e5"
       empopacity="0.30196078"
       color="#0099e5"
       opacity="0.14901961"
       empspacing="5"
       dotted="false"
       gridanglex="30"
       gridanglez="30"
       visible="true"
       enabled="false" /><inkscape:page
       x="0"
       y="0"
       width="1264.1191"
       height="512"
       id="page25"
       margin="0"
       bleed="0"
       inkscape:export-filename="..\public\assets\corridor-key.svg"
       inkscape:export-xdpi="300"
       inkscape:export-ydpi="300" /></sodipodi:namedview><defs
     id="defs1"><linearGradient
       id="linearGradient21"
       inkscape:collect="always"><stop
         style="stop-color:#0080ff;stop-opacity:0.9948718;"
         offset="0"
         id="stop21" /><stop
         style="stop-color:#042f4f;stop-opacity:1;"
         offset="0.69741696"
         id="stop22" /></linearGradient><linearGradient
       inkscape:collect="always"
       xlink:href="#linearGradient21"
       id="linearGradient22"
       x1="8049.707"
       y1="387.4938"
       x2="9637.7969"
       y2="387.4938"
       gradientUnits="userSpaceOnUse"
       gradientTransform="matrix(0.3137023,0,0,1.5636363,7871.4074,-349.89936)" /></defs><g
     inkscape:label="Layer 1"
     inkscape:groupmode="layer"
     id="layer1"
     transform="translate(-9716.8146)"><rect
       style="opacity:1;fill:url(#linearGradient22);stroke:none;stroke-width:0.688239;stroke-linecap:butt;stroke-linejoin:round;stroke-dasharray:none;stroke-opacity:1;paint-order:normal"
       id="rect21"
       width="498.18729"
       height="218.52109"
       x="10396.619"
       y="146.73946" /><g
       id="text23-5-7"
       style="font-size:192px;line-height:1.1;font-family:WWF;-inkscape-font-specification:WWF;letter-spacing:-0.19px;fill:#f9f9f9;stroke:#ffffff;stroke-width:0.982677;stroke-linejoin:round"
       aria-label="SHIPPING&#10;DENSITY"
       transform="translate(-17.96718)"><path
         d="m 9839.2092,222.112 c 22.08,0 34.368,-14.976 34.368,-39.744 0,-24 -11.136,-33.792 -24.576,-43.776 -11.328,-8.448 -17.664,-14.4 -17.664,-25.92 0,-12.096 7.104,-16.320003 13.824,-16.320003 6.528,0 10.56,3.840003 12.864,6.720003 l 12.672,-12.096003 c -4.992,-7.872 -14.016,-12.288 -25.536,-12.288 -17.472,0 -33.024,10.368 -33.024,35.520003 0,20.928 10.944,30.144 24.192,40.128 10.56,7.872 17.856,14.4 17.856,29.76 0,15.168 -7.68,20.16 -15.168,20.16 -7.488,0 -12.288,-4.032 -16.128,-8.64 l -12.864,12.672 c 4.032,7.104 13.44,13.824 29.184,13.824 z m 65.8579,-2.496 V 157.6 h 24.192 v 62.016 h 19.008 V 81.375997 h -19.008 V 139.168 h -24.192 V 81.375997 h -19.008 V 219.616 Z m 76.9941,0 V 81.375997 h -19.008 V 219.616 Z m 33.7938,0 V 168.16 h 11.328 c 24.576,0 32.448,-12.864 32.448,-28.992 V 110.56 c 0,-16.128003 -7.872,-29.184003 -32.448,-29.184003 h -30.3358 V 219.616 Z m 0,-120.192003 h 10.368 c 12.48,0 14.016,6.144003 14.016,16.320003 v 18.24 c 0,10.176 -1.536,16.32 -14.016,16.32 h -10.368 z M 10091.697,219.616 V 168.16 h 11.328 c 24.576,0 32.448,-12.864 32.448,-28.992 V 110.56 c 0,-16.128003 -7.872,-29.184003 -32.448,-29.184003 h -30.336 V 219.616 Z m 0,-120.192003 h 10.368 c 12.48,0 14.016,6.144003 14.016,16.320003 v 18.24 c 0,10.176 -1.536,16.32 -14.016,16.32 h -10.368 z M 10167.539,219.616 V 81.375997 h -19.008 V 219.616 Z m 31.49,0 v -87.552 l 25.152,87.552 h 20.352 V 81.375997 h -16.704 V 168.16 l -25.152,-86.784003 h -20.352 V 219.616 Z m 92.162,2.496 c 13.632,0 23.424,-5.184 28.224,-9.408 V 139.36 h -30.336 v 18.048 h 12.288 v 43.968 c -2.88,1.728 -6.528,2.688 -10.176,2.688 -9.792,0 -12.288,-7.296 -12.288,-16.32 v -74.688 c 0,-9.024 2.496,-16.320003 12.288,-16.320003 7.104,0 11.136,4.224003 14.208,8.256003 l 13.248,-12.480003 c -3.84,-7.488 -12.672,-13.824 -27.456,-13.824 -22.848,0 -32.448,13.824 -32.448,32.640003 v 78.144 c 0,18.816 9.6,32.64 32.448,32.64 z"
         id="path29" /><path
         d="m 9844.0092,430.816 c 24.576,0 32.448,-12.864 32.448,-28.992 V 321.76 c 0,-16.128 -7.872,-29.184 -32.448,-29.184 h -30.528 v 138.24 z m -11.52,-120.192 h 10.368 c 12.48,0 14.016,6.144 14.016,16.32 v 69.312 c 0,10.176 -1.536,16.32 -14.016,16.32 h -10.368 z m 113.2819,120.192 v -18.432 h -36.096 v -43.968 h 33.216 v -18.048 h -33.216 v -39.552 h 34.752 v -18.24 h -53.76 v 138.24 z m 28.0341,0 v -87.552 l 25.152,87.552 h 20.3518 v -138.24 h -16.704 v 86.784 l -25.1518,-86.784 h -20.352 v 138.24 z m 86.0178,2.496 c 22.08,0 34.368,-14.976 34.368,-39.744 0,-24 -11.136,-33.792 -24.576,-43.776 -11.328,-8.448 -17.664,-14.4 -17.664,-25.92 0,-12.096 7.104,-16.32 13.824,-16.32 6.528,0 10.56,3.84 12.864,6.72 l 12.672,-12.096 c -4.992,-7.872 -14.016,-12.288 -25.536,-12.288 -17.472,0 -33.024,10.368 -33.024,35.52 0,20.928 10.944,30.144 24.192,40.128 10.56,7.872 17.856,14.4 17.856,29.76 0,15.168 -7.68,20.16 -15.168,20.16 -7.488,0 -12.288,-4.032 -16.128,-8.64 l -12.864,12.672 c 4.032,7.104 13.44,13.824 29.184,13.824 z m 65.858,-2.496 v -138.24 h -19.008 v 138.24 z m 55.874,0 v -120 h 26.112 v -18.24 h -71.232 v 18.24 h 26.112 v 120 z m 79.298,0 v -57.792 l 27.456,-80.448 h -19.584 l -16.704,55.296 -16.704,-55.296 h -20.928 l 27.456,80.448 v 57.792 z"
         id="path30" /></g></g></svg>
