<?xml version="1.0" encoding="UTF-8" standalone="no"?>
<!-- Created with Inkscape (http://www.inkscape.org/) -->

<svg
   width="512"
   height="512"
   viewBox="0 0 512 512"
   version="1.1"
   id="svg1"
   xml:space="preserve"
   inkscape:version="1.3 (0e150ed6c4, 2023-07-21)"
   sodipodi:docname="marker-icons.svg"
   xmlns:inkscape="http://www.inkscape.org/namespaces/inkscape"
   xmlns:sodipodi="http://sodipodi.sourceforge.net/DTD/sodipodi-0.dtd"
   xmlns="http://www.w3.org/2000/svg"
   xmlns:svg="http://www.w3.org/2000/svg"><sodipodi:namedview
     id="namedview1"
     pagecolor="#000000"
     bordercolor="#000000"
     borderopacity="0.25"
     inkscape:showpageshadow="2"
     inkscape:pageopacity="0.0"
     inkscape:pagecheckerboard="true"
     inkscape:deskcolor="#d1d1d1"
     inkscape:document-units="px"
     inkscape:zoom="0.55657038"
     inkscape:cx="837.27058"
     inkscape:cy="439.29754"
     inkscape:window-width="1920"
     inkscape:window-height="1009"
     inkscape:window-x="905"
     inkscape:window-y="2152"
     inkscape:window-maximized="1"
     inkscape:current-layer="layer1"
     showgrid="true"
     borderlayer="true"
     showborder="true"><inkscape:page
       x="0"
       y="0"
       width="512"
       height="512"
       id="page2"
       margin="0"
       bleed="0"
       inkscape:export-filename="..\..\..\..\Local\WebDev\whale-ar\src\assets\sperm-whale-icon.svg"
       inkscape:export-xdpi="300"
       inkscape:export-ydpi="300" /><inkscape:grid
       id="grid6"
       units="px"
       originx="0"
       originy="0"
       spacingx="1"
       spacingy="1"
       empcolor="#0099e5"
       empopacity="0.30196078"
       color="#0099e5"
       opacity="0.14901961"
       empspacing="5"
       dotted="false"
       gridanglex="30"
       gridanglez="30"
       visible="true"
       enabled="false" /></sodipodi:namedview><defs
     id="defs1" /><g
     inkscape:label="Layer 1"
     inkscape:groupmode="layer"
     id="layer1"><circle
       style="fill:#f9f9f9;stroke-width:6.441;stroke-linecap:round;stroke-linejoin:round;stroke-dashoffset:5.1584"
       id="path2"
       cx="256"
       cy="256"
       r="256" /><path
       style="fill:#000000;fill-opacity:1;stroke-width:0.492235"
       d="m 314.93246,428.8447 c -5.70396,-1.72863 -12.84932,-5.80712 -22.83767,-13.03549 l -8.26781,-5.98329 -16.99501,0.15728 c -64.63967,0.59826 -103.7612,4.58549 -131.3063,13.38267 -6.90822,2.20628 -8.8558,2.32324 -9.36494,0.56235 -0.32873,-1.1369 2.60487,-3.76419 6.73412,-6.03105 8.42586,-4.62555 20.22368,-8.51056 39.63804,-13.05278 9.92818,-2.32281 19.18808,-4.64467 20.57753,-5.15967 l 2.52629,-0.93638 -2.98562,-0.1697 c -3.41971,-0.19439 -18.57574,1.18632 -25.72214,2.34326 -9.14893,1.48115 -17.6131,4.38514 -34.90864,11.9769 -9.89108,4.34159 -14.219,5.67288 -19.52129,6.00478 -8.25882,0.51701 -13.121924,-1.57084 -19.209168,-8.24691 -4.873244,-5.34466 -8.896247,-12.46005 -15.012627,-26.55253 -10.82621,-24.94417 -14.49778,-40.44467 -13.305713,-56.17349 1.756883,-23.1814 12.233043,-38.01198 30.678295,-43.42973 8.503643,-2.49769 13.088833,-2.83978 37.978133,-2.83357 50.90377,0.0128 85.15456,4.69083 140.82142,19.2341 33.08891,8.64466 44.40638,10.47949 55.48997,8.99621 7.03412,-0.94134 11.84247,-2.70858 19.65682,-7.22466 6.33026,-3.65838 7.16638,-4.00668 9.03662,-3.76459 1.18833,0.15382 2.99954,0.95375 4.27777,1.88929 5.29284,3.87385 6.4217,4.50674 8.43482,4.72887 4.1414,0.45702 6.65256,-2.05228 10.22731,-10.21969 3.65161,-8.34299 6.31536,-9.82829 14.09976,-7.86186 1.64209,0.4148 4.19479,0.76253 5.67263,0.77272 2.4534,0.0171 2.82287,-0.13743 4.24876,-1.77499 1.48549,-1.70594 1.56173,-1.97802 1.56173,-5.57346 0,-4.26792 0.28598,-5.09082 2.96459,-8.53008 2.09793,-2.69367 4.1074,-8.88718 5.62456,-17.3357 1.21804,-6.78273 1.09117,-21.66107 -0.24597,-28.84832 -4.65466,-25.01944 -18.23166,-43.10078 -35.79087,-47.66506 -1.07534,-0.27952 -4.27912,-0.87203 -7.11951,-1.31665 -11.93157,-1.86781 -23.19651,-7.82543 -31.21145,-16.50659 -3.9551,-4.28388 -5.87594,-7.58364 -5.87594,-10.09407 0,-1.05274 0.24803,-2.19894 0.55118,-2.54708 0.83179,-0.95524 3.12914,-0.76381 6.15194,0.51261 2.09743,0.8857 3.70607,1.14128 7.08959,1.12644 5.52435,-0.0242 8.30823,-0.94129 15.12116,-4.98119 7.80499,-4.62819 11.08041,-4.99148 22.11253,-2.45272 2.67537,0.61569 5.19293,0.97458 5.59455,0.7976 0.46605,-0.2054 0.82805,-1.23951 1.00053,-2.85819 1.44516,-13.56239 3.50515,-17.43708 15.38322,-28.93475 5.61803,-5.4381 7.84064,-9.15689 9.69331,-16.218414 2.71598,-10.352071 3.9944,-13.034878 6.21146,-13.034878 1.5952,0 2.35347,1.702258 3.9089,8.775025 2.64136,12.010787 3.34922,17.689987 3.34425,26.831507 -0.007,10.83021 -0.6578,13.68273 -6.08802,26.63892 -5.81678,13.87848 -6.57766,16.79021 -6.56756,25.13326 0.0129,10.59783 2.28872,17.78411 12.65622,39.96302 6.26805,13.40909 8.58114,19.54531 11.0853,29.40716 3.17779,12.5146 4.50915,23.50844 4.49392,37.10879 -0.0225,20.00743 -3.46237,37.32291 -10.90314,54.88234 -19.13099,45.1471 -59.90244,72.76837 -114.84555,77.80393 -3.53503,0.32398 -6.50299,0.67594 -6.59546,0.78211 -0.0924,0.10611 2.54777,3.69538 5.86713,7.97604 3.31938,4.28063 6.15944,8.35134 6.31124,9.04596 0.79941,3.65783 -4.64971,4.78594 -12.1452,2.51439 z"
       id="path1"
       sodipodi:nodetypes="sscsssssscssssssssssssssssssssssssssssssssssssssssssssssssss" /></g></svg>
