<?xml version="1.0" encoding="UTF-8" standalone="no"?>
<!-- Created with Inkscape (http://www.inkscape.org/) -->

<svg
   width="512"
   height="512"
   viewBox="0 0 511.99998 512"
   version="1.1"
   id="svg1"
   xml:space="preserve"
   inkscape:version="1.3 (0e150ed6c4, 2023-07-21)"
   sodipodi:docname="icons.svg"
   xmlns:inkscape="http://www.inkscape.org/namespaces/inkscape"
   xmlns:sodipodi="http://sodipodi.sourceforge.net/DTD/sodipodi-0.dtd"
   xmlns="http://www.w3.org/2000/svg"
   xmlns:svg="http://www.w3.org/2000/svg"><sodipodi:namedview
     id="namedview1"
     pagecolor="#b3b3b3"
     bordercolor="#000000"
     borderopacity="0.25"
     inkscape:showpageshadow="2"
     inkscape:pageopacity="0.0"
     inkscape:pagecheckerboard="true"
     inkscape:deskcolor="#d1d1d1"
     inkscape:document-units="px"
     inkscape:zoom="0.39355469"
     inkscape:cx="7063.8213"
     inkscape:cy="372.24814"
     inkscape:window-width="1920"
     inkscape:window-height="1009"
     inkscape:window-x="905"
     inkscape:window-y="2152"
     inkscape:window-maximized="1"
     inkscape:current-layer="layer1"
     showgrid="true"
     borderlayer="true"
     showborder="true"><inkscape:grid
       id="grid6"
       units="px"
       originx="-10990.934"
       originy="0"
       spacingx="1"
       spacingy="1"
       empcolor="#0099e5"
       empopacity="0.30196078"
       color="#0099e5"
       opacity="0.14901961"
       empspacing="5"
       dotted="false"
       gridanglex="30"
       gridanglez="30"
       visible="true"
       enabled="false" /><inkscape:page
       x="3.2736367e-05"
       y="0"
       width="512"
       height="512"
       id="page32"
       margin="0"
       bleed="0" /></sodipodi:namedview><defs
     id="defs1" /><g
     inkscape:label="Layer 1"
     inkscape:groupmode="layer"
     id="layer1"
     transform="translate(-10990.934)"><path
       style="fill:#ffffff;fill-opacity:1;stroke-width:1.28564"
       d="m 11164.453,399.28214 c -6.71,-3.1238 -12.661,-9.44125 -20.361,-21.61234 l -3.656,-5.77891 -11.513,-0.74589 c -14.722,-0.95381 -23.35,-4.88135 -30.448,-13.86065 -8.716,-11.02631 -8.389,-7.10257 -8.389,-100.81051 0,-67.39713 0.352,-85.84754 1.713,-89.69151 2.917,-8.24139 10.887,-17.0287 19.105,-21.06432 l 7.466,-3.66584 h 128.564 c 128.004,0 128.589,0.0115 134.414,2.70711 8.554,3.95773 14.783,9.9969 18.846,18.27242 l 3.587,7.30448 v 86.13766 86.13767 l -3.587,7.30448 c -4.063,8.27553 -10.292,14.31468 -18.846,18.27242 -5.724,2.64857 -7.616,2.71551 -87.488,3.09582 l -81.638,0.3887 -3.857,6.58492 c -2.122,3.62169 -7.039,9.83732 -10.928,13.81248 -10.53,10.76266 -20.62,12.96883 -32.984,7.21181 z m 29.097,-130.35624 c 1.784,-1.31994 4.071,-4.73967 5.082,-7.59939 3.644,-10.31021 -3.675,-20.28031 -14.887,-20.28031 -5.044,0 -6.357,0.61871 -10.191,4.80227 -3.628,3.95919 -4.401,5.8039 -4.401,10.50785 0,6.11498 4.202,12.72444 9.537,15.00227 3.751,1.6011 11.014,0.41196 14.86,-2.43269 z m 59.864,1.57918 c 5.669,-2.69014 8.733,-7.61331 8.733,-14.03124 0,-6.51008 -3.077,-11.34718 -9.009,-14.16218 -8.26,-3.91944 -16.932,-0.10013 -20.401,8.985 -2.01,5.2621 -1.99,5.82897 0.394,11.21752 1.713,3.87427 3.894,6.35708 6.871,7.82348 5.476,2.69776 8.013,2.72942 13.412,0.16742 z m 67.123,-3.68269 c 4.87,-5.27516 5.644,-12.61172 1.984,-18.80746 -9.636,-16.31328 -35.218,-1.76084 -26.485,15.0666 5.324,10.26023 16.856,12.02085 24.501,3.74086 z"
       id="path9-7"
       sodipodi:nodetypes="sscssssscssscccssscsssssssssssssssssssss" /><ellipse
       style="fill:none;stroke:#ffffff;stroke-width:31.3759;stroke-linecap:butt;stroke-linejoin:round;stroke-dasharray:none;stroke-dashoffset:5.1584;stroke-opacity:1;paint-order:normal"
       id="path2-7-1-9-5-3-8"
       cx="11246.944"
       cy="256.04266"
       rx="240.30119"
       ry="240.26939" /></g></svg>
