<?xml version="1.0" encoding="UTF-8" standalone="no"?>
<!-- Created with Inkscape (http://www.inkscape.org/) -->

<svg
   width="512"
   height="512"
   viewBox="0 0 512 512"
   version="1.1"
   id="svg1"
   xml:space="preserve"
   inkscape:version="1.3 (0e150ed6c4, 2023-07-21)"
   sodipodi:docname="icons.svg"
   xmlns:inkscape="http://www.inkscape.org/namespaces/inkscape"
   xmlns:sodipodi="http://sodipodi.sourceforge.net/DTD/sodipodi-0.dtd"
   xmlns="http://www.w3.org/2000/svg"
   xmlns:svg="http://www.w3.org/2000/svg"><sodipodi:namedview
     id="namedview1"
     pagecolor="#b3b3b3"
     bordercolor="#000000"
     borderopacity="0.25"
     inkscape:showpageshadow="2"
     inkscape:pageopacity="0.0"
     inkscape:pagecheckerboard="true"
     inkscape:deskcolor="#d1d1d1"
     inkscape:document-units="px"
     inkscape:zoom="0.39355469"
     inkscape:cx="7063.8213"
     inkscape:cy="372.24814"
     inkscape:window-width="1920"
     inkscape:window-height="1009"
     inkscape:window-x="905"
     inkscape:window-y="2152"
     inkscape:window-maximized="1"
     inkscape:current-layer="layer1"
     showgrid="true"
     borderlayer="true"
     showborder="true"><inkscape:grid
       id="grid6"
       units="px"
       originx="-3654"
       originy="0"
       spacingx="1"
       spacingy="1"
       empcolor="#0099e5"
       empopacity="0.30196078"
       color="#0099e5"
       opacity="0.14901961"
       empspacing="5"
       dotted="false"
       gridanglex="30"
       gridanglez="30"
       visible="true"
       enabled="false" /><inkscape:page
       x="0"
       y="0"
       width="512"
       height="512"
       id="page7"
       inkscape:export-filename="..\public\assets\tts-icon-1.svg"
       inkscape:export-xdpi="300"
       inkscape:export-ydpi="300"
       margin="0"
       bleed="0" /></sodipodi:namedview><defs
     id="defs1" /><g
     inkscape:label="Layer 1"
     inkscape:groupmode="layer"
     id="layer1"
     transform="translate(-3654)"><circle
       style="fill:#f9f9f9;stroke-width:6.441;stroke-linecap:round;stroke-linejoin:round;stroke-dashoffset:5.1584"
       id="path2-7-1"
       cx="3910"
       cy="256"
       r="256" /><path
       style="fill:#000000;stroke-width:1.28564"
       d="m 3827.5196,399.28215 c -6.7091,-3.1238 -12.6607,-9.44125 -20.3606,-21.61234 l -3.6562,-5.77891 -11.5129,-0.74589 c -14.7223,-0.95381 -23.3497,-4.88135 -30.4475,-13.86065 -8.7159,-11.02631 -8.3893,-7.10257 -8.3893,-100.81051 0,-67.39713 0.3524,-85.84754 1.7129,-89.69151 2.9168,-8.24139 10.8869,-17.0287 19.1055,-21.06432 l 7.4656,-3.66584 h 128.5637 c 128.0046,0 128.5891,0.0115 134.4144,2.70711 8.5535,3.95773 14.7823,9.9969 18.8462,18.27242 l 3.587,7.30448 v 86.13766 86.13767 l -3.587,7.30448 c -4.0639,8.27553 -10.2927,14.31468 -18.8462,18.27242 -5.7243,2.64857 -7.616,2.71551 -87.4887,3.09582 l -81.6379,0.3887 -3.857,6.58492 c -2.1212,3.62169 -7.0388,9.83732 -10.9279,13.81248 -10.5294,10.76266 -20.6196,12.96883 -32.9841,7.21181 z m 29.0972,-130.35624 c 1.7843,-1.31994 4.0712,-4.73967 5.0819,-7.59939 3.6444,-10.31021 -3.6744,-20.28031 -14.8871,-20.28031 -5.0439,0 -6.3569,0.61871 -10.1908,4.80227 -3.6283,3.95919 -4.4011,5.8039 -4.4011,10.50785 0,6.11498 4.2019,12.72444 9.5376,15.00227 3.7504,1.6011 11.014,0.41196 14.8595,-2.43269 z m 59.864,1.57918 c 5.6692,-2.69014 8.7334,-7.61331 8.7334,-14.03124 0,-6.51008 -3.0771,-11.34718 -9.0093,-14.16218 -8.2596,-3.91944 -16.9315,-0.10013 -20.4011,8.985 -2.0097,5.2621 -1.9899,5.82897 0.3938,11.21752 1.7138,3.87427 3.8944,6.35708 6.8713,7.82348 5.4764,2.69776 8.013,2.72942 13.4119,0.16742 z m 67.1227,-3.68269 c 4.8706,-5.27516 5.6449,-12.61172 1.985,-18.80746 -9.6365,-16.31328 -35.2183,-1.76084 -26.4858,15.0666 5.3246,10.26023 16.8559,12.02085 24.5008,3.74086 z"
       id="path9"
       sodipodi:nodetypes="sscssssscssscccssscsssssssssssssssssssss" /></g></svg>
