<?xml version="1.0" encoding="UTF-8" standalone="no"?>
<!-- Created with Inkscape (http://www.inkscape.org/) -->

<svg
   width="512"
   height="512"
   viewBox="0 0 512 512"
   version="1.1"
   id="svg1"
   xml:space="preserve"
   inkscape:version="1.3 (0e150ed6c4, 2023-07-21)"
   sodipodi:docname="marker-icons.svg"
   xmlns:inkscape="http://www.inkscape.org/namespaces/inkscape"
   xmlns:sodipodi="http://sodipodi.sourceforge.net/DTD/sodipodi-0.dtd"
   xmlns="http://www.w3.org/2000/svg"
   xmlns:svg="http://www.w3.org/2000/svg"><sodipodi:namedview
     id="namedview1"
     pagecolor="#b3b3b3"
     bordercolor="#000000"
     borderopacity="0.25"
     inkscape:showpageshadow="2"
     inkscape:pageopacity="0.0"
     inkscape:pagecheckerboard="true"
     inkscape:deskcolor="#d1d1d1"
     inkscape:document-units="px"
     inkscape:zoom="0.55657038"
     inkscape:cx="837.27058"
     inkscape:cy="439.29754"
     inkscape:window-width="1920"
     inkscape:window-height="1009"
     inkscape:window-x="905"
     inkscape:window-y="2152"
     inkscape:window-maximized="1"
     inkscape:current-layer="layer1"
     showgrid="true"
     borderlayer="true"
     showborder="true"><inkscape:page
       x="0"
       y="0"
       width="512"
       height="512"
       id="page2"
       margin="0"
       bleed="0"
       inkscape:export-filename="..\..\..\..\Local\WebDev\whale-ar\src\assets\blue-whale-icon.svg"
       inkscape:export-xdpi="300"
       inkscape:export-ydpi="300" /><inkscape:grid
       id="grid6"
       units="px"
       originx="0"
       originy="0"
       spacingx="1"
       spacingy="1"
       empcolor="#0099e5"
       empopacity="0.30196078"
       color="#0099e5"
       opacity="0.14901961"
       empspacing="5"
       dotted="false"
       gridanglex="30"
       gridanglez="30"
       visible="true"
       enabled="false" /></sodipodi:namedview><defs
     id="defs1" /><g
     inkscape:label="Layer 1"
     inkscape:groupmode="layer"
     id="layer1"><circle
       style="fill:#f9f9f9;stroke-width:6.441;stroke-linecap:round;stroke-linejoin:round;stroke-dashoffset:5.1584"
       id="path2"
       cx="256"
       cy="256"
       r="256" /><path
       style="fill:#000000;fill-opacity:1;stroke-width:0.423624"
       d="m 335.23337,448.68182 c -4.90891,-1.48769 -11.05831,-4.99769 -19.65442,-11.21852 l -7.11539,-5.14931 -14.62614,0.13536 c -55.62978,0.51487 -89.2983,3.94634 -113.00399,11.51731 -5.94531,1.89876 -7.62143,1.99941 -8.0596,0.48397 -0.28291,-0.97843 2.24179,-3.23952 5.79548,-5.19041 7.25141,-3.98081 17.40477,-7.3243 34.11304,-11.2334 8.54432,-1.99904 16.51352,-3.99726 17.7093,-4.44048 l 2.17416,-0.80586 -2.56947,-0.14605 c -2.94305,-0.16729 -15.98653,1.02097 -22.13682,2.01664 -7.8737,1.2747 -15.15808,3.77391 -30.04285,10.30749 -8.5124,3.73643 -12.23707,4.88216 -16.80029,5.16779 -7.10766,0.44495 -11.29292,-1.35188 -16.53168,-7.0974 -4.19398,-4.59969 -7.65623,-10.72329 -12.92008,-22.85147 -9.31718,-21.4673 -12.47698,-34.80724 -11.45107,-48.34368 1.51199,-19.95023 10.52792,-32.71363 26.40216,-37.37622 7.31835,-2.14954 11.26443,-2.44395 32.6845,-2.4386 43.80848,0.011 73.28518,4.03699 121.19285,16.55313 28.47676,7.43971 38.21673,9.01879 47.75542,7.74226 6.05366,-0.81013 10.19179,-2.33104 16.91693,-6.21764 5.44791,-3.14846 6.16749,-3.44821 7.77704,-3.23986 1.02269,0.13238 2.58145,0.82081 3.68151,1.62595 4.55509,3.33388 5.5266,3.87856 7.25912,4.06973 3.56414,0.39331 5.72528,-1.76622 8.80176,-8.79521 3.14263,-7.18009 5.43509,-8.45836 12.13445,-6.76602 1.4132,0.35698 3.61009,0.65624 4.88194,0.66501 2.11143,0.0147 2.4294,-0.11827 3.65654,-1.52758 1.27844,-1.46816 1.34405,-1.70231 1.34405,-4.7966 0,-3.67303 0.24612,-4.38123 2.55137,-7.3411 1.8055,-2.31821 3.53488,-7.64843 4.84057,-14.91934 1.04826,-5.83731 0.93907,-18.64181 -0.21169,-24.82726 -4.00586,-21.53207 -15.69041,-37.09312 -30.80211,-41.0212 -0.92545,-0.24056 -3.68267,-0.75048 -6.12715,-1.13313 -10.26847,-1.60746 -19.96323,-6.73467 -26.861,-14.2058 -3.40381,-3.68676 -5.05691,-6.52658 -5.05691,-8.68709 0,-0.906 0.21346,-1.89244 0.47435,-2.19205 0.71585,-0.8221 2.69298,-0.65735 5.29444,0.44116 1.80508,0.76224 3.1895,0.9822 6.1014,0.96943 4.75433,-0.0208 7.15018,-0.81009 13.01348,-4.28688 6.71708,-3.98309 9.53595,-4.29574 19.03035,-2.11085 2.30246,0.52987 4.4691,0.83874 4.81474,0.68643 0.40109,-0.17677 0.71263,-1.06674 0.86107,-2.4598 1.24373,-11.67198 3.01658,-15.00659 13.23901,-24.90164 4.83496,-4.68011 6.74776,-7.88055 8.3422,-13.9578 2.33741,-8.90913 3.43763,-11.21798 5.34566,-11.21798 1.37286,0 2.02543,1.46497 3.36406,7.5519 2.27319,10.33665 2.88238,15.22424 2.8781,23.09156 -0.006,9.32063 -0.56611,11.77555 -5.23943,22.92582 -5.006,11.94401 -5.66082,14.44989 -5.65213,21.63003 0.0111,9.12064 1.9697,15.30525 10.89212,34.39272 5.39437,11.54005 7.38504,16.82096 9.54016,25.30821 2.73485,10.77023 3.88063,20.23168 3.86753,31.93633 -0.0194,17.21867 -2.97977,32.12061 -9.3834,47.23249 -16.46439,38.85421 -51.55286,62.62546 -98.83765,66.95913 -3.04229,0.27882 -5.59656,0.58172 -5.67614,0.67309 -0.0795,0.0913 2.19264,3.1803 5.04933,6.86429 2.8567,3.68397 5.3009,7.18728 5.43154,7.78508 0.68798,3.14798 -4.0016,4.11884 -10.45232,2.16392 z"
       id="path1"
       sodipodi:nodetypes="sscsssssscssssssssssssssssssssssssssssssssssssssssssssssssss" /><path
       style="fill:#000000;fill-opacity:1;stroke-width:0.397081"
       d="m 24.94869,308.3922 c -0.7063,-1.84063 0.58964,-7.97699 2.35978,-11.17353 3.87616,-6.99968 11.52061,-13.71519 21.02549,-18.47046 3.88703,-1.94467 8.07278,-3.35525 14.37882,-4.84563 8.17188,-1.93135 16.41534,-6.69483 18.43424,-10.6522 0.6753,-1.32368 0.8815,-2.77576 1.1641,-8.19676 0.7812,-14.98608 2.29189,-23.91468 6.18706,-36.5677 6.25259,-20.31086 16.97895,-38.96125 39.01149,-67.83103 9.97971,-13.07666 20.43263,-22.50173 37.19581,-33.53829 9.20818,-6.06251 15.96661,-9.82092 33.32787,-18.533872 8.51739,-4.27454 18.2165,-9.462118 21.55361,-11.527968 7.50437,-4.64561 15.80292,-10.84314 22.32381,-16.67187 2.72993,-2.44017 6.57167,-5.64144 8.53722,-7.11395 12.22104,-9.15552 28.46704,-16.65544 46.19407,-21.32539 6.41576,-1.69014 6.69597,-1.79369 9.30708,-3.43913 5.54324,-3.49318 10.40188,-4.09223 14.1865,-1.74913 0.76438,0.47322 2.60311,1.06796 4.08606,1.32161 3.06435,0.52414 4.14788,1.11788 5.66147,3.1023 3.75185,4.91893 -0.56079,18.18502 -11.2682,34.66182 -3.83889,5.90736 -5.30519,8.65497 -8.2081,15.380568 -6.37519,14.770462 -13.80784,26.574572 -25.00285,39.708072 -6.2019,7.27583 -16.43044,17.19371 -22.52348,21.83943 l -2.60395,1.9854 -0.88617,3.9708 c -1.18216,5.29706 -4.39064,15.9097 -6.20058,20.50953 -7.44662,18.92518 -18.54959,33.19547 -32.1105,41.27064 -3.68036,2.19155 -9.40329,4.73084 -10.66214,4.73084 -0.7282,0 -1.86121,-1.28629 -1.86121,-2.113 0,-0.36337 1.32935,-3.20828 2.95411,-6.32203 5.76078,-11.04008 12.6142,-26.36876 17.49884,-39.13858 1.02824,-2.6881 1.76511,-4.99184 1.6375,-5.11945 -0.3989,-0.3989 -7.1488,2.1832 -36.5839,13.99477 -25.35494,10.1743 -25.06537,10.04528 -29.07008,12.95155 -1.9198,1.3932 -4.23203,3.01167 -5.13833,3.59658 -3.03491,1.95872 -10.6183,5.40503 -15.08795,6.85682 -5.08001,1.65003 -7.13251,2.80247 -13.47314,7.5649 -13.55686,10.18253 -25.26522,23.80637 -33.59829,39.09495 -3.64657,6.69034 -3.60415,7.55832 0.50574,10.34928 3.6429,2.47385 7.76299,4.27695 12.73743,5.57437 6.06725,1.58243 11.62442,3.41615 14.0326,4.63041 9.6407,4.86104 15.90499,13.96443 18.2609,26.53707 0.61719,3.29375 0.59476,4.53284 -0.082,4.53166 -0.17065,-3.2e-4 -1.8291,-1.26581 -3.68545,-2.81224 -4.29118,-3.57475 -7.73991,-5.62087 -11.56383,-6.86078 -3.64043,-1.18042 -10.41955,-2.23826 -14.35771,-2.24046 -9.65095,-0.006 -18.28351,-3.31211 -23.99054,-9.18966 -1.13514,-1.16905 -2.41142,-2.56806 -2.83621,-3.10893 l -0.77234,-0.98338 -3.64328,3.84963 c -5.33783,5.64016 -9.81141,8.34425 -15.97282,9.65488 -1.59732,0.33978 -6.74596,0.78507 -11.44143,0.98955 -4.6955,0.20446 -9.34379,0.53853 -10.32961,0.74236 -5.06301,1.04689 -10.52354,4.0062 -14.89701,8.07344 -2.85761,2.6575 -4.24609,3.26241 -4.71049,2.05219 z m 289.65915,-5.95682 c 0.019,-0.46258 0.11317,-0.55667 0.23991,-0.2399 0.11472,0.28664 0.10063,0.62913 -0.0313,0.76107 -0.13195,0.13194 -0.22583,-0.10258 -0.20859,-0.52117 z m 15.77743,-3.21627 c 0.28665,-0.1147 0.62913,-0.10059 0.76104,0.0314 0.13196,0.13195 -0.10257,0.22581 -0.52111,0.20857 -0.46261,-0.019 -0.5567,-0.11314 -0.23993,-0.23991 z"
       id="path4" /></g></svg>
