<?xml version="1.0" encoding="UTF-8" standalone="no"?>
<!-- Created with Inkscape (http://www.inkscape.org/) -->

<svg
   width="512"
   height="512"
   viewBox="0 0 511.99998 512"
   version="1.1"
   id="svg1"
   xml:space="preserve"
   inkscape:version="1.3 (0e150ed6c4, 2023-07-21)"
   sodipodi:docname="icons.svg"
   xmlns:inkscape="http://www.inkscape.org/namespaces/inkscape"
   xmlns:sodipodi="http://sodipodi.sourceforge.net/DTD/sodipodi-0.dtd"
   xmlns="http://www.w3.org/2000/svg"
   xmlns:svg="http://www.w3.org/2000/svg"><sodipodi:namedview
     id="namedview1"
     pagecolor="#b3b3b3"
     bordercolor="#000000"
     borderopacity="0.25"
     inkscape:showpageshadow="2"
     inkscape:pageopacity="0.0"
     inkscape:pagecheckerboard="true"
     inkscape:deskcolor="#d1d1d1"
     inkscape:document-units="px"
     inkscape:zoom="0.27828519"
     inkscape:cx="10320.348"
     inkscape:cy="670.1758"
     inkscape:window-width="1920"
     inkscape:window-height="1009"
     inkscape:window-x="-8"
     inkscape:window-y="-8"
     inkscape:window-maximized="1"
     inkscape:current-layer="layer1"
     showgrid="true"
     borderlayer="true"
     showborder="true"><inkscape:grid
       id="grid6"
       units="px"
       originx="-11512.934"
       originy="0"
       spacingx="1"
       spacingy="1"
       empcolor="#0099e5"
       empopacity="0.30196078"
       color="#0099e5"
       opacity="0.14901961"
       empspacing="5"
       dotted="false"
       gridanglex="30"
       gridanglez="30"
       visible="true"
       enabled="false" /><inkscape:page
       x="3.6351477e-05"
       y="0"
       width="512"
       height="512"
       id="page14"
       margin="0"
       bleed="0" /></sodipodi:namedview><defs
     id="defs1" /><g
     inkscape:label="Layer 1"
     inkscape:groupmode="layer"
     id="layer1"
     transform="translate(-11512.934)"><circle
       style="fill:#f9f9f9;stroke-width:6.4252;stroke-linecap:round;stroke-linejoin:round;stroke-dasharray:none;stroke-dashoffset:5.1584"
       id="path2-7-1-9-40"
       cx="11768.934"
       cy="256"
       r="256" /><path
       style="fill:#000000;fill-opacity:1;stroke-width:0.315251"
       d="m 11956.361,94.908913 c -1.229,-0.86041 -5.947,-0.71724 -8.591,0.26137 -5.79,2.14225 -12.01,7.434567 -17.109,14.557737 -2.085,2.91307 -3.829,6.15302 -5.991,11.12959 -2.802,6.44907 -7.691,12.52978 -10.936,13.59903 -1.084,0.35693 -2.184,0.30887 -6.208,-0.2759 -11.12,-1.61471 -17.922,-1.71506 -27.86,-0.40966 -15.952,2.09605 -31.445,8.13115 -56.348,21.95178 -11.281,6.25947 -19.964,13.46094 -30.898,25.62293 -6.008,6.68192 -9.909,11.68975 -19.242,24.6955 -4.578,6.38174 -10.026,13.59953 -12.107,16.04049 -4.68,5.48858 -10.63,11.40005 -16.009,15.89929 -2.253,1.88452 -5.252,4.57005 -6.664,5.96912 -8.786,8.69971 -17.039,20.96955 -23.47,34.88686 -2.328,5.03738 -2.45,5.25269 -4.1,7.15803 -3.501,4.04555 -4.765,7.96291 -3.689,11.43808 0.218,0.70113 0.342,2.30776 0.277,3.56895 -0.136,2.60631 0.117,3.59028 1.313,5.1374 2.971,3.8363 13.428,2.27879 27.326,-4.0686 4.982,-2.2761 7.246,-3.07095 12.669,-4.45162 11.911,-3.03177 21.825,-7.38317 33.354,-14.63709 6.386,-4.01864 15.392,-10.95955 19.833,-15.28454 l 1.897,-1.84893 3.061,-0.1317 c 4.084,-0.17638 12.409,-1.22281 16.089,-2.02215 15.139,-3.28966 27.485,-10.29593 35.705,-20.2641 2.231,-2.70504 5.063,-7.04252 5.276,-8.0807 0.124,-0.6005 -0.627,-1.72922 -1.234,-1.85381 -0.266,-0.0549 -2.578,0.61246 -5.135,1.48328 -9.072,3.08751 -21.474,6.42961 -31.665,8.53339 -2.144,0.44301 -3.959,0.70357 -4.029,0.5787 -0.227,-0.38855 2.812,-5.56717 16.464,-28.06465 11.759,-19.37899 11.616,-19.16016 14.426,-22.02581 1.347,-1.37292 2.926,-3.03668 3.508,-3.69564 1.951,-2.20782 5.764,-7.94315 7.587,-11.41076 2.071,-3.94142 3.264,-5.46062 7.831,-9.97254 9.764,-9.64683 21.739,-17.24985 34.362,-21.818 5.523,-1.99966 6.154,-1.83369 7.502,1.97663 1.197,3.37754 1.819,7.04772 1.927,11.34624 0.129,5.24341 0.531,10.10301 1.014,12.27295 1.93,8.68424 7.543,15.22409 16.361,19.06171 2.31,1.00611 3.222,1.17385 3.336,0.61716 0.03,-0.14031 -0.618,-1.69972 -1.437,-3.46376 -1.893,-4.07799 -2.809,-7.23123 -3.07,-10.5723 -0.247,-3.18042 0.127,-8.93118 0.793,-12.18031 1.634,-7.96117 0.672,-15.57954 -2.669,-21.17268 -0.665,-1.11251 -1.474,-2.37628 -1.798,-2.80757 l -0.591,-0.78609 3.44,-2.42428 c 5.041,-3.55254 7.783,-6.83432 9.788,-11.71921 0.521,-1.26633 1.72,-5.44585 2.667,-9.28774 0.946,-3.84261 1.979,-7.62537 2.296,-8.40849 1.626,-4.01771 4.721,-8.07553 8.445,-11.069687 2.434,-1.95589 3.113,-3.01066 2.303,-3.5758 z m -53.49,238.016457 c -0.343,-0.0551 -0.427,0.01 -0.216,0.16178 0.19,0.13708 0.444,0.17696 0.562,0.0927 0.12,-0.0886 -0.04,-0.20088 -0.347,-0.25011 z m -5.034,12.52781 c -0.133,0.21953 -0.18,0.50392 -0.106,0.63305 0.07,0.12878 0.182,-0.0502 0.242,-0.39896 0.06,-0.38334 0,-0.47594 -0.136,-0.23408 z"
       id="path4-5" /><path
       id="path15"
       style="fill:none;stroke:#000000;stroke-width:11.928;stroke-linecap:round;stroke-linejoin:round;stroke-dasharray:none"
       d="m 11711.014,343.12727 c -5.109,9.65813 -15.929,15.4945 -27.339,13.74708 -14.412,-2.20743 -24.306,-15.68016 -22.098,-30.09246 1.088,-7.10801 4.917,-13.11703 10.248,-17.11725"
       sodipodi:nodetypes="cssc" /><path
       id="path15-9"
       style="fill:none;stroke:#000000;stroke-width:12.273;stroke-linecap:round;stroke-linejoin:round;stroke-dasharray:none"
       d="m 11734.778,361.75667 c -10.903,20.61274 -33.996,33.06894 -58.348,29.33953 -30.759,-4.71118 -51.873,-33.46518 -47.161,-64.22445 2.321,-15.17019 10.493,-27.99486 21.871,-36.53228"
       sodipodi:nodetypes="cssc" /><path
       id="path15-9-2"
       style="fill:none;stroke:#000000;stroke-width:12.074;stroke-linecap:round;stroke-linejoin:round;stroke-dasharray:none"
       d="m 11756.695,379.52584 c -16.579,31.34345 -51.694,50.28418 -88.723,44.61329 -46.772,-7.16375 -78.877,-50.88669 -71.713,-97.65882 3.53,-23.06758 15.956,-42.5686 33.257,-55.55048"
       sodipodi:nodetypes="cssc" /></g></svg>
