<?xml version="1.0" encoding="UTF-8"?>
<svg xmlns="http://www.w3.org/2000/svg" xmlns:xlink="http://www.w3.org/1999/xlink"
     width="400" height="400" viewBox="-200.0 -200.0 400 400">
<defs>
</defs>
<path d="M-48.94397331312161,31.73342334063634 L-49.01802221794245,31.468577574191446 L-48.83407388520891,31.563359518091172 L-48.70448971950776,31.71214479036683 L-48.838957755418505,31.703037781321235 L-49.05753182692566,31.603456775582455 L-49.23038142708754,31.554796463507227 L-49.397114550158484,31.46527218268252 L-49.39651805053424,31.360845680103317 L-49.32014405423751,31.43625390954391 L-49.377820879367285,31.305617962151118 L-49.32319048944154,30.959734989972073 L-49.18749795831933,31.08296115208211 L-49.148731042490155,31.243413818903775 L-49.21357781656541,31.3048471922781 L-49.34080822473859,31.351125653427133 L-49.31223912350617,31.286952904078984 L-49.26835547861175,30.994298454027014 L-49.1395605467012,30.91149913117084 L-49.227739257718575,30.922059524624625 L-49.17163494568168,31.079722911189386 L-48.915588028222416,31.060668959980802 L-48.70492207874103,31.160761873803377 L-48.65887215096497,31.425724928656894 L-48.618348522087224,31.679849258035734 L-48.83733556599218,31.647307073118355 L-49.02761648871634,31.483797602165776 L-49.190617103885856,31.28433825545437 L-49.27183407845792,31.39502128513463 L-49.21118696996965,31.103687908647647 L-49.06864461453603,31.217283489280486 L-49.04114879453431,31.552751166265512 L-48.92137712521034,31.696338831846038 L-48.92846002520749,31.37864382916886 L-48.93408420343996,31.35487584688163 L-48.95322646565929,31.620648133933297 L-48.985518573186646,31.50841197799564 L-48.969652591644454,31.303120613054624 L-48.99866423756543,31.380244847081165 L-49.05387162352528,31.508568673886263 L-49.0103250048938,31.80798388667315 L-49.02024160752106,31.281544894343654 L-49.19001498891784,31.255426440338535 L-49.24231535587272,31.51450679431488 L-49.041647648333715,31.422951426960076 L-49.12377887315239,31.545171052594124 L-49.105198901438115,31.41532791390882 L-49.12826882977461,31.445358105357858 L-49.1547637119649,31.40800814091918 L-49.140837559276505,31.360353053219804 L-49.24842322647635,31.2564628660108 L-49.25733044047774,31.12886017166347" stroke-width="0.2" stroke="black" fill="black" fill-opacity="1" />
<path d="M-49.19670525406926,31.612421065939703 L-49.14172674618665,31.887513800698663 L-49.061609372684444,31.602298602585005 L-48.9494025332892,31.300966444860226 L-48.84231112197854,31.543635750883464 L-48.878178824686564,31.660614915297657 L-48.98571733967776,31.36058106953638 L-48.91924897662878,31.306740152470308 L-48.75468270353362,31.454736352188018 L-48.67860966742536,31.548664797189296 L-48.817360181344704,31.60009191702676 L-48.939428898784065,31.51396506375176 L-49.01406158252953,31.522143617398854 L-49.06871814774102,31.755416073680706 L-49.01412852743512,31.46790465585387 L-49.08049175012121,31.248891725769994 L-49.03646742696536,31.088230590699855 L-49.071955710344696,30.801232248503542 L-49.00340584498589,30.87958576468313 L-49.03052455295364,31.046722580935246 L-48.9875469076423,31.026004219586678 L-49.016920415213065,31.256395426287792 L-49.01196782097904,31.544627776421528 L-48.96360888607324,31.786746100463745 L-48.92390711001781,31.60089113056202 L-48.971253003544405,31.26859086330144 L-48.799255862608405,31.217343823647685 L-48.63194837882312,31.26254148122923 L-48.61978664499174,31.40420140484449 L-48.66075681601566,31.628227802824977 L-48.805383186764445,31.716568068951286 L-48.98182050235402,31.751641150474526 L-49.15783813493195,31.520689754852466 L-49.31077396355523,31.520049383269924 L-49.27691474700845,31.180718038407765 L-49.12805046517766,31.176039367315788 L-49.07599741241888,31.369118082268503 L-49.05563581999245,31.53903507191304 L-49.0109356707517,31.484599829083542 L-49.02758469252707,31.230333815129168 L-49.00200990943654,31.317846757642766 L-49.17788446194261,31.511082791177696" stroke-width="0.2" stroke="black" fill="black" fill-opacity="1" />
<path d="M-49.533848010347484,31.57456132835982 L-49.48314637624917,31.691588751372173 L-49.47910478536991,31.6945308023388 L-49.47182265186294,31.70443120942499 L-49.462775738115454,31.72141146420759 L-49.45282958543644,31.742017429724307 L-49.44282973116761,31.762836355764534" stroke-width="0.2" stroke="black" fill="black" fill-opacity="1" />
<path d="M-49.312441398197215,31.84739066814794 L-49.35474424041698,31.83399550459275 L-49.41235186338415,31.801816549022746 L-49.446047445476886,31.753061954769223 L-49.45123796349543,31.72792865445569 L-49.426278316298855,31.761416741255555 L-49.378539215272646,31.83976032772819" stroke-width="0.2" stroke="black" fill="black" fill-opacity="1" />
<path d="M-49.281091111698544,31.643629834655236 L-49.11347441706125,31.802496850703456 L-49.08173906253161,31.772024437031142 L-49.051924005466894,31.351299606770375 L-48.85281480601975,31.45932853586605 L-48.83273987411421,31.705637552064662 L-48.99153645929588,31.550568276421572 L-48.95321956045435,31.30437980664293 L-48.80505087516643,31.526372371578642 L-48.6524027356171,31.49333025427107 L-48.74318657141363,31.650252004033582 L-48.92038700666527,31.506276001291244 L-49.02689329915244,31.46810759771449 L-49.044107858324715,31.70812799595621 L-49.100099279712346,31.56129026946225 L-49.02594610740879,31.328993181718452 L-49.030976171148204,31.096751179941315 L-49.08398476638962,30.8990609889908 L-49.0191835711148,30.782143382087998 L-48.99732612893769,30.961072520386203 L-48.972735493224654,30.998904247964067 L-49.02104253345819,31.16145373975645 L-49.00516194646239,31.38118795797099 L-49.02122609404309,31.7716144724561 L-48.909359916984855,31.7226265467685 L-48.93966333660766,31.419515781714072 L-48.797298859698195,31.27389932021895 L-48.69938646170788,31.223383831987586 L-48.56859360159435,31.428027275210532 L-48.64520716736053,31.54664411850434 L-48.7252146302375,31.65460984440371 L-48.89392869092661,31.759450236738864 L-49.07339403895983,31.593553944446867 L-49.25734341692568,31.47135031976276 L-49.263591343099165,31.46308286577181 L-49.18975001696739,31.147376417565276 L-49.08407919868107,31.229755968453876 L-49.0610140128082,31.618192794280084 L-48.9113817576568,32.21216030988793 L-48.87752216304727,31.580527903570164 L-48.84255914226242,30.935679368648604 L-49.132170159373395,31.294294004255548 L-48.89507674518574,31.47809472572397 L-49.13746189813368,31.23374893379171 L-49.09546697690479,31.165221568726306 L-49.12562250171539,31.454087107250327 L-49.04077322255007,31.599130392257077 L-49.06421287401766,31.22226129696412 L-49.148184441589244,31.10463739100677 L-49.28278132462126,31.24068569585652 L-49.17414951887231,31.426339847720726 L-49.24954453835561,31.28911860318727 L-49.35553302942786,31.22773165369482 L-49.30909100054173,31.236285779326153 L-49.34153108627747,31.196016925824065 L-49.30492339801185,31.215954632070638 L-49.28117222839753,31.178458813246678 L-49.33315908681649,31.10363822675442 L-49.354306226921686,30.958951577235897 L-49.275599505617365,31.209072133130032 L-49.10492156461183,31.447205976007314 L-49.00553100798366,31.53934273715557 L-49.206779764611845,31.631542123286515 L-49.30306731005732,31.311628970854148 L-49.24978645959777,31.021914069882957 L-49.30625306694466,31.23728905779079 L-49.40214055528306,31.26578889570341 L-49.486759599793025,30.918655191869973 L-49.606038075139345,30.814112868655183 L-49.72705419360435,31.044365337446326 L-49.670679978122,31.18742021253583 L-49.83040257797354,30.93557853708912 L-49.77170762985643,30.905557841686814 L-49.75224443683981,30.959948406394787 L-49.66774493799551,30.94556616547577 L-49.79592277698141,31.047603222515285 L-49.859554073753756,30.98625867164837 L-49.87027827957349,30.6557686133156 L-49.82639480703123,30.58298183762913 L-49.83011889747669,30.80865692278698 L-49.94872140774444,30.853714630433846 L-49.86782334578176,30.62824015204316 L-50.0089460644674,30.592269738581393 L-50.19292354695097,30.269762997843515" stroke-width="0.2" stroke="black" fill="black" fill-opacity="1" />
<path d="M-49.54179705210623,31.570217776537767 L-49.53996703380225,31.561496335900316 L-49.52931899094753,31.544763678860868 L-49.51563096775429,31.613714329653536 L-49.496726056665636,31.68421611631441 L-49.507900512982324,31.693155465649607 L-49.51308939643547,31.666852461424735 L-49.510522005654686,31.63438759033986 L-49.484094969048876,31.678216683003246 L-49.50933154721027,31.705524700333605 L-49.548237868118974,31.596711724690675 L-49.56091595783122,31.50179556851449 L-49.56084413146836,31.557400960035036 L-49.60691838313461,31.57483154315106 L-49.64662067624646,31.51460685862936 L-49.611842378033494,31.54460051142551 L-49.56615891537719,31.623017208562413 L-49.534541749935066,31.7026998043417 L-49.51718096387451,31.71762903534387 L-49.53595139581888,31.716898718185156 L-49.563930468971805,31.66732524001384 L-49.577276261979556,31.58036165603534 L-49.69037319452361,31.47745505466946 L-49.80456758763516,31.458891484206873 L-49.8253974218977,31.51825230646296 L-49.80572397039429,31.607550961662017 L-49.79346679795737,31.68454001601624 L-49.80320515511721,31.653582781344266 L-49.80875944177855,31.606081387272496 L-49.80274183921636,31.556977129452637 L-49.80572782329851,31.524203525653935 L-49.824243263037104,31.519429093491127 L-49.81741486598805,31.564206289696553 L-49.806084353151554,31.597310798477462 L-49.80808779106313,31.57949879452407 L-49.82289988376983,31.497369999314547 L-49.84138001911921,31.448167778764315 L-49.876228214463055,31.469182974969563 L-49.87086829097375,31.490135957613354 L-49.87185485128117,31.53935151043529 L-49.87677735060829,31.5834370408385 L-49.87823038475246,31.567824694923985 L-49.87250256728863,31.476031848564347 L-49.86086863129604,31.50150487161776 L-49.85015775774802,31.526694903582865 L-49.8504839925433,31.525454457459194 L-49.854669541934335,31.48456113324907 L-49.875361488928085,31.459001322555416 L-49.88259416849143,31.420911222446 L-49.88748845766567,31.449357709032814 L-49.8790537609453,31.534904658526383 L-49.851233518625584,31.559604420940413 L-49.80935614155365,31.47585078986529 L-49.82944406102663,31.400513002410737 L-49.88675870204133,31.410186849833885 L-49.91328098822129,31.4011465132663 L-49.91109403976253,31.41450825162655 L-49.900197848749755,31.430645760060116 L-49.88959417823051,31.437151942010477 L-49.88180770901426,31.438993541266072 L-49.875969308195856,31.4410368481186 L-49.87226603344066,31.444657666275944 L-49.870884964653,31.451231588175617 L-49.87148063031529,31.46128821301425 L-49.87805231719694,31.468432242422324 L-49.88509926231456,31.471317428303458 L-49.88966818957369,31.467786711395178 L-49.89276689195297,31.45882199849721 L-49.89518024996161,31.447333650022088 L-49.897246246138934,31.434565281148902" stroke-width="0.2" stroke="black" fill="black" fill-opacity="1" />
<path d="M-49.5265818944697,31.595441333773252 L-49.54694170777731,31.556285686040283 L-49.507791742105084,31.551375696142415 L-49.38307812546133,31.64578436979289" stroke-width="0.2" stroke="black" fill="black" fill-opacity="1" />
<path d="M-49.47528641274615,31.74381986612674 L-49.53275938977665,31.581972737088503 L-49.63405924669149,31.484721354018873 L-49.75197217050218,31.447658683912163 L-49.84523493039587,31.43666485263431 L-49.87462168684213,31.4276416956829 L-49.85822123576553,31.417303736560363 L-49.81169464869743,31.402443401934747 L-49.75070300272896,31.379851161443376 L-49.70440820704519,31.318859765663486 L-49.67522931283506,31.21458797970522 L-49.650045769093914,31.100118206798086" stroke-width="0.2" stroke="black" fill="black" fill-opacity="1" />
<path d="M-49.60656008528223,31.256067412373678 L-49.67618199204831,31.27619738576791 L-49.78857345949976,31.303435372533478 L-49.900669509829854,31.32191734815889 L-49.95274328376322,31.256725063647828 L-49.94769378871037,31.070992119058598 L-49.97907870686894,30.914320146459808 L-49.86283943349666,30.827701055483537 L-49.92625173742072,30.788607899299347 L-50.077586653766886,30.715592139900437 L-50.129523974846,30.857283209214653 L-50.1445558554447,30.904198795054374" stroke-width="0.2" stroke="black" fill="black" fill-opacity="1" />
<path d="M-49.51480679651775,31.51556494747581 L-49.572316579068975,31.364763911330957 L-49.511029098998144,31.63916503588517 L-49.41754507231994,31.452806586475088 L-49.55309255522007,31.511807137168844 L-49.568522424700234,31.6520690069714 L-49.54265251359514,31.59601825753066 L-49.53938878126549,31.487929160860176 L-49.52546936698964,31.617769853257098 L-49.43391404967256,31.875871814193395 L-49.290118249428325,32.01674925910986 L-49.18016036634269,32.10244286359217 L-49.32300516641703,31.971708786676615 L-49.500898918715535,31.66812678864256 L-49.57469015153287,31.627713782037574 L-49.77274091983176,31.56131744550233 L-49.740594955796496,31.520889171833918 L-49.61890799833904,31.49885623070407 L-49.484924055101175,31.484417469403848 L-49.445821013688004,31.777479515578925 L-49.351628102673196,31.9745913261185 L-49.21890445941316,32.20264782854232 L-49.22950229219876,32.15852361342412 L-49.37931045772411,31.915487653249773 L-49.466549126831644,31.734892214497822 L-49.3860733164834,31.769958846715316 L-49.40560284839324,31.9084392625981 L-49.277016462567595,32.08371411306605 L-49.328064935881095,31.957303784156117 L-49.29853757345008,31.984756899746262 L-49.177520621023135,32.13354256120415 L-49.08463735829459,32.28183109238402 L-49.29312169667371,31.948486148787627 L-49.345213984562356,31.977731092784197 L-49.253171911453876,32.08254796739236 L-49.26731721266345,32.05022441393975 L-49.35768834848974,31.961575704206425 L-49.4111575353563,31.776089834744194 L-49.36226559868912,31.921808751244733 L-49.24512553521609,32.06613129297597 L-49.13068456735469,32.167095986142925 L-49.048018339265965,32.346818644796144 L-48.992192954142794,32.337985597810814 L-49.0352566921261,32.35019822556013 L-49.18229790533581,32.18656016879437 L-49.128533740567846,32.19677636947223 L-49.19904858151311,32.253683375445604 L-49.197063073783454,32.21545265823195 L-49.2521045124348,32.19008454759183 L-49.1555361720008,32.148915382127186 L-49.22156957941499,32.11393277991575 L-49.29419066354126,32.0836214209752 L-49.24707743427916,32.05625640512544 L-49.10912562795816,32.10369455152293 L-48.96460617669107,32.328361487878354 L-48.9738726170225,32.34190550808184 L-49.04360448445154,32.2643626029175 L-49.0576211220115,32.262227226665715 L-49.006971421503664,32.3249988309822 L-49.048039816566046,32.199457179078195" stroke-width="0.2" stroke="black" fill="black" fill-opacity="1" />
<path d="M-49.24056070549001,31.6198377564274 L-49.14119720258749,31.877561554537667 L-49.04905968531373,31.683393629681007 L-48.98199791385948,31.30258875660099 L-48.8218058323484,31.515260184420864 L-48.89516002462605,31.569836800480104 L-48.975874915186075,31.412404888394143 L-48.90144269921411,31.27763202271148 L-48.77058839834387,31.408827514094636 L-48.7042213394328,31.645870601458498 L-48.80153090524781,31.6669049676691 L-48.944620172928126,31.462702145462472 L-48.99897186388974,31.47300364376856 L-49.0442872046219,31.579372288056025 L-49.032433108234315,31.48059915793729 L-49.06972718054311,31.246505738392532 L-49.03925563975098,31.124811909088614 L-49.07829906956398,30.813851838564887 L-48.98762744056792,30.863966691475547 L-49.014590180971815,31.002068922293326 L-48.962281969214864,31.014068645116588 L-49.03981765226872,31.1959814101645 L-49.0090118261686,31.488392832584797 L-48.95531170411865,31.696842233517945 L-48.92630481734053,31.679220639756938 L-48.96343286450436,31.324762203640137 L-48.82457819429724,31.22504696338591 L-48.65546220286652,31.232385461601197 L-48.58327157098053,31.440040441500432 L-48.62407905270728,31.574184811218707 L-48.782513892993855,31.67430782550792 L-48.9477491147677,31.760307860969093 L-49.126168118541194,31.54291169399913 L-49.29606885148746,31.541115617946502 L-49.25758088481102,31.35997201044518 L-49.15552403507456,31.163063797816296 L-49.08129920320054,31.31513846065093 L-49.06945726041843,31.47997955756704 L-48.98979228903502,31.597539570919544 L-48.96414169880325,31.285813956684343 L-48.99473570412784,31.319249815227167 L-49.13164904990941,31.473702470524046 L-49.09955853878408,31.265806431143336 L-49.10852188954419,31.398081491830307 L-49.12290160633838,31.52874175755355 L-49.14849608761016,31.474634762147513 L-49.038639008285266,31.403336108164332 L-49.051063356734666,31.151695595459408 L-49.17852344914832,31.112119097168076 L-49.19304006357645,31.04445580563864 L-49.17876407496958,31.093013540394036 L-49.26563073033053,31.38746589009543 L-49.3808293470636,31.141122926085718 L-49.28145626471816,31.286545741616088 L-49.330469859754565,31.1387599115801 L-49.33076735066132,31.327297548043067 L-49.34888653615932,31.08313963105887 L-49.36980471479106,31.23249335403852 L-49.36356583432486,30.991127797410698 L-49.2355711889806,31.26432848377584 L-49.046143047947595,31.438828172171164 L-49.04652051024558,31.603473844003695 L-49.22002102882881,31.489800282368794 L-49.32327968445193,31.254986886793507 L-49.27295660792164,31.178711959616678 L-49.28949267233077,31.174950068455903 L-49.4179253756483,31.12195079690909 L-49.471301825946036,30.85867851651267 L-49.618836088579975,30.932343498610276 L-49.7829635253374,31.02435349754216" stroke-width="0.2" stroke="black" fill="black" fill-opacity="1" />
<path d="M-48.949712400191274,31.729909047218722 L-48.99753290146353,31.478437561921798 L-48.8137289275435,31.53945564448409 L-48.77135962967583,31.55767677905058 L-48.886079246463645,31.519855581632275 L-49.048654657793435,31.561842163241668 L-49.26437752458902,31.517022312662387 L-49.389381326632844,31.47496319860234 L-49.3211107384518,31.28635073907323 L-49.28506579659044,31.406878022401724 L-49.28868839386661,31.216512230149785 L-49.30260067498791,30.91141286614674 L-49.133492100258806,31.01763804673985 L-49.077423859856104,31.192015743181152 L-49.19734423015548,31.383282281055866 L-49.27831884426541,31.278421918111885 L-49.23511759707608,31.221316807257203 L-49.239860199691144,30.951627645556 L-49.15836659994032,30.887628849551096 L-49.23029014717226,30.93389176564939 L-49.16507947658007,31.088962397870585 L-48.888078770313804,31.05529860084763 L-48.69264950580676,31.19529216841169 L-48.683987737926685,31.538541221885332 L-48.65104990478107,31.65835134241494 L-48.85352231709899,31.62811967687831 L-49.02725219745742,31.45082321368802 L-49.19211666198735,31.32809393722719 L-49.267713995079944,31.3598886142502 L-49.19365482696738,31.090556143634686 L-49.056339033387786,31.233782592496006 L-49.01203893569437,31.56110249458963 L-48.943112380842315,31.64551794674865 L-48.92736731266336,31.359666057604517 L-48.92394742929821,31.33288124576249 L-48.932693555209376,31.493687556928858 L-48.94408091089237,31.378475980427083 L-48.98568342522514,31.39325822285572 L-48.98895127732683,31.35665722296495 L-49.05705466725644,31.532149437275507 L-49.03865220712306,31.5147212448504 L-49.050229522658995,31.372941842286465 L-49.18921598109319,31.28353619532899 L-49.21500215129902,31.55251339815387 L-49.05699164197202,31.396846750006368 L-49.06969094767627,31.623890722547653 L-49.07429040906224,31.42590002730788 L-49.122079369893555,31.486007089836168 L-49.13836492325245,31.320314651203194 L-49.17675552209137,31.05173312440528 L-49.307527427520974,31.097555330531314 L-49.210427041601974,31.221101389325817 L-49.18631326533187,31.11003772829216 L-49.080524719416964,30.91400605415052 L-48.92889923404824,31.137487274525157 L-48.7937944570693,31.43155955996728 L-48.78902094226465,31.860799942339323 L-48.79461987368902,32.29843223918372" stroke-width="0.2" stroke="black" fill="black" fill-opacity="1" />
<path d="M-49.5116042769952,31.44086773175467 L-49.57249221701535,31.47076422242391 L-49.424770073873596,31.608560722790877 L-49.50643689308112,31.381204170191296 L-49.56223432935949,31.576274908896373 L-49.46495814426147,31.657252002653173 L-49.566296513539164,31.52746486173292 L-49.50280343206063,31.47623015359653 L-49.53957785711874,31.83646881334611 L-49.35067043636747,31.948613789443915 L-49.228793013120175,32.10969868837949 L-49.19832965071489,32.02706823725841 L-49.4155158649841,31.827621299900823 L-49.53311913872283,31.580074572973725 L-49.65135845856143,31.499379002532205 L-49.78688875628567,31.589051761942464 L-49.65682772558184,31.452724246631902 L-49.56174566101536,31.463463497125208 L-49.479166526352934,31.81913429152721 L-49.410172231551556,31.90254077204135 L-49.28927540300386,32.033173461422784 L-49.18063730918179,32.17585051839055 L-49.32523454685981,32.04749966009877 L-49.41127438454497,31.828874266573237 L-49.42762840617995,31.785540336037688 L-49.421545943617055,31.80146491730622 L-49.35763353495066,32.04342299833965 L-49.25247583121308,32.02581257966877 L-49.35137202631688,31.90644990752398 L-49.25056953874917,32.09869848563234 L-49.11795988140844,32.17237975778671 L-49.17537048920458,32.128520353386314 L-49.36440378261281,31.913593959171042 L-49.300450810037184,31.99357284495186 L-49.29061934380551,32.01052386658825 L-49.257976505240535,32.062589000675814 L-49.40579244130292,31.89213903150889 L-49.41273175529129,31.861298640465833 L-49.3080642154696,32.02946913587554 L-49.20684117756982,32.05175575711102 L-49.1444819285193,32.26597584115225 L-49.00543633662311,32.253723472336155 L-49.011308557378456,32.34143738856016 L-49.11132372926806,32.223893398396584 L-49.12180938861165,32.17844259444505 L-49.11860918750334,32.18296809452557 L-49.1746483115145,32.25782956739235 L-49.27598273337229,32.053355129338414 L-49.39405559440573,31.845115230766552" stroke-width="0.2" stroke="black" fill="black" fill-opacity="1" />
<path d="M-49.35884189577824,31.727190086633424 L-49.52813966867504,31.515589354762206 L-49.586065998540946,31.37745495525216 L-49.49253538674823,31.631833253843453 L-49.4572229247869,31.416369710296042 L-49.54833505804461,31.547041017675507 L-49.485367989726306,31.449891489158677 L-49.50160246013591,31.589156652116767 L-49.52530901278592,31.477597506489985 L-49.49603168882671,31.55765607455524 L-49.402590527792725,31.867402975070792 L-49.27971102698599,32.07360482631016 L-49.189635930972656,32.04360802669759 L-49.34245699531214,31.9474331328323 L-49.50590701033745,31.608060423457424 L-49.56081798954111,31.670515722685582 L-49.66123313514159,31.608866141895888 L-49.7074053217395,31.518964165263842 L-49.59066334722333,31.50325158824245 L-49.454798719713146,31.49625134499402" stroke-width="0.2" stroke="black" fill="black" fill-opacity="1" />
<path d="M-49.43498554622469,31.528345336520573 L-49.54911379503413,31.497263663606198 L-49.60599315238898,31.35037465401207 L-49.46466794218216,31.311893292314274 L-49.425040789042,31.58810375847586 L-49.32396496210561,31.86505979774009 L-49.18364152923191,31.984082202289855 L-49.228174735969546,32.002043718941614 L-49.092066296903475,32.04036665010793 L-49.27990296054887,31.944028310819963 L-49.419182172985934,31.72270858638538 L-49.38475111428991,31.911762356339352 L-49.36434940273395,31.610212123124445 L-49.43688773003606,31.484321864005917 L-49.542399445061584,31.2637813269003 L-49.69100576022231,31.459418514800692 L-49.784031219023035,31.247689764210428 L-49.74389951890323,31.445711393878796 L-49.687667366059145,31.41578959524424 L-49.512765313262015,31.34989237937623 L-49.434246088843004,31.693114212331825 L-49.344547493291536,31.91194706223201 L-49.29954758476754,31.90008589940683 L-49.25465000893453,31.918373172715693 L-49.030741766683086,32.11690854518414 L-48.89549925254852,32.23207734499763 L-49.014482922345564,32.11262936410512 L-49.24534800846557,32.097972916497 L-49.39309029456829,31.726233643471897 L-49.53593430515865,31.45852290638352 L-49.518324297909004,31.575916171824034 L-49.36999007117404,31.83304922464751 L-49.23511915380506,31.935914127915897 L-49.18393972622644,32.14577839533466 L-48.96096289715855,32.19396331574001 L-48.98670128134466,32.32336342047908 L-49.11308820372253,32.35629468756429" stroke-width="0.2" stroke="black" fill="black" fill-opacity="1" />
<path d="M-49.533392400255046,31.528876670358052 L-49.397632896428526,31.703279986110452 L-49.43240097026798,31.732296958268414 L-49.4338377977516,31.887600588338902 L-49.41421905971186,31.547550145886134 L-49.49538316665604,31.673719204044236 L-49.59156977490686,31.530095889370234 L-49.75756616487182,31.406693928081175 L-49.72286236169997,31.198108046495054 L-49.752883062662015,31.220545737157877 L-49.74347187433484,31.24926993307399 L-49.69012817650275,31.27234965212377 L-49.78864082694607,31.479613881931282 L-49.70786264979355,31.476306110850917 L-49.58695085440871,31.428828256745124 L-49.72495474443336,31.496149579397155 L-49.86046421534783,31.429720807301806 L-49.773623168178496,31.286799955457383 L-49.66617511581986,31.40194909600784 L-49.75249011091075,31.34678409199427 L-49.746628581547604,31.19994295181606 L-49.81492397731679,31.42180640832245 L-49.84340507888427,31.187076064237868 L-49.804746177806855,31.095682496620828 L-49.810589938220716,31.192838363248473 L-49.775420661966436,31.10653203024237 L-49.73936333854999,31.348527461651667 L-49.83021344652281,31.20042073417687 L-49.94078237908884,31.124028107170187 L-50.03016006608201,30.874016778052496 L-49.90245189222726,30.97403099922548 L-49.803258667675664,31.076266161146307 L-49.81848131429051,31.089462163468387 L-49.74131589922288,31.351398169953356 L-49.664624168983025,31.466376693008364" stroke-width="0.2" stroke="black" fill="black" fill-opacity="1" />
<path d="M-49.10812740330294,32.04337559594242 L-49.30030701831779,31.937442713452988 L-49.43187482367383,31.737717466313498 L-49.38541359698362,31.897464434533212 L-49.38639138401131,31.602894462838414 L-49.459954378122205,31.46371481989841 L-49.56596762118514,31.314651071048463 L-49.706889254965446,31.4698751967464 L-49.79482879125536,31.23354361235966 L-49.74235423744789,31.46621756194885 L-49.675333291210954,31.410223588637646 L-49.506913980473655,31.385169114407613 L-49.44497045589537,31.711596643856442 L-49.33345611070453,31.915880760673936 L-49.285348470773215,31.91111804845641 L-49.23947474803767,31.93576031197387 L-49.019134534152144,32.13138228840829 L-48.905091833159524,32.282861124347995 L-49.03178373542246,32.12221079742474 L-49.26446154903534,32.08380962950804 L-49.405368677437465,31.710768675313155 L-49.54267998430176,31.461337616920154 L-49.504689798393684,31.59096449259263 L-49.37577128444166,31.846257680801376 L-49.23386900592403,31.946734550705646 L-49.16556795033307,32.15538250129981 L-48.954322402856306,32.21917379645212 L-48.99647101215306,32.32623947725675 L-49.121932448036986,32.14968953232598 L-49.26552068071163,31.977035246052743 L-49.41743494486459,31.693450154444204 L-49.42482784519773,31.746370010574402 L-49.27244050222936,32.027614738083884 L-49.304770666220364,31.947896737839958 L-49.415332938210284,31.85086198472641 L-49.39482588058082,31.586934566061185 L-49.32687670133523,31.870687895593733 L-49.33959542167367,31.967108419051986 L-49.418088982303615,31.610813898947953 L-49.49507155399362,31.541596536004242 L-49.60967415480037,31.272016067343834 L-49.714438462006974,31.333544012003266 L-49.551706955239155,31.509297445435493 L-49.41105804925543,31.72512450743709 L-49.43168279003551,31.743164983606263 L-49.43310592386392,31.897785854588168 L-49.416910883175305,31.60168163753452 L-49.483107257873975,31.659102508622393 L-49.570407100870405,31.520745730378543 L-49.73606817697432,31.395833085935582 L-49.75277628217396,31.180230003874723" stroke-width="0.2" stroke="black" fill="black" fill-opacity="1" />
<path d="M-48.761588414415165,32.341377999349845 L-48.64556072830904,32.56880123554693 L-48.37921939566053,32.6023470658722 L-48.551694991686645,32.3501162526602 L-48.737769788398595,32.257483284151796 L-48.929350396343615,31.972856996608638 L-49.07051792102496,31.842205682076983 L-49.20516141697021,31.83772678379022 L-49.205772349695934,32.01677475610653 L-49.06347422835895,32.17037125494622 L-48.983513522948634,32.32730690407456 L-48.83015673257206,32.394895016714095 L-48.830236075711966,32.24547522170903 L-49.03915370180198,32.29226739229967 L-49.20071636085937,32.165852949177456 L-49.34227502481469,31.91605078883627 L-49.33945513259448,31.7299181763222 L-49.2477820876488,31.965023258429067 L-49.22522522382335,31.99259488557203 L-49.18310663159704,32.11316688038052 L-49.181309727142214,32.15060545605625 L-49.105474720453664,32.2325010643851 L-49.01983292168767,32.297333555472015 L-48.870689846377054,32.426206885365616 L-48.758844479449344,32.445198122635574 L-48.92987157252454,32.35442471136341 L-49.092903850449424,32.27426644592692 L-49.21745761326664,32.082980993795196 L-49.258966351358026,31.975657218446326 L-49.299670521878426,31.981526453617885 L-49.39196160490563,31.813949272097776 L-49.364499804991716,31.857533068752986 L-49.40192239083699,31.832879819176764 L-49.39490007539562,31.87548786923118 L-49.271981956590864,32.071380405161115 L-49.174773822787955,32.1402065732334 L-49.162870483727104,32.21000358421021 L-49.17191848718487,32.16574990483893 L-49.11223899138851,32.219361715878144 L-49.29748459641299,32.03771202690719 L-49.32355062756995,31.970821918180683 L-49.42778058199681,31.913373726499337 L-49.35446230568048,32.00597592737153 L-49.310517709287026,32.00591442545761 L-49.35527022021874,32.00110391054111 L-49.47077855930048,31.789723500297548 L-49.50497965576872,31.81402335015791" stroke-width="0.2" stroke="black" fill="black" fill-opacity="1" />
<path d="M-49.0721002470701,32.11209406060876 L-48.979360637067295,32.344744992848135 L-48.817491925093805,32.402389699323344 L-48.804421233894296,32.34528780200204 L-48.976013269473555,32.30839781761641 L-49.157976239030845,32.21947749203577 L-49.33806301659085,31.994116999564387 L-49.3495367874111,31.694243341214438 L-49.282577415364784,31.925238314128244 L-49.2119759702509,32.02458686687287 L-49.1926062087714,32.0510010660244 L-49.13726462165457,32.16880022630563 L-49.10039961720921,32.286891651332056 L-49.03579972366986,32.26630113079065 L-48.90415433761349,32.40208456932514 L-48.77413970299281,32.4466450910965 L-48.83719156856216,32.38463670651752 L-48.995868535801506,32.28447633073295 L-49.16955422729607,32.11516838906012 L-49.19816164630023,31.986139230596336 L-49.34355998782724,31.919434928592242 L-49.38190147186707,31.849372295174664 L-49.34745780922609,31.832504280551014 L-49.36669656084302,31.861947696372155 L-49.395181226207896,31.906478306708248 L-49.309208544698684,32.04620950984288 L-49.19258583786085,32.10947617621178 L-49.19601429435483,32.206369778485445 L-49.16502581946823,32.166047139997346 L-49.12036855811068,32.23918116632023 L-49.25254328205558,32.111727917954305 L-49.30718131107281,31.9304789421405 L-49.42579270025546,31.899261222233367 L-49.38571560240438,31.98362129931892 L-49.277663194499944,32.001624925489395 L-49.285952125790985,32.06001222504322 L-49.44457317310171,31.849415461045187 L-49.544781307107264,31.64844364094156 L-49.55412390484395,31.43825165983499" stroke-width="0.2" stroke="black" fill="black" fill-opacity="1" />
<path d="M-49.85463454333118,30.849809253339732 L-49.931379080041715,30.60037004435861 L-49.97959317243606,30.71380925156611 L-49.833775998538584,30.889359409552938 L-49.88867075440245,30.945442361044442 L-50.03631487206418,30.829451141314507 L-50.187105372489725,30.64208979150254 L-50.372249695615274,30.626059919757964 L-50.53037406298742,30.507675240351496 L-50.576759165630854,30.610904662828414 L-50.499642503978826,30.561441934804037 L-50.44354909460446,30.50547721687803 L-50.40920666938445,30.551048589488538 L-50.481046737025224,30.514475721914206 L-50.566305413671465,30.430752102349793 L-50.648743781116515,30.567148224930087 L-50.73169157143874,30.408957207318913 L-50.821055598135175,30.52912841113381 L-50.86078810846833,30.50415341903735 L-50.800150329234405,30.616017272121614 L-50.90799756581995,30.52843648958327 L-51.042016346428326,30.42143732558376 L-51.04037029457073,30.21159163883724 L-51.15685308483238,30.356607925715807 L-51.091954677392934,30.219536849930776 L-51.08199656013982,30.447811639115088 L-50.93144356651784,30.2598344473214 L-50.7633079029189,30.25307288398301 L-50.67390237827585,30.55324920380379 L-50.54376801451791,30.47834469850039 L-50.4608618055385,30.224491317799306 L-50.491379653457834,30.025626463643714 L-50.55415200278033,30.176913566171415" stroke-width="0.2" stroke="black" fill="black" fill-opacity="1" />
</svg>