<?xml version="1.0" encoding="UTF-8" standalone="no"?>
<!-- Created with Inkscape (http://www.inkscape.org/) -->

<svg
   width="512"
   height="512"
   viewBox="0 0 512 512"
   version="1.1"
   id="svg1"
   xml:space="preserve"
   inkscape:version="1.3 (0e150ed6c4, 2023-07-21)"
   sodipodi:docname="markers.svg"
   xmlns:inkscape="http://www.inkscape.org/namespaces/inkscape"
   xmlns:sodipodi="http://sodipodi.sourceforge.net/DTD/sodipodi-0.dtd"
   xmlns="http://www.w3.org/2000/svg"
   xmlns:svg="http://www.w3.org/2000/svg"><sodipodi:namedview
     id="namedview1"
     pagecolor="#ffffff"
     bordercolor="#000000"
     borderopacity="0.25"
     inkscape:showpageshadow="2"
     inkscape:pageopacity="0.0"
     inkscape:pagecheckerboard="0"
     inkscape:deskcolor="#d1d1d1"
     inkscape:document-units="px"
     inkscape:zoom="0.55657038"
     inkscape:cx="837.27058"
     inkscape:cy="439.29754"
     inkscape:window-width="1920"
     inkscape:window-height="1009"
     inkscape:window-x="905"
     inkscape:window-y="2152"
     inkscape:window-maximized="1"
     inkscape:current-layer="layer1"
     showgrid="true"><inkscape:page
       x="0"
       y="0"
       width="512"
       height="512"
       id="page2"
       margin="0"
       bleed="0"
       inkscape:export-filename="humpback.png"
       inkscape:export-xdpi="300"
       inkscape:export-ydpi="300" /><inkscape:page
       x="522"
       y="0"
       width="512"
       height="512"
       id="page3"
       inkscape:export-filename="sperm.png"
       inkscape:export-xdpi="300"
       inkscape:export-ydpi="300" /><inkscape:page
       x="1044"
       y="0"
       width="512"
       height="512"
       id="page4" /><inkscape:grid
       id="grid6"
       units="px"
       originx="0"
       originy="0"
       spacingx="1"
       spacingy="1"
       empcolor="#0099e5"
       empopacity="0.30196078"
       color="#0099e5"
       opacity="0.14901961"
       empspacing="5"
       dotted="false"
       gridanglex="30"
       gridanglez="30"
       visible="true" /></sodipodi:namedview><defs
     id="defs1" /><g
     inkscape:label="Layer 1"
     inkscape:groupmode="layer"
     id="layer1"><rect
       style="fill:#f9f9f9;fill-opacity:1;stroke:none;stroke-width:6.441;stroke-linecap:round;stroke-linejoin:round;stroke-dasharray:none;stroke-dashoffset:5.1584;stroke-opacity:1"
       id="rect6"
       width="1823.6687"
       height="704.31342"
       x="-68.275284"
       y="-70.071999"
       ry="52.279953" /><path
       style="fill:#000000;stroke-width:0.621973;fill-opacity:1"
       d="m 329.99412,475.50273 c -7.20733,-2.18423 -16.23599,-7.33769 -28.85695,-16.47124 l -10.44697,-7.56029 -21.47436,0.19874 c -81.67667,0.75594 -131.10941,5.79408 -165.91456,16.90992 -8.729006,2.7878 -11.189906,2.93558 -11.833236,0.71057 -0.41537,-1.43655 3.29141,-4.75631 8.50902,-7.62064 10.646656,-5.84471 25.554016,-10.75369 50.085386,-16.49309 12.54495,-2.93503 24.24547,-5.86886 26.00114,-6.5196 l 3.19214,-1.18318 -3.77253,-0.21444 c -4.32104,-0.24563 -23.47172,1.499 -32.50172,2.96089 -11.56029,1.87152 -22.25537,5.54091 -44.109456,15.13361 -12.49806,5.48592 -17.96667,7.16808 -24.666492,7.58748 -10.435584,0.65326 -16.580463,-1.98487 -24.272099,-10.42054 -6.1577,-6.75335 -11.241036,-15.74414 -18.969503,-33.55095 -13.679662,-31.5187 -18.318943,-51.10465 -16.812685,-70.9791 2.219943,-29.2913 15.457294,-48.03075 38.764141,-54.87645 10.744941,-3.156 16.538637,-3.58827 47.987984,-3.58042 64.32041,0.0161 107.59866,5.9272 177.93757,24.30362 41.81013,10.92311 56.11052,13.24155 70.11541,11.36733 8.8881,-1.18944 14.96377,-3.42249 24.83774,-9.12885 7.99873,-4.62261 9.0552,-5.06273 11.41839,-4.75682 1.50155,0.19436 3.79012,1.20512 5.40525,2.38723 6.68787,4.89489 8.11428,5.69459 10.65797,5.97528 5.23295,0.57746 8.40599,-2.59321 12.92293,-12.91331 4.61405,-10.54193 7.9799,-12.41869 17.81601,-9.934 2.07489,0.52414 5.3004,0.96352 7.16778,0.97639 3.10002,0.0215 3.56688,-0.17366 5.36859,-2.24281 1.877,-2.15559 1.97333,-2.49938 1.97333,-7.04246 0,-5.39282 0.36137,-6.4326 3.74597,-10.77834 2.65087,-3.40364 5.18999,-11.22957 7.10703,-21.90484 1.53906,-8.57048 1.37876,-27.37025 -0.31081,-36.45186 -5.88148,-31.61377 -23.03694,-54.46081 -45.22421,-60.22807 -1.35877,-0.3532 -5.40697,-1.10186 -8.996,-1.6637 -15.07636,-2.3601 -29.31039,-9.88796 -39.43782,-20.85721 -4.99755,-5.41298 -7.42466,-9.58243 -7.42466,-12.75456 0,-1.33021 0.3134,-2.7785 0.69646,-3.2184 1.05101,-1.20701 3.9539,-0.96513 7.77339,0.64772 2.65025,1.11913 4.68288,1.44209 8.95819,1.42334 6.98039,-0.0305 10.49804,-1.18939 19.10663,-6.29408 9.86215,-5.84803 14.00087,-6.30709 27.9407,-3.09919 3.38052,0.77796 6.56162,1.23146 7.06911,1.00782 0.58888,-0.25953 1.04629,-1.5662 1.26423,-3.61152 1.82606,-17.137006 4.429,-22.032953 19.43775,-36.561026 7.09878,-6.87143 9.90721,-11.570374 12.24819,-20.493109 3.43181,-13.080553 5.04719,-16.470458 7.8486,-16.470458 2.01563,0 2.97377,2.150923 4.93916,11.087839 3.33754,15.176451 4.23197,22.352525 4.2257,33.903452 -0.008,13.684732 -0.83117,17.28911 -7.69264,33.660132 -7.34991,17.53639 -8.31133,21.21559 -8.29856,31.75761 0.0162,13.39108 2.89196,22.47144 15.99199,50.49602 7.92012,16.94332 10.84288,24.69684 14.00707,37.15797 4.01533,15.81306 5.6976,29.70454 5.67835,46.88952 -0.0284,25.28076 -4.37493,47.16006 -13.77686,69.34762 -24.17334,57.04649 -75.69086,91.94786 -145.11528,98.31063 -4.46675,0.40938 -8.21697,0.8541 -8.3338,0.98825 -0.11681,0.13416 3.21927,4.66938 7.41353,10.07827 4.19426,5.40889 7.78286,10.55249 7.97468,11.4302 1.0101,4.62193 -5.87523,6.04738 -15.34631,3.1771 z"
       id="path1"
       sodipodi:nodetypes="sscsssssscssssssssssssssssssssssssssssssssssssssssssssssssss" /><path
       style="fill:#000000;stroke-width:0.285358;fill-opacity:1"
       d="m 155.27241,220.95331 c 0.0971,-0.0971 2.91148,-0.29012 6.25407,-0.4288 3.34259,-0.13869 7.48479,-0.44444 9.2049,-0.67944 3.97533,-0.5431 4.14913,-0.53948 4.14913,0.0863 0,0.44157 -0.43153,0.5615 -3.08073,0.85606 -3.14148,0.34933 -16.84838,0.48693 -16.52737,0.16593 z m 23.99448,-1.67081 c -0.0971,-0.25301 -0.11197,-0.52458 -0.0332,-0.60347 0.0789,-0.0789 2.11723,-0.63885 4.52963,-1.24435 6.34973,-1.59375 10.58465,-2.96819 15.36376,-4.98629 1.32929,-0.56131 2.57058,-1.02057 2.75846,-1.02057 0.18787,0 0.3908,-0.14767 0.45096,-0.32818 0.0602,-0.18048 0.28464,-0.26974 0.49883,-0.19833 0.49502,0.165 -4.79537,2.74858 -9.26405,4.52412 -3.24339,1.28871 -8.56599,2.96712 -11.69964,3.68934 -0.78472,0.18087 -1.65213,0.3961 -1.92756,0.47831 -0.30116,0.0899 -0.57115,-0.034 -0.67731,-0.31058 z m -29.92584,-1.7502 c -4.62754,-0.35268 -13.33103,-1.87781 -15.61543,-2.73632 -1.32619,-0.4984 -4.22461,-4.28879 -6.08128,-7.95276 -0.40821,-0.80556 -0.68141,-1.52544 -0.60712,-1.59973 0.0744,-0.0743 1.39913,0.12535 2.9441,0.44367 8.3158,1.71332 13.15815,2.17044 22.78402,2.15085 7.91357,-0.0161 9.03862,-0.0904 17.59087,-1.16257 1.51174,-0.18952 1.37424,-0.39031 2.08191,3.04022 0.24281,1.17711 0.7001,3.15575 1.01619,4.39698 0.31608,1.24124 0.53412,2.29737 0.48453,2.34697 -0.0496,0.0496 -1.49525,0.29716 -3.21255,0.55014 -2.99649,0.44141 -17.7271,0.80136 -21.38524,0.52255 z m 29.15467,-2.0371 c -0.0712,-0.11829 -0.46815,-1.8202 -0.88215,-3.78204 -0.41403,-1.96182 -0.86983,-4.07286 -1.01291,-4.69116 -0.28557,-1.23407 -0.1876,-1.58669 0.44086,-1.58669 1.13203,0 10.14952,-2.40032 14.67506,-3.90628 3.54886,-1.18094 9.91804,-3.76233 13.58916,-5.50757 3.8254,-1.8186 10.93102,-5.82181 12.98728,-7.31686 0.72729,-0.52878 1.40144,-0.96143 1.49813,-0.96143 0.34218,0 0.16958,3.76421 -0.27207,5.9332 -0.57502,2.82406 -1.18175,4.62838 -1.78431,5.30632 -0.55077,0.61967 -4.05649,2.96005 -7.20254,4.80835 -7.40152,4.34836 -17.43179,8.37717 -26.37761,10.59496 -5.34244,1.32447 -5.50964,1.35724 -5.6589,1.1092 z m -53.95978,-3.65219 c -4.61239,-1.91487 -10.07564,-5.29417 -15.28756,-9.45614 -2.83321,-2.26245 -10.176982,-9.4129 -9.925582,-9.66431 0.0946,-0.0946 1.050722,0.46704 2.124652,1.24816 4.07316,2.96255 11.3127,6.53349 17.78843,8.77419 1.49098,0.51591 2.80667,1.10759 2.92373,1.31484 0.11706,0.20724 0.60052,1.23639 1.07435,2.287 0.47383,1.0506 1.44866,2.78414 2.16629,3.85232 0.71762,1.06818 1.36533,2.03845 1.43935,2.15615 0.24251,0.38562 -0.58331,0.20201 -2.30366,-0.51221 z m 18.09921,-7.87122 c -1.33405,-0.13514 -3.96646,-0.45249 -5.84982,-0.70523 -3.06895,-0.41182 -4.65021,-0.70792 -9.75485,-1.82665 -0.81371,-0.17833 -1.62631,-0.50116 -1.80574,-0.71737 -0.69416,-0.8364 -2.44649,-8.51028 -3.22451,-14.12079 -0.29844,-2.15206 -0.30282,-2.72911 -0.0212,-2.79919 0.19506,-0.0485 1.95794,0.23639 3.91753,0.63323 7.78208,1.57596 13.89599,2.16745 22.35226,2.16243 5.58616,-0.003 12.57354,-0.4701 17.04366,-1.13859 1.08285,-0.16194 2.0135,-0.24975 2.06812,-0.19516 0.13902,0.13904 3.53533,17.40206 3.44202,17.49537 -0.17673,0.17673 -4.08291,0.69051 -8.33505,1.09633 -4.92488,0.47002 -15.713,0.53291 -19.83233,0.11562 z m 32.96656,-2.29778 c -0.15469,-0.44086 -1.18511,-5.38509 -1.59496,-7.65298 -0.15597,-0.86321 -0.64011,-3.33458 -1.07581,-5.49195 -0.81507,-4.03563 -0.78226,-4.49555 0.32065,-4.49555 1.51623,0 13.677,-3.42811 17.18088,-4.84328 0.3139,-0.12677 1.98323,-0.77807 3.70964,-1.44731 6.19667,-2.40212 14.18611,-6.51736 19.68887,-10.14141 1.29068,-0.85002 2.47395,-1.54549 2.6295,-1.54549 0.67285,0 3.49636,13.34844 3.50459,16.56829 0.002,0.61454 -0.48683,1.05278 -3.06572,2.75091 -11.39205,7.50131 -26.22232,13.60462 -39.45062,16.23564 -0.39236,0.078 -0.93875,0.20885 -1.21418,0.2907 -0.27542,0.0818 -0.56021,-0.0205 -0.63284,-0.22757 z m -59.9328,-3.84435 c -9.17528,-3.66051 -16.172922,-8.13112 -21.874542,-13.97508 -4.612435,-4.72759 -5.043436,-5.46011 -6.610655,-11.23533 -0.660536,-2.4341 -1.710477,-9.23116 -1.464004,-9.47764 0.05326,-0.0531 1.618208,1.38328 3.477668,3.19228 7.025781,6.83516 16.320403,12.20411 27.037623,15.61807 0.94099,0.29975 0.94887,0.32525 1.57003,5.07782 0.54691,4.18443 1.26735,7.62342 2.49584,11.91366 0.21389,0.74694 -0.24378,0.63689 -4.63196,-1.11378 z m 107.42246,-3.73729 c 0.37277,-1.21288 0.84452,-4.52339 1.03148,-7.23847 l 0.16932,-2.45873 2.47443,-2.00329 c 2.76923,-2.24196 8.48437,-8.02887 10.92549,-11.06268 0.88136,-1.09536 2.39757,-3.17936 3.36938,-4.63111 0.97179,-1.45176 1.81088,-2.63955 1.86464,-2.63955 0.16995,0 -1.45119,4.32483 -2.56715,6.84857 -1.97125,4.45796 -5.19333,10.07998 -8.34072,14.5532 -1.80798,2.56961 -8.26505,9.41679 -8.88026,9.41679 -0.18218,0 -0.19928,-0.28797 -0.0465,-0.78473 z M 138.3548,182.01762 c -5.38478,-0.47766 -15.34543,-2.19024 -16.57948,-2.85058 -0.63393,-0.33922 -0.85881,-5.6749 -0.52856,-12.54029 0.37864,-7.87161 0.54143,-9.41678 0.992,-9.41678 0.21228,0 1.19651,0.18715 2.18717,0.41591 10.29124,2.37633 25.22865,2.83764 36.7985,1.13645 1.52229,-0.22384 1.33164,-0.58767 2.10241,4.0121 0.23669,1.41252 0.61906,3.5955 0.84973,4.85107 1.03442,5.63072 1.9137,10.37534 2.14088,11.55228 0.14783,0.76591 0.1403,1.40793 -0.0188,1.5996 -0.14615,0.17611 -1.06796,0.40598 -2.04845,0.51082 -0.98051,0.10484 -2.81002,0.31642 -4.06559,0.47017 -3.24376,0.39721 -18.2636,0.57557 -21.82984,0.25925 z m 32.9695,-2.24705 c -0.15146,-0.24507 -1.55503,-7.29931 -3.29651,-16.56811 -0.48656,-2.58961 -0.9325,-4.856 -0.991,-5.03641 -0.0677,-0.20869 1.31377,-0.66602 3.79735,-1.25712 11.26245,-2.68051 22.17824,-7.19009 31.65526,-13.07755 2.05047,-1.27384 3.84799,-2.31605 3.9945,-2.31605 0.26034,0 1.63979,2.79476 4.37859,8.87111 1.85245,4.10991 3.98299,9.73319 4.05313,10.69783 0.0529,0.72689 -0.28578,1.00813 -4.15116,3.44734 -10.06633,6.35223 -20.75113,10.89148 -33.03037,14.03236 -5.34095,1.36615 -6.21007,1.52976 -6.40979,1.2066 z m 52.53483,-0.23142 c -0.0777,-0.27466 -0.22399,-1.20563 -0.3251,-2.06883 -0.32878,-2.80712 -1.03248,-6.35573 -1.89565,-9.55947 -1.42968,-5.30634 -1.52147,-4.81734 1.33903,-7.13312 5.07109,-4.1054 11.7178,-11.60244 15.35958,-17.32458 1.05337,-1.6551 3.44309,-6.29841 4.291,-8.33754 0.2847,-0.68468 0.56802,-1.0177 0.72832,-0.85608 0.3796,0.38276 1.63606,5.39029 2.14306,8.54109 0.23929,1.48696 0.43505,3.91289 0.43505,5.39097 0,2.54188 -0.07,2.85493 -1.29233,5.78154 -2.52959,6.05646 -5.94707,11.39334 -10.92753,17.06495 -2.40823,2.7424 -9.02125,9.00046 -9.511,9.00046 -0.11174,0 -0.26674,-0.22473 -0.34443,-0.49939 z m -107.76219,-1.97197 c -10.76345,-3.60686 -19.464722,-8.75527 -26.149352,-15.47219 -1.591021,-1.59872 -3.238521,-3.40567 -3.661113,-4.01548 l -0.76835,-1.10873 0.320133,-3.20223 c 0.534541,-5.34691 2.864796,-15.40026 3.607347,-15.56305 0.140696,-0.0309 0.962083,0.73335 1.825283,1.69821 3.87533,4.33172 9.210672,8.3093 15.067452,11.233 4.64444,2.31851 6.10077,2.94729 9.19511,3.96998 l 2.32972,0.76998 -0.17632,1.45137 c -0.45224,3.72285 -0.72144,9.0917 -0.72736,14.50648 -0.004,3.25663 -0.10278,5.91103 -0.22049,5.89863 -0.11772,-0.0124 -0.40664,-0.0871 -0.64206,-0.16597 z M 81.504032,161.34764 c -1.113762,-3.67608 -1.974682,-7.04447 -1.835943,-7.18321 0.06554,-0.0655 0.717599,0.9016 1.449017,2.1492 l 1.329851,2.26837 -0.08241,2.66693 -0.08241,2.66693 z m 135.492978,-7.49062 c -1.04318,-2.62886 -3.03926,-7.09111 -4.4357,-9.91616 l -2.539,-5.13643 1.76205,-1.56225 c 7.55345,-6.69701 12.41574,-12.58048 15.9244,-19.26881 0.74099,-1.41253 1.56974,-3.14607 1.84164,-3.85232 0.8098,-2.10343 0.89311,-2.12163 2.21292,-0.48364 4.36354,5.41548 9.32004,13.55844 9.32004,15.31174 0,0.82751 -1.75147,5.02728 -3.32714,7.97802 -2.6709,5.00169 -6.03094,9.577 -10.36939,14.11984 -2.48569,2.60279 -7.93491,7.58975 -8.29328,7.58975 -0.10991,0 -1.05335,-2.15089 -2.09654,-4.77974 z m -78.49954,1.1782 c -4.30825,-0.27422 -15.35353,-2.10898 -15.90937,-2.64277 -0.11811,-0.11343 -0.0955,-0.90573 0.0501,-1.7607 0.14572,-0.85494 0.47527,-2.90278 0.73234,-4.55071 0.56591,-3.62792 1.88011,-10.09536 2.95723,-14.55322 l 0.79293,-3.28159 0.97996,0.0319 c 0.53897,0.0175 2.07144,0.24901 3.40548,0.51445 3.33279,0.66314 9.80505,1.29005 13.41179,1.29907 2.92418,0.007 11.83815,-0.72217 12.29808,-1.00641 0.12705,-0.0785 0.34753,0.34264 0.48994,0.93592 0.2249,0.93697 2.07369,11.84091 2.62623,15.48923 0.10696,0.70626 0.42862,2.56822 0.7148,4.13768 0.75758,4.15475 0.75192,4.21285 -0.43441,4.45434 -3.72782,0.75886 -16.43056,1.29469 -22.11517,0.93288 z m 27.67313,-2.11617 c -0.14801,-0.23948 -1.07894,-4.8498 -1.98577,-9.83426 -0.25699,-1.41252 -0.58517,-3.14607 -0.72931,-3.85232 -0.81621,-3.99933 -2.0046,-10.63551 -1.91979,-10.72034 0.0544,-0.0544 1.82723,-0.54436 3.93963,-1.08879 4.72012,-1.21654 8.80965,-2.63249 13.11479,-4.54085 3.53242,-1.56582 9.0892,-4.57635 11.06266,-5.99346 0.74283,-0.53342 1.31753,-0.77074 1.47346,-0.60848 0.92504,0.96266 10.57781,15.79575 10.57781,16.25457 0,0.0627 0.59978,1.10181 1.33284,2.30927 l 1.33285,2.19537 -0.77698,0.61956 c -1.47042,1.17244 -7.45971,4.66474 -11.16282,6.50889 -6.92575,3.44904 -13.7812,5.97713 -21.11642,7.78712 -5.2301,1.29055 -4.97097,1.24199 -5.14295,0.96372 z m -85.004142,-2.94957 c -1.351714,-2.92637 -2.298175,-5.64177 -2.878121,-8.25731 -0.419494,-1.89192 -0.472073,-3.25021 -0.347955,-8.98875 0.09233,-4.26897 0.313376,-7.70644 0.599847,-9.32827 0.845586,-4.78719 1.708972,-8.67079 1.90124,-8.55197 0.1053,0.0651 0.278851,1.19545 0.38567,2.51194 0.42658,5.25737 2.625415,11.74842 5.494638,16.22039 0.475081,0.74047 0.458335,0.86142 -0.553063,3.99501 -1.278961,3.96256 -2.318478,8.36281 -2.802637,11.86347 -0.200783,1.45175 -0.469163,2.63955 -0.596397,2.63955 -0.127235,0 -0.668685,-0.94683 -1.203222,-2.10406 z m 33.789052,0.10204 c -6.73581,-2.53412 -13.43159,-6.41536 -18.055032,-10.4657 -2.68674,-2.35369 -5.62959,-5.706 -5.62959,-6.41286 0,-0.73097 2.71517,-6.39626 4.83801,-10.09467 1.91959,-3.34428 5.955392,-9.54795 6.211432,-9.54795 0.085,0 1.45941,1.25199 3.05416,2.78221 1.59477,1.53024 4.02069,3.53087 5.39096,4.44586 2.73519,1.8264 8.53401,4.69358 11.10997,5.49323 0.90244,0.28014 1.64081,0.64086 1.64081,0.8016 0,0.16075 -0.5204,2.33567 -1.15644,4.83317 -0.63604,2.49751 -1.26289,5.07128 -1.39299,5.71948 -0.1301,0.6482 -0.5109,2.52686 -0.84621,4.1748 -0.33533,1.64793 -0.8419,4.40133 -1.12572,6.11867 -0.28382,1.71733 -0.63462,3.15774 -0.77957,3.20091 -0.14494,0.0432 -1.61185,-0.42877 -3.25979,-1.04875 z m 132.1617,-14.18199 c -0.20814,-0.90794 -0.79955,-2.88445 -1.31427,-4.39224 l -0.93581,-2.74144 0.52686,-2.39499 c 0.28976,-1.31725 0.52991,-2.94074 0.53364,-3.60777 0.007,-1.27754 0.47714,-1.66406 0.69396,-0.57071 0.63494,3.20165 1.37977,13.46696 1.06307,14.65115 -0.15824,0.59173 -0.25064,0.43804 -0.56745,-0.944 z m -42.67766,-6.57972 c -2.63858,-4.28582 -6.03865,-9.33645 -9.70222,-14.41212 l -0.83157,-1.1521 0.68889,-0.55009 c 3.63033,-2.89887 7.65357,-7.23849 10.23505,-11.03986 1.20973,-1.78139 4.0083,-7.136823 4.0083,-7.670383 0,-0.16804 0.12496,-0.38277 0.2777,-0.47716 0.30856,-0.1907 6.30992,4.03737 9.85248,6.941223 2.17864,1.78584 3.15418,2.65385 6.70589,5.96679 l 1.56947,1.46394 -0.52685,1.51505 c -1.61518,4.64474 -5.28553,10.66026 -9.58342,15.7067 -2.50684,2.94342 -8.69519,8.78657 -9.29143,8.77309 -0.15837,-0.004 -1.6894,-2.28286 -3.40229,-5.06508 z M 88.086834,128.88828 c -1.393911,-2.25932 -3.101745,-6.9029 -3.84469,-10.45365 -0.667831,-3.19176 -0.595395,-9.64912 0.14892,-13.27546 0.636681,-3.10192 1.132602,-4.02068 4.284957,-7.938483 1.813397,-2.25372 6.787767,-7.06743 7.304787,-7.06886 0.19101,-5.1e-4 0.19687,0.8694 0.0176,2.60288 -0.52433,5.06807 0.53047,10.307113 3.10363,15.415143 l 1.242662,2.46685 -0.778712,0.95743 c -2.5284,3.10873 -6.71225,9.88044 -9.18644,14.86862 -0.836854,1.68716 -1.605921,3.06758 -1.709039,3.06758 -0.103111,0 -0.365733,-0.28893 -0.583597,-0.64205 z m 47.985106,-4.21151 c -2.11878,-0.28536 -4.62279,-0.69665 -5.56446,-0.91399 -1.69537,-0.39127 -1.71139,-0.40442 -1.63531,-1.34127 0.16371,-2.01608 6.82823,-20.71727 7.80158,-21.8919 0.19713,-0.23789 0.80731,-0.20605 2.32952,0.12155 1.48007,0.31854 3.77056,0.44884 8.11192,0.46143 l 6.04948,0.0175 0.31446,2.00108 c 0.17293,1.10059 0.50318,3.22096 0.73388,4.71196 0.86906,5.61691 1.01421,6.52552 1.70068,10.64704 0.62164,3.7322 0.85368,5.89848 0.63264,5.90616 -0.0393,0.002 -1.67648,0.19286 -3.63831,0.42556 -4.77236,0.56604 -12.01935,0.50355 -16.83608,-0.14517 z m 24.40545,-1.49564 c -0.0645,-0.19618 -0.50909,-2.47546 -0.98787,-5.06509 -0.47879,-2.58961 -0.9925,-5.35044 -1.14159,-6.13518 -0.14907,-0.78473 -0.48179,-2.58249 -0.73937,-3.995 -0.25756,-1.41252 -0.65009,-3.49378 -0.87228,-4.62501 -0.58483,-2.97765 -0.55856,-3.14635 0.52343,-3.36062 3.54324,-0.701653 10.71647,-3.665313 13.48964,-5.573313 l 1.32686,-0.91291 1.75884,1.82633 c 3.09859,3.21744 4.29549,4.56418 8.06858,9.078553 4.84216,5.79351 6.26982,7.70648 5.92673,7.94137 -6.63273,4.54066 -14.92678,8.24123 -23.19379,10.34847 -3.66964,0.93537 -3.99471,0.9723 -4.15918,0.4724 z m 80.48933,-2.23547 c -1.63974,-2.9848 -4.79834,-7.47822 -7.4578,-10.60943 l -1.88157,-2.21532 0.32795,-1.63699 c 0.18036,-0.90034 0.44601,-2.17539 0.59032,-2.83345 0.14431,-0.65804 0.26238,-3.05187 0.26238,-5.319593 0,-4.35494 -0.56124,-8.11629 -1.7087,-11.45145 -0.84369,-2.45221 -0.72729,-2.49053 0.87861,-0.28923 4.38585,6.01194 9.68081,16.437863 10.70119,21.070933 0.85576,3.88559 0.79044,14.76729 -0.0938,15.62338 -0.11982,0.116 -0.84818,-0.93648 -1.6186,-2.33885 z m -119.79813,-0.0904 c -5.40183,-2.20686 -9.09363,-4.54802 -12.88024,-8.16806 -1.51228,-1.44576 -2.74959,-2.83817 -2.74957,-3.09428 7e-5,-1.03907 8.25009,-9.923383 13.50875,-14.547343 1.54435,-1.35796 3.00298,-2.57953 3.2414,-2.71462 0.32001,-0.18132 0.85492,0.16657 2.04316,1.32879 1.94333,1.90075 4.46952,3.55343 7.08693,4.6364 1.06811,0.44195 2.04311,0.88795 2.16667,0.99115 0.12353,0.10319 -0.50017,1.845753 -1.38603,3.872373 -2.02333,4.62885 -4.20147,10.28449 -5.84255,15.17039 -0.87872,2.61617 -1.40205,3.78019 -1.69872,3.77837 -0.23582,-0.002 -1.80623,-0.56537 -3.4898,-1.25317 z m 67.97978,-13.07027 c -2.01826,-2.61474 -7.88595,-9.227133 -11.60181,-13.074273 l -2.89982,-3.0023 1.99543,-1.97357 c 2.32156,-2.29613 4.13862,-4.7536 5.24191,-7.08942 0.59436,-1.25835 0.89222,-1.6124 1.24095,-1.47504 0.25239,0.0994 1.03672,0.37551 1.74298,0.61355 2.78214,0.93775 9.20079,3.71992 13.24702,5.74195 5.53694,2.76698 6.72799,3.49956 6.72799,4.1382 0,0.86574 -2.17071,5.12958 -4.0484,7.95216 -1.82639,2.745423 -8.93364,10.235263 -9.69156,10.213233 -0.21187,-0.006 -1.09148,-0.92617 -1.95469,-2.04449 z m -86.95388,-3.29475 c -1.93544,-4.33218 -2.362902,-6.271553 -2.362902,-10.720323 0,-3.72682 0.385442,-6.28001 1.070432,-7.09076 1.21581,-1.43903 9.6587,-5.53711 15.19492,-7.375452 2.79503,-0.928099 2.58066,-1.121252 2.69608,2.429302 0.10181,3.1319 0.37187,4.2755 1.60935,6.81515 l 0.57246,1.17485 -0.93211,0.71338 c -3.89692,2.98252 -13.67952,12.403913 -15.6578,15.079663 -0.3661,0.49519 -0.8151,0.90034 -0.99777,0.90034 -0.18268,0 -0.71937,-0.86677 -1.19266,-1.92615 z m 123.3369,-2.40754 c -3.75213,-3.379463 -7.47146,-6.293453 -11.53556,-9.037773 -4.05798,-2.74019 -3.76771,-2.13586 -3.17174,-6.60353 0.60196,-4.51257 0.0111,-8.743852 -1.88594,-13.506811 -0.55216,-1.386312 -0.94118,-2.583338 -0.86445,-2.66006 0.30836,-0.308367 6.23601,2.068866 9.61038,3.854161 3.19858,1.692298 5.71741,3.494245 6.40341,4.580948 3.18647,5.047692 5.00972,11.436542 5.01047,17.557272 3e-4,3.18139 -0.50225,8.161303 -0.82166,8.140453 -0.0972,-0.006 -1.33238,-1.05244 -2.74491,-2.32466 z m -84.67971,-5.725913 c -1.34533,-0.19555 -1.92617,-0.40253 -1.92617,-0.68641 0,-0.80081 4.52813,-9.19388 7.51932,-13.93737 1.08865,-1.72641 2.18567,-3.491245 2.4378,-3.921854 0.83723,-1.429871 0.822,-1.472654 1.59936,4.492564 0.49825,3.82342 0.7909,5.85442 1.42366,9.88017 0.62264,3.96137 0.60384,4.13924 -0.46008,4.35202 -1.31636,0.26328 -8.37099,0.14399 -10.59389,-0.17912 z m 14.49761,-0.85529 c -0.0599,-0.19619 -0.18842,-0.80614 -0.28547,-1.35545 -0.363,-2.05485 -1.01064,-5.64304 -1.44214,-7.99001 -1.05597,-5.74356 -1.56402,-8.738346 -1.56677,-9.235578 -0.003,-0.513188 0.0251,-0.514105 0.78177,-0.02548 2.69246,1.73856 9.1058,6.968478 13.43913,10.959248 l 2.61857,2.41158 -1.50131,0.93437 c -2.17962,1.35655 -6.54033,3.21914 -9.33999,3.98942 -2.86059,0.78702 -2.56885,0.75336 -2.70379,0.3119 z m -21.91149,-1.3306 c -3.1489,-1.34942 -7.03511,-4.37713 -6.70901,-5.22693 0.17074,-0.44494 5.74113,-4.28894 9.60762,-6.63 3.64306,-2.20577 10.29375,-5.678091 10.29375,-5.374348 0,0.135169 -1.10017,1.908813 -2.44481,3.941438 -2.51131,3.79623 -4.34771,6.91402 -6.72064,11.41016 -0.74548,1.41252 -1.52434,2.5985 -1.73079,2.63551 -0.20646,0.037 -1.23972,-0.30313 -2.29612,-0.75583 z m -42.350152,-3.83017 c 0.57817,-1.64565 9.199952,-12.745399 9.900052,-12.745399 0.13184,0 -0.1844,0.750313 -0.70275,1.66735 -0.518342,0.917049 -1.313932,2.600299 -1.767982,3.740549 -0.74209,1.86363 -1.02748,2.23299 -2.82305,3.65387 -1.09863,0.86937 -2.62587,2.17167 -3.39388,2.894 -0.77569,0.72957 -1.31459,1.08055 -1.21239,0.78963 z m 77.515012,-4.06862 c -4.0163,-3.52606 -11.48473,-9.316158 -13.3967,-10.386152 -2.34993,-1.315087 8.80156,0.217269 18.00967,2.474763 2.30172,0.564294 4.33569,1.119159 4.51992,1.233018 0.72868,0.450341 -2.37117,5.248391 -4.84567,7.500311 -0.81279,0.73967 -1.56417,1.33645 -1.66974,1.32619 -0.10557,-0.0103 -1.28343,-0.97692 -2.61748,-2.14813 z m 32.81606,-0.55907 c -4.50898,-2.29637 -10.85689,-4.98417 -15.12393,-6.403703 l -2.71089,-0.901852 v -3.473664 c 0,-3.395165 -0.48266,-5.866391 -1.36252,-6.976189 -0.15855,-0.199973 -0.19499,-0.456794 -0.081,-0.570708 0.11401,-0.113923 2.54,-0.203894 5.39111,-0.19995 4.94205,0.007 9.49957,0.373847 12.6031,1.014912 0.78473,0.162097 1.71527,0.353902 2.06787,0.426241 1.10684,0.227076 3.37085,5.347637 4.09094,9.252562 0.59072,3.203371 0.29145,9.684331 -0.45574,9.869791 -0.15471,0.0384 -2.14325,-0.87845 -4.41897,-2.03744 z m -77.05842,0.42059 c -1.12128,-2.09515 -1.68518,-7.667494 -0.87474,-8.64402 0.75124,-0.905185 12.20069,-2.466704 18.00642,-2.455776 l 3.56871,0.007 -4.21568,2.119268 c -4.55051,2.287584 -8.70227,4.715668 -13.14604,7.688238 -1.54468,1.03329 -2.85636,1.8787 -2.91487,1.8787 -0.0585,0 -0.24921,-0.26691 -0.4238,-0.59313 z m -21.96049,-4.11925 c 0,-0.59614 2.53315,-4.900351 4.11219,-6.987264 2.44727,-3.234375 6.23071,-7.092243 9.01892,-9.196334 1.12918,-0.852107 3.57261,-1.35776 6.55852,-1.357242 2.25935,4e-4 4.85108,0.292563 4.85108,0.546867 0,0.102656 -0.74292,0.951541 -1.65092,1.886415 -1.9727,2.031076 -3.27412,3.862228 -4.64244,6.532095 -0.71393,1.393009 -1.2209,2.038745 -1.71214,2.180726 -0.38384,0.110935 -1.46836,0.424337 -2.41004,0.696437 -3.81182,1.101441 -8.62023,3.10068 -13.91115,5.78398 -0.11771,0.0597 -0.21402,0.0212 -0.21402,-0.0857 z m 74.05017,-5.595589 c -4.23173,-1.125125 -11.4724,-2.386524 -16.26536,-2.833597 -1.88335,-0.175677 -3.6169,-0.387073 -3.85232,-0.469777 -1.01647,-0.357086 8.87031,-3.23758 15.40048,-4.486898 5.38529,-1.030293 5.57562,-1.015742 6.24689,0.477437 1.09914,2.444971 1.55024,6.492895 0.82451,7.398714 -0.32211,0.402032 -0.55042,0.393706 -2.3542,-0.08588 z m -51.79126,-2.461764 c 0.004,-0.839806 3.31211,-5.110267 5.22299,-6.742794 l 1.51616,-1.295299 1.26695,0.386721 c 2.66064,0.812116 5.06818,1.837619 9.24591,3.938338 3.20849,1.613342 3.86336,1.992834 3.86336,2.238773 0,0.09457 -2.92135,0.255135 -6.49188,0.35682 -4.13666,0.11781 -7.83772,0.390491 -10.20152,0.751614 -4.20859,0.642961 -4.42344,0.660735 -4.42197,0.365827 z m 22.82752,-3.188197 c -1.26237,-0.938849 -7.1926,-4.142671 -10.05886,-5.434324 -1.53022,-0.689585 -2.78222,-1.356459 -2.78222,-1.481929 0,-0.479592 4.90043,-2.750948 8.27038,-3.833337 3.01642,-0.968829 3.96933,-1.118854 4.10719,-0.646614 0.0623,0.21334 0.4544,2.635073 0.87136,5.381638 0.41697,2.746558 0.82701,5.346877 0.91121,5.778482 0.18301,0.938221 -0.26674,1.018714 -1.31906,0.236084 z m 3.59427,-0.0457 c -0.13193,-0.398003 -0.60157,-4.968043 -0.98963,-9.630298 -0.23621,-2.837972 -0.3178,-2.759407 3.1025,-2.987792 2.15099,-0.143636 8.12699,0.194752 9.05145,0.512535 0.19144,0.06578 -1.29284,1.762403 -3.29838,3.770212 -2.00554,2.007816 -4.46319,4.677863 -5.46141,5.933429 -2.39051,3.00675 -2.2504,2.866791 -2.40453,2.401914 z m 5.40957,-2.410295 c 2.61072,-2.844125 5.86535,-5.876629 8.22215,-7.660991 1.58882,-1.202897 1.51892,-1.209232 4.9125,0.444979 2.38441,1.162286 5.39847,3.399491 5.39847,4.007063 0,0.208691 -0.84567,0.487895 -2.12819,0.702631 -4.30278,0.720436 -11.33642,2.679244 -16.0973,4.482971 -1.07809,0.408444 -2.14996,0.742622 -2.38194,0.742622 -0.23201,0 0.70144,-1.223674 2.07431,-2.719275 z m 57.91238,1.123032 c -1.37772,-0.685696 -7.85598,-2.96947 -8.42333,-2.96947 -0.1531,0 -1.78756,-1.509941 -3.63216,-3.355423 -1.84458,-1.845482 -3.80322,-3.705296 -4.35253,-4.132926 -0.8855,-0.689342 -0.91336,-0.747851 -0.24564,-0.515985 2.23181,0.775001 9.45969,4.786399 12.80135,7.104607 2.33852,1.622311 5.99249,4.370028 5.99249,4.506247 0,0.261314 -0.83391,0.0131 -2.14018,-0.63705 z m -17.87424,-4.686958 c -2.45373,-0.414481 -9.21014,-0.589955 -12.65896,-0.328759 l -3.42429,0.259337 -1.86171,-1.78201 c -2.10469,-2.014582 -4.59535,-3.709742 -6.94696,-4.728157 -0.87841,-0.380418 -1.5993,-0.786127 -1.60198,-0.901577 -0.008,-0.331959 3.07939,-1.802011 5.46813,-2.603888 1.19943,-0.402635 2.99479,-0.815377 3.98969,-0.91721 1.63878,-0.167727 2.06389,-0.08669 4.5198,0.861586 5.43528,2.098681 10.59605,5.246306 14.06189,8.576579 0.89801,0.86288 1.63275,1.633201 1.63275,1.711835 0,0.195833 -1.57893,0.122444 -3.17836,-0.147736 z m -67.08369,-2.151473 c -0.23283,-0.23283 -5.03088,-0.979757 -6.30184,-0.981027 -0.66588,-6.59e-4 -1.01725,-0.113829 -0.90705,-0.292132 0.2133,-0.345138 5.66096,-2.981129 8.69986,-4.209678 4.65925,-1.883592 6.69339,-2.544922 11.54798,-3.754429 3.77152,-0.939673 3.84949,-0.921334 3.85696,0.907206 0.003,0.588552 0.0277,1.166395 0.0562,1.284104 0.0285,0.117716 -0.26044,0.302331 -0.64206,0.410264 -6.32209,1.788046 -10.60361,3.543714 -14.10648,5.784471 -1.59255,1.018737 -1.91245,1.142317 -2.20354,0.851221 z m 34.7351,-6.8628 c -3.00431,-0.674972 -8.04871,-0.997106 -11.27161,-0.719809 -1.64794,0.141794 -3.09256,0.20061 -3.21026,0.130701 -0.34142,-0.202765 -0.24729,-2.89275 0.10893,-3.112902 0.17762,-0.109784 1.62224,-0.371394 3.21027,-0.581371 6.85199,-0.906008 24.16418,-0.163157 20.69727,0.8881 -1.29389,0.392341 -4.24867,1.834773 -5.82799,2.845051 -0.86763,0.55502 -1.67133,0.992427 -1.786,0.972011 -0.11466,-0.02039 -0.97894,-0.21022 -1.92061,-0.421781 z"
       id="path2" /><path
       style="fill:#000000;stroke-width:0.27474;fill-opacity:1"
       d="m 1417.5818,190.03383 c 0.094,-0.0935 2.8033,-0.27932 6.0215,-0.41284 3.2182,-0.13353 7.2063,-0.4279 8.8624,-0.65415 3.8274,-0.5229 3.9947,-0.51942 3.9947,0.083 0,0.42514 -0.4154,0.5406 -2.9661,0.82421 -3.0246,0.33634 -16.2215,0.46881 -15.9125,0.15975 z m 23.1018,-1.60864 c -0.094,-0.24358 -0.1078,-0.50505 -0.032,-0.581 0.076,-0.076 2.0384,-0.61509 4.3611,-1.19806 6.1134,-1.53445 10.1908,-2.85774 14.792,-4.80076 1.2798,-0.54043 2.475,-0.9826 2.6559,-0.9826 0.1809,0 0.3763,-0.14218 0.4342,-0.31597 0.058,-0.17377 0.2741,-0.2597 0.4803,-0.19095 0.4766,0.15886 -4.617,2.64632 -8.9194,4.35579 -3.1228,1.24076 -8.2473,2.85672 -11.2644,3.55207 -0.7555,0.17414 -1.5906,0.38137 -1.8558,0.46051 -0.29,0.0865 -0.5499,-0.0327 -0.6521,-0.29903 z m -28.8124,-1.68507 c -4.4553,-0.33956 -12.835,-1.80795 -15.0344,-2.63451 -1.2769,-0.47985 -4.0674,-4.12921 -5.855,-7.65686 -0.3931,-0.77559 -0.6561,-1.46868 -0.5845,-1.54021 0.072,-0.0715 1.347,0.12069 2.8345,0.42716 8.0064,1.64958 12.6686,2.08969 21.9364,2.07083 7.6191,-0.0155 8.7022,-0.0871 16.9363,-1.11932 1.4555,-0.18246 1.323,-0.37578 2.0044,2.92711 0.2338,1.13331 0.674,3.03833 0.9784,4.23338 0.3043,1.19505 0.5142,2.21189 0.4665,2.25964 -0.048,0.0478 -1.4396,0.28611 -3.093,0.52966 -2.885,0.425 -17.0676,0.77155 -20.5896,0.50312 z m 28.07,-1.96131 c -0.068,-0.11389 -0.4508,-1.75247 -0.8495,-3.64131 -0.3985,-1.88883 -0.8373,-3.92132 -0.9751,-4.51663 -0.275,-1.18814 -0.1806,-1.52764 0.4245,-1.52764 1.0898,0 9.7718,-2.31101 14.1289,-3.76094 3.4169,-1.137 9.5491,-3.62234 13.0836,-5.30265 3.6831,-1.75093 10.5243,-5.60519 12.504,-7.04461 0.7003,-0.50911 1.3495,-0.92566 1.4424,-0.92566 0.3295,0 0.1633,3.62415 -0.2619,5.71244 -0.5536,2.71898 -1.1378,4.45617 -1.7179,5.10889 -0.5303,0.59661 -3.9056,2.84991 -6.9346,4.62944 -7.1261,4.18656 -16.7831,8.06547 -25.3961,10.20075 -5.1437,1.27518 -5.3047,1.30674 -5.4483,1.06792 z m -51.9521,-3.5163 c -4.4408,-1.84362 -9.7007,-5.09718 -14.7188,-9.10429 -2.7279,-2.17827 -9.7983,-9.06268 -9.5563,-9.30473 0.091,-0.0911 1.0117,0.44966 2.0456,1.20172 3.9217,2.85232 10.8919,6.29038 17.1267,8.44772 1.4354,0.49671 2.7021,1.06638 2.8148,1.26592 0.1128,0.19953 0.5783,1.19039 1.0345,2.2019 0.4562,1.01151 1.3947,2.68055 2.0856,3.70899 0.691,1.02843 1.3145,1.9626 1.3858,2.07592 0.2335,0.37128 -0.5616,0.19451 -2.2179,-0.49315 z m 17.4258,-7.57835 c -1.2845,-0.13011 -3.819,-0.43566 -5.6322,-0.67899 -2.9548,-0.3965 -4.4772,-0.68158 -9.392,-1.75869 -0.7834,-0.17169 -1.5658,-0.4825 -1.7385,-0.69067 -0.6683,-0.80529 -2.3554,-8.19363 -3.1046,-13.5954 -0.2872,-2.07199 -0.2915,-2.62756 -0.021,-2.69504 0.1879,-0.0468 1.8851,0.2276 3.7718,0.60967 7.4925,1.51733 13.379,2.0868 21.5205,2.08198 5.3784,-0.003 12.1058,-0.45261 16.4096,-1.09624 1.0425,-0.15591 1.9386,-0.24045 1.9911,-0.18789 0.1339,0.13386 3.4038,16.75457 3.314,16.84442 -0.1701,0.17015 -3.9309,0.66481 -8.0249,1.05554 -4.7417,0.45252 -15.1284,0.51308 -19.0944,0.11131 z m 31.74,-2.21229 c -0.149,-0.42445 -1.1411,-5.18472 -1.5357,-7.36823 -0.1502,-0.83109 -0.6163,-3.21051 -1.0357,-5.28761 -0.7849,-3.88547 -0.7533,-4.32828 0.3087,-4.32828 1.4598,0 13.1681,-3.30056 16.5416,-4.66308 0.3022,-0.12205 1.9094,-0.74912 3.5715,-1.39345 5.9662,-2.31275 13.6583,-6.27487 18.9563,-9.76408 1.2427,-0.81839 2.3819,-1.48799 2.5318,-1.48799 0.6477,0 3.3662,12.85179 3.3741,15.95183 0,0.59168 -0.4686,1.01361 -2.9516,2.64856 -10.9682,7.2222 -25.2467,13.09843 -37.9827,15.63155 -0.3779,0.075 -0.9039,0.20109 -1.1692,0.27988 -0.2651,0.0788 -0.5393,-0.0197 -0.6091,-0.2191 z m -57.703,-3.70131 c -8.8339,-3.52431 -15.5711,-7.82858 -21.0606,-13.4551 -4.4408,-4.55169 -4.8558,-5.25696 -6.3647,-10.81729 -0.636,-2.34354 -1.6468,-8.8877 -1.4095,-9.12501 0.051,-0.0512 1.558,1.33182 3.3482,3.07351 6.7644,6.58084 15.7132,11.75003 26.0317,15.03695 0.906,0.28861 0.9135,0.31316 1.5116,4.88889 0.5265,4.02875 1.2202,7.33978 2.403,11.47039 0.2059,0.71915 -0.2347,0.6132 -4.4597,-1.07234 z m 103.4256,-3.59824 c 0.3589,-1.16775 0.813,-4.35509 0.9931,-6.96914 l 0.163,-2.36724 2.3824,-1.92876 c 2.6662,-2.15854 8.1687,-7.73014 10.519,-10.65107 0.8485,-1.0546 2.3083,-3.06106 3.244,-4.45879 0.9356,-1.39775 1.7435,-2.54134 1.7952,-2.54134 0.1637,0 -1.3972,4.16391 -2.4716,6.59374 -1.8979,4.2921 -5.0001,9.70493 -8.0304,14.01173 -1.7408,2.474 -7.9575,9.06641 -8.5499,9.06641 -0.1753,0 -0.1918,-0.27726 -0.045,-0.75554 z m -81.5837,-11.62547 c -5.1845,-0.4599 -14.7746,-2.10875 -15.9627,-2.74452 -0.6103,-0.32661 -0.8268,-5.46375 -0.5088,-12.0737 0.3645,-7.57873 0.5212,-9.06641 0.9551,-9.06641 0.2043,0 1.1519,0.18019 2.1058,0.40044 9.9082,2.2879 24.2899,2.73205 35.4293,1.09416 1.4656,-0.21551 1.282,-0.56579 2.0242,3.86282 0.2278,1.35997 0.5959,3.46172 0.8181,4.67058 0.9958,5.42121 1.8425,9.9893 2.0611,11.12244 0.1425,0.73743 0.1352,1.35556 -0.018,1.54009 -0.1408,0.16955 -1.0282,0.39087 -1.9723,0.49181 -0.944,0.10094 -2.7054,0.30465 -3.9143,0.45268 -3.123,0.38243 -17.584,0.55416 -21.0176,0.24961 z m 31.7428,-2.16345 c -0.1459,-0.23595 -1.4972,-7.02771 -3.1739,-15.95165 -0.4685,-2.49326 -0.8978,-4.67533 -0.9542,-4.84902 -0.065,-0.20093 1.265,-0.64124 3.6561,-1.21035 10.8433,-2.58077 21.353,-6.92257 30.4775,-12.59097 1.9742,-1.22644 3.7047,-2.22987 3.8458,-2.22987 0.2507,0 1.5788,2.69078 4.2157,8.54104 1.7835,3.95699 3.8348,9.37104 3.9023,10.2998 0.051,0.69984 -0.2751,0.97061 -3.9966,3.31906 -9.6919,6.11589 -19.9791,10.48625 -31.8015,13.51026 -5.1422,1.31532 -5.979,1.47283 -6.1712,1.1617 z m 50.58,-0.2228 c -0.075,-0.26445 -0.2155,-1.16078 -0.3129,-1.99186 -0.3165,-2.70267 -0.9941,-6.11925 -1.8251,-9.20378 -1.3766,-5.10892 -1.4649,-4.63811 1.2892,-6.86773 4.8824,-3.95264 11.2818,-11.17074 14.7881,-16.67998 1.0141,-1.59352 3.315,-6.06406 4.1314,-8.02732 0.274,-0.65921 0.5467,-0.97983 0.7011,-0.82422 0.3656,0.36852 1.5753,5.18972 2.0633,8.22329 0.2304,1.43164 0.4189,3.7673 0.4189,5.19039 0,2.44731 -0.068,2.7487 -1.2443,5.56642 -2.4354,5.83112 -5.7257,10.96944 -10.5209,16.43001 -2.3186,2.64037 -8.6855,8.66558 -9.1571,8.66558 -0.1076,0 -0.2568,-0.21636 -0.3317,-0.4808 z m -103.7525,-1.8986 c -10.363,-3.47266 -18.7405,-8.42951 -25.1765,-14.89652 -1.5318,-1.53923 -3.1179,-3.27896 -3.5249,-3.86607 l -0.7397,-1.06748 0.3083,-3.08308 c 0.5146,-5.14797 2.7581,-14.82726 3.4731,-14.98399 0.1353,-0.0298 0.9261,0.70606 1.7574,1.63503 3.7311,4.17054 8.8679,8.00013 14.5068,10.81504 4.4716,2.23224 5.8737,2.83763 8.853,3.82227 l 2.2429,0.74133 -0.1696,1.39737 c -0.4356,3.58432 -0.6948,8.75342 -0.7005,13.96673 -0.01,3.13546 -0.099,5.69109 -0.2121,5.67915 -0.1135,-0.012 -0.3916,-0.0838 -0.6182,-0.15978 z m -33.3059,-15.61606 c -1.0723,-3.5393 -1.9012,-6.78237 -1.7676,-6.91593 0.063,-0.0631 0.6909,0.86805 1.3951,2.06922 l 1.2804,2.18397 -0.08,2.56771 -0.08,2.56769 z m 130.4517,-7.21191 c -1.0043,-2.53105 -2.9261,-6.82727 -4.2706,-9.54721 l -2.4446,-4.94532 1.6965,-1.50412 c 7.2723,-6.44783 11.9538,-12.112397 15.3319,-18.551879 0.7134,-1.359963 1.5113,-3.029001 1.7731,-3.708987 0.7796,-2.025145 0.8599,-2.042672 2.1305,-0.465641 4.2013,5.213994 8.9733,13.053975 8.9733,14.742037 0,0.79672 -1.6863,4.84023 -3.2033,7.68118 -2.5715,4.81559 -5.8066,9.22067 -9.9835,13.59448 -2.3933,2.50595 -7.6397,7.30735 -7.9848,7.30735 -0.1058,0 -1.0141,-2.07085 -2.0185,-4.60189 z m -75.5788,1.13436 c -4.148,-0.26401 -14.7823,-2.03051 -15.3174,-2.54444 -0.1137,-0.10921 -0.092,-0.87203 0.047,-1.69518 0.1404,-0.82315 0.4576,-2.79478 0.7051,-4.3814 0.5449,-3.49293 1.8102,-9.71974 2.8473,-14.01173 l 0.7633,-3.1595 0.9435,0.0306 c 0.519,0.0169 1.9945,0.23976 3.2788,0.49532 3.2089,0.63847 9.4402,1.24205 12.9128,1.25073 2.8154,0.007 11.3977,-0.69529 11.8405,-0.96896 0.1224,-0.0756 0.3346,0.32988 0.4717,0.9011 0.2165,0.9021 1.9966,11.40034 2.5285,14.91292 0.103,0.67997 0.4127,2.47266 0.6883,3.98372 0.7294,4.00016 0.7239,4.0561 -0.4183,4.28861 -3.5892,0.73062 -15.8192,1.24652 -21.2923,0.89817 z m 26.6435,-2.03744 c -0.1425,-0.23056 -1.0387,-4.66934 -1.912,-9.46834 -0.2473,-1.35998 -0.5633,-3.02901 -0.7021,-3.70899 -0.7858,-3.85053 -1.93,-10.23979 -1.8483,-10.32147 0.052,-0.0525 1.7592,-0.5241 3.793,-1.048281 4.5445,-1.171273 8.4819,-2.534537 12.6268,-4.371896 3.401,-1.507557 8.751,-4.406073 10.6511,-5.770466 0.7152,-0.513565 1.2685,-0.742061 1.4186,-0.585835 0.8906,0.926843 10.1843,15.208038 10.1843,15.649778 0,0.0603 0.5774,1.06082 1.2832,2.22336 l 1.2833,2.11368 -0.7481,0.59651 c -1.4157,1.12882 -7.1822,4.49117 -10.7475,6.26671 -6.668,3.32072 -13.2685,5.75474 -20.3307,7.49739 -5.0356,1.24253 -4.786,1.19578 -4.9516,0.92785 z m -81.8414,-2.83982 c -1.3014,-2.81749 -2.2127,-5.43185 -2.771,-7.95009 -0.4038,-1.82151 -0.4545,-3.12926 -0.335,-8.6543 0.089,-4.11012 0.3017,-7.419696 0.5775,-8.981175 0.8141,-4.609085 1.6454,-8.348176 1.8306,-8.233776 0.1013,0.06269 0.2684,1.150967 0.3713,2.418468 0.4106,5.061761 2.5277,11.311303 5.2901,15.616883 0.4575,0.71291 0.4413,0.82937 -0.5325,3.84636 -1.2313,3.81513 -2.2321,8.05165 -2.6984,11.42207 -0.1933,1.39773 -0.4516,2.54134 -0.5742,2.54134 -0.1225,0 -0.6438,-0.91161 -1.1584,-2.02578 z m 32.5318,0.0982 c -6.4851,-2.43983 -12.9318,-6.17666 -17.3832,-10.07629 -2.5867,-2.26612 -5.42,-5.4937 -5.42,-6.17426 0,-0.70377 2.6141,-6.158276 4.6579,-9.719074 1.8482,-3.219844 5.7338,-9.192705 5.9803,-9.192705 0.082,0 1.4051,1.205416 2.9405,2.678698 1.5354,1.473301 3.8711,3.399496 5.1904,4.280435 2.6334,1.758447 8.2165,4.51895 10.6966,5.288847 0.8688,0.269715 1.5798,0.61702 1.5798,0.771776 0,0.154774 -0.501,2.248763 -1.1134,4.653353 -0.6124,2.40458 -1.216,4.88258 -1.3412,5.50666 -0.1252,0.62408 -0.4919,2.43284 -0.8148,4.01947 -0.3228,1.58662 -0.8105,4.23757 -1.0837,5.891 -0.2733,1.65345 -0.611,3.04026 -0.7506,3.08182 -0.1395,0.0415 -1.5519,-0.41281 -3.1386,-1.00973 z m 127.2444,-13.65431 c -0.2005,-0.87416 -0.7698,-2.77713 -1.2653,-4.22883 l -0.9011,-2.63943 0.5074,-2.305879 c 0.2789,-1.268232 0.5101,-2.831323 0.5136,-3.473533 0.01,-1.23001 0.4594,-1.602145 0.6682,-0.549473 0.6113,3.082523 1.3285,12.965895 1.0235,14.106015 -0.1524,0.56972 -0.2413,0.42175 -0.5463,-0.90887 z m -41.0897,-6.3349 c -2.5405,-4.126363 -5.814,-8.989071 -9.3412,-13.875894 l -0.8007,-1.109237 0.6633,-0.529622 c 3.4952,-2.791002 7.3688,-6.969149 9.8542,-10.629083 1.1647,-1.715114 3.8592,-6.871293 3.8592,-7.384994 0,-0.16179 0.1203,-0.368522 0.2673,-0.4594 0.2971,-0.183607 6.0752,3.887146 9.486,6.682956 2.0975,1.719396 3.0368,2.555108 6.4563,5.744782 l 1.5111,1.409472 -0.5073,1.458676 c -1.5551,4.471913 -5.0889,10.263615 -9.2268,15.122292 -2.4135,2.833912 -8.3718,8.459642 -8.9457,8.446662 -0.1525,-0.004 -1.6266,-2.19791 -3.2757,-4.87661 z m -112.0236,-0.40585 c -1.342,-2.175265 -2.9864,-6.646062 -3.7016,-10.064697 -0.6429,-3.073008 -0.5733,-9.2901 0.1434,-12.781507 0.6129,-2.986513 1.0904,-3.871084 4.1255,-7.643128 1.7459,-2.169867 6.5352,-6.804466 7.033,-6.805838 0.1839,-4.96e-4 0.1896,0.837049 0.016,2.506029 -0.5047,4.879502 0.5108,9.923614 2.9882,14.841595 l 1.1964,2.375058 -0.7497,0.921808 c -2.4343,2.993055 -6.4626,9.512809 -8.8446,14.315387 -0.8058,1.624383 -1.5463,2.953453 -1.6456,2.953453 -0.099,0 -0.352,-0.27818 -0.5618,-0.61816 z m 46.1998,-4.054806 c -2.04,-0.274751 -4.4509,-0.67074 -5.3575,-0.879982 -1.6323,-0.376719 -1.6477,-0.389381 -1.5745,-1.291376 0.1577,-1.941066 6.5742,-19.946427 7.5114,-21.077349 0.1898,-0.229047 0.7772,-0.19839 2.2428,0.11702 1.4249,0.306696 3.6303,0.432141 7.8101,0.44427 l 5.8244,0.01686 0.3027,1.926625 c 0.1665,1.059641 0.4845,3.101117 0.7066,4.536642 0.8368,5.40791 0.9765,6.282713 1.6373,10.250887 0.5986,3.593327 0.8221,5.679012 0.6092,5.68641 -0.038,0.0019 -1.6141,0.185684 -3.5029,0.409722 -4.5948,0.544977 -11.5722,0.484818 -16.2096,-0.13977 z m 23.4973,-1.440004 c -0.062,-0.18888 -0.4901,-2.383358 -0.9511,-4.876628 -0.461,-2.493262 -0.9556,-5.151369 -1.0991,-5.906898 -0.1435,-0.755539 -0.4639,-2.486404 -0.7119,-3.846349 -0.248,-1.359972 -0.6259,-3.363796 -0.8398,-4.452938 -0.5631,-2.866854 -0.5378,-3.02928 0.504,-3.235574 3.4113,-0.675557 10.3177,-3.52895 12.9877,-5.365954 l 1.2775,-0.87894 1.6933,1.758377 c 2.9833,3.097727 4.1358,4.394358 7.7684,8.740774 4.6621,5.577944 6.0365,7.419738 5.7063,7.645882 -6.386,4.371712 -14.3714,7.934584 -22.3309,9.963428 -3.5331,0.900565 -3.8461,0.936122 -4.0044,0.45482 z m 77.4945,-2.152292 c -1.5787,-2.873743 -4.6198,-7.199977 -7.1803,-10.214667 l -1.8115,-2.132905 0.3157,-1.576072 c 0.1736,-0.866846 0.4294,-2.094456 0.5684,-2.728026 0.1389,-0.633557 0.2526,-2.938319 0.2526,-5.121679 0,-4.1929 -0.5404,-7.8143 -1.6452,-11.025359 -0.8122,-2.360973 -0.7001,-2.397872 0.846,-0.278479 4.2227,5.788257 9.3206,15.826262 10.303,20.286954 0.8239,3.741016 0.761,14.21782 -0.09,15.042053 -0.1154,0.111687 -0.8166,-0.901635 -1.5584,-2.25182 z m -115.3407,-0.08707 c -5.2008,-2.124739 -8.7553,-4.378796 -12.401,-7.864134 -1.4561,-1.391964 -2.6474,-2.73257 -2.6473,-2.979142 0,-1.000414 7.9432,-9.554175 13.0061,-14.006083 1.487,-1.307428 2.8913,-2.48355 3.1208,-2.613617 0.3082,-0.17457 0.8232,0.160376 1.9672,1.279352 1.8709,1.830025 4.3032,3.421215 6.8232,4.463888 1.0284,0.425503 1.9671,0.854916 2.0861,0.954276 0.1189,0.09934 -0.4816,1.777079 -1.3345,3.728292 -1.948,4.456633 -4.0451,9.901817 -5.6251,14.605935 -0.846,2.518821 -1.3499,3.639533 -1.6355,3.637788 -0.2272,-0.0019 -1.7392,-0.544332 -3.36,-1.206555 z m 65.4505,-12.583949 c -1.9433,-2.517446 -7.5927,-8.883814 -11.1703,-12.587807 l -2.7919,-2.89059 1.9213,-1.900144 c 2.2351,-2.210691 3.9846,-4.576725 5.0469,-6.825629 0.5722,-1.211541 0.859,-1.552424 1.1947,-1.420166 0.243,0.09571 0.9981,0.361536 1.6781,0.590723 2.6786,0.90285 8.8585,3.581508 12.7542,5.528305 5.3309,2.664023 6.4776,3.369353 6.4776,3.984225 0,0.833526 -2.0899,4.938716 -3.8977,7.656281 -1.7585,2.64328 -8.6013,9.854438 -9.331,9.833231 -0.2041,-0.0057 -1.0509,-0.891714 -1.8819,-1.968429 z m -83.7187,-3.172157 c -1.8633,-4.170982 -2.2749,-6.038204 -2.2749,-10.321445 0,-3.588155 0.371,-6.046347 1.0306,-6.826936 1.1706,-1.385483 9.2993,-5.331089 14.6296,-7.101026 2.691,-0.893567 2.4846,-1.079539 2.5957,2.338907 0.098,3.015382 0.3581,4.116425 1.5495,6.561579 l 0.5511,1.131136 -0.8974,0.686843 c -3.7519,2.871541 -13.1705,11.942398 -15.0752,14.51859 -0.3525,0.476766 -0.7848,0.866846 -0.9606,0.866846 -0.1759,0 -0.6927,-0.834524 -1.1484,-1.854494 z m 118.7479,-2.317956 c -3.6125,-3.253729 -7.1935,-6.059304 -11.1063,-8.701509 -3.907,-2.638228 -3.6276,-2.056384 -3.0538,-6.357823 0.5796,-4.344677 0.01,-8.418523 -1.8157,-13.00426 -0.5316,-1.334736 -0.9062,-2.48722 -0.8323,-2.561091 0.2969,-0.296891 6.004,1.991889 9.2528,3.710764 3.0796,1.629328 5.5047,3.364234 6.1652,4.410496 3.0679,4.859892 4.8232,11.011024 4.824,16.904007 3e-4,3.063019 -0.4836,7.857659 -0.7911,7.837581 -0.094,-0.0057 -1.2828,-1.013282 -2.6428,-2.238165 z m -81.5289,-5.512878 c -1.2953,-0.188271 -1.8545,-0.387554 -1.8545,-0.660866 0,-0.771008 4.3595,-8.851798 7.2394,-13.4188 1.0482,-1.662168 2.1044,-3.361341 2.3471,-3.77593 0.8061,-1.37667 0.7915,-1.417859 1.5399,4.325414 0.4797,3.681158 0.7615,5.636587 1.3707,9.512547 0.5995,3.813977 0.5814,3.985233 -0.4429,4.190097 -1.2674,0.253478 -8.0596,0.138632 -10.1997,-0.172462 z m 13.9581,-0.823466 c -0.058,-0.18889 -0.1814,-0.776141 -0.2749,-1.305013 -0.3495,-1.978397 -0.973,-5.43308 -1.3885,-7.692716 -1.0166,-5.52986 -1.5057,-8.413216 -1.5083,-8.891953 0,-0.494091 0.024,-0.494976 0.7526,-0.02455 2.5923,1.673875 8.7669,6.709198 12.9391,10.551484 l 2.5212,2.32185 -1.4455,0.899611 c -2.0985,1.306071 -6.297,3.099364 -8.9926,3.840971 -2.754,0.757737 -2.4732,0.725337 -2.6031,0.300297 z m -21.0961,-1.281087 c -3.0318,-1.29921 -6.7734,-4.214272 -6.4595,-5.032454 0.1644,-0.428371 5.5275,-4.129355 9.2501,-6.383312 3.5075,-2.1237 9.9108,-5.466819 9.9108,-5.174377 0,0.130134 -1.0593,1.837789 -2.3539,3.794781 -2.4178,3.654982 -4.1859,6.656772 -6.4705,10.985626 -0.7177,1.35996 -1.4676,2.501812 -1.6664,2.537437 -0.1988,0.03563 -1.1936,-0.29184 -2.2106,-0.727701 z m -40.7745,-3.687656 c 0.5567,-1.584419 8.8576,-12.271177 9.5317,-12.271177 0.1269,0 -0.1776,0.722392 -0.6766,1.60531 -0.4991,0.882926 -1.2651,2.503549 -1.7023,3.601376 -0.7143,1.794284 -0.9892,2.149909 -2.718,3.517921 -1.0577,0.837025 -2.5281,2.090861 -3.2675,2.786319 -0.7469,0.702418 -1.2657,1.040342 -1.1673,0.760251 z m 74.6309,-3.917232 c -3.867,-3.394867 -11.0575,-8.969537 -12.8982,-9.999718 -2.2626,-1.266156 8.474,0.209188 17.3395,2.382684 2.2161,0.543299 4.1743,1.077521 4.3517,1.187142 0.7016,0.433588 -2.2829,5.053115 -4.6654,7.221237 -0.7825,0.712158 -1.5059,1.286734 -1.6076,1.276854 -0.1016,-0.0099 -1.2356,-0.940568 -2.52,-2.068199 z m 31.595,-0.538273 C 1457.67,57.61452 1451.5583,55.026715 1447.4501,53.66 l -2.6101,-0.868291 v -3.344418 c 0,-3.268843 -0.4647,-5.648121 -1.3118,-6.716622 -0.1527,-0.192537 -0.1878,-0.439805 -0.078,-0.549476 0.1098,-0.109686 2.4456,-0.196307 5.1906,-0.192511 4.7582,0.0066 9.1461,0.35994 12.1341,0.977152 0.7555,0.15606 1.6515,0.340734 1.991,0.410381 1.0656,0.218621 3.2454,5.148663 3.9387,8.908298 0.5687,3.084185 0.2805,9.324004 -0.4387,9.50256 -0.149,0.03696 -2.0636,-0.845763 -4.2546,-1.961629 z m -74.1913,0.40494 c -1.0795,-2.017196 -1.6224,-7.382208 -0.8421,-8.322404 0.7233,-0.8715 11.7468,-2.37492 17.3364,-2.364396 l 3.4359,0.0066 -4.0588,2.040412 c -4.3812,2.202474 -8.3785,4.540216 -12.6569,7.402183 -1.4872,0.994837 -2.7501,1.808793 -2.8064,1.808793 -0.056,0 -0.2399,-0.256974 -0.4081,-0.571062 z m -21.1434,-3.965987 c 0,-0.573955 2.4389,-4.718019 3.9593,-6.727287 2.3562,-3.11403 5.9989,-6.828358 8.6832,-8.854161 1.0872,-0.820398 3.4397,-1.307238 6.3146,-1.306742 2.1753,3.89e-4 4.6706,0.281678 4.6706,0.526516 0,0.09884 -0.7153,0.916137 -1.5896,1.816228 -1.8992,1.95551 -3.1523,3.718527 -4.4696,6.289051 -0.6873,1.341185 -1.1755,1.962896 -1.6485,2.099593 -0.3696,0.106809 -1.4136,0.408544 -2.3204,0.670522 -3.6699,1.060456 -8.2994,2.985311 -13.3935,5.568783 -0.1133,0.05747 -0.2061,0.02034 -0.2061,-0.08251 z m 71.295,-5.387391 c -4.0743,-1.083259 -11.0456,-2.297727 -15.6601,-2.728164 -1.8133,-0.169139 -3.4824,-0.372672 -3.7091,-0.452298 -0.9786,-0.343802 8.5404,-3.117123 14.8276,-4.319957 5.1849,-0.99196 5.368,-0.977946 6.0144,0.459673 1.0582,2.354003 1.4926,6.251318 0.7938,7.12343 -0.3101,0.387075 -0.53,0.379055 -2.2666,-0.08268 z m -49.8642,-2.370168 c 0.01,-0.808558 3.1889,-4.920129 5.0286,-6.491915 l 1.4598,-1.247099 1.2197,0.372334 c 2.5618,0.781895 4.8797,1.769241 8.902,3.791795 3.089,1.553315 3.7196,1.918688 3.7196,2.155481 0,0.09104 -2.8126,0.24564 -6.2503,0.343537 -3.9828,0.113432 -7.5462,0.375963 -9.8219,0.72365 -4.0521,0.619039 -4.259,0.636154 -4.2575,0.352217 z m 21.9781,-3.069575 c -1.2154,-0.903918 -6.9249,-3.988533 -9.6845,-5.232126 -1.4733,-0.663924 -2.6787,-1.305989 -2.6787,-1.426788 0,-0.461747 4.718,-2.648596 7.9626,-3.690707 2.9042,-0.93278 3.8216,-1.077224 3.9543,-0.622561 0.061,0.205401 0.4376,2.537032 0.8391,5.181403 0.4013,2.644372 0.7961,5.147937 0.8772,5.563485 0.1762,0.903305 -0.2568,0.980806 -1.27,0.227294 z m 3.4606,-0.04398 c -0.127,-0.383188 -0.5792,-4.783193 -0.9528,-9.271976 -0.2275,-2.73238 -0.306,-2.656739 2.987,-2.876625 2.0709,-0.138293 7.8246,0.187502 8.7146,0.493461 0.1844,0.06333 -1.2446,1.696835 -3.1755,3.629932 -1.9309,1.933115 -4.2972,4.503814 -5.2583,5.712666 -2.3015,2.894873 -2.1667,2.760127 -2.315,2.312542 z m 5.2083,-2.320611 c 2.5135,-2.738299 5.647,-5.657975 7.9161,-7.375949 1.5298,-1.15814 1.4624,-1.164241 4.7299,0.428429 2.2956,1.119033 5.1975,3.273001 5.1975,3.85797 0,0.20092 -0.8143,0.469742 -2.049,0.676482 -4.1427,0.693631 -10.9146,2.579562 -15.4983,4.316172 -1.0381,0.393249 -2.07,0.714993 -2.2933,0.714993 -0.2234,0 0.6752,-1.178147 1.9971,-2.618097 z m 55.7576,1.08125 c -1.3265,-0.660187 -7.5637,-2.858991 -8.1099,-2.858991 -0.1475,0 -1.7211,-1.453756 -3.497,-3.230572 -1.776,-1.776814 -3.6618,-3.567436 -4.1906,-3.979148 -0.8526,-0.663701 -0.8794,-0.720028 -0.2366,-0.496794 2.1488,0.746171 9.1077,4.608316 12.3251,6.840265 2.2515,1.561955 5.7696,4.207434 5.7696,4.338583 0,0.251593 -0.803,0.01257 -2.0606,-0.613343 z m -17.2093,-4.512568 c -2.3623,-0.399062 -8.8674,-0.568012 -12.1879,-0.316535 l -3.2968,0.249691 -1.7924,-1.715708 c -2.0264,-1.939621 -4.4245,-3.571712 -6.6886,-4.552229 -0.8457,-0.366265 -1.5397,-0.756878 -1.5424,-0.868036 -0.01,-0.31961 2.9649,-1.734964 5.2648,-2.507005 1.1547,-0.387652 2.8833,-0.785037 3.8412,-0.883083 1.5778,-0.161483 1.987,-0.08347 4.3516,0.829526 5.233,2.020595 10.2019,5.051105 13.5386,8.25747 0.8647,0.830774 1.572,1.572438 1.572,1.648146 0,0.188543 -1.5201,0.117888 -3.0601,-0.142237 z M 1392.715,37.56993 c -0.2242,-0.224168 -4.8436,-0.943304 -6.0674,-0.944529 -0.6411,-6.36e-4 -0.9793,-0.109595 -0.8733,-0.281264 0.2055,-0.332293 5.4504,-2.87021 8.3763,-4.053044 4.4858,-1.813508 6.4443,-2.450231 11.1182,-3.614737 3.6312,-0.904711 3.7063,-0.887051 3.7135,0.873451 0,0.566656 0.027,1.122994 0.054,1.236326 0.028,0.113334 -0.2508,0.291079 -0.6182,0.394996 -6.0869,1.721521 -10.209,3.411864 -13.5816,5.569246 -1.5333,0.980832 -1.8413,1.09982 -2.1215,0.819555 z m 33.4427,-6.607456 c -2.8925,-0.649861 -7.7492,-0.960005 -10.8522,-0.693026 -1.5866,0.136515 -2.9776,0.193148 -3.0908,0.125834 -0.3288,-0.195217 -0.2381,-2.785113 0.1048,-2.997078 0.1711,-0.105702 1.5619,-0.357575 3.0909,-0.559736 6.5971,-0.872301 23.265,-0.157085 19.9272,0.855056 -1.2459,0.377741 -4.0906,1.766505 -5.6112,2.739193 -0.8353,0.53437 -1.6091,0.9555 -1.7195,0.935847 -0.1104,-0.01959 -0.9426,-0.2024 -1.8492,-0.40609 z"
       id="path2-2" /><path
       style="fill:#000000;stroke-width:0.278955;fill-opacity:1"
       d="m 921.52773,483.16437 c -0.095,-0.095 -2.84617,-0.2836 -6.11376,-0.41917 -3.26759,-0.13558 -7.31686,-0.43447 -8.99837,-0.66419 -3.88614,-0.53092 -4.05605,-0.52739 -4.05605,0.0843 0,0.43167 0.42186,0.54891 3.01162,0.83687 3.07099,0.34148 16.47036,0.476 16.15656,0.16219 z m -23.45614,-1.63332 c 0.0949,-0.24733 0.10946,-0.5128 0.0324,-0.58992 -0.0772,-0.0771 -2.06973,-0.62453 -4.42801,-1.21644 -6.20727,-1.55799 -10.34717,-2.90159 -15.01905,-4.87441 -1.29947,-0.54872 -2.51291,-0.99768 -2.69657,-0.99768 -0.18366,0 -0.38203,-0.14436 -0.44085,-0.32081 -0.0588,-0.17644 -0.27825,-0.26369 -0.48763,-0.19389 -0.48392,0.1613 4.68777,2.68692 9.05619,4.42263 3.17062,1.25979 8.37381,2.90054 11.43715,3.60656 0.76712,0.17681 1.61506,0.38721 1.88432,0.46757 0.2944,0.0879 0.55833,-0.0332 0.66211,-0.30361 z m 29.25442,-1.71093 c 4.52371,-0.34477 13.03193,-1.83568 15.26507,-2.67493 1.29643,-0.48721 4.12982,-4.19256 5.94484,-7.77433 0.39905,-0.78748 0.66612,-1.49121 0.5935,-1.56384 -0.0727,-0.0726 -1.36774,0.12254 -2.87804,0.43372 -8.12924,1.67488 -12.86294,2.12175 -22.27283,2.1026 -7.73603,-0.0157 -8.83583,-0.0884 -17.1962,-1.13649 -1.47782,-0.18527 -1.34341,-0.38155 -2.0352,2.97201 -0.23737,1.1507 -0.68439,3.08495 -0.99339,4.29833 -0.30899,1.21339 -0.52214,2.24582 -0.47366,2.29431 0.0485,0.0485 1.46171,0.29049 3.14048,0.53779 2.92925,0.43151 17.32936,0.78338 20.90543,0.51083 z m -28.50055,-1.9914 c 0.0696,-0.11563 0.45764,-1.77936 0.86236,-3.69718 0.40474,-1.9178 0.85031,-3.98148 0.99018,-4.58591 0.27916,-1.20638 0.18339,-1.55108 -0.43097,-1.55108 -1.10663,0 -9.92181,-2.34647 -14.34581,-3.81864 -3.46923,-1.15445 -9.69551,-3.67792 -13.28427,-5.38401 -3.73958,-1.7778 -10.68577,-5.69119 -12.6959,-7.15269 -0.71097,-0.51693 -1.37,-0.93986 -1.46451,-0.93986 -0.3345,0 -0.16577,3.67975 0.26596,5.80008 0.56212,2.76069 1.15523,4.52453 1.74427,5.18727 0.53842,0.60576 3.96549,2.89363 7.04095,4.70046 7.23546,4.2508 17.04069,8.18922 25.7858,10.35726 5.22258,1.29474 5.38603,1.32678 5.53194,1.0843 z m 52.74912,-3.57024 c 4.50891,-1.87191 9.84959,-5.17539 14.94457,-9.24398 2.76965,-2.21169 9.94865,-9.20171 9.70289,-9.44748 -0.0925,-0.0925 -1.02715,0.45656 -2.07699,1.22015 -3.98176,2.89608 -11.05889,6.3869 -17.38932,8.57734 -1.45753,0.50433 -2.7437,1.08273 -2.85813,1.28533 -0.11444,0.2026 -0.58705,1.20866 -1.05025,2.23569 -0.4632,1.02703 -1.41616,2.72167 -2.11769,3.76589 -0.70151,1.04421 -1.33469,1.99271 -1.40705,2.10778 -0.23707,0.37697 0.57022,0.19748 2.25197,-0.50072 z m -17.69314,-7.69462 c 1.30412,-0.13211 3.87747,-0.44234 5.71858,-0.68941 3.00009,-0.40258 4.54588,-0.69204 9.53598,-1.78567 0.79547,-0.17433 1.58983,-0.48991 1.76524,-0.70127 0.67857,-0.81764 2.39159,-8.31934 3.15216,-13.80398 0.29174,-2.10377 0.29602,-2.66787 0.0207,-2.73639 -0.19068,-0.0474 -1.91401,0.2311 -3.82963,0.61903 -7.60749,1.5406 -13.58422,2.11882 -21.85076,2.11391 -5.46082,-0.003 -12.29144,-0.45955 -16.66126,-1.11305 -1.05855,-0.1583 -1.96833,-0.24414 -2.02172,-0.19077 -0.13591,0.13592 -3.45602,17.01162 -3.36479,17.10284 0.17275,0.17276 3.9913,0.67502 8.14804,1.07173 4.81439,0.45948 15.36046,0.52096 19.38736,0.11303 z m -32.22691,-2.24623 c 0.15123,-0.43096 1.15853,-5.26426 1.55918,-7.48128 0.15248,-0.84384 0.62575,-3.25976 1.05168,-5.36872 0.79677,-3.94509 0.76471,-4.39469 -0.31346,-4.39469 -1.48221,0 -13.37014,-3.3512 -16.79541,-4.73462 -0.30685,-0.12393 -1.93873,-0.76061 -3.62641,-1.41483 -6.05764,-2.34824 -13.86783,-6.37115 -19.24713,-9.91389 -1.26171,-0.83094 -2.41844,-1.51081 -2.5705,-1.51081 -0.65776,0 -3.41791,13.04895 -3.42596,16.19656 -0.002,0.60075 0.47591,1.02916 2.99694,2.68919 11.13645,7.33301 25.63399,13.29939 38.5655,15.87137 0.38356,0.0762 0.91768,0.20417 1.18693,0.28418 0.26925,0.08 0.54764,-0.0201 0.61864,-0.22246 z m 58.58814,-3.7581 c 8.96943,-3.57838 15.81006,-7.94869 21.38376,-13.66153 4.50896,-4.62152 4.93028,-5.33761 6.46234,-10.98325 0.64572,-2.37949 1.6721,-9.02405 1.43115,-9.265 -0.052,-0.052 -1.58189,1.35224 -3.39963,3.12066 -6.86816,6.6818 -15.95424,11.93029 -26.43101,15.26766 -0.91988,0.29302 -0.92758,0.31794 -1.53481,4.96389 -0.53463,4.09055 -1.23891,7.45238 -2.43984,11.64637 -0.20909,0.73017 0.23832,0.6226 4.52804,-1.0888 z m -105.01231,-3.65344 c -0.36441,-1.18567 -0.82557,-4.4219 -1.00834,-7.07606 l -0.16551,-2.40357 -2.41893,-1.95835 c -2.70709,-2.19165 -8.294,-7.84873 -10.68035,-10.81447 -0.8616,-1.07078 -2.34382,-3.10802 -3.29382,-4.5272 -0.94992,-1.41919 -1.77023,-2.58033 -1.82278,-2.58033 -0.16613,0 1.41867,4.22779 2.50953,6.69491 1.92705,4.35794 5.07684,9.85382 8.15361,14.22669 1.76742,2.51195 8.07961,9.20551 8.68103,9.20551 0.17809,0 0.1948,-0.28151 0.0455,-0.76713 z m 82.83541,-11.80384 c 5.26396,-0.46694 15.00113,-2.1411 16.20749,-2.78662 0.61971,-0.33161 0.83955,-5.54757 0.51671,-12.25894 -0.37015,-7.695 -0.52929,-9.2055 -0.96975,-9.2055 -0.20752,0 -1.16966,0.18296 -2.1381,0.40658 -10.06034,2.32301 -24.6626,2.77397 -35.97287,1.11095 -1.48814,-0.21881 -1.30177,-0.57448 -2.05524,3.92208 -0.23138,1.38084 -0.60518,3.51483 -0.83067,4.74224 -1.01121,5.50439 -1.87076,10.14256 -2.09284,11.29309 -0.14452,0.74873 -0.13716,1.37634 0.0184,1.56371 0.14287,0.17216 1.044,0.39687 2.0025,0.49936 0.9585,0.10249 2.74697,0.30932 3.97437,0.45962 3.17098,0.3883 17.85382,0.56266 21.34005,0.25343 z m -32.22979,-2.19663 c 0.14806,-0.23957 1.52014,-7.13554 3.22255,-16.19638 0.47564,-2.53152 0.91158,-4.74706 0.96876,-4.92342 0.0661,-0.20401 -1.28429,-0.65107 -3.71215,-1.22892 -11.00976,-2.62037 -21.68064,-7.02877 -30.94504,-12.78414 -2.00447,-1.24525 -3.76166,-2.26408 -3.90488,-2.26408 -0.2545,0 -1.603,2.73206 -4.28035,8.67208 -1.81089,4.0177 -3.89362,9.51481 -3.9622,10.45781 -0.0517,0.71058 0.27937,0.98551 4.05803,3.36999 9.84048,6.20972 20.28556,10.64712 32.2893,13.71753 5.22112,1.3355 6.07074,1.49543 6.26598,1.17953 z m -51.35615,-0.22623 c 0.076,-0.2685 0.21896,-1.17858 0.3178,-2.02241 0.32141,-2.74414 1.00932,-6.21314 1.85312,-9.34499 1.3976,-5.1873 1.48734,-4.70926 -1.30899,-6.97309 -4.95731,-4.01329 -11.45489,-11.34212 -15.01497,-16.93588 -1.02973,-1.61797 -3.36583,-6.1571 -4.1947,-8.15048 -0.27836,-0.66932 -0.5553,-0.99486 -0.71202,-0.83687 -0.37104,0.37417 -1.59929,5.26935 -2.0949,8.34946 -0.23395,1.4536 -0.42534,3.8251 -0.42534,5.27001 0,2.48486 0.0688,2.79088 1.26337,5.65183 2.47281,5.92058 5.81359,11.13773 10.68232,16.68208 2.35419,2.68088 8.81885,8.79852 9.29761,8.79852 0.10923,0 0.26075,-0.21968 0.3367,-0.48818 z m 105.34441,-1.92772 c 10.52198,-3.52594 19.02801,-8.55884 25.56266,-15.12506 1.55533,-1.56285 3.16587,-3.32926 3.57898,-3.92539 l 0.75111,-1.08385 -0.31295,-3.13039 c -0.52255,-5.22695 -2.80052,-15.05474 -3.52641,-15.21387 -0.13754,-0.0302 -0.9405,0.7169 -1.78433,1.66011 -3.78839,4.23453 -9.00403,8.12287 -14.72939,10.98097 -4.54025,2.26649 -5.96391,2.88116 -8.98882,3.88091 l -2.27745,0.7527 0.17236,1.41881 c 0.44209,3.63932 0.70525,8.88772 0.71104,14.18101 0.004,3.18357 0.10048,5.77841 0.21555,5.76629 0.11507,-0.0121 0.39751,-0.0851 0.62765,-0.16224 z m 33.81678,-15.85564 c 1.08877,-3.5936 1.93041,-6.88642 1.79476,-7.02205 -0.0638,-0.0641 -0.70151,0.88137 -1.41651,2.10098 l -1.30002,2.21747 0.0806,2.6071 0.0806,2.60709 z m -132.45303,-7.32256 c 1.01978,-2.56988 2.97106,-6.93202 4.33617,-9.69368 l 2.48204,-5.02119 -1.72251,-1.5272 c -7.38399,-6.54676 -12.13719,-12.29823 -15.56712,-18.8365 -0.72437,-1.38083 -1.53452,-3.07547 -1.80032,-3.76589 -0.79164,-2.05622 -0.87307,-2.07401 -2.16327,-0.47278 -4.26564,5.29398 -9.11098,13.25424 -9.11098,14.96821 0,0.80894 1.71223,4.91448 3.25254,7.79902 2.61097,4.88947 5.89562,9.36213 10.13674,13.80304 2.42991,2.5444 7.75688,7.41947 8.1072,7.41947 0.10745,0 1.02972,-2.10263 2.04951,-4.6725 z m 76.7383,1.15177 c 4.2116,-0.26807 15.00906,-2.06167 15.55243,-2.58348 0.11546,-0.11088 0.0934,-0.88541 -0.049,-1.7212 -0.14245,-0.83576 -0.4646,-2.83765 -0.71591,-4.44861 -0.55321,-3.54653 -1.83793,-9.86886 -2.89088,-14.2267 l -0.77514,-3.20797 -0.95797,0.0311 c -0.52688,0.0171 -2.02497,0.24343 -3.32907,0.50291 -3.25802,0.64826 -9.58507,1.2611 -13.11088,1.26992 -2.85857,0.007 -11.57254,-0.70596 -12.02215,-0.98383 -0.12421,-0.0767 -0.33974,0.33495 -0.47896,0.91492 -0.21985,0.91595 -2.02716,11.57525 -2.5673,15.14172 -0.10456,0.69041 -0.41901,2.51059 -0.69876,4.04484 -0.74059,4.06153 -0.73506,4.11833 0.42466,4.3544 3.64418,0.74184 16.06191,1.26564 21.61898,0.91195 z m -27.05224,-2.0687 c 0.14469,-0.2341 1.05473,-4.74098 1.94122,-9.61361 0.25122,-1.38083 0.57204,-3.07549 0.71295,-3.76589 0.79789,-3.9096 1.95962,-10.39689 1.87671,-10.47982 -0.0532,-0.0532 -1.78624,-0.53215 -3.85124,-1.06436 -4.61422,-1.18925 -8.612,-2.57343 -12.82055,-4.43897 -3.45316,-1.53069 -8.88527,-4.47367 -10.81445,-5.859 -0.72617,-0.52145 -1.28797,-0.75344 -1.44041,-0.59482 -0.90428,0.94106 -10.34048,15.44135 -10.34048,15.88988 0,0.0613 -0.58632,1.07709 -1.30294,2.25746 l -1.30294,2.14611 0.75955,0.60566 c 1.43743,1.14614 7.29234,4.56008 10.91236,6.36286 6.77037,3.37166 13.47201,5.84303 20.64266,7.61241 5.11276,1.26159 4.85944,1.21412 5.02756,0.94209 z m 83.09697,-2.88339 c 1.32138,-2.86072 2.24662,-5.51519 2.8136,-8.07205 0.41007,-1.84947 0.46144,-3.17729 0.34014,-8.78708 -0.0903,-4.17319 -0.3064,-7.53353 -0.58644,-9.11897 -0.82662,-4.67979 -1.67062,-8.47626 -1.85858,-8.3601 -0.10293,0.0636 -0.27259,1.16863 -0.37701,2.45558 -0.41701,5.13942 -2.56651,11.48483 -5.37136,15.85647 -0.46442,0.72385 -0.44805,0.84209 0.54066,3.90537 1.25026,3.87366 2.26646,8.17519 2.73975,11.5973 0.19627,1.41918 0.45864,2.58033 0.58302,2.58033 0.12438,0 0.65368,-0.92559 1.17622,-2.05685 z m -33.03096,0.0998 c 6.58469,-2.47726 13.13024,-6.27143 17.64996,-10.23089 2.62645,-2.30088 5.50328,-5.57798 5.50328,-6.26898 0,-0.71457 -2.65426,-6.25275 -4.72947,-9.86818 -1.87652,-3.26925 -5.82177,-9.33374 -6.07207,-9.33374 -0.0831,0 -1.42666,1.22391 -2.98563,2.71979 -1.55899,1.49591 -3.93049,3.45166 -5.27002,4.34611 -2.67382,1.78542 -8.34254,4.58828 -10.8607,5.36999 -0.8822,0.27385 -1.604,0.62648 -1.604,0.78361 0,0.15715 0.50873,2.28327 1.1305,4.72474 0.62177,2.44147 1.23455,4.95749 1.36173,5.59115 0.12719,0.63366 0.49944,2.47017 0.82723,4.08114 0.3278,1.61096 0.82301,4.30258 1.10046,5.98138 0.27745,1.67881 0.62038,3.0869 0.76208,3.1291 0.14169,0.0422 1.57569,-0.41915 3.18665,-1.02522 z M 831.74357,400.0091 c 0.20348,-0.88757 0.78161,-2.81974 1.28478,-4.2937 l 0.91483,-2.67993 -0.51501,-2.34126 c -0.28331,-1.28769 -0.51802,-2.87475 -0.52171,-3.52682 -0.008,-1.24888 -0.4664,-1.62672 -0.67836,-0.5579 -0.62069,3.12981 -1.34883,13.16481 -1.03924,14.32242 0.15471,0.57846 0.24504,0.42822 0.55471,-0.92281 z m 41.72014,-6.43209 c 2.57938,-4.18967 5.90316,-9.12698 9.48454,-14.08877 l 0.81291,-1.12626 -0.67344,-0.53775 c -3.54888,-2.83382 -7.48185,-7.07607 -10.00541,-10.79215 -1.18259,-1.74143 -3.91837,-6.97672 -3.91837,-7.4983 0,-0.16427 -0.12216,-0.37417 -0.27146,-0.46645 -0.30164,-0.18642 -6.16836,3.94679 -9.63144,6.78549 -2.12976,1.74578 -3.08341,2.59431 -6.55543,5.83292 l -1.53426,1.43109 0.51502,1.48106 c 1.57895,4.54052 5.16695,10.42108 9.36841,15.35429 2.4506,2.87739 8.50011,8.58944 9.08297,8.57626 0.15482,-0.004 1.65149,-2.23164 3.32596,-4.95143 z m 113.7422,-0.41208 c 1.36264,-2.20863 3.03215,-6.74802 3.75844,-10.21911 0.65284,-3.12015 0.58203,-9.43262 -0.14559,-12.9776 -0.62239,-3.03233 -1.10719,-3.93047 -4.18881,-7.76038 -1.77272,-2.20316 -6.63549,-6.90886 -7.14091,-6.91026 -0.18672,-5e-4 -0.19244,0.84989 -0.0171,2.54448 0.51257,4.95436 -0.51857,10.07586 -3.03399,15.06929 l -1.21478,2.4115 0.76124,0.93595 c 2.47167,3.03897 6.56164,9.65875 8.98033,14.53502 0.81807,1.6493 1.56989,2.99876 1.67069,2.99876 0.1008,0 0.35753,-0.28245 0.57051,-0.62765 z m -46.90851,-4.11702 c 2.07124,-0.27896 4.51907,-0.68102 5.43962,-0.89348 1.65733,-0.38249 1.673,-0.39535 1.59862,-1.31118 -0.16004,-1.97084 -6.67503,-20.25245 -7.62655,-21.40072 -0.1927,-0.23256 -0.78919,-0.20143 -2.27725,0.11882 -1.44687,0.3114 -3.68597,0.43877 -7.92991,0.45108 l -5.91376,0.0171 -0.3074,1.95618 c -0.16905,1.0759 -0.49189,3.14869 -0.71741,4.60624 -0.84957,5.49088 -0.99146,6.37911 -1.66253,10.40816 -0.60768,3.64846 -0.83452,5.76613 -0.61844,5.77364 0.0384,0.002 1.63887,0.18854 3.55668,0.41601 4.66529,0.55335 11.74967,0.49226 16.45833,-0.14191 z m -23.85788,-1.46209 c 0.063,-0.19177 0.49767,-2.41992 0.96571,-4.95144 0.46805,-2.53152 0.97024,-5.2304 1.11597,-5.99752 0.14573,-0.76713 0.47099,-2.52455 0.72279,-3.90537 0.25178,-1.38083 0.6355,-3.41539 0.85271,-4.52125 0.57171,-2.91083 0.54603,-3.07575 -0.51169,-3.28521 -3.46374,-0.68592 -10.47603,-3.58309 -13.18698,-5.44828 l -1.29709,-0.89243 -1.71938,1.78536 c -3.02907,3.14525 -4.19912,4.46177 -7.88755,8.87487 -4.73352,5.66352 -6.12916,7.53358 -5.79376,7.76319 6.48392,4.43878 14.59188,8.05632 22.67342,10.11628 3.5873,0.91439 3.90507,0.95049 4.06585,0.4618 z m -78.68344,-2.18531 c 1.60293,-2.91783 4.69067,-7.31043 7.29046,-10.37138 l 1.83936,-2.16563 -0.3206,-1.60025 c -0.17631,-0.88015 -0.436,-2.12658 -0.57708,-2.76988 -0.14106,-0.64328 -0.25649,-2.9834 -0.25649,-5.20025 0,-4.25723 0.54865,-7.93419 1.67037,-11.19452 0.82476,-2.39719 0.71097,-2.43466 -0.8589,-0.28275 -4.28745,5.87706 -9.46363,16.06907 -10.46106,20.5982 -0.83659,3.79841 -0.77271,14.43595 0.0917,15.27283 0.1171,0.1134 0.82912,-0.91547 1.58227,-2.28637 z m 117.1103,-0.0884 c 5.28063,-2.15733 8.88961,-4.44597 12.59126,-7.98478 1.47835,-1.41332 2.68791,-2.7745 2.68789,-3.02485 -7e-5,-1.01576 -8.065,-9.70076 -13.20568,-14.22097 -1.5097,-1.32749 -2.9356,-2.52165 -3.16867,-2.65371 -0.31283,-0.17725 -0.83574,0.16283 -1.99733,1.29897 -1.89972,1.85811 -4.36923,3.47371 -6.92792,4.53238 -1.04415,0.43203 -1.99727,0.86803 -2.11805,0.96891 -0.12077,0.10087 0.48894,1.80435 1.35492,3.7855 1.97794,4.525 4.10721,10.05373 5.71147,14.83001 0.859,2.55748 1.3706,3.69538 1.66061,3.6936 0.23053,-0.002 1.7657,-0.55268 3.4115,-1.22506 z M 888.41181,372.5351 c 1.97298,-2.55607 7.70902,-9.02011 11.34151,-12.78093 l 2.83476,-2.93494 -1.95066,-1.9293 c -2.26948,-2.2446 -4.04577,-4.64694 -5.1243,-6.93035 -0.58102,-1.23012 -0.8722,-1.57624 -1.21311,-1.44195 -0.24673,0.0972 -1.01346,0.36708 -1.70387,0.59979 -2.71972,0.9167 -8.99437,3.63645 -12.94981,5.61312 -5.41271,2.70489 -6.57704,3.42104 -6.57704,4.04535 0,0.84631 2.122,5.01448 3.95757,7.77374 1.78541,2.68384 8.7332,10.00563 9.47412,9.9841 0.20711,-0.006 1.06699,-0.9054 1.91083,-1.99863 z m 85.00297,-3.22083 c 1.89201,-4.23497 2.30988,-6.13084 2.30988,-10.47979 0,-3.64321 -0.37679,-6.13911 -1.04641,-6.93168 -1.18853,-1.40674 -9.442,-5.41288 -14.85401,-7.20997 -2.73231,-0.90728 -2.52276,-1.0961 -2.63559,2.3748 -0.0995,3.06163 -0.36353,4.17957 -1.57324,6.66224 l -0.55962,1.14849 0.9112,0.69738 c 3.80949,2.91559 13.37262,12.12562 15.30651,14.74133 0.35789,0.48408 0.79682,0.88014 0.97538,0.88014 0.17858,0 0.70323,-0.84732 1.1659,-1.88294 z m -120.5697,-2.35352 c 3.66795,-3.30364 7.30384,-6.15226 11.27675,-8.835 3.96693,-2.67871 3.68318,-2.08794 3.10058,-6.45537 -0.58845,-4.41133 -0.0108,-8.54768 1.84363,-13.20377 0.53977,-1.35521 0.92006,-2.52538 0.84506,-2.60038 -0.30145,-0.30145 -6.09611,2.02244 -9.39476,3.76769 -3.12682,1.65433 -5.58914,3.41585 -6.25975,4.47816 -3.11498,4.93446 -4.89732,11.17996 -4.89806,17.16335 -2.9e-4,3.11001 0.49099,7.97821 0.80323,7.95783 0.095,-0.006 1.30249,-1.02883 2.68332,-2.27251 z m 82.77982,-5.59745 c 1.31515,-0.19116 1.88295,-0.3935 1.88295,-0.67101 0,-0.78283 -4.42653,-8.9876 -7.3506,-13.62466 -1.06423,-1.68768 -2.13663,-3.41292 -2.3831,-3.83387 -0.81846,-1.39779 -0.80356,-1.43961 -1.56348,4.39177 -0.48708,3.73764 -0.77316,5.72307 -1.39172,9.65849 -0.60867,3.8725 -0.5903,4.04638 0.44976,4.25439 1.28683,0.25736 8.18316,0.14075 10.35619,-0.17511 z m -14.17233,-0.8361 c 0.0586,-0.19179 0.1842,-0.78805 0.27906,-1.32504 0.35486,-2.00875 0.98797,-5.51643 1.40979,-7.81073 1.03228,-5.6147 1.52893,-8.5423 1.53162,-9.02838 0.003,-0.50167 -0.0245,-0.50257 -0.76423,-0.0249 -2.63205,1.69955 -8.9015,6.81213 -13.13761,10.71336 l -2.55982,2.35748 1.46762,0.91341 c 2.13072,1.32611 6.39359,3.14691 9.13045,3.8999 2.7964,0.76936 2.51121,0.73646 2.64312,0.3049 z m 21.41988,-1.30074 c 3.07824,-1.31915 6.87726,-4.27893 6.55848,-5.10967 -0.16691,-0.43495 -5.61233,-4.1927 -9.39207,-6.48124 -3.56131,-2.15628 -10.06278,-5.55069 -10.06278,-5.25376 0,0.13213 1.07547,1.86598 2.38995,3.853 2.45497,3.71105 4.25016,6.7589 6.56985,11.15416 0.72876,1.38083 1.49015,2.5402 1.69196,2.57637 0.20183,0.0362 1.2119,-0.29631 2.24461,-0.73886 z m 41.39998,-3.74424 c -0.56521,-1.60872 -8.99354,-12.45944 -9.67794,-12.45944 -0.12888,0 0.18027,0.73348 0.68698,1.62994 0.50672,0.89647 1.28446,2.54196 1.72833,3.65663 0.72543,1.82181 1.00441,2.18289 2.7597,3.57189 1.07398,0.84987 2.56696,2.12294 3.31773,2.82907 0.75829,0.71319 1.28511,1.0563 1.1852,0.77191 z m -75.77587,-3.97733 c 3.92619,-3.44695 11.22705,-9.10714 13.09613,-10.15313 2.29721,-1.28558 -8.6041,0.2124 -17.60561,2.41924 -2.25008,0.55163 -4.23841,1.09405 -4.41851,1.20535 -0.71233,0.44024 2.31797,5.13064 4.73695,7.33203 0.79455,0.72308 1.52908,1.30647 1.63228,1.29644 0.1032,-0.0101 1.25464,-0.95499 2.55876,-2.09993 z m -32.0798,-0.54653 c 4.40782,-2.24484 10.6133,-4.87235 14.7846,-6.26003 l 2.65007,-0.88162 v -3.39572 c 0,-3.319 0.47183,-5.73478 1.33196,-6.81968 0.15499,-0.19548 0.19061,-0.44654 0.0792,-0.5579 -0.11145,-0.11137 -2.48301,-0.19931 -5.27015,-0.19546 -4.83118,0.007 -9.28644,0.36546 -12.32034,0.99214 -0.76712,0.15846 -1.67679,0.34596 -2.02147,0.41668 -1.08201,0.22197 -3.29522,5.22765 -3.99916,9.04497 -0.57746,3.1315 -0.28492,9.46705 0.44551,9.64835 0.15125,0.0375 2.09516,-0.85874 4.31983,-1.99173 z m 75.32952,0.41116 c 1.09612,-2.04815 1.64737,-7.49547 0.85511,-8.45009 -0.73438,-0.88487 -11.92696,-2.41136 -17.60242,-2.40067 l -3.48864,0.007 4.12109,2.07172 c 4.44842,2.23626 8.50702,4.60987 12.85109,7.51575 1.51003,1.0101 2.79228,1.83654 2.84947,1.83654 0.0572,0 0.24363,-0.26092 0.4143,-0.57982 z m 21.46778,-4.02684 c 0,-0.58276 -2.47631,-4.7904 -4.01992,-6.83049 -2.39237,-3.16181 -6.09093,-6.93312 -8.81658,-8.99001 -1.10384,-0.83298 -3.49245,-1.32729 -6.41137,-1.32679 -2.20866,4e-4 -4.74224,0.286 -4.74224,0.5346 0,0.10035 0.72625,0.93019 1.61388,1.84409 1.92844,1.98551 3.20066,3.77558 4.53828,6.38554 0.69791,1.36176 1.19351,1.99301 1.67373,2.1318 0.37523,0.10845 1.43541,0.41481 2.35597,0.68081 3.72629,1.07673 8.42682,3.03111 13.59905,5.65421 0.11506,0.0583 0.2092,0.0207 0.2092,-0.0838 z m -72.38876,-5.47004 c 4.13679,-1.09988 11.215,-2.33298 15.90043,-2.77002 1.84109,-0.17174 3.53575,-0.37839 3.76589,-0.45924 0.99366,-0.34908 -8.67129,-3.16495 -15.05496,-4.38623 -5.26447,-1.00717 -5.45052,-0.99295 -6.10673,0.46672 -1.07448,2.39012 -1.51546,6.34723 -0.80601,7.23272 0.31488,0.39301 0.53807,0.38487 2.30138,-0.084 z m 50.62925,-2.40653 c -0.004,-0.82097 -3.23779,-4.99562 -5.1058,-6.59152 l -1.48214,-1.26623 -1.23853,0.37805 c -2.60094,0.79389 -4.95447,1.79638 -9.03847,3.84997 -3.1365,1.57714 -3.77667,1.94812 -3.77667,2.18855 0,0.0924 2.8558,0.2494 6.34622,0.3488 4.04385,0.11518 7.66187,0.38173 9.97264,0.73476 4.11417,0.62853 4.32419,0.64591 4.32275,0.35762 z m -22.31534,-3.11667 c 1.23405,-0.91778 7.03122,-4.04973 9.83316,-5.3124 1.4959,-0.67411 2.7198,-1.32603 2.7198,-1.44868 0,-0.46883 -4.79048,-2.68923 -8.08482,-3.74733 -2.94873,-0.94709 -3.88027,-1.09375 -4.01503,-0.63211 -0.0609,0.20855 -0.44421,2.57596 -0.85182,5.2609 -0.40761,2.68494 -0.80845,5.22691 -0.89076,5.64884 -0.1789,0.91716 0.26076,0.99585 1.28947,0.23078 z m -3.51364,-0.0447 c 0.12897,-0.38907 0.58808,-4.85658 0.96743,-9.41423 0.23092,-2.7743 0.31067,-2.6975 -3.03289,-2.92076 -2.10273,-0.14041 -7.94466,0.19038 -8.84837,0.50104 -0.18714,0.0643 1.26383,1.72286 3.22438,3.68562 1.96055,1.96277 4.36305,4.57291 5.33888,5.80031 2.33687,2.93928 2.19991,2.80247 2.35057,2.34802 z m -5.28819,-2.35621 c -2.55214,-2.78032 -5.73375,-5.74478 -8.03768,-7.48912 -1.55317,-1.1759 -1.48484,-1.1821 -4.80228,0.43501 -2.33092,1.1362 -5.27735,3.32321 -5.27735,3.91715 0,0.20401 0.8267,0.47695 2.08044,0.68687 4.20625,0.70427 11.08207,2.61913 15.73614,4.38239 1.0539,0.39928 2.10172,0.72596 2.3285,0.72596 0.2268,0 -0.68571,-1.19622 -2.02777,-2.65826 z m -56.61306,1.09783 c 1.34681,-0.67031 7.67973,-2.90285 8.23435,-2.90285 0.14966,0 1.74745,-1.47606 3.55066,-3.28013 1.8032,-1.80409 3.71789,-3.62217 4.25488,-4.0402 0.86564,-0.67389 0.89287,-0.73108 0.24013,-0.50442 -2.18173,0.75762 -9.24745,4.67902 -12.51414,6.94521 -2.28605,1.58592 -5.85804,4.27199 -5.85804,4.40515 0,0.25545 0.8152,0.0128 2.09216,-0.62276 z m 17.47321,-4.5818 c 2.39869,-0.40518 9.00351,-0.57672 12.37495,-0.32139 l 3.34746,0.25352 1.81994,-1.74203 c 2.05747,-1.96938 4.49225,-3.62651 6.7911,-4.62207 0.8587,-0.37188 1.56342,-0.76849 1.56604,-0.88135 0.008,-0.3245 -3.0103,-1.76158 -5.34545,-2.54547 -1.17252,-0.3936 -2.9276,-0.79708 -3.90018,-0.89663 -1.602,-0.16396 -2.01758,-0.0847 -4.41839,0.84226 -5.31333,2.0516 -10.35832,5.12859 -13.7464,8.38415 -0.87786,0.84352 -1.59611,1.59656 -1.59611,1.67343 0,0.19144 1.5435,0.1197 3.10704,-0.14442 z m 65.57858,-2.1032 c 0.22761,-0.22761 4.91801,-0.95778 6.16046,-0.95902 0.65094,-6.5e-4 0.99443,-0.11128 0.8867,-0.28558 -0.20852,-0.33739 -5.53395,-2.91424 -8.50467,-4.11523 -4.55471,-1.84133 -6.54322,-2.48782 -11.28888,-3.67019 -3.68689,-0.91859 -3.76312,-0.90066 -3.77042,0.88685 -0.003,0.57535 -0.027,1.14022 -0.0549,1.2553 -0.0279,0.11507 0.2546,0.29554 0.62765,0.40106 6.18024,1.74792 10.3657,3.4642 13.78998,5.65468 1.55682,0.99588 1.86954,1.11669 2.1541,0.83213 z m -33.95576,-6.70883 c 2.9369,-0.65982 7.86813,-0.97473 11.01872,-0.70366 1.61096,0.13861 3.02318,0.19612 3.13823,0.12778 0.33377,-0.19822 0.24175,-2.82785 -0.10648,-3.04307 -0.17363,-0.10732 -1.58585,-0.36306 -3.13825,-0.56832 -6.69825,-0.88569 -23.62202,-0.1595 -20.2329,0.86817 1.26486,0.38354 4.15334,1.79361 5.69723,2.78122 0.84816,0.54257 1.63383,0.97016 1.74593,0.9502 0.11209,-0.0199 0.95698,-0.2055 1.87752,-0.41232 z"
       id="path2-7" /><path
       style="fill:#000000;stroke-width:0.610209;fill-opacity:1"
       d="m 533.31759,448.02291 c -1.08541,-2.82856 0.90612,-12.25855 3.62635,-17.17079 5.95666,-10.7567 17.70418,-21.07666 32.3107,-28.38427 5.97333,-2.98845 12.40574,-5.15614 22.09648,-7.44647 12.55803,-2.96798 25.22608,-10.2882 28.3286,-16.36966 1.03775,-2.03413 1.35465,-4.26561 1.78893,-12.59626 1.2005,-23.02969 3.52201,-36.75061 9.50787,-56.195 9.60861,-31.21248 26.09221,-59.87325 59.95047,-104.23856 15.33621,-20.09541 31.39961,-34.57926 57.16024,-51.53959 14.15057,-9.31648 24.5365,-15.09216 51.21622,-28.48169 13.08899,-6.56885 27.994,-14.54082 33.12225,-17.71548 11.53227,-7.1391 24.28498,-16.663072 34.30586,-25.620306 4.19519,-3.749902 10.09895,-8.669424 13.11949,-10.932292 18.78054,-14.069635 43.74639,-25.595063 70.98821,-32.771546 9.85934,-2.597304 10.28995,-2.756419 14.30254,-5.285043 8.51851,-5.368104 15.98497,-6.288683 21.80094,-2.68796 1.17465,0.727229 4.00035,1.641176 6.27929,2.030975 4.70911,0.805461 6.37419,1.717887 8.70017,4.767431 5.7656,7.559102 -0.8618,27.94561 -17.31632,53.266163 -5.89938,9.078052 -8.1527,13.300408 -12.6137,23.635908 -9.79702,22.69833 -21.21906,40.83816 -38.42284,61.02091 -9.53072,11.18105 -25.24931,26.42225 -34.61272,33.5615 l -4.00158,3.05104 -1.36182,6.10209 c -1.81667,8.14019 -6.74726,24.44903 -9.52866,31.51777 -11.44351,29.08305 -28.50588,51.01276 -49.34545,63.42218 -5.65575,3.36784 -14.45039,7.27007 -16.38492,7.27007 -1.11906,0 -2.86019,-1.97668 -2.86019,-3.24712 0,-0.55841 2.04286,-4.93029 4.53969,-9.7153 8.85281,-16.96574 19.38474,-40.5219 26.89115,-60.14578 1.58012,-4.1309 2.7125,-7.67116 2.5164,-7.86725 -0.61299,-0.61302 -10.98583,3.355 -56.21988,21.5063 -38.96393,15.63525 -38.51894,15.43698 -44.67313,19.90314 -2.95021,2.14099 -6.50352,4.62815 -7.89625,5.52702 -4.66387,3.01003 -16.31756,8.30611 -23.18624,10.53712 -7.80666,2.53568 -10.96081,4.30666 -20.7047,11.62528 -20.83334,15.64788 -38.82603,36.58417 -51.63178,60.07873 -5.60383,10.28129 -5.53864,11.61515 0.77718,15.90413 5.59818,3.80166 11.9297,6.57256 19.57412,8.56634 9.32377,2.43178 17.86367,5.24974 21.56443,7.11573 14.81522,7.47014 24.44181,21.45968 28.06222,40.78054 0.94846,5.06162 0.914,6.96579 -0.12601,6.96396 -0.26225,-4.7e-4 -2.81085,-1.9452 -5.66358,-4.32166 -6.59442,-5.49346 -11.89422,-8.6378 -17.77058,-10.54322 -5.59438,-1.81399 -16.01212,-3.43963 -22.06404,-3.443 -14.831,-0.009 -28.09698,-5.08984 -36.86719,-14.12211 -1.74441,-1.79652 -3.70574,-3.94644 -4.35852,-4.77761 l -1.18689,-1.5112 -5.59877,5.91588 c -8.20285,8.66744 -15.07757,12.82292 -24.54604,14.83702 -2.45466,0.52215 -10.36678,1.20645 -17.58249,1.52067 -7.21574,0.31421 -14.35897,0.82759 -15.8739,1.14082 -7.78054,1.60878 -16.17193,6.15648 -22.89282,12.40676 -4.39139,4.08389 -6.52512,5.01348 -7.23879,3.15369 z m 445.13037,-9.15408 c 0.0293,-0.71086 0.17391,-0.85545 0.36869,-0.36866 0.17629,0.44048 0.15463,0.9668 -0.0482,1.16956 -0.20277,0.20277 -0.34703,-0.15763 -0.32054,-0.8009 z m 24.24584,-4.94256 c 0.4405,-0.17627 0.9668,-0.15458 1.1695,0.0483 0.2028,0.20277 -0.1576,0.34699 -0.8008,0.3205 -0.7109,-0.0293 -0.8555,-0.17387 -0.3687,-0.36868 z"
       id="path4" /><path
       style="fill:#000000;stroke-width:0.730617;fill-opacity:1"
       d="m 1173.503,348.82725 c -0.5978,-0.57358 -1.5371,-2.0136 -2.0874,-3.20001 -0.5781,-1.24641 -2.0717,-2.76971 -3.5379,-3.608 -2.4287,-1.38883 -2.5081,-1.58748 -1.8491,-4.6343 0.6857,-3.1715 0.676,-3.19128 -2.5727,-5.30439 -2.9862,-1.94222 -3.2646,-2.36813 -3.3011,-5.04939 -0.025,-1.77987 -0.6184,-3.44475 -1.5149,-4.24511 -4.6123,-4.11778 -5.0247,-5.13178 -3.9485,-9.70982 1.1966,-5.09098 0.9905,-6.02799 -1.9954,-9.07285 -2.3871,-2.43421 -3.7255,-7.20786 -2.5817,-9.20827 0.3767,-0.65862 0.2732,-1.85432 -0.2301,-2.65713 -0.5034,-0.80292 -0.7261,-2.47586 -0.4951,-3.71776 0.2627,-1.41054 -0.1852,-3.14219 -1.1933,-4.61487 -1.2695,-1.8546 -1.4703,-3.21239 -0.9415,-6.3703 0.4139,-2.47165 0.2476,-4.93272 -0.4332,-6.40689 -0.6078,-1.3164 -0.868,-2.80866 -0.5779,-3.31597 0.2901,-0.50722 0.078,-2.88187 -0.4704,-5.27715 -0.9329,-4.07082 -0.8569,-4.61639 1.1642,-8.36304 1.6198,-3.00217 2.1868,-5.04833 2.2593,-8.15397 0.053,-2.28026 0.5155,-4.8777 1.027,-5.77208 0.5113,-0.89435 1.353,-3.6353 1.8704,-6.09098 0.5175,-2.45564 1.193,-5.26745 1.5017,-6.24817 0.512,-1.62746 -0.1916,-2.56197 -8.0529,-10.6947 -9.9852,-10.33047 -13.2716,-13.40022 -22.6511,-21.15819 -9.7724,-8.08289 -17.3802,-16.73818 -29.0649,-33.06679 -11.4766,-16.03764 -17.0395,-21.81121 -27.8381,-28.89218 -6.7119,-4.40113 -8.8124,-6.11864 -10.504,-8.58858 -2.44,-3.56236 -3.0283,-8.35249 -1.5125,-12.31032 0.566,-1.47708 1.1041,-4.04791 1.1964,-5.71257 0.2082,-3.76386 1.7409,-6.52326 4.644,-8.361057 1.2296,-0.77821 2.6474,-1.91722 3.1509,-2.5309 1.4194,-1.73088 3.6696,-2.18639 9.7333,-1.97034 3.0766,0.10971 6.2005,-0.0282 6.9425,-0.30639 0.81,-0.30358 2.4022,0.0966 3.9844,1.00127 1.4494,0.8288 3.4766,1.42969 4.5047,1.33529 1.0281,-0.0945 2.8236,0.42264 3.9901,1.14918 1.1666,0.7266 3.2072,1.25508 4.5347,1.17448 1.3277,-0.0805 3.4044,0.47046 4.615,1.224467 1.2106,0.75399 3.0006,1.38701 3.9777,1.40681 0.9772,0.0197 4.2392,1.35937 7.2489,2.97684 8.0777,4.34112 17.8302,7.22773 32.7936,9.70626 2.468,0.40883 7.5905,2.99235 24.4966,12.35459 18.9697,10.50514 23.2882,12.63594 38.3618,18.92883 32.5054,13.57021 75.0394,33.88947 104.4466,49.89607 25.6023,13.93569 31.5246,16.19761 54.7824,20.92356 13.9823,2.84111 23.16,5.9081 26.4111,8.82595 3.4851,3.12778 3.1637,4.5267 -1.6332,7.11032 -8.7048,4.68817 -8.9252,8.3964 -0.8316,13.97851 6.9746,4.81022 19.3974,15.91875 39.4037,35.23503 20.3782,19.67536 30.4549,30.26361 40.8285,42.90136 7.7899,9.49022 18.6142,24.80338 23.7285,33.56885 2.7797,4.76393 3.8383,5.93003 8.0129,8.82562 20.3961,14.14727 35.8409,30.32006 36.6433,38.37018 0.3716,3.72654 -0.91,4.37717 -4.5587,2.31479 -6.8289,-3.85983 -8.2562,-3.85796 -18.1569,0.0225 l -3.0122,1.18051 -0.127,3.57337 c -0.1226,3.43145 -0.4792,4.19056 -8.9937,19.12329 -10.2686,18.01043 -10.9131,19.85265 -9.3061,26.63679 0.6008,2.53561 0.9008,4.94429 0.6673,5.35285 -0.8583,1.50101 -4.5132,0.22046 -8.0633,-2.82499 -8.6995,-7.46308 -16.7213,-27.13225 -17.8235,-43.70258 -0.5395,-8.10953 0.1962,-19.29814 1.7789,-27.06024 0.9908,-4.85866 1.056,-6.81379 0.2537,-7.60451 -3.4853,-3.43514 -29.2693,-20.0497 -46.4301,-29.91847 -27.0656,-15.56492 -39.5954,-20.78668 -64.5678,-26.90908 -52.9569,-12.98322 -97.381,-28.71258 -130.2933,-46.13326 -3.0752,-1.62767 -5.5829,-2.71312 -5.5728,-2.41201 0.012,0.30118 2.2438,5.1077 4.9632,10.68114 7.8432,16.07302 12.2644,26.22131 12.5902,28.89803 0.2741,2.25622 0.1263,2.59433 -1.6593,3.79082 -1.0779,0.72295 -4.0458,1.71194 -6.5947,2.19871 l -4.6346,0.88495 -5.8474,-3.89603 c -3.2161,-2.14275 -6.6265,-4.72941 -7.5788,-5.74819 -0.9519,-1.01855 -2.7661,-2.21125 -4.0313,-2.6502 -1.4035,-0.48709 -2.9832,-1.68603 -4.0513,-3.07492 -0.9629,-1.25204 -3.0728,-3.03256 -4.6883,-3.95629 -2.2136,-1.26578 -3.5169,-2.71535 -5.2896,-5.88325 -2.3399,-4.18172 -6.3884,-8.18368 -7.0711,-6.98987 -0.946,1.65438 -0.5035,7.93959 1.0211,14.50423 1.9889,8.56351 1.9853,9.46843 -0.075,18.81941 -1.8308,8.30789 -2.0029,10.86467 -1.0162,15.10487 1.9207,8.25553 0.9336,11.94303 -3.3679,12.5802 -1.3325,0.19755 -2.8995,0.0864 -3.4825,-0.247 -0.5828,-0.33323 -2.4349,-0.44546 -4.1156,-0.24924 -2.9156,0.34038 -4.9109,-0.39411 -7.3006,-2.68731 z"
       id="path5"
       sodipodi:nodetypes="ssssssssssssssssssssssssssssssssssssssssssssssssssssssscsssssssssssssssscssssssssssssss" /></g></svg>
