<?xml version="1.0" encoding="UTF-8" standalone="no"?>
<!-- Created with Inkscape (http://www.inkscape.org/) -->

<svg
   width="512"
   height="512"
   viewBox="0 0 512 512"
   version="1.1"
   id="svg1"
   xml:space="preserve"
   inkscape:version="1.3 (0e150ed6c4, 2023-07-21)"
   sodipodi:docname="marker-icons.svg"
   xmlns:inkscape="http://www.inkscape.org/namespaces/inkscape"
   xmlns:sodipodi="http://sodipodi.sourceforge.net/DTD/sodipodi-0.dtd"
   xmlns="http://www.w3.org/2000/svg"
   xmlns:svg="http://www.w3.org/2000/svg"><sodipodi:namedview
     id="namedview1"
     pagecolor="#b3b3b3"
     bordercolor="#000000"
     borderopacity="0.25"
     inkscape:showpageshadow="2"
     inkscape:pageopacity="0.0"
     inkscape:pagecheckerboard="true"
     inkscape:deskcolor="#d1d1d1"
     inkscape:document-units="px"
     inkscape:zoom="0.55657038"
     inkscape:cx="671.97252"
     inkscape:cy="20.662257"
     inkscape:window-width="1920"
     inkscape:window-height="1009"
     inkscape:window-x="905"
     inkscape:window-y="2152"
     inkscape:window-maximized="1"
     inkscape:current-layer="layer1"
     showgrid="true"
     borderlayer="true"
     showborder="true"><inkscape:page
       x="0"
       y="0"
       width="512"
       height="512"
       id="page4"
       inkscape:export-filename="..\..\..\..\Local\WebDev\whale-ar\src\assets\chevron-right-button.svg"
       inkscape:export-xdpi="300"
       inkscape:export-ydpi="300"
       margin="0"
       bleed="0" /><inkscape:grid
       id="grid6"
       units="px"
       originx="-1044"
       originy="0"
       spacingx="1"
       spacingy="1"
       empcolor="#0099e5"
       empopacity="0.30196078"
       color="#0099e5"
       opacity="0.14901961"
       empspacing="5"
       dotted="false"
       gridanglex="30"
       gridanglez="30"
       visible="true"
       enabled="false" /></sodipodi:namedview><defs
     id="defs1" /><g
     inkscape:label="Layer 1"
     inkscape:groupmode="layer"
     id="layer1"
     transform="translate(-1044)"><circle
       style="fill:#f9f9f9;stroke-width:6.441;stroke-linecap:round;stroke-linejoin:round;stroke-dashoffset:5.1584"
       id="path2-7-7"
       cx="1300"
       cy="256"
       r="256" /><path
       style="fill:#000000;stroke-width:0.990629"
       d="m 1365.4097,122.2352 c 7.0117,2.29584 12.0824,6.56286 15.4494,13.00094 2.6133,4.99672 2.461,15.11836 -0.3056,20.30791 -1.1618,2.17938 -22.2038,25.58301 -46.7599,52.00807 -24.5561,26.42505 -44.6476,48.26844 -44.6476,48.54086 0,0.27242 20.0915,22.11581 44.6476,48.54086 24.5561,26.42506 45.5981,49.82869 46.7599,52.00807 2.9161,5.47002 2.9213,15.31575 0.011,20.80323 -2.4625,4.64286 -6.3532,8.46395 -11.1987,10.99811 -5.0722,2.65267 -15.1021,2.46023 -20.5328,-0.39398 -5.0192,-2.63801 -110.2045,-115.27122 -113.5168,-121.55468 -2.8908,-5.48417 -2.8843,-15.34145 0.013,-20.80322 3.3288,-6.27354 108.5817,-118.97955 113.4133,-121.44446 4.4473,-2.26887 12.8012,-3.27722 16.6663,-2.01171 z"
       id="path5" /></g></svg>
