<?xml version="1.0" encoding="UTF-8" standalone="no"?>
<!-- Created with Inkscape (http://www.inkscape.org/) -->

<svg
   width="512"
   height="512"
   viewBox="0 0 512 512"
   version="1.1"
   id="svg1"
   xml:space="preserve"
   inkscape:version="1.3 (0e150ed6c4, 2023-07-21)"
   sodipodi:docname="marker-icons.svg"
   xmlns:inkscape="http://www.inkscape.org/namespaces/inkscape"
   xmlns:sodipodi="http://sodipodi.sourceforge.net/DTD/sodipodi-0.dtd"
   xmlns="http://www.w3.org/2000/svg"
   xmlns:svg="http://www.w3.org/2000/svg"><sodipodi:namedview
     id="namedview1"
     pagecolor="#b3b3b3"
     bordercolor="#000000"
     borderopacity="0.25"
     inkscape:showpageshadow="2"
     inkscape:pageopacity="0.0"
     inkscape:pagecheckerboard="true"
     inkscape:deskcolor="#d1d1d1"
     inkscape:document-units="px"
     inkscape:zoom="0.55657038"
     inkscape:cx="671.97252"
     inkscape:cy="20.662257"
     inkscape:window-width="1920"
     inkscape:window-height="1009"
     inkscape:window-x="905"
     inkscape:window-y="2152"
     inkscape:window-maximized="1"
     inkscape:current-layer="layer1"
     showgrid="true"
     borderlayer="true"
     showborder="true"><inkscape:grid
       id="grid6"
       units="px"
       originx="-2088"
       originy="0"
       spacingx="1"
       spacingy="1"
       empcolor="#0099e5"
       empopacity="0.30196078"
       color="#0099e5"
       opacity="0.14901961"
       empspacing="5"
       dotted="false"
       gridanglex="30"
       gridanglez="30"
       visible="true"
       enabled="false" /><inkscape:page
       x="0"
       y="0"
       width="512"
       height="512"
       id="page6"
       margin="0"
       bleed="0" /></sodipodi:namedview><defs
     id="defs1" /><g
     inkscape:label="Layer 1"
     inkscape:groupmode="layer"
     id="layer1"
     transform="translate(-2088)"><path
       style="fill:#f9f9f9;stroke-width:1.53625"
       d="m 2319.0754,473.46854 c -33.4705,-3.84921 -68.9687,-16.95303 -97.1912,-35.87717 -22.5997,-15.15381 -45.2923,-38.54459 -61.3833,-63.27184 -41.6692,-64.03369 -45.9349,-149.79017 -10.7945,-217.00792 12.3412,-23.60655 21.1802,-35.58104 40.5963,-54.99706 38.0668,-38.066784 79.2566,-57.460851 135.4507,-63.776416 34.3662,-3.862354 80.4788,4.721703 114.2787,21.273411 29.0027,14.202639 60.9394,40.555175 79.5433,65.635065 11.7223,15.80308 25.564,42.30133 31.6976,60.68198 8.381,25.11506 10.8006,41.2684 10.7006,71.43575 -0.1305,39.12631 -6.3962,65.19955 -23.8145,99.08829 -11.0953,21.5868 -20.8365,34.8776 -38.9526,53.14596 -31.5764,31.84191 -68.309,51.7539 -111.836,60.62413 -17.5881,3.58424 -50.7524,5.06328 -68.2951,3.04582 z m 45.185,-75.46926 c 53.6043,-7.44225 98.5283,-44.73218 115.5131,-95.88362 14.47,-43.57785 8.166,-88.62643 -17.7623,-126.93173 -28.7599,-42.48843 -83.7568,-67.71142 -133.4158,-61.18794 -67.6288,8.88407 -117.7272,58.98249 -126.6112,126.61119 -2.1858,16.63838 -1.0067,31.88409 3.9592,51.19201 6.6028,25.6733 15.9443,42.4948 34.8272,62.71433 31.5463,33.77949 77.3151,49.89651 123.4898,43.48576 z m -40.2154,-28.14212 c -30.2236,-5.8692 -57.8479,-23.5552 -74.4252,-47.6494 -19.9971,-29.06464 -25.6644,-69.75914 -14.3005,-102.6829 6.5164,-18.87891 12.9884,-29.05702 28.0626,-44.13113 22.2277,-22.22774 44.2614,-32.11548 74.5688,-33.46316 30.4725,-1.35503 58.0812,7.54932 80.2156,25.87104 17.5449,14.52279 32.8202,38.72547 38.2305,60.57393 4.0998,16.55581 3.5074,44.08668 -1.293,60.09551 -11.4109,38.05402 -42.1676,68.44981 -79.8423,78.90539 -14.7176,4.08446 -37.3205,5.17924 -51.2165,2.48072 z m -59.5298,-101.61914 c 1.3041,-0.40181 1.9203,-4.14887 1.9203,-11.6795 0,-6.09834 1.1155,-15.53621 2.4791,-20.97304 2.6912,-10.7307 2.3782,-11.52717 -5.3325,-13.57645 -4.5602,-1.212 -5.6316,0.47526 -8.6239,13.58292 -2.3545,10.31263 -3.2222,32.10904 -1.3529,33.9784 0.8903,0.89021 5.5378,0.32266 10.9099,-1.33233 z m 15.7466,-56.17924 c 3.8326,-6.23546 12.2485,-14.7172 20.4795,-20.63976 l 4.3488,-3.1292 -2.713,-5.68937 c -1.4922,-3.12915 -3.158,-5.68937 -3.7015,-5.68937 -2.6385,0 -16.0342,10.29588 -21.6688,16.65451 -7.5762,8.54972 -14.1987,18.63653 -13.0138,19.82141 1.7954,1.79549 7.9211,4.70648 10.1238,4.81096 1.2674,0.0601 4.0326,-2.70252 6.145,-6.13918 z"
       id="path7" /></g></svg>
