<?xml version="1.0" encoding="UTF-8" standalone="no"?>
<!-- Created with Inkscape (http://www.inkscape.org/) -->

<svg
   width="512"
   height="512"
   viewBox="0 0 512 512"
   version="1.1"
   id="svg1"
   xml:space="preserve"
   inkscape:version="1.3 (0e150ed6c4, 2023-07-21)"
   sodipodi:docname="marker-icons.svg"
   xmlns:inkscape="http://www.inkscape.org/namespaces/inkscape"
   xmlns:sodipodi="http://sodipodi.sourceforge.net/DTD/sodipodi-0.dtd"
   xmlns="http://www.w3.org/2000/svg"
   xmlns:svg="http://www.w3.org/2000/svg"><sodipodi:namedview
     id="namedview1"
     pagecolor="#b3b3b3"
     bordercolor="#000000"
     borderopacity="0.25"
     inkscape:showpageshadow="2"
     inkscape:pageopacity="0.0"
     inkscape:pagecheckerboard="true"
     inkscape:deskcolor="#d1d1d1"
     inkscape:document-units="px"
     inkscape:zoom="0.55657038"
     inkscape:cx="671.97252"
     inkscape:cy="20.662257"
     inkscape:window-width="1920"
     inkscape:window-height="1009"
     inkscape:window-x="905"
     inkscape:window-y="2152"
     inkscape:window-maximized="1"
     inkscape:current-layer="layer1"
     showgrid="true"
     borderlayer="true"
     showborder="true"><inkscape:grid
       id="grid6"
       units="px"
       originx="-1566"
       originy="0"
       spacingx="1"
       spacingy="1"
       empcolor="#0099e5"
       empopacity="0.30196078"
       color="#0099e5"
       opacity="0.14901961"
       empspacing="5"
       dotted="false"
       gridanglex="30"
       gridanglez="30"
       visible="true"
       enabled="false" /><inkscape:page
       x="0"
       y="0"
       width="512"
       height="512"
       id="page5"
       inkscape:export-filename="..\..\..\..\Local\WebDev\whale-ar\src\assets\volume-up-icon.svg"
       inkscape:export-xdpi="300"
       inkscape:export-ydpi="300"
       margin="0"
       bleed="0" /></sodipodi:namedview><defs
     id="defs1" /><g
     inkscape:label="Layer 1"
     inkscape:groupmode="layer"
     id="layer1"
     transform="translate(-1566)"><path
       style="fill:#e6e6e6;stroke-width:0.538844"
       d="m 1932.8852,405.24695 c -6.5941,-6.69697 -11.9892,-12.38031 -11.9892,-12.62964 0,-0.24933 1.9193,-2.48102 4.2652,-4.9593 8.4957,-8.97511 17.6628,-21.17102 24.3439,-32.38684 34.2533,-57.50348 36.4574,-127.9932 5.8767,-187.95051 -6.7215,-13.17842 -16.7906,-28.24452 -25.1844,-37.68272 -0.8185,-0.92037 -3.2881,-3.68726 -5.488,-6.14864 l -3.9998,-4.47524 12.2408,-12.21866 12.2408,-12.21865 4.0219,4.31075 c 28.9812,31.06268 47.6003,65.68282 57.0897,106.15222 4.2024,17.9219 5.9159,35.28643 5.5033,55.77032 -0.4017,19.93695 -2.2055,33.45304 -6.9369,51.97953 -9.4841,37.13588 -29.8949,73.941 -55.4642,100.01396 l -4.5305,4.61972 z m -146.0733,-17.40398 c -1.9748,-1.85199 -13.4109,-13.09096 -25.4137,-24.97549 -12.0027,-11.88454 -28.3322,-28.00967 -36.2878,-35.83363 l -14.4646,-14.22539 -31.8759,-0.26942 -31.876,-0.26942 -3.0593,-1.50236 c -3.9908,-1.95978 -8.5666,-6.88251 -10.2314,-11.00712 l -1.2581,-3.11699 -0.1592,-37.98848 c -0.1706,-40.66939 -0.052,-42.97435 2.4463,-47.5647 1.8553,-3.40875 5.9161,-7.13426 9.7194,-8.91687 l 3.0812,-1.44413 31.5223,-0.15021 31.5224,-0.15021 39.3356,-39.28833 c 26.9781,-26.94576 39.8073,-39.40287 40.8372,-39.65291 3.5126,-0.85281 7.4237,1.2321 9.0567,4.82791 0.9691,2.13379 1.0035,6.54019 1.0149,129.93519 l 0.012,127.7265 -1.2124,2.39991 c -1.5174,3.00375 -4.166,4.83341 -6.9966,4.83341 -1.8611,0 -2.5643,-0.4145 -5.7129,-3.36726 z m 95.9292,-32.36269 -12.5216,-12.53018 1.9482,-1.86915 c 1.0715,-1.02803 3.4544,-3.68774 5.2955,-5.91047 14.2892,-17.25165 22.702,-35.64538 27.1098,-59.27281 1.39,-7.4508 1.3727,-31.89593 -0.028,-39.60502 -4.4796,-24.65391 -14.6583,-45.7921 -30.1645,-62.64281 -1.9783,-2.14987 -3.597,-4.10488 -3.597,-4.34447 0,-0.23958 5.4666,-5.85558 12.1478,-12.48 l 12.1478,-12.04439 2.4479,2.37892 c 2.7211,2.6444 10.6375,12.07871 13.9781,16.65827 11.2062,15.36239 20.4095,34.71689 25.0745,52.73179 12.0702,46.61141 2.581,95.16736 -26.1769,133.94682 -3.3755,4.5517 -11.6574,14.31952 -13.8341,16.31602 l -1.3058,1.19766 z m -49.2469,-49.82378 -12.1997,-12.24641 2.43,-2.93273 c 16.3138,-19.68816 15.9154,-50.57935 -0.8993,-69.73022 l -1.5529,-1.76865 12.2762,-12.26756 12.2763,-12.26755 3.8902,4.22048 c 15.6024,16.92706 23.8051,41.09474 21.701,63.93771 -1.1157,12.11307 -3.7873,21.80991 -8.7374,31.71336 -4.0191,8.04089 -10.673,17.57083 -15.4432,22.11845 l -1.5415,1.46954 z"
       id="path6" /></g></svg>
