<?xml version="1.0" standalone="no"?>
<svg xmlns="http://www.w3.org/2000/svg" width="500" height="500"><defs><clipPath id="clip-path-dot-color"><path d="M 28 124v 12h 6a 6 6, 0, 0, 0, 0 -12" transform="rotate(-90,34,130)"/><path d="M 28 136v 12h 6a 6 6, 0, 0, 0, 0 -12" transform="rotate(90,34,142)"/><path d="M 28 160v 12h 12v -6a 6 6, 0, 0, 0, -6 -6" transform="rotate(-90,34,166)"/><path d="M 28 172v 12h 6a 6 6, 0, 0, 0, 0 -12" transform="rotate(90,34,178)"/><circle cx="34" cy="214" r="6" transform="rotate(0,34,214)"/><path d="M 28 232v 12h 6a 6 6, 0, 0, 0, 0 -12" transform="rotate(-90,34,238)"/><path d="M 28 244v 12h 12v -6a 6 6, 0, 0, 0, -6 -6" transform="rotate(180,34,250)"/><path d="M 28 280v 12h 12v -6a 6 6, 0, 0, 0, -6 -6" transform="rotate(-90,34,286)"/><path d="M 28 292v 12h 12v -6a 6 6, 0, 0, 0, -6 -6" transform="rotate(180,34,298)"/><path d="M 28 316v 12h 6a 6 6, 0, 0, 0, 0 -12" transform="rotate(-90,34,322)"/><rect x="28" y="328" width="12" height="12" transform="rotate(0,34,334)"/><path d="M 28 340v 12h 12v -6a 6 6, 0, 0, 0, -6 -6" transform="rotate(180,34,346)"/><circle cx="34" cy="370" r="6" transform="rotate(0,34,370)"/><path d="M 40 148v 12h 12v -6a 6 6, 0, 0, 0, -6 -6" transform="rotate(-90,46,154)"/><rect x="40" y="160" width="12" height="12" transform="rotate(0,46,166)"/><path d="M 40 184v 12h 12v -6a 6 6, 0, 0, 0, -6 -6" transform="rotate(-90,46,190)"/><path d="M 40 196v 12h 6a 6 6, 0, 0, 0, 0 -12" transform="rotate(90,46,202)"/><path d="M 40 220v 12h 6a 6 6, 0, 0, 0, 0 -12" transform="rotate(180,46,226)"/><path d="M 40 244v 12h 12v -6a 6 6, 0, 0, 0, -6 -6" transform="rotate(0,46,250)"/><rect x="40" y="256" width="12" height="12" transform="rotate(0,46,262)"/><rect x="40" y="268" width="12" height="12" transform="rotate(0,46,274)"/><rect x="40" y="280" width="12" height="12" transform="rotate(0,46,286)"/><rect x="40" y="292" width="12" height="12" transform="rotate(0,46,298)"/><rect x="40" y="340" width="12" height="12" transform="rotate(0,46,346)"/><path d="M 40 352v 12h 6a 6 6, 0, 0, 0, 0 -12" transform="rotate(90,46,358)"/><path d="M 52 136v 12h 12v -6a 6 6, 0, 0, 0, -6 -6" transform="rotate(-90,58,142)"/><rect x="52" y="148" width="12" height="12" transform="rotate(0,58,154)"/><rect x="52" y="160" width="12" height="12" transform="rotate(0,58,166)"/><rect x="52" y="172" width="12" height="12" transform="rotate(0,58,178)"/><path d="M 52 184v 12h 12v -6a 6 6, 0, 0, 0, -6 -6" transform="rotate(90,58,190)"/><rect x="52" y="220" width="12" height="12" transform="rotate(0,58,226)"/><path d="M 52 268v 12h 12v -6a 6 6, 0, 0, 0, -6 -6" transform="rotate(0,58,274)"/><rect x="52" y="280" width="12" height="12" transform="rotate(0,58,286)"/><rect x="52" y="292" width="12" height="12" transform="rotate(0,58,298)"/><path d="M 52 316v 12h 6a 6 6, 0, 0, 0, 0 -12" transform="rotate(180,58,322)"/><rect x="52" y="340" width="12" height="12" transform="rotate(0,58,346)"/><circle cx="58" cy="370" r="6" transform="rotate(0,58,370)"/><rect x="64" y="136" width="12" height="12" transform="rotate(0,70,142)"/><path d="M 64 148v 12h 12v -6a 6 6, 0, 0, 0, -6 -6" transform="rotate(90,70,154)"/><path d="M 64 208v 12h 12v -6a 6 6, 0, 0, 0, -6 -6" transform="rotate(-90,70,214)"/><rect x="64" y="220" width="12" height="12" transform="rotate(0,70,226)"/><rect x="64" y="232" width="12" height="12" transform="rotate(0,70,238)"/><rect x="64" y="244" width="12" height="12" transform="rotate(0,70,250)"/><path d="M 64 256v 12h 6a 6 6, 0, 0, 0, 0 -12" transform="rotate(90,70,262)"/><path d="M 64 292v 12h 6a 6 6, 0, 0, 0, 0 -12" transform="rotate(0,70,298)"/><path d="M 64 316v 12h 12v -6a 6 6, 0, 0, 0, -6 -6" transform="rotate(0,70,322)"/><rect x="64" y="328" width="12" height="12" transform="rotate(0,70,334)"/><rect x="64" y="340" width="12" height="12" transform="rotate(0,70,346)"/><path d="M 76 124v 12h 12v -6a 6 6, 0, 0, 0, -6 -6" transform="rotate(-90,82,130)"/><path d="M 76 136v 12h 12v -6a 6 6, 0, 0, 0, -6 -6" transform="rotate(90,82,142)"/><circle cx="82" cy="166" r="6" transform="rotate(0,82,166)"/><path d="M 76 196v 12h 12v -6a 6 6, 0, 0, 0, -6 -6" transform="rotate(-90,82,202)"/><path d="M 76 208v 12h 12v -6a 6 6, 0, 0, 0, -6 -6" transform="rotate(90,82,214)"/><path d="M 76 232v 12h 6a 6 6, 0, 0, 0, 0 -12" transform="rotate(0,82,238)"/><circle cx="82" cy="286" r="6" transform="rotate(0,82,286)"/><circle cx="82" cy="310" r="6" transform="rotate(0,82,310)"/><path d="M 76 340v 12h 6a 6 6, 0, 0, 0, 0 -12" transform="rotate(0,82,346)"/><rect x="88" y="124" width="12" height="12" transform="rotate(0,94,130)"/><path d="M 88 172v 12h 12v -6a 6 6, 0, 0, 0, -6 -6" transform="rotate(-90,94,178)"/><rect x="88" y="184" width="12" height="12" transform="rotate(0,94,190)"/><rect x="88" y="196" width="12" height="12" transform="rotate(0,94,202)"/><path d="M 88 220v 12h 6a 6 6, 0, 0, 0, 0 -12" transform="rotate(180,94,226)"/><path d="M 88 244v 12h 6a 6 6, 0, 0, 0, 0 -12" transform="rotate(180,94,250)"/><path d="M 88 352v 12h 6a 6 6, 0, 0, 0, 0 -12" transform="rotate(-90,94,358)"/><path d="M 88 364v 12h 12v -6a 6 6, 0, 0, 0, -6 -6" transform="rotate(180,94,370)"/><path d="M 100 124v 12h 6a 6 6, 0, 0, 0, 0 -12" transform="rotate(0,106,130)"/><circle cx="106" cy="154" r="6" transform="rotate(0,106,154)"/><rect x="100" y="172" width="12" height="12" transform="rotate(0,106,178)"/><path d="M 100 196v 12h 6a 6 6, 0, 0, 0, 0 -12" transform="rotate(0,106,202)"/><rect x="100" y="220" width="12" height="12" transform="rotate(0,106,226)"/><rect x="100" y="244" width="12" height="12" transform="rotate(0,106,250)"/><circle cx="106" cy="274" r="6" transform="rotate(0,106,274)"/><path d="M 100 292v 12h 6a 6 6, 0, 0, 0, 0 -12" transform="rotate(180,106,298)"/><path d="M 100 316v 12h 6a 6 6, 0, 0, 0, 0 -12" transform="rotate(180,106,322)"/><path d="M 100 340v 12h 6a 6 6, 0, 0, 0, 0 -12" transform="rotate(180,106,346)"/><rect x="100" y="364" width="12" height="12" transform="rotate(0,106,370)"/><path d="M 112 136v 12h 6a 6 6, 0, 0, 0, 0 -12" transform="rotate(180,118,142)"/><path d="M 112 160v 12h 12v -6a 6 6, 0, 0, 0, -6 -6" transform="rotate(-90,118,166)"/><rect x="112" y="172" width="12" height="12" transform="rotate(0,118,178)"/><path d="M 112 184v 12h 12v -6a 6 6, 0, 0, 0, -6 -6" transform="rotate(180,118,190)"/><rect x="112" y="220" width="12" height="12" transform="rotate(0,118,226)"/><rect x="112" y="244" width="12" height="12" transform="rotate(0,118,250)"/><path d="M 112 256v 12h 6a 6 6, 0, 0, 0, 0 -12" transform="rotate(90,118,262)"/><path d="M 112 280v 12h 6a 6 6, 0, 0, 0, 0 -12" transform="rotate(-90,118,286)"/><rect x="112" y="292" width="12" height="12" transform="rotate(0,118,298)"/><rect x="112" y="316" width="12" height="12" transform="rotate(0,118,322)"/><path d="M 112 340v 12h 6a 6 6, 0, 0, 0, 0 -12" transform="rotate(0,118,346)"/><path d="M 112 364v 12h 6a 6 6, 0, 0, 0, 0 -12" transform="rotate(0,118,370)"/><path d="M 124 40v 12h 12v -6a 6 6, 0, 0, 0, -6 -6" transform="rotate(-90,130,46)"/><rect x="124" y="52" width="12" height="12" transform="rotate(0,130,58)"/><rect x="124" y="64" width="12" height="12" transform="rotate(0,130,70)"/><rect x="124" y="76" width="12" height="12" transform="rotate(0,130,82)"/><rect x="124" y="88" width="12" height="12" transform="rotate(0,130,94)"/><rect x="124" y="100" width="12" height="12" transform="rotate(0,130,106)"/><path d="M 124 112v 12h 12v -6a 6 6, 0, 0, 0, -6 -6" transform="rotate(180,130,118)"/><rect x="124" y="136" width="12" height="12" transform="rotate(0,130,142)"/><path d="M 124 160v 12h 12v -6a 6 6, 0, 0, 0, -6 -6" transform="rotate(0,130,166)"/><rect x="124" y="172" width="12" height="12" transform="rotate(0,130,178)"/><rect x="124" y="184" width="12" height="12" transform="rotate(0,130,190)"/><path d="M 124 196v 12h 12v -6a 6 6, 0, 0, 0, -6 -6" transform="rotate(180,130,202)"/><rect x="124" y="220" width="12" height="12" transform="rotate(0,130,226)"/><rect x="124" y="232" width="12" height="12" transform="rotate(0,130,238)"/><rect x="124" y="244" width="12" height="12" transform="rotate(0,130,250)"/><rect x="124" y="292" width="12" height="12" transform="rotate(0,130,298)"/><rect x="124" y="304" width="12" height="12" transform="rotate(0,130,310)"/><path d="M 124 316v 12h 12v -6a 6 6, 0, 0, 0, -6 -6" transform="rotate(90,130,322)"/><path d="M 124 400v 12h 6a 6 6, 0, 0, 0, 0 -12" transform="rotate(-90,130,406)"/><path d="M 124 412v 12h 6a 6 6, 0, 0, 0, 0 -12" transform="rotate(90,130,418)"/><circle cx="130" cy="466" r="6" transform="rotate(0,130,466)"/><path d="M 136 40v 12h 12v -6a 6 6, 0, 0, 0, -6 -6" transform="rotate(0,142,46)"/><path d="M 136 52v 12h 12v -6a 6 6, 0, 0, 0, -6 -6" transform="rotate(90,142,58)"/><path d="M 136 88v 12h 6a 6 6, 0, 0, 0, 0 -12" transform="rotate(0,142,94)"/><rect x="136" y="112" width="12" height="12" transform="rotate(0,142,118)"/><path d="M 136 136v 12h 12v -6a 6 6, 0, 0, 0, -6 -6" transform="rotate(0,142,142)"/><path d="M 136 148v 12h 6a 6 6, 0, 0, 0, 0 -12" transform="rotate(90,142,154)"/><rect x="136" y="196" width="12" height="12" transform="rotate(0,142,202)"/><rect x="136" y="220" width="12" height="12" transform="rotate(0,142,226)"/><rect x="136" y="232" width="12" height="12" transform="rotate(0,142,238)"/><rect x="136" y="244" width="12" height="12" transform="rotate(0,142,250)"/><rect x="136" y="292" width="12" height="12" transform="rotate(0,142,298)"/><path d="M 136 304v 12h 12v -6a 6 6, 0, 0, 0, -6 -6" transform="rotate(90,142,310)"/><path d="M 136 328v 12h 12v -6a 6 6, 0, 0, 0, -6 -6" transform="rotate(-90,142,334)"/><rect x="136" y="340" width="12" height="12" transform="rotate(0,142,346)"/><rect x="136" y="352" width="12" height="12" transform="rotate(0,142,358)"/><rect x="136" y="364" width="12" height="12" transform="rotate(0,142,370)"/><rect x="136" y="376" width="12" height="12" transform="rotate(0,142,382)"/><path d="M 136 388v 12h 12v -6a 6 6, 0, 0, 0, -6 -6" transform="rotate(180,142,394)"/><path d="M 136 424v 12h 6a 6 6, 0, 0, 0, 0 -12" transform="rotate(180,142,430)"/><path d="M 136 448v 12h 6a 6 6, 0, 0, 0, 0 -12" transform="rotate(180,142,454)"/><circle cx="154" cy="34" r="6" transform="rotate(0,154,34)"/><path d="M 148 100v 12h 6a 6 6, 0, 0, 0, 0 -12" transform="rotate(-90,154,106)"/><path d="M 148 112v 12h 12v -6a 6 6, 0, 0, 0, -6 -6" transform="rotate(90,154,118)"/><path d="M 148 172v 12h 6a 6 6, 0, 0, 0, 0 -12" transform="rotate(180,154,178)"/><rect x="148" y="196" width="12" height="12" transform="rotate(0,154,202)"/><rect x="148" y="220" width="12" height="12" transform="rotate(0,154,226)"/><path d="M 148 244v 12h 12v -6a 6 6, 0, 0, 0, -6 -6" transform="rotate(0,154,250)"/><rect x="148" y="256" width="12" height="12" transform="rotate(0,154,262)"/><path d="M 148 268v 12h 6a 6 6, 0, 0, 0, 0 -12" transform="rotate(90,154,274)"/><path d="M 148 292v 12h 6a 6 6, 0, 0, 0, 0 -12" transform="rotate(0,154,298)"/><path d="M 148 328v 12h 12v -6a 6 6, 0, 0, 0, -6 -6" transform="rotate(0,154,334)"/><rect x="148" y="340" width="12" height="12" transform="rotate(0,154,346)"/><rect x="148" y="388" width="12" height="12" transform="rotate(0,154,394)"/><path d="M 148 400v 12h 6a 6 6, 0, 0, 0, 0 -12" transform="rotate(90,154,406)"/><path d="M 148 424v 12h 12v -6a 6 6, 0, 0, 0, -6 -6" transform="rotate(0,154,430)"/><rect x="148" y="436" width="12" height="12" transform="rotate(0,154,442)"/><rect x="148" y="448" width="12" height="12" transform="rotate(0,154,454)"/><path d="M 148 460v 12h 12v -6a 6 6, 0, 0, 0, -6 -6" transform="rotate(180,154,466)"/><circle cx="166" cy="46" r="6" transform="rotate(0,166,46)"/><path d="M 160 88v 12h 6a 6 6, 0, 0, 0, 0 -12" transform="rotate(180,166,94)"/><path d="M 160 172v 12h 6a 6 6, 0, 0, 0, 0 -12" transform="rotate(0,166,178)"/><rect x="160" y="196" width="12" height="12" transform="rotate(0,166,202)"/><rect x="160" y="220" width="12" height="12" transform="rotate(0,166,226)"/><circle cx="166" cy="286" r="6" transform="rotate(0,166,286)"/><rect x="160" y="340" width="12" height="12" transform="rotate(0,166,346)"/><circle cx="166" cy="370" r="6" transform="rotate(0,166,370)"/><rect x="160" y="388" width="12" height="12" transform="rotate(0,166,394)"/><path d="M 160 448v 12h 12v -6a 6 6, 0, 0, 0, -6 -6" transform="rotate(0,166,454)"/><rect x="160" y="460" width="12" height="12" transform="rotate(0,166,466)"/><path d="M 172 52v 12h 12v -6a 6 6, 0, 0, 0, -6 -6" transform="rotate(-90,178,58)"/><path d="M 172 64v 12h 6a 6 6, 0, 0, 0, 0 -12" transform="rotate(90,178,70)"/><rect x="172" y="88" width="12" height="12" transform="rotate(0,178,94)"/><path d="M 172 100v 12h 6a 6 6, 0, 0, 0, 0 -12" transform="rotate(90,178,106)"/><path d="M 172 160v 12h 6a 6 6, 0, 0, 0, 0 -12" transform="rotate(180,178,166)"/><rect x="172" y="196" width="12" height="12" transform="rotate(0,178,202)"/><path d="M 172 220v 12h 6a 6 6, 0, 0, 0, 0 -12" transform="rotate(0,178,226)"/><circle cx="178" cy="250" r="6" transform="rotate(0,178,250)"/><path d="M 172 268v 12h 6a 6 6, 0, 0, 0, 0 -12" transform="rotate(180,178,274)"/><path d="M 172 292v 12h 6a 6 6, 0, 0, 0, 0 -12" transform="rotate(-90,178,298)"/><rect x="172" y="304" width="12" height="12" transform="rotate(0,178,310)"/><rect x="172" y="316" width="12" height="12" transform="rotate(0,178,322)"/><rect x="172" y="328" width="12" height="12" transform="rotate(0,178,334)"/><path d="M 172 340v 12h 12v -6a 6 6, 0, 0, 0, -6 -6" transform="rotate(90,178,346)"/><path d="M 172 376v 12h 12v -6a 6 6, 0, 0, 0, -6 -6" transform="rotate(-90,178,382)"/><path d="M 172 388v 12h 12v -6a 6 6, 0, 0, 0, -6 -6" transform="rotate(90,178,394)"/><path d="M 172 412v 12h 6a 6 6, 0, 0, 0, 0 -12" transform="rotate(-90,178,418)"/><rect x="172" y="424" width="12" height="12" transform="rotate(0,178,430)"/><path d="M 172 436v 12h 12v -6a 6 6, 0, 0, 0, -6 -6" transform="rotate(180,178,442)"/><path d="M 172 460v 12h 6a 6 6, 0, 0, 0, 0 -12" transform="rotate(0,178,466)"/><path d="M 184 28v 12h 6a 6 6, 0, 0, 0, 0 -12" transform="rotate(-90,190,34)"/><rect x="184" y="40" width="12" height="12" transform="rotate(0,190,46)"/><path d="M 184 52v 12h 12v -6a 6 6, 0, 0, 0, -6 -6" transform="rotate(90,190,58)"/><path d="M 184 76v 12h 6a 6 6, 0, 0, 0, 0 -12" transform="rotate(-90,190,82)"/><path d="M 184 88v 12h 12v -6a 6 6, 0, 0, 0, -6 -6" transform="rotate(90,190,94)"/><path d="M 184 124v 12h 6a 6 6, 0, 0, 0, 0 -12" transform="rotate(-90,190,130)"/><path d="M 184 136v 12h 6a 6 6, 0, 0, 0, 0 -12" transform="rotate(90,190,142)"/><path d="M 184 160v 12h 6a 6 6, 0, 0, 0, 0 -12" transform="rotate(0,190,166)"/><path d="M 184 196v 12h 6a 6 6, 0, 0, 0, 0 -12" transform="rotate(0,190,202)"/><rect x="184" y="268" width="12" height="12" transform="rotate(0,190,274)"/><path d="M 184 304v 12h 6a 6 6, 0, 0, 0, 0 -12" transform="rotate(0,190,310)"/><path d="M 184 364v 12h 12v -6a 6 6, 0, 0, 0, -6 -6" transform="rotate(-90,190,370)"/><rect x="184" y="376" width="12" height="12" transform="rotate(0,190,382)"/><circle cx="190" cy="406" r="6" transform="rotate(0,190,406)"/><rect x="184" y="424" width="12" height="12" transform="rotate(0,190,430)"/><rect x="184" y="436" width="12" height="12" transform="rotate(0,190,442)"/><path d="M 184 448v 12h 12v -6a 6 6, 0, 0, 0, -6 -6" transform="rotate(180,190,454)"/><rect x="196" y="40" width="12" height="12" transform="rotate(0,202,46)"/><circle cx="202" cy="106" r="6" transform="rotate(0,202,106)"/><circle cx="202" cy="154" r="6" transform="rotate(0,202,154)"/><path d="M 196 220v 12h 6a 6 6, 0, 0, 0, 0 -12" transform="rotate(180,202,226)"/><path d="M 196 268v 12h 6a 6 6, 0, 0, 0, 0 -12" transform="rotate(0,202,274)"/><circle cx="202" cy="298" r="6" transform="rotate(0,202,298)"/><path d="M 196 328v 12h 6a 6 6, 0, 0, 0, 0 -12" transform="rotate(-90,202,334)"/><rect x="196" y="340" width="12" height="12" transform="rotate(0,202,346)"/><rect x="196" y="352" width="12" height="12" transform="rotate(0,202,358)"/><rect x="196" y="364" width="12" height="12" transform="rotate(0,202,370)"/><rect x="196" y="376" width="12" height="12" transform="rotate(0,202,382)"/><path d="M 196 412v 12h 6a 6 6, 0, 0, 0, 0 -12" transform="rotate(-90,202,418)"/><path d="M 196 424v 12h 12v -6a 6 6, 0, 0, 0, -6 -6" transform="rotate(90,202,430)"/><path d="M 196 448v 12h 12v -6a 6 6, 0, 0, 0, -6 -6" transform="rotate(0,202,454)"/><path d="M 196 460v 12h 6a 6 6, 0, 0, 0, 0 -12" transform="rotate(90,202,466)"/><path d="M 208 28v 12h 6a 6 6, 0, 0, 0, 0 -12" transform="rotate(-90,214,34)"/><rect x="208" y="40" width="12" height="12" transform="rotate(0,214,46)"/><path d="M 208 88v 12h 6a 6 6, 0, 0, 0, 0 -12" transform="rotate(180,214,94)"/><path d="M 208 112v 12h 6a 6 6, 0, 0, 0, 0 -12" transform="rotate(-90,214,118)"/><path d="M 208 124v 12h 6a 6 6, 0, 0, 0, 0 -12" transform="rotate(90,214,130)"/><path d="M 208 160v 12h 6a 6 6, 0, 0, 0, 0 -12" transform="rotate(180,214,166)"/><path d="M 208 208v 12h 6a 6 6, 0, 0, 0, 0 -12" transform="rotate(-90,214,214)"/><rect x="208" y="220" width="12" height="12" transform="rotate(0,214,226)"/><path d="M 208 232v 12h 12v -6a 6 6, 0, 0, 0, -6 -6" transform="rotate(180,214,238)"/><path d="M 208 256v 12h 6a 6 6, 0, 0, 0, 0 -12" transform="rotate(180,214,262)"/><rect x="208" y="340" width="12" height="12" transform="rotate(0,214,346)"/><path d="M 208 364v 12h 12v -6a 6 6, 0, 0, 0, -6 -6" transform="rotate(0,214,370)"/><rect x="208" y="376" width="12" height="12" transform="rotate(0,214,382)"/><circle cx="214" cy="406" r="6" transform="rotate(0,214,406)"/><rect x="220" y="40" width="12" height="12" transform="rotate(0,226,46)"/><path d="M 220 64v 12h 6a 6 6, 0, 0, 0, 0 -12" transform="rotate(180,226,70)"/><rect x="220" y="88" width="12" height="12" transform="rotate(0,226,94)"/><path d="M 220 100v 12h 6a 6 6, 0, 0, 0, 0 -12" transform="rotate(90,226,106)"/><path d="M 220 136v 12h 6a 6 6, 0, 0, 0, 0 -12" transform="rotate(180,226,142)"/><rect x="220" y="160" width="12" height="12" transform="rotate(0,226,166)"/><path d="M 220 196v 12h 6a 6 6, 0, 0, 0, 0 -12" transform="rotate(180,226,202)"/><rect x="220" y="220" width="12" height="12" transform="rotate(0,226,226)"/><rect x="220" y="232" width="12" height="12" transform="rotate(0,226,238)"/><rect x="220" y="244" width="12" height="12" transform="rotate(0,226,250)"/><path d="M 220 256v 12h 12v -6a 6 6, 0, 0, 0, -6 -6" transform="rotate(90,226,262)"/><path d="M 220 280v 12h 12v -6a 6 6, 0, 0, 0, -6 -6" transform="rotate(-90,226,286)"/><path d="M 220 292v 12h 6a 6 6, 0, 0, 0, 0 -12" transform="rotate(90,226,298)"/><path d="M 220 316v 12h 6a 6 6, 0, 0, 0, 0 -12" transform="rotate(-90,226,322)"/><rect x="220" y="328" width="12" height="12" transform="rotate(0,226,334)"/><rect x="220" y="340" width="12" height="12" transform="rotate(0,226,346)"/><rect x="220" y="376" width="12" height="12" transform="rotate(0,226,382)"/><path d="M 220 388v 12h 6a 6 6, 0, 0, 0, 0 -12" transform="rotate(90,226,394)"/><circle cx="226" cy="418" r="6" transform="rotate(0,226,418)"/><circle cx="226" cy="442" r="6" transform="rotate(0,226,442)"/><circle cx="226" cy="466" r="6" transform="rotate(0,226,466)"/><rect x="232" y="40" width="12" height="12" transform="rotate(0,238,46)"/><rect x="232" y="64" width="12" height="12" transform="rotate(0,238,70)"/><rect x="232" y="76" width="12" height="12" transform="rotate(0,238,82)"/><rect x="232" y="88" width="12" height="12" transform="rotate(0,238,94)"/><path d="M 232 112v 12h 6a 6 6, 0, 0, 0, 0 -12" transform="rotate(180,238,118)"/><path d="M 232 136v 12h 12v -6a 6 6, 0, 0, 0, -6 -6" transform="rotate(0,238,142)"/><rect x="232" y="148" width="12" height="12" transform="rotate(0,238,154)"/><rect x="232" y="160" width="12" height="12" transform="rotate(0,238,166)"/><path d="M 232 184v 12h 6a 6 6, 0, 0, 0, 0 -12" transform="rotate(-90,238,190)"/><rect x="232" y="196" width="12" height="12" transform="rotate(0,238,202)"/><rect x="232" y="208" width="12" height="12" transform="rotate(0,238,214)"/><rect x="232" y="220" width="12" height="12" transform="rotate(0,238,226)"/><rect x="232" y="244" width="12" height="12" transform="rotate(0,238,250)"/><path d="M 232 280v 12h 6a 6 6, 0, 0, 0, 0 -12" transform="rotate(0,238,286)"/><path d="M 232 340v 12h 6a 6 6, 0, 0, 0, 0 -12" transform="rotate(0,238,346)"/><rect x="232" y="376" width="12" height="12" transform="rotate(0,238,382)"/><circle cx="238" cy="406" r="6" transform="rotate(0,238,406)"/><path d="M 232 424v 12h 6a 6 6, 0, 0, 0, 0 -12" transform="rotate(180,238,430)"/><path d="M 244 40v 12h 12v -6a 6 6, 0, 0, 0, -6 -6" transform="rotate(0,250,46)"/><rect x="244" y="52" width="12" height="12" transform="rotate(0,250,58)"/><path d="M 244 64v 12h 12v -6a 6 6, 0, 0, 0, -6 -6" transform="rotate(90,250,70)"/><path d="M 244 88v 12h 12v -6a 6 6, 0, 0, 0, -6 -6" transform="rotate(0,250,94)"/><rect x="244" y="100" width="12" height="12" transform="rotate(0,250,106)"/><rect x="244" y="112" width="12" height="12" transform="rotate(0,250,118)"/><path d="M 244 124v 12h 6a 6 6, 0, 0, 0, 0 -12" transform="rotate(90,250,130)"/><path d="M 244 148v 12h 12v -6a 6 6, 0, 0, 0, -6 -6" transform="rotate(0,250,154)"/><rect x="244" y="160" width="12" height="12" transform="rotate(0,250,166)"/><path d="M 244 172v 12h 6a 6 6, 0, 0, 0, 0 -12" transform="rotate(90,250,178)"/><rect x="244" y="196" width="12" height="12" transform="rotate(0,250,202)"/><path d="M 244 220v 12h 6a 6 6, 0, 0, 0, 0 -12" transform="rotate(0,250,226)"/><path d="M 244 244v 12h 12v -6a 6 6, 0, 0, 0, -6 -6" transform="rotate(0,250,250)"/><path d="M 244 256v 12h 12v -6a 6 6, 0, 0, 0, -6 -6" transform="rotate(180,250,262)"/><path d="M 244 304v 12h 12v -6a 6 6, 0, 0, 0, -6 -6" transform="rotate(-90,250,310)"/><path d="M 244 316v 12h 6a 6 6, 0, 0, 0, 0 -12" transform="rotate(90,250,322)"/><path d="M 244 352v 12h 6a 6 6, 0, 0, 0, 0 -12" transform="rotate(-90,250,358)"/><rect x="244" y="364" width="12" height="12" transform="rotate(0,250,370)"/><rect x="244" y="376" width="12" height="12" transform="rotate(0,250,382)"/><path d="M 244 388v 12h 12v -6a 6 6, 0, 0, 0, -6 -6" transform="rotate(180,250,394)"/><path d="M 244 424v 12h 12v -6a 6 6, 0, 0, 0, -6 -6" transform="rotate(0,250,430)"/><rect x="244" y="436" width="12" height="12" transform="rotate(0,250,442)"/><rect x="244" y="448" width="12" height="12" transform="rotate(0,250,454)"/><path d="M 244 460v 12h 6a 6 6, 0, 0, 0, 0 -12" transform="rotate(90,250,466)"/><path d="M 256 28v 12h 6a 6 6, 0, 0, 0, 0 -12" transform="rotate(180,262,34)"/><rect x="256" y="52" width="12" height="12" transform="rotate(0,262,58)"/><path d="M 256 76v 12h 6a 6 6, 0, 0, 0, 0 -12" transform="rotate(180,262,82)"/><rect x="256" y="112" width="12" height="12" transform="rotate(0,262,118)"/><path d="M 256 136v 12h 6a 6 6, 0, 0, 0, 0 -12" transform="rotate(180,262,142)"/><rect x="256" y="160" width="12" height="12" transform="rotate(0,262,166)"/><rect x="256" y="196" width="12" height="12" transform="rotate(0,262,202)"/><path d="M 256 208v 12h 12v -6a 6 6, 0, 0, 0, -6 -6" transform="rotate(180,262,214)"/><circle cx="262" cy="238" r="6" transform="rotate(0,262,238)"/><path d="M 256 256v 12h 12v -6a 6 6, 0, 0, 0, -6 -6" transform="rotate(0,262,262)"/><rect x="256" y="268" width="12" height="12" transform="rotate(0,262,274)"/><rect x="256" y="280" width="12" height="12" transform="rotate(0,262,286)"/><rect x="256" y="292" width="12" height="12" transform="rotate(0,262,298)"/><rect x="256" y="304" width="12" height="12" transform="rotate(0,262,310)"/><rect x="256" y="376" width="12" height="12" transform="rotate(0,262,382)"/><rect x="256" y="388" width="12" height="12" transform="rotate(0,262,394)"/><path d="M 256 400v 12h 12v -6a 6 6, 0, 0, 0, -6 -6" transform="rotate(180,262,406)"/><rect x="256" y="448" width="12" height="12" transform="rotate(0,262,454)"/><path d="M 268 28v 12h 12v -6a 6 6, 0, 0, 0, -6 -6" transform="rotate(0,274,34)"/><rect x="268" y="40" width="12" height="12" transform="rotate(0,274,46)"/><rect x="268" y="52" width="12" height="12" transform="rotate(0,274,58)"/><rect x="268" y="64" width="12" height="12" transform="rotate(0,274,70)"/><rect x="268" y="76" width="12" height="12" transform="rotate(0,274,82)"/><rect x="268" y="88" width="12" height="12" transform="rotate(0,274,94)"/><rect x="268" y="100" width="12" height="12" transform="rotate(0,274,106)"/><path d="M 268 112v 12h 12v -6a 6 6, 0, 0, 0, -6 -6" transform="rotate(90,274,118)"/><path d="M 268 136v 12h 6a 6 6, 0, 0, 0, 0 -12" transform="rotate(0,274,142)"/><rect x="268" y="160" width="12" height="12" transform="rotate(0,274,166)"/><path d="M 268 172v 12h 12v -6a 6 6, 0, 0, 0, -6 -6" transform="rotate(180,274,178)"/><rect x="268" y="196" width="12" height="12" transform="rotate(0,274,202)"/><rect x="268" y="208" width="12" height="12" transform="rotate(0,274,214)"/><path d="M 268 220v 12h 6a 6 6, 0, 0, 0, 0 -12" transform="rotate(90,274,226)"/><path d="M 268 244v 12h 6a 6 6, 0, 0, 0, 0 -12" transform="rotate(180,274,250)"/><path d="M 268 292v 12h 12v -6a 6 6, 0, 0, 0, -6 -6" transform="rotate(0,274,298)"/><rect x="268" y="304" width="12" height="12" transform="rotate(0,274,310)"/><rect x="268" y="316" width="12" height="12" transform="rotate(0,274,322)"/><rect x="268" y="328" width="12" height="12" transform="rotate(0,274,334)"/><rect x="268" y="340" width="12" height="12" transform="rotate(0,274,346)"/><path d="M 268 352v 12h 6a 6 6, 0, 0, 0, 0 -12" transform="rotate(90,274,358)"/><path d="M 268 376v 12h 12v -6a 6 6, 0, 0, 0, -6 -6" transform="rotate(0,274,382)"/><rect x="268" y="388" width="12" height="12" transform="rotate(0,274,394)"/><rect x="268" y="400" width="12" height="12" transform="rotate(0,274,406)"/><rect x="268" y="412" width="12" height="12" transform="rotate(0,274,418)"/><rect x="268" y="424" width="12" height="12" transform="rotate(0,274,430)"/><rect x="268" y="436" width="12" height="12" transform="rotate(0,274,442)"/><rect x="268" y="448" width="12" height="12" transform="rotate(0,274,454)"/><rect x="280" y="64" width="12" height="12" transform="rotate(0,286,70)"/><path d="M 280 88v 12h 6a 6 6, 0, 0, 0, 0 -12" transform="rotate(0,286,94)"/><path d="M 280 124v 12h 6a 6 6, 0, 0, 0, 0 -12" transform="rotate(180,286,130)"/><rect x="280" y="160" width="12" height="12" transform="rotate(0,286,166)"/><rect x="280" y="172" width="12" height="12" transform="rotate(0,286,178)"/><rect x="280" y="184" width="12" height="12" transform="rotate(0,286,190)"/><path d="M 280 196v 12h 12v -6a 6 6, 0, 0, 0, -6 -6" transform="rotate(90,286,202)"/><path d="M 280 232v 12h 12v -6a 6 6, 0, 0, 0, -6 -6" transform="rotate(-90,286,238)"/><rect x="280" y="244" width="12" height="12" transform="rotate(0,286,250)"/><rect x="280" y="256" width="12" height="12" transform="rotate(0,286,262)"/><rect x="280" y="268" width="12" height="12" transform="rotate(0,286,274)"/><path d="M 280 280v 12h 6a 6 6, 0, 0, 0, 0 -12" transform="rotate(90,286,286)"/><path d="M 280 304v 12h 6a 6 6, 0, 0, 0, 0 -12" transform="rotate(0,286,310)"/><rect x="280" y="328" width="12" height="12" transform="rotate(0,286,334)"/><rect x="280" y="340" width="12" height="12" transform="rotate(0,286,346)"/><path d="M 280 400v 12h 6a 6 6, 0, 0, 0, 0 -12" transform="rotate(0,286,406)"/><rect x="280" y="448" width="12" height="12" transform="rotate(0,286,454)"/><path d="M 292 28v 12h 6a 6 6, 0, 0, 0, 0 -12" transform="rotate(180,298,34)"/><rect x="292" y="64" width="12" height="12" transform="rotate(0,298,70)"/><path d="M 292 100v 12h 6a 6 6, 0, 0, 0, 0 -12" transform="rotate(-90,298,106)"/><rect x="292" y="112" width="12" height="12" transform="rotate(0,298,118)"/><rect x="292" y="124" width="12" height="12" transform="rotate(0,298,130)"/><path d="M 292 160v 12h 12v -6a 6 6, 0, 0, 0, -6 -6" transform="rotate(0,298,166)"/><rect x="292" y="172" width="12" height="12" transform="rotate(0,298,178)"/><rect x="292" y="184" width="12" height="12" transform="rotate(0,298,190)"/><circle cx="298" cy="214" r="6" transform="rotate(0,298,214)"/><path d="M 292 232v 12h 12v -6a 6 6, 0, 0, 0, -6 -6" transform="rotate(0,298,238)"/><path d="M 292 244v 12h 12v -6a 6 6, 0, 0, 0, -6 -6" transform="rotate(90,298,250)"/><path d="M 292 316v 12h 6a 6 6, 0, 0, 0, 0 -12" transform="rotate(-90,298,322)"/><rect x="292" y="328" width="12" height="12" transform="rotate(0,298,334)"/><rect x="292" y="340" width="12" height="12" transform="rotate(0,298,346)"/><path d="M 292 352v 12h 6a 6 6, 0, 0, 0, 0 -12" transform="rotate(90,298,358)"/><circle cx="298" cy="382" r="6" transform="rotate(0,298,382)"/><circle cx="298" cy="430" r="6" transform="rotate(0,298,430)"/><rect x="292" y="448" width="12" height="12" transform="rotate(0,298,454)"/><path d="M 292 460v 12h 6a 6 6, 0, 0, 0, 0 -12" transform="rotate(90,298,466)"/><path d="M 304 28v 12h 6a 6 6, 0, 0, 0, 0 -12" transform="rotate(0,310,34)"/><path d="M 304 52v 12h 6a 6 6, 0, 0, 0, 0 -12" transform="rotate(-90,310,58)"/><rect x="304" y="64" width="12" height="12" transform="rotate(0,310,70)"/><rect x="304" y="76" width="12" height="12" transform="rotate(0,310,82)"/><path d="M 304 88v 12h 12v -6a 6 6, 0, 0, 0, -6 -6" transform="rotate(180,310,94)"/><path d="M 304 112v 12h 12v -6a 6 6, 0, 0, 0, -6 -6" transform="rotate(0,310,118)"/><rect x="304" y="124" width="12" height="12" transform="rotate(0,310,130)"/><circle cx="310" cy="154" r="6" transform="rotate(0,310,154)"/><path d="M 304 184v 12h 12v -6a 6 6, 0, 0, 0, -6 -6" transform="rotate(0,310,190)"/><path d="M 304 196v 12h 12v -6a 6 6, 0, 0, 0, -6 -6" transform="rotate(180,310,202)"/><path d="M 304 220v 12h 6a 6 6, 0, 0, 0, 0 -12" transform="rotate(180,310,226)"/><path d="M 304 256v 12h 6a 6 6, 0, 0, 0, 0 -12" transform="rotate(-90,310,262)"/><rect x="304" y="268" width="12" height="12" transform="rotate(0,310,274)"/><path d="M 304 280v 12h 6a 6 6, 0, 0, 0, 0 -12" transform="rotate(90,310,286)"/><path d="M 304 328v 12h 6a 6 6, 0, 0, 0, 0 -12" transform="rotate(0,310,334)"/><circle cx="310" cy="406" r="6" transform="rotate(0,310,406)"/><rect x="304" y="448" width="12" height="12" transform="rotate(0,310,454)"/><path d="M 316 40v 12h 6a 6 6, 0, 0, 0, 0 -12" transform="rotate(180,322,46)"/><path d="M 316 76v 12h 12v -6a 6 6, 0, 0, 0, -6 -6" transform="rotate(0,322,82)"/><rect x="316" y="88" width="12" height="12" transform="rotate(0,322,94)"/><path d="M 316 100v 12h 6a 6 6, 0, 0, 0, 0 -12" transform="rotate(90,322,106)"/><path d="M 316 124v 12h 12v -6a 6 6, 0, 0, 0, -6 -6" transform="rotate(0,322,130)"/><path d="M 316 136v 12h 12v -6a 6 6, 0, 0, 0, -6 -6" transform="rotate(180,322,142)"/><path d="M 316 172v 12h 6a 6 6, 0, 0, 0, 0 -12" transform="rotate(180,322,178)"/><path d="M 316 196v 12h 12v -6a 6 6, 0, 0, 0, -6 -6" transform="rotate(0,322,202)"/><rect x="316" y="208" width="12" height="12" transform="rotate(0,322,214)"/><rect x="316" y="220" width="12" height="12" transform="rotate(0,322,226)"/><circle cx="322" cy="298" r="6" transform="rotate(0,322,298)"/><path d="M 316 316v 12h 6a 6 6, 0, 0, 0, 0 -12" transform="rotate(180,322,322)"/><circle cx="322" cy="346" r="6" transform="rotate(0,322,346)"/><path d="M 316 364v 12h 6a 6 6, 0, 0, 0, 0 -12" transform="rotate(-90,322,370)"/><path d="M 316 376v 12h 6a 6 6, 0, 0, 0, 0 -12" transform="rotate(90,322,382)"/><path d="M 316 424v 12h 6a 6 6, 0, 0, 0, 0 -12" transform="rotate(-90,322,430)"/><rect x="316" y="436" width="12" height="12" transform="rotate(0,322,442)"/><path d="M 316 448v 12h 12v -6a 6 6, 0, 0, 0, -6 -6" transform="rotate(90,322,454)"/><path d="M 328 28v 12h 12v -6a 6 6, 0, 0, 0, -6 -6" transform="rotate(-90,334,34)"/><path d="M 328 40v 12h 12v -6a 6 6, 0, 0, 0, -6 -6" transform="rotate(90,334,46)"/><path d="M 328 64v 12h 6a 6 6, 0, 0, 0, 0 -12" transform="rotate(180,334,70)"/><rect x="328" y="88" width="12" height="12" transform="rotate(0,334,94)"/><circle cx="334" cy="118" r="6" transform="rotate(0,334,118)"/><rect x="328" y="136" width="12" height="12" transform="rotate(0,334,142)"/><path d="M 328 160v 12h 12v -6a 6 6, 0, 0, 0, -6 -6" transform="rotate(-90,334,166)"/><rect x="328" y="172" width="12" height="12" transform="rotate(0,334,178)"/><path d="M 328 184v 12h 12v -6a 6 6, 0, 0, 0, -6 -6" transform="rotate(180,334,190)"/><path d="M 328 208v 12h 12v -6a 6 6, 0, 0, 0, -6 -6" transform="rotate(0,334,214)"/><rect x="328" y="220" width="12" height="12" transform="rotate(0,334,226)"/><path d="M 328 232v 12h 12v -6a 6 6, 0, 0, 0, -6 -6" transform="rotate(180,334,238)"/><path d="M 328 256v 12h 6a 6 6, 0, 0, 0, 0 -12" transform="rotate(-90,334,262)"/><rect x="328" y="268" width="12" height="12" transform="rotate(0,334,274)"/><path d="M 328 280v 12h 6a 6 6, 0, 0, 0, 0 -12" transform="rotate(90,334,286)"/><path d="M 328 304v 12h 6a 6 6, 0, 0, 0, 0 -12" transform="rotate(-90,334,310)"/><path d="M 328 316v 12h 12v -6a 6 6, 0, 0, 0, -6 -6" transform="rotate(90,334,322)"/><path d="M 328 352v 12h 6a 6 6, 0, 0, 0, 0 -12" transform="rotate(180,334,358)"/><path d="M 328 388v 12h 12v -6a 6 6, 0, 0, 0, -6 -6" transform="rotate(-90,334,394)"/><rect x="328" y="400" width="12" height="12" transform="rotate(0,334,406)"/><path d="M 328 412v 12h 12v -6a 6 6, 0, 0, 0, -6 -6" transform="rotate(180,334,418)"/><rect x="340" y="28" width="12" height="12" transform="rotate(0,346,34)"/><path d="M 340 64v 12h 6a 6 6, 0, 0, 0, 0 -12" transform="rotate(0,346,70)"/><path d="M 340 88v 12h 12v -6a 6 6, 0, 0, 0, -6 -6" transform="rotate(0,346,94)"/><path d="M 340 100v 12h 6a 6 6, 0, 0, 0, 0 -12" transform="rotate(90,346,106)"/><path d="M 340 136v 12h 12v -6a 6 6, 0, 0, 0, -6 -6" transform="rotate(0,346,142)"/><rect x="340" y="148" width="12" height="12" transform="rotate(0,346,154)"/><path d="M 340 160v 12h 12v -6a 6 6, 0, 0, 0, -6 -6" transform="rotate(90,346,166)"/><rect x="340" y="184" width="12" height="12" transform="rotate(0,346,190)"/><path d="M 340 196v 12h 6a 6 6, 0, 0, 0, 0 -12" transform="rotate(90,346,202)"/><rect x="340" y="232" width="12" height="12" transform="rotate(0,346,238)"/><path d="M 340 292v 12h 6a 6 6, 0, 0, 0, 0 -12" transform="rotate(180,346,298)"/><circle cx="346" cy="334" r="6" transform="rotate(0,346,334)"/><rect x="340" y="352" width="12" height="12" transform="rotate(0,346,358)"/><path d="M 340 364v 12h 6a 6 6, 0, 0, 0, 0 -12" transform="rotate(90,346,370)"/><path d="M 340 388v 12h 6a 6 6, 0, 0, 0, 0 -12" transform="rotate(0,346,394)"/><rect x="340" y="412" width="12" height="12" transform="rotate(0,346,418)"/><path d="M 340 436v 12h 6a 6 6, 0, 0, 0, 0 -12" transform="rotate(-90,346,442)"/><rect x="340" y="448" width="12" height="12" transform="rotate(0,346,454)"/><path d="M 340 460v 12h 12v -6a 6 6, 0, 0, 0, -6 -6" transform="rotate(180,346,466)"/><rect x="352" y="28" width="12" height="12" transform="rotate(0,358,34)"/><path d="M 352 76v 12h 6a 6 6, 0, 0, 0, 0 -12" transform="rotate(180,358,82)"/><path d="M 352 172v 12h 6a 6 6, 0, 0, 0, 0 -12" transform="rotate(-90,358,178)"/><rect x="352" y="184" width="12" height="12" transform="rotate(0,358,190)"/><path d="M 352 208v 12h 12v -6a 6 6, 0, 0, 0, -6 -6" transform="rotate(-90,358,214)"/><rect x="352" y="220" width="12" height="12" transform="rotate(0,358,226)"/><rect x="352" y="232" width="12" height="12" transform="rotate(0,358,238)"/><path d="M 352 244v 12h 6a 6 6, 0, 0, 0, 0 -12" transform="rotate(90,358,250)"/><path d="M 352 268v 12h 12v -6a 6 6, 0, 0, 0, -6 -6" transform="rotate(-90,358,274)"/><rect x="352" y="280" width="12" height="12" transform="rotate(0,358,286)"/><path d="M 352 292v 12h 12v -6a 6 6, 0, 0, 0, -6 -6" transform="rotate(90,358,298)"/><circle cx="358" cy="322" r="6" transform="rotate(0,358,322)"/><rect x="352" y="352" width="12" height="12" transform="rotate(0,358,358)"/><path d="M 352 376v 12h 6a 6 6, 0, 0, 0, 0 -12" transform="rotate(180,358,382)"/><path d="M 352 400v 12h 12v -6a 6 6, 0, 0, 0, -6 -6" transform="rotate(-90,358,406)"/><rect x="352" y="412" width="12" height="12" transform="rotate(0,358,418)"/><path d="M 352 424v 12h 12v -6a 6 6, 0, 0, 0, -6 -6" transform="rotate(180,358,430)"/><rect x="352" y="448" width="12" height="12" transform="rotate(0,358,454)"/><rect x="352" y="460" width="12" height="12" transform="rotate(0,358,466)"/><path d="M 364 28v 12h 6a 6 6, 0, 0, 0, 0 -12" transform="rotate(0,370,34)"/><circle cx="370" cy="58" r="6" transform="rotate(0,370,58)"/><path d="M 364 76v 12h 6a 6 6, 0, 0, 0, 0 -12" transform="rotate(0,370,82)"/><path d="M 364 100v 12h 6a 6 6, 0, 0, 0, 0 -12" transform="rotate(-90,370,106)"/><path d="M 364 112v 12h 6a 6 6, 0, 0, 0, 0 -12" transform="rotate(90,370,118)"/><circle cx="370" cy="154" r="6" transform="rotate(0,370,154)"/><path d="M 364 184v 12h 6a 6 6, 0, 0, 0, 0 -12" transform="rotate(0,370,190)"/><rect x="364" y="208" width="12" height="12" transform="rotate(0,370,214)"/><path d="M 364 220v 12h 12v -6a 6 6, 0, 0, 0, -6 -6" transform="rotate(90,370,226)"/><rect x="364" y="268" width="12" height="12" transform="rotate(0,370,274)"/><path d="M 364 328v 12h 6a 6 6, 0, 0, 0, 0 -12" transform="rotate(-90,370,334)"/><rect x="364" y="340" width="12" height="12" transform="rotate(0,370,346)"/><rect x="364" y="352" width="12" height="12" transform="rotate(0,370,358)"/><rect x="364" y="364" width="12" height="12" transform="rotate(0,370,370)"/><rect x="364" y="376" width="12" height="12" transform="rotate(0,370,382)"/><rect x="364" y="388" width="12" height="12" transform="rotate(0,370,394)"/><rect x="364" y="400" width="12" height="12" transform="rotate(0,370,406)"/><rect x="364" y="412" width="12" height="12" transform="rotate(0,370,418)"/><path d="M 364 424v 12h 12v -6a 6 6, 0, 0, 0, -6 -6" transform="rotate(90,370,430)"/><rect x="364" y="448" width="12" height="12" transform="rotate(0,370,454)"/><path d="M 364 460v 12h 12v -6a 6 6, 0, 0, 0, -6 -6" transform="rotate(90,370,466)"/><path d="M 376 124v 12h 12v -6a 6 6, 0, 0, 0, -6 -6" transform="rotate(-90,382,130)"/><path d="M 376 136v 12h 12v -6a 6 6, 0, 0, 0, -6 -6" transform="rotate(180,382,142)"/><path d="M 376 208v 12h 6a 6 6, 0, 0, 0, 0 -12" transform="rotate(0,382,214)"/><path d="M 376 244v 12h 6a 6 6, 0, 0, 0, 0 -12" transform="rotate(180,382,250)"/><rect x="376" y="268" width="12" height="12" transform="rotate(0,382,274)"/><path d="M 376 280v 12h 12v -6a 6 6, 0, 0, 0, -6 -6" transform="rotate(180,382,286)"/><circle cx="382" cy="310" r="6" transform="rotate(0,382,310)"/><path d="M 376 352v 12h 12v -6a 6 6, 0, 0, 0, -6 -6" transform="rotate(0,382,358)"/><rect x="376" y="364" width="12" height="12" transform="rotate(0,382,370)"/><rect x="376" y="412" width="12" height="12" transform="rotate(0,382,418)"/><rect x="376" y="448" width="12" height="12" transform="rotate(0,382,454)"/><rect x="388" y="124" width="12" height="12" transform="rotate(0,394,130)"/><rect x="388" y="136" width="12" height="12" transform="rotate(0,394,142)"/><rect x="388" y="148" width="12" height="12" transform="rotate(0,394,154)"/><rect x="388" y="160" width="12" height="12" transform="rotate(0,394,166)"/><rect x="388" y="172" width="12" height="12" transform="rotate(0,394,178)"/><path d="M 388 184v 12h 6a 6 6, 0, 0, 0, 0 -12" transform="rotate(90,394,190)"/><path d="M 388 220v 12h 12v -6a 6 6, 0, 0, 0, -6 -6" transform="rotate(-90,394,226)"/><rect x="388" y="232" width="12" height="12" transform="rotate(0,394,238)"/><rect x="388" y="244" width="12" height="12" transform="rotate(0,394,250)"/><rect x="388" y="256" width="12" height="12" transform="rotate(0,394,262)"/><rect x="388" y="268" width="12" height="12" transform="rotate(0,394,274)"/><rect x="388" y="280" width="12" height="12" transform="rotate(0,394,286)"/><path d="M 388 316v 12h 6a 6 6, 0, 0, 0, 0 -12" transform="rotate(-90,394,322)"/><path d="M 388 328v 12h 6a 6 6, 0, 0, 0, 0 -12" transform="rotate(90,394,334)"/><rect x="388" y="364" width="12" height="12" transform="rotate(0,394,370)"/><circle cx="394" cy="394" r="6" transform="rotate(0,394,394)"/><rect x="388" y="412" width="12" height="12" transform="rotate(0,394,418)"/><path d="M 388 424v 12h 6a 6 6, 0, 0, 0, 0 -12" transform="rotate(90,394,430)"/><rect x="388" y="448" width="12" height="12" transform="rotate(0,394,454)"/><path d="M 388 460v 12h 6a 6 6, 0, 0, 0, 0 -12" transform="rotate(90,394,466)"/><rect x="400" y="124" width="12" height="12" transform="rotate(0,406,130)"/><path d="M 400 136v 12h 12v -6a 6 6, 0, 0, 0, -6 -6" transform="rotate(90,406,142)"/><rect x="400" y="160" width="12" height="12" transform="rotate(0,406,166)"/><rect x="400" y="172" width="12" height="12" transform="rotate(0,406,178)"/><path d="M 400 196v 12h 6a 6 6, 0, 0, 0, 0 -12" transform="rotate(180,406,202)"/><path d="M 400 220v 12h 12v -6a 6 6, 0, 0, 0, -6 -6" transform="rotate(0,406,226)"/><path d="M 400 232v 12h 12v -6a 6 6, 0, 0, 0, -6 -6" transform="rotate(90,406,238)"/><rect x="400" y="256" width="12" height="12" transform="rotate(0,406,262)"/><rect x="400" y="280" width="12" height="12" transform="rotate(0,406,286)"/><path d="M 400 292v 12h 6a 6 6, 0, 0, 0, 0 -12" transform="rotate(90,406,298)"/><path d="M 400 340v 12h 6a 6 6, 0, 0, 0, 0 -12" transform="rotate(180,406,346)"/><rect x="400" y="364" width="12" height="12" transform="rotate(0,406,370)"/><rect x="400" y="412" width="12" height="12" transform="rotate(0,406,418)"/><rect x="400" y="448" width="12" height="12" transform="rotate(0,406,454)"/><rect x="412" y="124" width="12" height="12" transform="rotate(0,418,130)"/><rect x="412" y="160" width="12" height="12" transform="rotate(0,418,166)"/><rect x="412" y="172" width="12" height="12" transform="rotate(0,418,178)"/><rect x="412" y="184" width="12" height="12" transform="rotate(0,418,190)"/><rect x="412" y="196" width="12" height="12" transform="rotate(0,418,202)"/><path d="M 412 208v 12h 6a 6 6, 0, 0, 0, 0 -12" transform="rotate(90,418,214)"/><path d="M 412 244v 12h 6a 6 6, 0, 0, 0, 0 -12" transform="rotate(-90,418,250)"/><path d="M 412 256v 12h 12v -6a 6 6, 0, 0, 0, -6 -6" transform="rotate(90,418,262)"/><path d="M 412 280v 12h 6a 6 6, 0, 0, 0, 0 -12" transform="rotate(0,418,286)"/><circle cx="418" cy="310" r="6" transform="rotate(0,418,310)"/><path d="M 412 328v 12h 6a 6 6, 0, 0, 0, 0 -12" transform="rotate(-90,418,334)"/><rect x="412" y="340" width="12" height="12" transform="rotate(0,418,346)"/><rect x="412" y="352" width="12" height="12" transform="rotate(0,418,358)"/><rect x="412" y="364" width="12" height="12" transform="rotate(0,418,370)"/><rect x="412" y="376" width="12" height="12" transform="rotate(0,418,382)"/><rect x="412" y="388" width="12" height="12" transform="rotate(0,418,394)"/><rect x="412" y="400" width="12" height="12" transform="rotate(0,418,406)"/><rect x="412" y="412" width="12" height="12" transform="rotate(0,418,418)"/><path d="M 412 436v 12h 12v -6a 6 6, 0, 0, 0, -6 -6" transform="rotate(-90,418,442)"/><path d="M 412 448v 12h 12v -6a 6 6, 0, 0, 0, -6 -6" transform="rotate(90,418,454)"/><rect x="424" y="124" width="12" height="12" transform="rotate(0,430,130)"/><path d="M 424 148v 12h 6a 6 6, 0, 0, 0, 0 -12" transform="rotate(-90,430,154)"/><rect x="424" y="160" width="12" height="12" transform="rotate(0,430,166)"/><rect x="424" y="196" width="12" height="12" transform="rotate(0,430,202)"/><circle cx="430" cy="226" r="6" transform="rotate(0,430,226)"/><circle cx="430" cy="274" r="6" transform="rotate(0,430,274)"/><path d="M 424 292v 12h 6a 6 6, 0, 0, 0, 0 -12" transform="rotate(180,430,298)"/><circle cx="430" cy="322" r="6" transform="rotate(0,430,322)"/><path d="M 424 364v 12h 6a 6 6, 0, 0, 0, 0 -12" transform="rotate(0,430,370)"/><path d="M 424 388v 12h 12v -6a 6 6, 0, 0, 0, -6 -6" transform="rotate(0,430,394)"/><rect x="424" y="400" width="12" height="12" transform="rotate(0,430,406)"/><rect x="424" y="412" width="12" height="12" transform="rotate(0,430,418)"/><rect x="424" y="424" width="12" height="12" transform="rotate(0,430,430)"/><path d="M 424 436v 12h 12v -6a 6 6, 0, 0, 0, -6 -6" transform="rotate(90,430,442)"/><rect x="436" y="124" width="12" height="12" transform="rotate(0,442,130)"/><path d="M 436 136v 12h 12v -6a 6 6, 0, 0, 0, -6 -6" transform="rotate(180,442,142)"/><rect x="436" y="160" width="12" height="12" transform="rotate(0,442,166)"/><path d="M 436 184v 12h 12v -6a 6 6, 0, 0, 0, -6 -6" transform="rotate(-90,442,190)"/><rect x="436" y="196" width="12" height="12" transform="rotate(0,442,202)"/><path d="M 436 208v 12h 12v -6a 6 6, 0, 0, 0, -6 -6" transform="rotate(180,442,214)"/><path d="M 436 244v 12h 6a 6 6, 0, 0, 0, 0 -12" transform="rotate(-90,442,250)"/><path d="M 436 256v 12h 12v -6a 6 6, 0, 0, 0, -6 -6" transform="rotate(180,442,262)"/><path d="M 436 292v 12h 6a 6 6, 0, 0, 0, 0 -12" transform="rotate(0,442,298)"/><path d="M 436 340v 12h 12v -6a 6 6, 0, 0, 0, -6 -6" transform="rotate(-90,442,346)"/><path d="M 436 352v 12h 6a 6 6, 0, 0, 0, 0 -12" transform="rotate(90,442,358)"/><circle cx="442" cy="382" r="6" transform="rotate(0,442,382)"/><rect x="436" y="400" width="12" height="12" transform="rotate(0,442,406)"/><path d="M 436 460v 12h 6a 6 6, 0, 0, 0, 0 -12" transform="rotate(180,442,466)"/><path d="M 448 124v 12h 12v -6a 6 6, 0, 0, 0, -6 -6" transform="rotate(0,454,130)"/><rect x="448" y="136" width="12" height="12" transform="rotate(0,454,142)"/><rect x="448" y="148" width="12" height="12" transform="rotate(0,454,154)"/><rect x="448" y="160" width="12" height="12" transform="rotate(0,454,166)"/><rect x="448" y="172" width="12" height="12" transform="rotate(0,454,178)"/><rect x="448" y="184" width="12" height="12" transform="rotate(0,454,190)"/><rect x="448" y="196" width="12" height="12" transform="rotate(0,454,202)"/><path d="M 448 208v 12h 12v -6a 6 6, 0, 0, 0, -6 -6" transform="rotate(90,454,214)"/><circle cx="454" cy="238" r="6" transform="rotate(0,454,238)"/><rect x="448" y="256" width="12" height="12" transform="rotate(0,454,262)"/><rect x="448" y="268" width="12" height="12" transform="rotate(0,454,274)"/><path d="M 448 280v 12h 6a 6 6, 0, 0, 0, 0 -12" transform="rotate(90,454,286)"/><circle cx="454" cy="322" r="6" transform="rotate(0,454,322)"/><rect x="448" y="340" width="12" height="12" transform="rotate(0,454,346)"/><circle cx="454" cy="370" r="6" transform="rotate(0,454,370)"/><path d="M 448 388v 12h 6a 6 6, 0, 0, 0, 0 -12" transform="rotate(-90,454,394)"/><path d="M 448 400v 12h 12v -6a 6 6, 0, 0, 0, -6 -6" transform="rotate(90,454,406)"/><rect x="448" y="460" width="12" height="12" transform="rotate(0,454,466)"/><path d="M 460 148v 12h 12v -6a 6 6, 0, 0, 0, -6 -6" transform="rotate(0,466,154)"/><path d="M 460 160v 12h 12v -6a 6 6, 0, 0, 0, -6 -6" transform="rotate(90,466,166)"/><path d="M 460 244v 12h 6a 6 6, 0, 0, 0, 0 -12" transform="rotate(-90,466,250)"/><path d="M 460 256v 12h 12v -6a 6 6, 0, 0, 0, -6 -6" transform="rotate(90,466,262)"/><circle cx="466" cy="298" r="6" transform="rotate(0,466,298)"/><path d="M 460 328v 12h 6a 6 6, 0, 0, 0, 0 -12" transform="rotate(-90,466,334)"/><path d="M 460 340v 12h 12v -6a 6 6, 0, 0, 0, -6 -6" transform="rotate(90,466,346)"/><path d="M 460 412v 12h 6a 6 6, 0, 0, 0, 0 -12" transform="rotate(-90,466,418)"/><rect x="460" y="424" width="12" height="12" transform="rotate(0,466,430)"/><rect x="460" y="436" width="12" height="12" transform="rotate(0,466,442)"/><rect x="460" y="448" width="12" height="12" transform="rotate(0,466,454)"/><path d="M 460 460v 12h 12v -6a 6 6, 0, 0, 0, -6 -6" transform="rotate(90,466,466)"/><path clip-rule="evenodd" d="M 28 58v 24a 30 30, 0, 0, 0, 30 30h 24a 30 30, 0, 0, 0, 30 -30v -24a 30 30, 0, 0, 0, -30 -30h -24a 30 30, 0, 0, 0, -30 30M 58 40h 24a 18 18, 0, 0, 1, 18 18v 24a 18 18, 0, 0, 1, -18 18h -24a 18 18, 0, 0, 1, -18 -18v -24a 18 18, 0, 0, 1, 18 -18" transform="rotate(0,70,70)"/><circle cx="70" cy="70" r="18" transform="rotate(0,70,70)"/><path clip-rule="evenodd" d="M 388 58v 24a 30 30, 0, 0, 0, 30 30h 24a 30 30, 0, 0, 0, 30 -30v -24a 30 30, 0, 0, 0, -30 -30h -24a 30 30, 0, 0, 0, -30 30M 418 40h 24a 18 18, 0, 0, 1, 18 18v 24a 18 18, 0, 0, 1, -18 18h -24a 18 18, 0, 0, 1, -18 -18v -24a 18 18, 0, 0, 1, 18 -18" transform="rotate(90,430,70)"/><circle cx="430" cy="70" r="18" transform="rotate(90,430,70)"/><path clip-rule="evenodd" d="M 28 418v 24a 30 30, 0, 0, 0, 30 30h 24a 30 30, 0, 0, 0, 30 -30v -24a 30 30, 0, 0, 0, -30 -30h -24a 30 30, 0, 0, 0, -30 30M 58 400h 24a 18 18, 0, 0, 1, 18 18v 24a 18 18, 0, 0, 1, -18 18h -24a 18 18, 0, 0, 1, -18 -18v -24a 18 18, 0, 0, 1, 18 -18" transform="rotate(-90,70,430)"/><circle cx="70" cy="430" r="18" transform="rotate(-90,70,430)"/></clipPath></defs><rect x="0" y="0" height="500" width="500" clip-path="url('#clip-path-background-color')" fill="#fff"/><rect x="0" y="0" height="500" width="500" clip-path="url('#clip-path-dot-color')" fill="#000000"/></svg>