<?xml version="1.0" encoding="UTF-8" standalone="no"?>
<!-- Created with Inkscape (http://www.inkscape.org/) -->

<svg
   width="512"
   height="512"
   viewBox="0 0 512 512"
   version="1.1"
   id="svg1"
   xml:space="preserve"
   inkscape:version="1.3 (0e150ed6c4, 2023-07-21)"
   sodipodi:docname="icons.svg"
   xmlns:inkscape="http://www.inkscape.org/namespaces/inkscape"
   xmlns:sodipodi="http://sodipodi.sourceforge.net/DTD/sodipodi-0.dtd"
   xmlns="http://www.w3.org/2000/svg"
   xmlns:svg="http://www.w3.org/2000/svg"><sodipodi:namedview
     id="namedview1"
     pagecolor="#b3b3b3"
     bordercolor="#000000"
     borderopacity="0.25"
     inkscape:showpageshadow="2"
     inkscape:pageopacity="0.0"
     inkscape:pagecheckerboard="true"
     inkscape:deskcolor="#d1d1d1"
     inkscape:document-units="px"
     inkscape:zoom="0.19677735"
     inkscape:cx="12288"
     inkscape:cy="256.63523"
     inkscape:window-width="1920"
     inkscape:window-height="1009"
     inkscape:window-x="-8"
     inkscape:window-y="-8"
     inkscape:window-maximized="1"
     inkscape:current-layer="layer1"
     showgrid="true"
     borderlayer="true"
     showborder="true"><inkscape:page
       x="0"
       y="0"
       width="512"
       height="512"
       id="page2"
       margin="0"
       bleed="0"
       inkscape:export-filename="..\..\..\..\Local\WebDev\whale-ar\src\assets\whale-selector-button.svg"
       inkscape:export-xdpi="300"
       inkscape:export-ydpi="300" /><inkscape:page
       x="522"
       y="0"
       width="512"
       height="512"
       id="page3"
       inkscape:export-filename="..\..\..\..\Local\WebDev\whale-ar\src\assets\globe-button.svg"
       inkscape:export-xdpi="300"
       inkscape:export-ydpi="300" /><inkscape:page
       x="1044"
       y="0"
       width="512"
       height="512"
       id="page4"
       inkscape:export-filename="..\..\..\..\Local\WebDev\whale-ar\src\assets\chevron-left-button.svg"
       inkscape:export-xdpi="300"
       inkscape:export-ydpi="300" /><inkscape:grid
       id="grid6"
       units="px"
       originx="0"
       originy="0"
       spacingx="1"
       spacingy="1"
       empcolor="#0099e5"
       empopacity="0.30196078"
       color="#0099e5"
       opacity="0.14901961"
       empspacing="5"
       dotted="false"
       gridanglex="30"
       gridanglez="30"
       visible="true"
       enabled="false" /><inkscape:page
       x="1566"
       y="0"
       width="512"
       height="512"
       id="page5"
       inkscape:export-filename="..\..\..\..\Local\WebDev\whale-ar\src\assets\volume-up-icon.svg"
       inkscape:export-xdpi="300"
       inkscape:export-ydpi="300" /><inkscape:page
       x="2088"
       y="0"
       width="512"
       height="512"
       id="page6"
       inkscape:export-filename="..\..\..\..\Local\WebDev\whale-ar\src\assets\scan-icon.svg"
       inkscape:export-xdpi="300"
       inkscape:export-ydpi="300" /><inkscape:page
       x="2610"
       y="0"
       width="512"
       height="512"
       id="page1"
       inkscape:export-filename="..\public\assets\info-icon.svg"
       inkscape:export-xdpi="300"
       inkscape:export-ydpi="300" /><inkscape:page
       x="3132"
       y="0"
       width="512"
       height="512"
       id="page8"
       inkscape:export-filename="..\public\assets\close-icon.svg"
       inkscape:export-xdpi="300"
       inkscape:export-ydpi="300" /><inkscape:page
       x="3654"
       y="0"
       width="512"
       height="512"
       id="page7"
       inkscape:export-filename="..\public\assets\tts-icon-2.svg"
       inkscape:export-xdpi="300"
       inkscape:export-ydpi="300" /><inkscape:page
       x="4176"
       y="0"
       width="512"
       height="512"
       id="page9"
       inkscape:export-filename="..\public\assets\gps-button-2.svg"
       inkscape:export-xdpi="300"
       inkscape:export-ydpi="300" /><inkscape:page
       x="4698"
       y="0"
       width="512"
       height="512"
       id="page10" /><inkscape:page
       x="5220"
       y="0"
       width="512"
       height="512"
       id="page11"
       inkscape:export-filename="..\public\assets\ship-button-2.svg"
       inkscape:export-xdpi="300"
       inkscape:export-ydpi="300" /><inkscape:page
       x="5742"
       y="0"
       width="512"
       height="512"
       id="page12" /><inkscape:page
       x="6264"
       y="0"
       width="1264.1191"
       height="512"
       id="page13"
       margin="0"
       bleed="0"
       inkscape:export-filename="..\public\assets\gps-key.svg"
       inkscape:export-xdpi="300"
       inkscape:export-ydpi="300" /><inkscape:page
       x="7990.4072"
       y="0"
       width="1264.1191"
       height="512"
       id="page26"
       margin="0"
       bleed="0"
       inkscape:export-filename="..\public\assets\corridor-key.svg"
       inkscape:export-xdpi="300"
       inkscape:export-ydpi="300" /><inkscape:page
       x="9716.8145"
       y="0"
       width="1264.1191"
       height="512"
       id="page25"
       margin="0"
       bleed="0"
       inkscape:export-filename="..\public\assets\ship-key.svg"
       inkscape:export-xdpi="300"
       inkscape:export-ydpi="300" /><inkscape:page
       x="10990.934"
       y="0"
       width="512"
       height="512"
       id="page32" /><inkscape:page
       x="11512.934"
       y="0"
       width="512"
       height="512"
       id="page14"
       inkscape:export-filename="..\public\assets\play-button-1.svg"
       inkscape:export-xdpi="300"
       inkscape:export-ydpi="300" /><inkscape:page
       x="12034.934"
       y="0"
       width="512"
       height="512"
       id="page16" /></sodipodi:namedview><defs
     id="defs1"><inkscape:path-effect
       effect="bspline"
       id="path-effect11"
       is_visible="true"
       lpeversion="1.3"
       weight="33.333333"
       steps="2"
       helper_size="0"
       apply_no_weight="true"
       apply_with_weight="true"
       only_selected="false"
       uniform="false" /><inkscape:path-effect
       effect="bspline"
       id="path-effect24"
       is_visible="true"
       lpeversion="1.3"
       weight="33.333333"
       steps="2"
       helper_size="0"
       apply_no_weight="true"
       apply_with_weight="true"
       only_selected="false"
       uniform="false" /><inkscape:path-effect
       effect="bspline"
       id="path-effect23"
       is_visible="true"
       lpeversion="1.3"
       weight="33.333333"
       steps="2"
       helper_size="0"
       apply_no_weight="true"
       apply_with_weight="true"
       only_selected="false"
       uniform="false" /></defs><g
     inkscape:label="Layer 1"
     inkscape:groupmode="layer"
     id="layer1"><circle
       style="fill:#f9f9f9;stroke-width:6.441;stroke-linecap:round;stroke-linejoin:round;stroke-dashoffset:5.1584"
       id="path2"
       cx="256"
       cy="256"
       r="256" /><circle
       style="fill:#f9f9f9;stroke-width:6.441;stroke-linecap:round;stroke-linejoin:round;stroke-dashoffset:5.1584"
       id="path2-7"
       cx="778"
       cy="256"
       r="256" /><circle
       style="fill:#f9f9f9;stroke-width:6.441;stroke-linecap:round;stroke-linejoin:round;stroke-dashoffset:5.1584"
       id="path2-7-7"
       cx="1300"
       cy="256"
       r="256" /><path
       style="fill:#000000;fill-opacity:1;stroke-width:0.423624"
       d="m 335.23337,448.68182 c -4.90891,-1.48769 -11.05831,-4.99769 -19.65442,-11.21852 l -7.11539,-5.14931 -14.62614,0.13536 c -55.62978,0.51487 -89.2983,3.94634 -113.00399,11.51731 -5.94531,1.89876 -7.62143,1.99941 -8.0596,0.48397 -0.28291,-0.97843 2.24179,-3.23952 5.79548,-5.19041 7.25141,-3.98081 17.40477,-7.3243 34.11304,-11.2334 8.54432,-1.99904 16.51352,-3.99726 17.7093,-4.44048 l 2.17416,-0.80586 -2.56947,-0.14605 c -2.94305,-0.16729 -15.98653,1.02097 -22.13682,2.01664 -7.8737,1.2747 -15.15808,3.77391 -30.04285,10.30749 -8.5124,3.73643 -12.23707,4.88216 -16.80029,5.16779 -7.10766,0.44495 -11.29292,-1.35188 -16.53168,-7.0974 -4.19398,-4.59969 -7.65623,-10.72329 -12.92008,-22.85147 -9.31718,-21.4673 -12.47698,-34.80724 -11.45107,-48.34368 1.51199,-19.95023 10.52792,-32.71363 26.40216,-37.37622 7.31835,-2.14954 11.26443,-2.44395 32.6845,-2.4386 43.80848,0.011 73.28518,4.03699 121.19285,16.55313 28.47676,7.43971 38.21673,9.01879 47.75542,7.74226 6.05366,-0.81013 10.19179,-2.33104 16.91693,-6.21764 5.44791,-3.14846 6.16749,-3.44821 7.77704,-3.23986 1.02269,0.13238 2.58145,0.82081 3.68151,1.62595 4.55509,3.33388 5.5266,3.87856 7.25912,4.06973 3.56414,0.39331 5.72528,-1.76622 8.80176,-8.79521 3.14263,-7.18009 5.43509,-8.45836 12.13445,-6.76602 1.4132,0.35698 3.61009,0.65624 4.88194,0.66501 2.11143,0.0147 2.4294,-0.11827 3.65654,-1.52758 1.27844,-1.46816 1.34405,-1.70231 1.34405,-4.7966 0,-3.67303 0.24612,-4.38123 2.55137,-7.3411 1.8055,-2.31821 3.53488,-7.64843 4.84057,-14.91934 1.04826,-5.83731 0.93907,-18.64181 -0.21169,-24.82726 -4.00586,-21.53207 -15.69041,-37.09312 -30.80211,-41.0212 -0.92545,-0.24056 -3.68267,-0.75048 -6.12715,-1.13313 -10.26847,-1.60746 -19.96323,-6.73467 -26.861,-14.2058 -3.40381,-3.68676 -5.05691,-6.52658 -5.05691,-8.68709 0,-0.906 0.21346,-1.89244 0.47435,-2.19205 0.71585,-0.8221 2.69298,-0.65735 5.29444,0.44116 1.80508,0.76224 3.1895,0.9822 6.1014,0.96943 4.75433,-0.0208 7.15018,-0.81009 13.01348,-4.28688 6.71708,-3.98309 9.53595,-4.29574 19.03035,-2.11085 2.30246,0.52987 4.4691,0.83874 4.81474,0.68643 0.40109,-0.17677 0.71263,-1.06674 0.86107,-2.4598 1.24373,-11.67198 3.01658,-15.00659 13.23901,-24.90164 4.83496,-4.68011 6.74776,-7.88055 8.3422,-13.9578 2.33741,-8.90913 3.43763,-11.21798 5.34566,-11.21798 1.37286,0 2.02543,1.46497 3.36406,7.5519 2.27319,10.33665 2.88238,15.22424 2.8781,23.09156 -0.006,9.32063 -0.56611,11.77555 -5.23943,22.92582 -5.006,11.94401 -5.66082,14.44989 -5.65213,21.63003 0.0111,9.12064 1.9697,15.30525 10.89212,34.39272 5.39437,11.54005 7.38504,16.82096 9.54016,25.30821 2.73485,10.77023 3.88063,20.23168 3.86753,31.93633 -0.0194,17.21867 -2.97977,32.12061 -9.3834,47.23249 -16.46439,38.85421 -51.55286,62.62546 -98.83765,66.95913 -3.04229,0.27882 -5.59656,0.58172 -5.67614,0.67309 -0.0795,0.0913 2.19264,3.1803 5.04933,6.86429 2.8567,3.68397 5.3009,7.18728 5.43154,7.78508 0.68798,3.14798 -4.0016,4.11884 -10.45232,2.16392 z"
       id="path1"
       sodipodi:nodetypes="sscsssssscssssssssssssssssssssssssssssssssssssssssssssssssss" /><path
       style="fill:#000000;fill-opacity:1;stroke-width:0.397081"
       d="m 24.94869,308.3922 c -0.7063,-1.84063 0.58964,-7.97699 2.35978,-11.17353 3.87616,-6.99968 11.52061,-13.71519 21.02549,-18.47046 3.88703,-1.94467 8.07278,-3.35525 14.37882,-4.84563 8.17188,-1.93135 16.41534,-6.69483 18.43424,-10.6522 0.6753,-1.32368 0.8815,-2.77576 1.1641,-8.19676 0.7812,-14.98608 2.29189,-23.91468 6.18706,-36.5677 6.25259,-20.31086 16.97895,-38.96125 39.01149,-67.83103 9.97971,-13.07666 20.43263,-22.50173 37.19581,-33.53829 9.20818,-6.06251 15.96661,-9.82092 33.32787,-18.533872 8.51739,-4.27454 18.2165,-9.462118 21.55361,-11.527968 7.50437,-4.64561 15.80292,-10.84314 22.32381,-16.67187 2.72993,-2.44017 6.57167,-5.64144 8.53722,-7.11395 12.22104,-9.15552 28.46704,-16.65544 46.19407,-21.32539 6.41576,-1.69014 6.69597,-1.79369 9.30708,-3.43913 5.54324,-3.49318 10.40188,-4.09223 14.1865,-1.74913 0.76438,0.47322 2.60311,1.06796 4.08606,1.32161 3.06435,0.52414 4.14788,1.11788 5.66147,3.1023 3.75185,4.91893 -0.56079,18.18502 -11.2682,34.66182 -3.83889,5.90736 -5.30519,8.65497 -8.2081,15.380568 -6.37519,14.770462 -13.80784,26.574572 -25.00285,39.708072 -6.2019,7.27583 -16.43044,17.19371 -22.52348,21.83943 l -2.60395,1.9854 -0.88617,3.9708 c -1.18216,5.29706 -4.39064,15.9097 -6.20058,20.50953 -7.44662,18.92518 -18.54959,33.19547 -32.1105,41.27064 -3.68036,2.19155 -9.40329,4.73084 -10.66214,4.73084 -0.7282,0 -1.86121,-1.28629 -1.86121,-2.113 0,-0.36337 1.32935,-3.20828 2.95411,-6.32203 5.76078,-11.04008 12.6142,-26.36876 17.49884,-39.13858 1.02824,-2.6881 1.76511,-4.99184 1.6375,-5.11945 -0.3989,-0.3989 -7.1488,2.1832 -36.5839,13.99477 -25.35494,10.1743 -25.06537,10.04528 -29.07008,12.95155 -1.9198,1.3932 -4.23203,3.01167 -5.13833,3.59658 -3.03491,1.95872 -10.6183,5.40503 -15.08795,6.85682 -5.08001,1.65003 -7.13251,2.80247 -13.47314,7.5649 -13.55686,10.18253 -25.26522,23.80637 -33.59829,39.09495 -3.64657,6.69034 -3.60415,7.55832 0.50574,10.34928 3.6429,2.47385 7.76299,4.27695 12.73743,5.57437 6.06725,1.58243 11.62442,3.41615 14.0326,4.63041 9.6407,4.86104 15.90499,13.96443 18.2609,26.53707 0.61719,3.29375 0.59476,4.53284 -0.082,4.53166 -0.17065,-3.2e-4 -1.8291,-1.26581 -3.68545,-2.81224 -4.29118,-3.57475 -7.73991,-5.62087 -11.56383,-6.86078 -3.64043,-1.18042 -10.41955,-2.23826 -14.35771,-2.24046 -9.65095,-0.006 -18.28351,-3.31211 -23.99054,-9.18966 -1.13514,-1.16905 -2.41142,-2.56806 -2.83621,-3.10893 l -0.77234,-0.98338 -3.64328,3.84963 c -5.33783,5.64016 -9.81141,8.34425 -15.97282,9.65488 -1.59732,0.33978 -6.74596,0.78507 -11.44143,0.98955 -4.6955,0.20446 -9.34379,0.53853 -10.32961,0.74236 -5.06301,1.04689 -10.52354,4.0062 -14.89701,8.07344 -2.85761,2.6575 -4.24609,3.26241 -4.71049,2.05219 z m 289.65915,-5.95682 c 0.019,-0.46258 0.11317,-0.55667 0.23991,-0.2399 0.11472,0.28664 0.10063,0.62913 -0.0313,0.76107 -0.13195,0.13194 -0.22583,-0.10258 -0.20859,-0.52117 z m 15.77743,-3.21627 c 0.28665,-0.1147 0.62913,-0.10059 0.76104,0.0314 0.13196,0.13195 -0.10257,0.22581 -0.52111,0.20857 -0.46261,-0.019 -0.5567,-0.11314 -0.23993,-0.23991 z"
       id="path4" /><path
       style="fill:#000000;stroke-width:0.757219"
       d="m 767.34736,440.59563 c -0.27374,-0.27471 -4.02197,-0.809 -8.32941,-1.18731 -11.48573,-1.00877 -18.28336,-2.21307 -27.51931,-4.87549 -2.49882,-0.72032 -5.48454,-1.48106 -6.63499,-1.69052 -1.15036,-0.20946 -2.27794,-0.6823 -2.50563,-1.05076 -0.2277,-0.36846 -1.22564,-0.66991 -2.21767,-0.66991 -0.99204,0 -2.01428,-0.34075 -2.27165,-0.75722 -0.25739,-0.41647 -1.13402,-0.75722 -1.94803,-0.75722 -0.81401,0 -2.07175,-0.32424 -2.7949,-0.72053 -0.72313,-0.39631 -2.67783,-1.28363 -4.3437,-1.97183 -10.06542,-4.15822 -23.12994,-10.77399 -27.75543,-14.05511 -1.10545,-0.78419 -2.21168,-1.42579 -2.45822,-1.42579 -0.58761,0 -10.1194,-6.7712 -16.35533,-11.61858 -7.60362,-5.91048 -20.70502,-19.00307 -27.39672,-27.3782 -3.3276,-4.1647 -6.57062,-8.21727 -7.20676,-9.00571 -1.46794,-1.81942 -7.01018,-10.39036 -9.60025,-14.84669 -6.16315,-10.60389 -16.37382,-33.82107 -16.37382,-37.23108 0,-0.71375 -0.34076,-1.50832 -0.75722,-1.76572 -0.41648,-0.25738 -0.75722,-1.45001 -0.75722,-2.65026 0,-1.20026 -0.30475,-2.37064 -0.67723,-2.60083 -0.37248,-0.23021 -0.86157,-1.6985 -1.08686,-3.26287 -0.2253,-1.56438 -0.73982,-4.37768 -1.14338,-6.2518 -0.91122,-4.23165 -2.05085,-10.82114 -3.10278,-17.94052 -1.03686,-7.0175 -1.04207,-35.04394 -0.008,-42.11254 1.86468,-12.74426 3.15621,-19.91756 3.8077,-21.14842 0.38276,-0.72317 0.69595,-2.32162 0.69595,-3.55211 0,-1.23048 0.34074,-2.44783 0.7572,-2.70522 0.41648,-0.2574 0.75722,-1.30437 0.75722,-2.32663 0,-1.02224 0.3015,-2.45032 0.66998,-3.17349 0.36847,-0.72317 1.42492,-3.7001 2.34766,-6.61539 5.29193,-16.71932 19.29276,-41.56491 32.0026,-56.79144 5.98847,-7.17421 21.59892,-22.72885 26.62792,-26.53268 1.62999,-1.23291 4.52635,-3.43896 6.43635,-4.90235 12.77869,-9.790689 27.64449,-17.737351 48.14862,-25.738361 0.83294,-0.325018 4.58118,-1.505479 8.32941,-2.623261 3.74823,-1.117768 7.86146,-2.347045 9.14039,-2.731728 1.27902,-0.384682 3.34056,-0.699421 4.58118,-0.699421 1.24071,0 2.57947,-0.309338 2.97511,-0.687418 0.39565,-0.378072 2.4231,-0.875421 4.50546,-1.105207 2.08235,-0.229785 7.19357,-0.844406 11.35828,-1.365833 16.8432,-2.108773 42.96681,-0.775651 60.19892,3.072029 9.73815,2.174363 16.14437,3.958497 16.99958,4.734369 0.39564,0.358922 1.33732,0.652595 2.09264,0.652595 0.75533,0 1.96499,0.314285 2.68813,0.698428 0.72315,0.384132 4.2112,1.817472 7.7512,3.185194 7.25469,2.802927 21.91385,10.046853 25.50254,12.602229 1.30339,0.92808 2.59658,1.687416 2.87387,1.687416 0.67203,0 14.75245,9.797829 16.67813,11.605509 0.83294,0.78188 2.70705,2.31315 4.16471,3.40281 4.49325,3.35895 16.53834,15.34352 21.82653,21.7168 2.76446,3.33177 5.24147,6.22814 5.50453,6.43637 0.68384,0.54146 11.70494,16.81208 12.30981,18.17326 0.27768,0.6247 1.22708,2.32844 2.10991,3.7861 1.73759,2.86898 8.06815,15.39199 9.95234,19.6877 1.8196,4.14834 6.323,16.67917 7.34768,20.4449 0.50999,1.87413 1.23245,4.19021 1.60561,5.14686 0.37307,0.95666 0.67831,2.67744 0.67831,3.82396 0,1.14653 0.30585,2.4083 0.67968,2.80395 0.37384,0.39565 0.85854,2.08234 1.07722,3.74823 0.21868,1.66588 1.09517,8.14011 1.94787,14.38717 2.48209,18.18573 1.7519,37.18909 -2.2257,57.92726 -0.43933,2.29059 -0.98786,5.44465 -1.21889,7.00902 -0.2311,1.56437 -0.72489,3.03266 -1.09736,3.26287 -0.37248,0.2302 -0.67726,1.13521 -0.67726,2.01114 0,1.44001 -4.32061,15.1477 -6.09304,19.33087 -0.39708,0.93706 -1.04276,2.47043 -1.43492,3.40748 -3.4792,8.31402 -10.43189,21.57307 -14.98921,28.58503 -2.3776,3.65813 -10.52807,14.87205 -11.55766,15.9016 -0.20824,0.20824 -2.06843,2.4231 -4.13374,4.92192 -10.93303,13.22759 -29.85223,29.13736 -45.84273,38.55049 -6.05124,3.56222 -23.89496,12.04987 -29.53154,14.04718 -1.45765,0.51651 -3.33177,1.20663 -4.1647,1.53361 -0.83295,0.32697 -3.04781,1.01291 -4.92193,1.52433 -1.87413,0.51141 -4.08899,1.19624 -4.92192,1.52184 -2.53139,0.98955 -15.61379,4.0024 -20.44492,4.7084 -13.13662,1.91977 -39.58227,3.53821 -40.63034,2.48653 z m 65.02771,-26.20417 c 1.5744,-0.87219 3.1863,-1.89444 3.58194,-2.27166 0.39565,-0.37722 1.18506,-0.68586 1.75425,-0.68586 1.25638,0 6.23441,-3.69947 6.23441,-4.63319 0,-1.38065 -2.88545,-0.57936 -7.14057,1.98293 -2.42068,1.45764 -4.52771,2.65026 -4.68234,2.65026 -0.60729,0 -4.07868,3.33861 -4.07868,3.92265 0,1.00818 1.28621,0.72156 4.33099,-0.96513 z m -2.00959,-9.79914 c 1.66588,-0.89152 1.98248,-3.00223 0.4504,-3.00223 -0.55785,0 -1.40245,0.85187 -1.87684,1.89305 -0.95402,2.09384 -0.7336,2.26522 1.42644,1.10918 z m 25.39789,-4.16396 c 0.64553,-0.97221 0.75094,-1.89123 0.30046,-2.62007 -0.57207,-0.92559 -1.16475,-0.66615 -3.37711,1.47813 -1.47583,1.43042 -2.68328,3.20848 -2.68328,3.95127 0,1.29178 0.10356,1.29262 2.3828,0.0193 1.3106,-0.73215 2.83027,-2.00504 3.37713,-2.82864 z m -15.65755,-5.04737 c 1.48718,-0.49971 3.72628,-1.62594 4.97569,-2.50275 1.24941,-0.87681 3.89657,-2.53056 5.8826,-3.675 3.87326,-2.23191 9.02961,-8.15937 10.81491,-12.43222 0.60343,-1.44417 1.09713,-4.43506 1.09713,-6.64643 0,-3.64241 -0.22352,-4.17985 -2.37615,-5.71261 l -2.37607,-1.69194 0.46274,-6.49973 c 0.25449,-3.57485 0.68482,-7.60716 0.95629,-8.96069 0.34786,-1.73442 0.21224,-2.46096 -0.45949,-2.46096 -1.37344,0 -4.53475,3.90834 -4.53582,5.60767 -5.3e-4,0.79362 -0.87163,2.58448 -1.93575,3.97966 -2.28248,2.99247 -3.92429,2.59675 -5.86679,-1.41405 -1.16505,-2.40561 -1.14249,-2.56 0.64697,-4.42781 2.17844,-2.2738 2.38525,-3.74182 0.529,-3.7546 -0.72882,-0.006 -2.78642,-0.84458 -4.57246,-1.8657 l -3.24734,-1.85657 -0.66757,1.75577 c -0.58685,1.54369 -1.34126,1.81683 -6.24562,2.26125 -3.59558,0.32581 -6.48217,0.19029 -8.12193,-0.38132 -3.22447,-1.12404 -6.24698,0.32244 -12.03434,5.75917 -3.83811,3.60559 -6.41742,5.03669 -10.79945,5.99199 -1.07767,0.23492 -2.8666,1.14076 -3.9754,2.01299 -1.78196,1.40166 -2.02177,2.12914 -2.06472,6.26351 -0.0507,4.85379 -1.45454,12.86958 -2.42415,13.8392 -0.30585,0.30585 -0.5561,1.35119 -0.5561,2.32294 0,1.38237 0.41419,1.76685 1.90327,1.76685 1.04686,0 2.49503,-0.30754 3.21818,-0.68341 0.72321,-0.37588 2.6779,-1.05452 4.34378,-1.50809 1.66589,-0.45357 5.29918,-1.52896 8.07393,-2.38975 5.42866,-1.68407 4.40444,-1.75864 18.61805,1.35562 1.40479,0.30779 1.70375,0.88147 1.70375,3.26922 0,2.88975 0.98461,4.45519 1.8854,2.99764 0.26162,-0.42326 0.98961,-0.76956 1.61779,-0.76956 1.31885,0 0.95879,1.78867 -1.23782,6.14837 -1.2766,2.53372 -1.28766,2.83421 -0.14653,3.9754 1.46916,1.46912 3.26044,1.55356 6.91402,0.32594 z m -166.631,-29.85214 c 1.39768,-0.97898 1.67256,-1.71106 1.35051,-3.5968 -1.15438,-6.75971 -1.98005,-10.3598 -2.67269,-11.65404 -0.42283,-0.78998 -0.78598,-6.56508 -0.80704,-12.83354 -0.031,-9.2237 0.17764,-11.57637 1.09373,-12.33668 1.69125,-1.40361 1.39192,-6.78277 -0.6372,-11.4502 -3.25786,-7.49399 -3.86129,-10.85265 -2.81345,-15.66106 1.01271,-4.64702 2.3442,-7.21923 9.48273,-18.31872 6.07767,-9.44998 7.9546,-13.36307 8.17199,-17.03742 l 0.17931,-3.02888 -3.7861,0.19021 c -2.08235,0.10456 -4.74027,0.57898 -5.90646,1.05414 -3.27679,1.33508 -5.53625,-0.33734 -8.28549,-6.13285 -1.29288,-2.72544 -2.93293,-5.80723 -3.6445,-6.8484 -2.23236,-3.26619 -6.77318,-12.19229 -6.77318,-13.31423 0,-0.59012 -0.34074,-1.07294 -0.7572,-1.07294 -0.41648,0 -0.75722,-0.61334 -0.75722,-1.36299 0,-0.74965 -0.27079,-1.6867 -0.60169,-2.08235 -0.33098,-0.39565 -1.21905,-2.76385 -1.97355,-5.26267 -0.75442,-2.49883 -1.67633,-5.32604 -2.0485,-6.2827 -0.91002,-2.33872 -0.85989,-6.21142 0.0804,-6.21142 0.41647,0 0.75722,0.38049 0.75722,0.84553 0,0.4811 0.6727,0.66962 1.5607,0.43739 0.86937,-0.22734 1.66845,-0.0148 1.80377,0.4796 2.01375,7.35639 2.93067,9.75254 7.42203,19.39505 3.41613,7.33397 5.87231,14.51787 5.87231,17.1753 0,4.20406 1.50112,4.55162 8.13391,1.88327 3.23105,-1.29983 6.67231,-2.3615 7.64731,-2.35925 0.97498,0.002 3.166,-1.18855 4.86891,-2.6462 1.70291,-1.45764 3.42748,-2.65027 3.83237,-2.65027 1.72131,0 14.13568,-10.15715 14.13568,-11.56551 0,-0.42435 -1.53337,-2.41084 -3.40748,-4.41443 -1.87412,-2.00358 -3.40749,-3.99823 -3.40749,-4.43253 0,-1.23725 -2.00443,-0.93029 -4.71437,0.72194 -3.5983,2.19389 -5.0315,1.93672 -6.31415,-1.13299 -0.73866,-1.76789 -1.60817,-2.65027 -2.61157,-2.65027 -0.95395,0 -1.5043,-0.50795 -1.5043,-1.38825 0,-0.76352 -0.23351,-1.62175 -0.51899,-1.90717 -1.25804,-1.25811 -2.28355,-5.7147 -1.49611,-6.50214 1.65831,-1.65824 3.51948,-0.67566 6.72532,3.5505 2.69781,3.55649 3.7655,4.39879 5.82892,4.59847 1.38942,0.13445 2.89174,-0.12111 3.3385,-0.56792 1.38745,-1.38741 2.69502,-0.90372 3.91035,1.44647 1.9244,3.72126 5.01794,4.81169 13.8366,4.8771 7.76376,0.0576 7.77331,0.0599 8.89731,2.22654 0.61881,1.1929 1.12516,2.58874 1.12516,3.10185 0,3.17456 4.4654,8.60865 7.58719,9.23299 1.63113,0.32623 2.55266,1.24658 3.70688,3.70214 1.76372,3.75218 3.8488,13.04047 3.84971,17.14943 3e-4,1.53718 0.34135,3.00548 0.75782,3.26287 0.41647,0.25739 0.76805,1.38493 0.7813,2.50565 0.0257,2.19803 1.5364,4.68793 2.84381,4.68793 1.04739,0 5.46152,-5.34982 5.46152,-6.61916 0,-0.53547 0.28524,-1.56526 0.63387,-2.28843 3.42021,-7.094 4.56633,-8.83588 6.52753,-9.92036 1.2317,-0.68109 2.82367,-1.74948 3.53773,-2.37419 1.30477,-1.14158 7.5394,-4.37919 11.48512,-5.96419 1.16491,-0.46793 4.30245,-0.85078 6.9724,-0.85078 h 4.85438 l 2.11423,3.5968 c 1.64195,2.79328 2.11431,4.55482 2.11431,7.88531 0,4.96338 0.3487,5.49395 3.63382,5.52926 l 2.42393,0.026 0.16325,5.30054 c 0.41322,13.4175 3.31618,26.18411 6.75819,29.72085 0.8708,0.89474 3.30102,1.34004 3.30102,0.60486 0,-0.62511 -2.12143,-8.34267 -2.71599,-9.8808 -0.77191,-1.99673 -4.32274,-7.50336 -5.0455,-7.8246 -1.30045,-0.57797 -0.43685,-4.71485 1.47642,-7.07238 1.1244,-1.38548 2.12431,-2.63872 2.22206,-2.78498 0.0978,-0.14626 1.00513,0.53524 2.01647,1.51444 1.82498,1.76705 3.38666,4.40648 4.97379,8.40603 0.45449,1.1453 1.26903,2.08235 1.80999,2.08235 1.64559,0 9.94131,-4.5145 11.35367,-6.17861 2.08894,-2.46138 1.64475,-6.62717 -1.32514,-12.42649 -2.97375,-5.80681 -3.27201,-7.9022 -1.30029,-9.13358 1.99739,-1.24737 5.70443,-1.87996 6.81573,-1.16307 1.02171,0.65905 0.48803,3.1563 -0.67454,3.1563 -0.37194,0 -0.67619,0.85188 -0.67619,1.89305 0,3.31765 3.10141,1.97879 5.70072,-2.46096 1.35952,-2.32215 1.68526,-2.46096 5.77615,-2.46096 2.3844,0 4.54596,-0.34076 4.80334,-0.75722 0.25738,-0.41647 1.07858,-0.75722 1.82497,-0.75722 1.53761,0 8.0974,-3.31723 10.10123,-5.10814 0.72883,-0.65138 1.33074,-1.55746 1.33763,-2.01351 0.008,-0.45603 1.60069,-2.36252 3.54189,-4.23664 l 3.52932,-3.40748 -0.0829,-6.43637 c -0.0801,-6.21147 -0.16409,-6.50444 -2.40606,-8.38456 -1.27774,-1.0715 -2.32315,-2.29173 -2.32315,-2.71161 0,-0.80968 2.31065,-2.13232 5.07253,-2.90356 2.3062,-0.64397 1.45039,-2.37853 -1.93673,-3.92543 -3.41052,-1.55757 -5.40746,-3.21008 -5.40746,-4.47471 0,-1.11437 4.11753,-3.34558 6.17406,-3.34558 1.62211,0 1.63279,0.0413 0.66651,2.58298 -0.73095,1.92246 -0.72829,1.92388 2.72493,1.45057 3.94458,-0.54068 4.97265,0.32281 4.31267,3.62245 -0.31031,1.55166 -0.0318,2.2505 1.1496,2.88265 1.27372,0.6817 1.60038,1.69941 1.78439,5.55966 0.21642,4.54016 0.29941,4.71705 2.11832,4.51682 2.5728,-0.28322 4.6856,-3.07187 4.14495,-5.47075 -1.14046,-5.0603 -1.73025,-7.3052 -2.23805,-8.51871 -0.39602,-0.94638 -0.20225,-1.32514 0.67794,-1.32514 0.67787,0 2.31323,-1.53337 3.63428,-3.40748 2.44332,-3.46641 4.67022,-4.33074 6.48421,-2.51672 2.01368,2.01367 5.33439,-3.18486 8.54992,-13.38488 0.91912,-2.9153 2.20578,-6.3948 2.85941,-7.73222 l 1.18838,-2.43169 1.02414,2.43169 c 0.56329,1.33742 1.22124,4.64655 1.46211,7.3536 0.45487,5.11172 1.27637,7.5722 2.52813,7.5722 0.40178,0 0.73057,-0.66139 0.73057,-1.46976 0,-0.80835 0.34075,-1.68033 0.75721,-1.93773 1.94546,-1.20235 0.24133,-10.61428 -3.11723,-17.21646 -0.36787,-0.72317 -0.66886,-1.67222 -0.66886,-2.109 0,-0.43677 -0.5542,-1.63996 -1.23162,-2.67378 -0.9107,-1.38995 -1.4815,-1.67225 -2.19078,-1.08357 -1.20149,0.9971 -6.19709,-1.31197 -6.81233,-3.1488 -0.22913,-0.68386 -1.08675,-1.41864 -1.90584,-1.63285 -0.81916,-0.21421 -1.48938,-0.95629 -1.48938,-1.64907 0,-1.27272 3.53198,-6.84932 5.73056,-9.04789 2.30429,-2.30432 7.85305,-1.15227 11.82958,2.4561 2.79604,2.53723 4.39922,1.76813 4.39922,-2.11049 0,-1.67894 0.22111,-3.05264 0.49144,-3.05264 0.27024,0 1.63324,1.17574 3.02887,2.61274 2.39501,2.46608 2.53744,2.91461 2.53744,7.99063 0,5.37995 1.69375,15.11661 3.06038,17.59278 0.39913,0.72317 0.72572,1.77825 0.72572,2.34462 0,1.42513 2.24954,5.80575 2.9814,5.80575 0.6475,0 1.56191,-5.53011 1.56191,-9.44586 0,-1.33074 -0.71065,-4.58424 -1.57918,-7.23 -0.91267,-2.78 -1.57244,-6.74812 -1.56312,-9.401 0.0174,-4.91653 0.21906,-4.51951 -7.19102,-14.14294 -3.5353,-4.59135 -19.27266,-20.83811 -24.55509,-25.34998 -4.98735,-4.25981 -9.75185,-8.05972 -12.00041,-9.57077 -6.59228,-4.43017 -15.44296,-9.66798 -16.33662,-9.66798 -0.57686,0 -1.25942,-0.34075 -1.51679,-0.75722 -0.62554,-1.01218 -3.65381,-0.96524 -4.69181,0.0727 -0.60177,0.60175 -1.73631,-0.0405 -4.12685,-2.33649 -5.06042,-4.860188 -8.51999,-6.822857 -12.02645,-6.822857 -1.69428,0 -4.51219,-0.722552 -6.26205,-1.605674 -1.74993,-0.883123 -4.71498,-2.353901 -6.5891,-3.268402 -5.81188,-2.835967 -13.84234,-4.673221 -23.47378,-5.370461 -5.87966,-0.425633 -6.75531,-0.302411 -10.12335,1.424477 -2.98836,1.532217 -4.0222,1.737724 -5.45576,1.084531 -2.62922,-1.197951 -8.65191,1.513665 -8.65191,3.895344 0,0.446224 -0.34075,0.811305 -0.75722,0.811305 -1.17854,0 -0.89859,-1.119687 0.75722,-3.02888 0.83294,-0.960379 1.51444,-2.205159 1.51444,-2.766132 0,-1.463376 -3.23885,-1.257984 -4.96849,0.31506 -0.80735,0.734282 -2.89621,1.969692 -4.64191,2.745365 -2.43143,1.080355 -3.45398,2.110136 -4.3709,4.401579 -0.65824,1.645204 -1.44477,2.876871 -1.74788,2.737046 -0.30304,-0.139837 -2.17315,-1.027689 -4.15562,-1.973004 -3.08537,-1.471176 -3.84887,-1.579479 -5.30054,-0.751881 -0.93281,0.531788 -3.74044,0.988246 -6.23926,1.014342 -4.04294,0.0422 -7.23764,0.741802 -12.11551,2.653055 -3.90058,1.528308 -5.56524,1.505779 -6.06925,-0.08218 l -0.4931,-1.553572 -2.75787,1.627229 c -1.51694,0.894974 -3.21159,2.274905 -3.76611,3.066517 -0.60229,0.859895 -1.90532,1.439283 -3.23681,1.439283 -2.63156,0 -2.71834,-0.267583 -0.73147,-2.254476 1.47438,-1.474389 1.41501,-3.05008 -0.19309,-5.128406 -1.29386,-1.672109 -4.70294,-1.021574 -11.221,2.141194 -3.49987,1.698249 -8.23749,3.977696 -10.52808,5.065448 -5.02361,2.38561 -7.71031,4.32902 -6.98603,5.05331 0.5842,0.5842 -2.14649,3.10694 -10.29394,9.51009 -2.91453,2.29059 -6.05585,5.48244 -6.98064,7.09301 -2.53715,4.4184 -15.76456,17.85123 -18.06575,18.34626 -1.08403,0.23322 -2.71901,0.78584 -3.63328,1.22811 -0.91434,0.44226 -2.82322,0.61572 -4.24209,0.38547 -1.85754,-0.30143 -2.87955,-0.0661 -3.65086,0.84073 -1.94091,2.28177 -9.35991,11.88874 -10.13242,13.12056 -0.41647,0.66408 -2.37169,3.63806 -4.34492,6.60886 -4.73551,7.12955 -9.80221,16.75413 -9.37037,17.79977 0.18938,0.45865 0.37127,0.23759 0.40413,-0.49123 0.0326,-0.72882 0.57095,-1.32513 1.19565,-1.32513 0.62471,0 1.13848,-0.25556 1.14174,-0.56791 0.008,-0.68004 3.67387,-2.46096 5.06692,-2.46096 0.54173,0 0.98493,0.79116 0.98493,1.75816 0,0.96698 0.55057,3.3741 1.22351,5.34913 1.21572,3.56774 1.23283,3.58107 2.65027,2.0596 1.56289,-1.67751 1.85246,-3.51387 0.66953,-4.24497 -0.93796,-0.5797 -1.01438,-10.22246 -0.0811,-10.22246 1.2114,0 1.79528,2.52003 2.36859,10.22246 0.30992,4.16471 0.95901,8.57022 1.44242,9.79004 l 0.87882,2.21784 1.57207,-1.57199 c 1.11001,-1.11004 1.55911,-2.50162 1.5283,-4.73528 -0.0424,-3.08428 0.0545,-3.20895 3.88505,-4.99246 4.95185,-2.30554 6.37731,-2.37695 4.36666,-0.21873 -1.87593,2.01352 -2.7905,7.45946 -1.62006,9.64644 0.73541,1.37412 1.54434,1.60104 5.70739,1.60104 2.66783,0 5.06125,-0.34075 5.31862,-0.75723 1.11864,-1.81007 1.89305,-0.46204 1.89305,3.29552 0,4.80493 -1.76258,7.86695 -6.69321,11.62764 -4.06839,3.10309 -7.28445,3.24841 -11.59999,0.52412 -2.89939,-1.83029 -7.14474,-2.56474 -8.82441,-1.52666 -0.39345,0.24317 -1.28394,1.64024 -1.97876,3.1046 -1.47589,3.11009 -2.89091,3.35064 -5.20399,0.88463 -0.91715,-0.97783 -2.47057,-2.20188 -3.45201,-2.72012 -1.68414,-0.88927 -1.75531,-1.21506 -1.26494,-5.79366 0.48068,-4.48876 0.41594,-4.81479 -0.8658,-4.36149 -2.00337,0.7085 -5.74927,3.59088 -8.61496,6.62913 -2.61679,2.77429 -3.70757,5.47696 -5.22496,12.94593 -0.50772,2.49882 -1.37821,6.24705 -1.93447,8.32941 -0.55633,2.08236 -1.29015,6.00096 -1.63075,8.70802 -0.81721,6.49414 -0.79647,39.16635 0.0288,45.43315 0.611,4.64021 2.09576,8.35147 3.32502,8.31151 0.30274,-0.01 1.55283,-1.37284 2.77802,-3.02888 2.49813,-3.37665 3.39817,-3.64729 5.26593,-1.58346 0.71056,0.78514 2.2478,1.61871 3.41619,1.85238 2.48989,0.49797 3.52924,2.69944 4.15493,8.80033 0.29018,2.82924 1.18846,5.33263 2.85291,7.9508 3.56892,5.61368 7.42195,13.45067 7.43657,15.12589 0.008,0.80337 0.39352,2.67749 0.85899,4.1647 1.0149,3.24276 6.73849,15.08665 7.85774,16.26026 0.43585,0.45701 2.14845,2.53172 3.80571,4.61044 1.65732,2.07873 4.09299,4.97509 5.41267,6.43637 1.31968,1.46127 3.18449,3.6791 4.14411,4.92851 0.95955,1.24941 3.15715,3.80503 4.88353,5.67915 1.72631,1.87411 4.24134,4.68529 5.58888,6.24706 2.682,3.10838 4.73036,3.54837 7.49715,1.6104 z m -21.8628,-187.92187 c 0,-1.26142 5.26448,-10.24491 7.09484,-12.10682 2.00868,-2.04324 6.0682,-2.64437 6.21063,-0.91965 0.25291,3.0629 0.2854,3.10305 1.83892,2.27165 0.83293,-0.44577 1.51442,-1.25682 1.51442,-1.80233 0,-1.19048 2.41205,-3.4982 3.65639,-3.4982 0.52703,0 0.88693,1.2055 0.88693,2.97087 0,2.22913 0.66166,3.83775 2.65027,6.44291 1.45765,1.90963 2.65026,3.77066 2.65026,4.13562 0,0.36497 -0.8879,1.24535 -1.97308,1.95639 -1.51027,0.98956 -2.79792,1.17127 -5.48984,0.7747 -5.26827,-0.77613 -16.20593,-0.84144 -17.71461,-0.10578 -0.81431,0.39704 -1.32513,0.35103 -1.32513,-0.11934 z m 57.99004,-72.74523 c -0.22293,-0.36062 -1.35043,-0.47607 -2.50571,-0.25656 -1.97468,0.37523 -2.03239,0.31266 -0.96456,-1.0451 0.62471,-0.79432 1.47658,-1.79585 1.89306,-2.22563 0.79015,-0.81538 10.22344,-1.21172 10.22109,-0.42943 0,0.62539 -6.41258,4.61238 -7.41628,4.61238 -0.45228,0 -1.00475,-0.29505 -1.2276,-0.65566 z m 57.67518,-1.15564 c -1.86094,-1.41265 -1.7282,-1.6053 1.89305,-2.74721 1.77,-0.55814 3.64412,-1.33591 4.16471,-1.728349 1.74819,-1.317883 0.9678,0.246079 -1.44682,2.899559 -2.68246,2.94784 -2.76612,2.97643 -4.61094,1.576 z m 12.52418,-5.003669 c -0.44071,-1.685212 -2.45756,-2.002222 -3.85402,-0.605776 -0.70679,0.706735 -0.90866,0.464256 -0.90866,-1.091144 0,-1.099893 0.34075,-2.210387 0.75722,-2.467785 0.41646,-0.257398 0.75722,-1.129378 0.75722,-1.937737 0,-0.808369 0.3777,-1.469748 0.83929,-1.469748 0.51514,0 0.65743,0.724634 0.36847,1.876065 -0.38732,1.543017 -0.14569,1.957685 1.3608,2.335791 1.0074,0.252846 2.03442,1.027168 2.28226,1.720722 0.24791,0.693555 0.64923,1.68694 0.89192,2.20753 0.25927,0.556332 -0.0822,0.946521 -0.82862,0.946521 -0.69839,0 -1.44803,-0.681503 -1.66588,-1.514439 z M 880.75387,341.09996 c -0.26987,-2.03429 -0.1519,-4.58975 0.26215,-5.67881 1.22572,-3.22389 0.0598,-6.3731 -4.00675,-10.8226 -4.55255,-4.98121 -6.26803,-5.82443 -8.70446,-4.27849 -2.4992,1.58577 -3.78064,0.78208 -4.05528,-2.54342 -0.17,-2.05808 -0.62683,-2.94935 -1.60691,-3.13519 -2.1729,-0.412 -3.85264,0.48281 -2.96806,1.58114 0.41526,0.51566 0.99665,2.13019 1.29189,3.58784 0.31493,1.55459 1.60326,3.65171 3.11634,5.07263 2.83518,2.66249 3.20152,4.34316 1.38449,6.35097 -1.10372,1.21963 -0.9737,1.52599 1.70375,4.01454 2.92105,2.71494 5.99657,3.49909 7.56644,1.92922 1.04783,-1.04784 3.28307,1.09131 3.28307,3.14192 0,1.71363 1.57516,4.47895 2.55137,4.47895 0.36991,0 0.45184,-1.66441 0.18196,-3.6987 z m -189.63394,-9.55264 c -0.13532,-6.24706 -0.57777,-12.43559 -0.98317,-13.75228 -1.1612,-3.77166 -2.69608,-3.72749 -4.45253,0.12814 -0.84196,1.84825 -2.25909,4.03889 -3.14913,4.86808 -1.55358,1.44735 -1.57122,1.6374 -0.44213,4.75324 0.64689,1.78508 1.35481,4.50385 1.57312,6.04171 0.21839,1.53786 1.09433,4.37252 1.94658,6.29923 1.36723,3.09079 1.79703,3.4747 3.65146,3.26165 l 2.10189,-0.24148 z m 197.54878,3.7861 c 0,-0.41647 -0.86248,-0.86504 -1.9166,-0.99682 -1.36595,-0.17077 -1.9166,0.11562 -1.9166,0.99682 0,0.88119 0.55065,1.16758 1.9166,0.99682 1.05412,-0.13178 1.9166,-0.58035 1.9166,-0.99682 z m -51.538,-9.46524 c 0,-0.41648 -0.85187,-0.75722 -1.89305,-0.75722 -1.04118,0 -1.89305,0.34074 -1.89305,0.75722 0,0.41647 0.85187,0.75722 1.89305,0.75722 1.04118,0 1.89305,-0.34075 1.89305,-0.75722 z m -14.38716,-2.97732 c 0,-1.80501 -3.60316,-4.45401 -7.81632,-5.74656 -1.73986,-0.53375 -4.16123,-1.49778 -5.38073,-2.14229 -2.35411,-1.24409 -3.46178,-1.04776 -3.46178,0.61361 0,1.14703 4.71081,4.15862 6.66891,4.26339 0.70505,0.0377 2.98563,1.02911 5.06799,2.20308 4.61608,2.60239 4.92193,2.65264 4.92193,0.80877 z m 20.10159,-11.72065 c 1.23555,-0.90342 1.21503,-0.99705 -0.30508,-1.39457 -1.05489,-0.27586 -1.47674,-0.82439 -1.19619,-1.55545 0.23838,-0.62111 0.0667,-1.35604 -0.38186,-1.63316 -0.44843,-0.2771 -1.0823,0.21799 -1.40865,1.10024 -0.32637,0.88224 -1.41911,2.01574 -2.42834,2.5189 -1.19481,0.59568 -2.07356,1.92369 -2.51889,3.80674 -0.81862,3.46158 0.35665,5.40459 1.72382,2.84994 1.15665,-2.16118 3.07242,-2.05448 3.07242,0.1711 0,3.51731 1.14748,2.81734 1.6271,-0.99248 0.30168,-2.39661 1.00241,-4.27655 1.81567,-4.87126 z m 12.83744,7.883 c 0.26093,-0.42225 -0.30547,-0.75209 -1.28047,-0.74562 -1.4066,0.009 -1.5264,0.15507 -0.61259,0.74562 1.40897,0.91056 1.33029,0.91056 1.89306,0 z m -47.78235,-9.18997 c 2.19147,-3.09618 2.19245,-3.10272 0.81363,-5.47367 -0.75934,-1.30559 -3.45042,-4.86319 -5.98022,-7.90578 -2.52986,-3.04261 -5.55472,-6.79084 -6.72183,-8.32941 -2.22327,-2.9307 -6.16944,-5.35936 -7.13664,-4.39218 -0.31122,0.31123 0.19393,1.81962 1.12251,3.35197 2.25363,3.71896 5.76546,10.98646 7.58544,15.69761 2.1134,5.47078 5.27062,10.18639 6.80732,10.16751 0.7236,-0.009 2.30301,-1.41111 3.50979,-3.11605 z m 22.59488,1.04986 c 0.69475,-1.14529 2.27334,-3.14105 3.50798,-4.43501 1.23457,-1.29395 2.67162,-3.84956 3.19342,-5.67913 0.5218,-1.82958 1.60136,-4.06087 2.39902,-4.95842 1.37776,-1.55026 1.38586,-1.73023 0.16288,-3.59679 -1.53314,-2.33983 -2.38395,-2.41805 -4.89936,-0.45043 -1.04117,0.81442 -2.31898,1.48833 -2.83957,1.49759 -0.52059,0.009 -0.94652,0.3576 -0.94652,0.77407 0,0.41646 -0.66144,0.75722 -1.46977,0.75722 -0.80833,0 -1.68034,0.34075 -1.93772,0.75721 -0.25739,0.41647 -1.4285,0.75722 -2.60249,0.75722 -1.17399,0 -3.36274,0.5132 -4.864,1.14045 -2.88227,1.20429 -3.17616,1.84428 -3.76035,8.1892 -0.32219,3.49901 -0.23761,3.69181 2.03784,4.64544 7.77239,3.25734 10.3299,3.38531 12.01864,0.60138 z m 26.40485,-1.47756 c 0.51165,-0.95609 0.67211,-1.99442 0.35649,-2.3074 -0.65983,-0.6544 -4.21475,3.49582 -4.22044,4.9272 -0.008,1.40542 2.68654,-0.41986 3.86395,-2.6198 z m -8.0987,-1.44135 c 1.80462,-0.69249 0.64774,-1.81371 -1.87139,-1.81371 -2.25128,0 -3.02312,1.067 -1.28045,1.77016 1.36345,0.55019 1.81535,0.55643 3.15184,0.0435 z m -54.6806,-7.26568 c -0.70679,-0.70675 -0.90866,-0.50482 -0.90866,0.90866 0,1.41347 0.20187,1.6154 0.90866,0.90866 0.70672,-0.70674 0.70672,-1.11059 0,-1.81732 z m 62.00988,-5.90631 c 1.32529,0 2.6118,-3.26811 1.80219,-4.57814 -1.32119,-2.13768 -4.90043,0.84945 -4.90043,4.08972 0,1.79336 0.20188,2.10381 0.90867,1.39707 0.49976,-0.49975 1.48505,-0.90865 2.18957,-0.90865 z m -4.81781,-4.24359 c -0.25153,-0.25162 -0.90464,-0.27852 -1.45128,-0.0597 -0.6041,0.24173 -0.42465,0.42116 0.45743,0.45749 0.79827,0.0329 1.24548,-0.14609 0.99385,-0.39771 z m 3.23401,-5.44882 c 0,-1.40448 -1.35299,-3.18032 -2.4231,-3.18032 -0.73079,0 -0.81393,3.32558 -0.10101,4.0385 0.99717,0.99712 2.5241,0.47796 2.5241,-0.85818 z m 3.62663,-3.48255 c -0.53702,-0.58271 -1.0957,-0.94613 -1.24153,-0.8076 -0.44911,0.42665 0.68922,1.86705 1.47551,1.86705 0.40829,0 0.30304,-0.47676 -0.23398,-1.05945 z m -101.30789,-6.59503 c 0,-2.52241 -1.9063,-6.73269 -3.04834,-6.73269 -0.4058,0 -0.73776,1.75137 -0.73776,3.89193 0,2.82324 0.36157,4.15631 1.31673,4.85477 1.76235,1.28865 2.46937,0.71202 2.46937,-2.01401 z m 94.25031,2.39193 c 0.24443,-0.39557 -0.27237,-1.10286 -1.14847,-1.57175 -1.4619,-0.78236 -1.52376,-0.72317 -0.75177,0.71922 0.93993,1.75628 1.25448,1.8974 1.90024,0.85253 z m 5.70261,0.0162 c 0,-0.38672 -0.5355,-1.23859 -1.18997,-1.89304 -0.65439,-0.65446 -1.50626,-1.18992 -1.89305,-1.18992 -1.23358,0 -0.75562,-3.09996 0.81894,-5.31124 1.40547,-1.97371 1.42774,-2.2319 0.29077,-3.36888 -1.50157,-1.50155 -2.86986,-1.16042 -3.17699,0.79207 -0.12555,0.79843 -0.61183,2.22347 -1.08055,3.16677 -0.83688,1.68426 -0.0462,3.36322 3.54682,7.53205 0.94099,1.09183 2.68403,1.26858 2.68403,0.27219 z m 1.21882,-27.01721 c 1.40548,-3.36386 1.08624,-3.7869 -1.38873,-1.84007 -2.556,2.01055 -3.24795,4.57219 -1.23503,4.57219 0.98665,0 1.8639,-0.91343 2.62376,-2.73212 z m 24.64196,-18.28072 c 0.0636,-0.72882 0.15553,-1.83625 0.20475,-2.46096 0.13501,-1.71487 5.51316,-1.34807 6.86003,0.46788 0.91805,1.23776 1.27197,1.29377 2.69161,0.42601 0.90972,-0.5561 3.18433,-0.90387 5.12948,-0.78425 l 3.49479,0.21491 0.99998,-4.51628 c 0.54997,-2.48396 1.34725,-5.6125 1.77167,-6.9523 0.54368,-1.71637 0.52104,-2.90438 -0.0768,-4.02142 -1.14128,-2.13249 -2.49261,-1.52691 -3.08794,1.38385 -0.61577,3.01096 -2.68123,6.20941 -4.00971,6.20941 -0.55898,0 -1.91091,0.70372 -3.00433,1.56383 -1.12062,0.88145 -2.89986,1.49244 -4.07756,1.40024 -4.44419,-0.34792 -6.14998,0.0583 -6.6327,1.57925 -0.26435,0.83294 -1.13924,1.51444 -1.94409,1.51444 -1.56162,0 -1.96801,1.11322 -0.69384,1.90068 0.42329,0.26158 0.57352,0.79282 0.33394,1.18051 -0.52552,0.85021 0.22277,2.21934 1.21284,2.21934 0.39186,0 0.7644,-0.59631 0.82786,-1.32514 z m 4.22286,-1.40401 c -0.25155,-0.25161 -0.90465,-0.27852 -1.45129,-0.0597 -0.60411,0.24173 -0.42465,0.42116 0.45744,0.45749 0.79826,0.0329 1.24547,-0.14608 0.99385,-0.3977 z m 21.93853,-22.08662 1.66709,-1.30829 -2.62384,-2.83957 c -2.82056,-3.05251 -4.87505,-3.67479 -4.87505,-1.47658 0,0.74965 -0.41896,1.78194 -0.931,2.29397 -0.73648,0.73648 -0.45963,1.3161 1.32514,2.77448 2.69592,2.20285 3.26497,2.26105 5.43766,0.55599 z M 642.7992,196.76239 c 0.48727,-1.2698 0.3624,-1.33245 -1.3477,-0.6762 -1.47937,0.56768 -1.57759,1.81203 -0.14296,1.81203 0.5801,0 1.25093,-0.51112 1.49066,-1.13583 z m 13.69477,-1.2005 c -0.24383,-0.39449 -0.76608,-0.51778 -1.16053,-0.27397 -0.39451,0.24381 -0.51777,0.76605 -0.27395,1.16054 0.24375,0.39448 0.766,0.51777 1.16051,0.27395 0.39451,-0.24379 0.51779,-0.76603 0.27397,-1.16052 z m -26.8413,-3.39834 c 0,-0.70515 -0.51522,-1.09143 -1.26244,-0.94652 -1.89963,0.36843 -2.1605,2.13787 -0.31516,2.13787 0.93018,0 1.5776,-0.48892 1.5776,-1.19135 z m 28.39571,-58.08536 c 4.76117,-3.88362 24.04693,-23.31803 23.59154,-23.77343 -1.36716,-1.36714 -20.13332,14.50211 -26.80972,22.67116 -3.42248,4.18764 -1.40964,4.87707 3.21818,1.10227 z m 81.40106,-41.433432 c 0,-0.416463 -0.34076,-0.75722 -0.75722,-0.75722 -0.41647,0 -0.75722,0.340757 -0.75722,0.75722 0,0.416474 0.34075,0.75722 0.75722,0.75722 0.41646,0 0.75722,-0.340746 0.75722,-0.75722 z m 16.65882,-5.632404 c 0,-0.990538 2.70653,-3.454237 3.79473,-3.454237 0.4117,0 0.74858,-0.340746 0.74858,-0.757216 0,-0.416463 -0.51112,-0.757209 -1.13583,-0.757209 -0.6247,0 -1.13582,0.340746 -1.13582,0.757209 0,0.41647 -0.48356,0.757216 -1.0745,0.757216 -3.17396,0 -6.90508,3.883549 -5.28637,5.502293 0.66272,0.662663 4.08921,-1.053496 4.08921,-2.048056 z"
       id="path3" /><circle
       style="fill:#f9f9f9;stroke-width:6.441;stroke-linecap:round;stroke-linejoin:round;stroke-dashoffset:5.1584"
       id="path2-7-1"
       cx="3910"
       cy="256"
       r="256" /><circle
       style="fill:#f9f9f9;stroke-width:6.42519685;stroke-linecap:round;stroke-linejoin:round;stroke-dashoffset:5.1584;stroke-dasharray:none"
       id="path2-7-1-9"
       cx="4432"
       cy="256"
       r="256" /><circle
       style="fill:#f9f9f9;stroke-width:6.4252;stroke-linecap:round;stroke-linejoin:round;stroke-dasharray:none;stroke-dashoffset:5.1584"
       id="path2-7-1-9-40"
       cx="11768.934"
       cy="256"
       r="256" /><path
       style="fill:#000000;stroke-width:0.990629"
       d="m 1365.4097,122.2352 c 7.0117,2.29584 12.0824,6.56286 15.4494,13.00094 2.6133,4.99672 2.461,15.11836 -0.3056,20.30791 -1.1618,2.17938 -22.2038,25.58301 -46.7599,52.00807 -24.5561,26.42505 -44.6476,48.26844 -44.6476,48.54086 0,0.27242 20.0915,22.11581 44.6476,48.54086 24.5561,26.42506 45.5981,49.82869 46.7599,52.00807 2.9161,5.47002 2.9213,15.31575 0.011,20.80323 -2.4625,4.64286 -6.3532,8.46395 -11.1987,10.99811 -5.0722,2.65267 -15.1021,2.46023 -20.5328,-0.39398 -5.0192,-2.63801 -110.2045,-115.27122 -113.5168,-121.55468 -2.8908,-5.48417 -2.8843,-15.34145 0.013,-20.80322 3.3288,-6.27354 108.5817,-118.97955 113.4133,-121.44446 4.4473,-2.26887 12.8012,-3.27722 16.6663,-2.01171 z"
       id="path5" /><path
       style="fill:#e6e6e6;stroke-width:0.538844"
       d="m 1932.8852,405.24695 c -6.5941,-6.69697 -11.9892,-12.38031 -11.9892,-12.62964 0,-0.24933 1.9193,-2.48102 4.2652,-4.9593 8.4957,-8.97511 17.6628,-21.17102 24.3439,-32.38684 34.2533,-57.50348 36.4574,-127.9932 5.8767,-187.95051 -6.7215,-13.17842 -16.7906,-28.24452 -25.1844,-37.68272 -0.8185,-0.92037 -3.2881,-3.68726 -5.488,-6.14864 l -3.9998,-4.47524 12.2408,-12.21866 12.2408,-12.21865 4.0219,4.31075 c 28.9812,31.06268 47.6003,65.68282 57.0897,106.15222 4.2024,17.9219 5.9159,35.28643 5.5033,55.77032 -0.4017,19.93695 -2.2055,33.45304 -6.9369,51.97953 -9.4841,37.13588 -29.8949,73.941 -55.4642,100.01396 l -4.5305,4.61972 z m -146.0733,-17.40398 c -1.9748,-1.85199 -13.4109,-13.09096 -25.4137,-24.97549 -12.0027,-11.88454 -28.3322,-28.00967 -36.2878,-35.83363 l -14.4646,-14.22539 -31.8759,-0.26942 -31.876,-0.26942 -3.0593,-1.50236 c -3.9908,-1.95978 -8.5666,-6.88251 -10.2314,-11.00712 l -1.2581,-3.11699 -0.1592,-37.98848 c -0.1706,-40.66939 -0.052,-42.97435 2.4463,-47.5647 1.8553,-3.40875 5.9161,-7.13426 9.7194,-8.91687 l 3.0812,-1.44413 31.5223,-0.15021 31.5224,-0.15021 39.3356,-39.28833 c 26.9781,-26.94576 39.8073,-39.40287 40.8372,-39.65291 3.5126,-0.85281 7.4237,1.2321 9.0567,4.82791 0.9691,2.13379 1.0035,6.54019 1.0149,129.93519 l 0.012,127.7265 -1.2124,2.39991 c -1.5174,3.00375 -4.166,4.83341 -6.9966,4.83341 -1.8611,0 -2.5643,-0.4145 -5.7129,-3.36726 z m 95.9292,-32.36269 -12.5216,-12.53018 1.9482,-1.86915 c 1.0715,-1.02803 3.4544,-3.68774 5.2955,-5.91047 14.2892,-17.25165 22.702,-35.64538 27.1098,-59.27281 1.39,-7.4508 1.3727,-31.89593 -0.028,-39.60502 -4.4796,-24.65391 -14.6583,-45.7921 -30.1645,-62.64281 -1.9783,-2.14987 -3.597,-4.10488 -3.597,-4.34447 0,-0.23958 5.4666,-5.85558 12.1478,-12.48 l 12.1478,-12.04439 2.4479,2.37892 c 2.7211,2.6444 10.6375,12.07871 13.9781,16.65827 11.2062,15.36239 20.4095,34.71689 25.0745,52.73179 12.0702,46.61141 2.581,95.16736 -26.1769,133.94682 -3.3755,4.5517 -11.6574,14.31952 -13.8341,16.31602 l -1.3058,1.19766 z m -49.2469,-49.82378 -12.1997,-12.24641 2.43,-2.93273 c 16.3138,-19.68816 15.9154,-50.57935 -0.8993,-69.73022 l -1.5529,-1.76865 12.2762,-12.26756 12.2763,-12.26755 3.8902,4.22048 c 15.6024,16.92706 23.8051,41.09474 21.701,63.93771 -1.1157,12.11307 -3.7873,21.80991 -8.7374,31.71336 -4.0191,8.04089 -10.673,17.57083 -15.4432,22.11845 l -1.5415,1.46954 z"
       id="path6" /><path
       style="fill:#f9f9f9;stroke-width:1.53625"
       d="m 2319.0754,473.46854 c -33.4705,-3.84921 -68.9687,-16.95303 -97.1912,-35.87717 -22.5997,-15.15381 -45.2923,-38.54459 -61.3833,-63.27184 -41.6692,-64.03369 -45.9349,-149.79017 -10.7945,-217.00792 12.3412,-23.60655 21.1802,-35.58104 40.5963,-54.99706 38.0668,-38.066784 79.2566,-57.460851 135.4507,-63.776416 34.3662,-3.862354 80.4788,4.721703 114.2787,21.273411 29.0027,14.202639 60.9394,40.555175 79.5433,65.635065 11.7223,15.80308 25.564,42.30133 31.6976,60.68198 8.381,25.11506 10.8006,41.2684 10.7006,71.43575 -0.1305,39.12631 -6.3962,65.19955 -23.8145,99.08829 -11.0953,21.5868 -20.8365,34.8776 -38.9526,53.14596 -31.5764,31.84191 -68.309,51.7539 -111.836,60.62413 -17.5881,3.58424 -50.7524,5.06328 -68.2951,3.04582 z m 45.185,-75.46926 c 53.6043,-7.44225 98.5283,-44.73218 115.5131,-95.88362 14.47,-43.57785 8.166,-88.62643 -17.7623,-126.93173 -28.7599,-42.48843 -83.7568,-67.71142 -133.4158,-61.18794 -67.6288,8.88407 -117.7272,58.98249 -126.6112,126.61119 -2.1858,16.63838 -1.0067,31.88409 3.9592,51.19201 6.6028,25.6733 15.9443,42.4948 34.8272,62.71433 31.5463,33.77949 77.3151,49.89651 123.4898,43.48576 z m -40.2154,-28.14212 c -30.2236,-5.8692 -57.8479,-23.5552 -74.4252,-47.6494 -19.9971,-29.06464 -25.6644,-69.75914 -14.3005,-102.6829 6.5164,-18.87891 12.9884,-29.05702 28.0626,-44.13113 22.2277,-22.22774 44.2614,-32.11548 74.5688,-33.46316 30.4725,-1.35503 58.0812,7.54932 80.2156,25.87104 17.5449,14.52279 32.8202,38.72547 38.2305,60.57393 4.0998,16.55581 3.5074,44.08668 -1.293,60.09551 -11.4109,38.05402 -42.1676,68.44981 -79.8423,78.90539 -14.7176,4.08446 -37.3205,5.17924 -51.2165,2.48072 z m -59.5298,-101.61914 c 1.3041,-0.40181 1.9203,-4.14887 1.9203,-11.6795 0,-6.09834 1.1155,-15.53621 2.4791,-20.97304 2.6912,-10.7307 2.3782,-11.52717 -5.3325,-13.57645 -4.5602,-1.212 -5.6316,0.47526 -8.6239,13.58292 -2.3545,10.31263 -3.2222,32.10904 -1.3529,33.9784 0.8903,0.89021 5.5378,0.32266 10.9099,-1.33233 z m 15.7466,-56.17924 c 3.8326,-6.23546 12.2485,-14.7172 20.4795,-20.63976 l 4.3488,-3.1292 -2.713,-5.68937 c -1.4922,-3.12915 -3.158,-5.68937 -3.7015,-5.68937 -2.6385,0 -16.0342,10.29588 -21.6688,16.65451 -7.5762,8.54972 -14.1987,18.63653 -13.0138,19.82141 1.7954,1.79549 7.9211,4.70648 10.1238,4.81096 1.2674,0.0601 4.0326,-2.70252 6.145,-6.13918 z"
       id="path7" /><path
       style="fill:#f9f9f9;stroke-width:2.00121"
       d="m 2826.1644,508.97421 c -108.8151,-16.65408 -196.955,-105.63441 -213.0305,-215.06168 -16.0763,-109.43236 38.9335,-215.761386 137.674,-266.111462 125.0671,-63.774697 279.5028,-13.017201 343.7854,112.989972 46.9314,91.99498 32.6468,205.61288 -35.6257,283.36267 -58.4904,66.60986 -145.2505,98.22039 -232.8032,84.8205 z m 75.2919,-39.77018 c 46.9562,-8.06564 82.7909,-26.7167 116.9529,-60.87116 26.4005,-26.39462 41.9939,-51.21162 52.8737,-84.14873 20.9576,-63.44628 11.6137,-131.63301 -25.912,-189.09327 -10.0922,-15.45332 -42.6345,-47.988351 -58.0912,-58.078228 -75.3813,-49.207492 -166.792,-49.207492 -242.1733,0 -15.4569,10.089877 -47.999,42.624908 -58.0912,58.078228 -49.2184,75.36453 -49.2184,166.75489 0,242.11943 10.0922,15.4533 42.6343,47.98833 58.0912,58.0782 47.4213,30.95573 103.1736,43.04958 156.3499,33.91553 z m -49.4272,-92.84031 -5.8504,-5.84905 v -71.15738 -71.1574 l 5.7996,-6.4893 c 4.7992,-5.37017 7.2506,-6.4893 14.2148,-6.4893 6.9639,0 9.4155,1.11913 14.2147,6.4893 l 5.7996,6.4893 v 71.1574 71.15738 l -5.8504,5.84905 c -4.5883,4.58726 -7.6437,5.84904 -14.1639,5.84904 -6.5203,0 -9.5757,-1.26178 -14.164,-5.84904 z m 2.6952,-189.21235 c -13.5908,-5.90697 -19.4258,-28.31503 -10.3703,-39.8247 16.0865,-20.44623 47.8707,-10.7834 47.8503,14.54713 0,11.68889 -5.8284,21.53895 -14.9829,25.36313 -8.5277,3.56232 -14.1534,3.54091 -22.4971,-0.0856 z"
       id="path8" /><path
       style="fill:#f9f9f9;stroke-width:2.00121"
       d="m 3348.1644,508.72179 c -108.8151,-16.65408 -196.955,-105.63441 -213.0305,-215.06168 -16.0763,-109.43236 38.9335,-215.761389 137.674,-266.111463 125.0671,-63.7747 279.5028,-13.0172 343.7854,112.989973 46.9314,91.99498 32.6468,205.61288 -35.6257,283.36267 -58.4904,66.60986 -145.2505,98.22039 -232.8032,84.8205 z m 75.2919,-39.77018 c 46.9562,-8.06564 82.7909,-26.7167 116.9529,-60.87116 26.4005,-26.39462 41.9939,-51.21162 52.8737,-84.14873 20.9576,-63.44628 11.6137,-131.63301 -25.912,-189.09327 -10.0922,-15.45332 -42.6345,-47.988354 -58.0912,-58.078231 -75.3813,-49.207492 -166.792,-49.207492 -242.1733,0 -15.4569,10.089877 -47.999,42.624911 -58.0912,58.078231 -49.2184,75.36453 -49.2184,166.75489 0,242.11943 10.0922,15.4533 42.6343,47.98833 58.0912,58.0782 47.4213,30.95573 103.1736,43.04958 156.3499,33.91553 z"
       id="path8-6"
       sodipodi:nodetypes="ssssssssssssssss" /><rect
       style="fill:#f9f9f9;stroke-width:7.6239;stroke-linecap:round;stroke-linejoin:round;stroke-dashoffset:5.1584"
       id="rect8"
       width="293.48294"
       height="42.53376"
       x="2068.1357"
       y="2555.4705"
       ry="21.26688"
       transform="rotate(-45)" /><rect
       style="fill:#f9f9f9;stroke-width:7.6239;stroke-linecap:round;stroke-linejoin:round;stroke-dashoffset:5.1584"
       id="rect8-7"
       width="293.48294"
       height="42.53376"
       x="2429.9958"
       y="-2236.144"
       ry="21.26688"
       transform="rotate(45)" /><path
       style="fill:#000000;stroke-width:1.28564"
       d="m 3827.5196,399.28215 c -6.7091,-3.1238 -12.6607,-9.44125 -20.3606,-21.61234 l -3.6562,-5.77891 -11.5129,-0.74589 c -14.7223,-0.95381 -23.3497,-4.88135 -30.4475,-13.86065 -8.7159,-11.02631 -8.3893,-7.10257 -8.3893,-100.81051 0,-67.39713 0.3524,-85.84754 1.7129,-89.69151 2.9168,-8.24139 10.8869,-17.0287 19.1055,-21.06432 l 7.4656,-3.66584 h 128.5637 c 128.0046,0 128.5891,0.0115 134.4144,2.70711 8.5535,3.95773 14.7823,9.9969 18.8462,18.27242 l 3.587,7.30448 v 86.13766 86.13767 l -3.587,7.30448 c -4.0639,8.27553 -10.2927,14.31468 -18.8462,18.27242 -5.7243,2.64857 -7.616,2.71551 -87.4887,3.09582 l -81.6379,0.3887 -3.857,6.58492 c -2.1212,3.62169 -7.0388,9.83732 -10.9279,13.81248 -10.5294,10.76266 -20.6196,12.96883 -32.9841,7.21181 z m 29.0972,-130.35624 c 1.7843,-1.31994 4.0712,-4.73967 5.0819,-7.59939 3.6444,-10.31021 -3.6744,-20.28031 -14.8871,-20.28031 -5.0439,0 -6.3569,0.61871 -10.1908,4.80227 -3.6283,3.95919 -4.4011,5.8039 -4.4011,10.50785 0,6.11498 4.2019,12.72444 9.5376,15.00227 3.7504,1.6011 11.014,0.41196 14.8595,-2.43269 z m 59.864,1.57918 c 5.6692,-2.69014 8.7334,-7.61331 8.7334,-14.03124 0,-6.51008 -3.0771,-11.34718 -9.0093,-14.16218 -8.2596,-3.91944 -16.9315,-0.10013 -20.4011,8.985 -2.0097,5.2621 -1.9899,5.82897 0.3938,11.21752 1.7138,3.87427 3.8944,6.35708 6.8713,7.82348 5.4764,2.69776 8.013,2.72942 13.4119,0.16742 z m 67.1227,-3.68269 c 4.8706,-5.27516 5.6449,-12.61172 1.985,-18.80746 -9.6365,-16.31328 -35.2183,-1.76084 -26.4858,15.0666 5.3246,10.26023 16.8559,12.02085 24.5008,3.74086 z"
       id="path9"
       sodipodi:nodetypes="sscssssscssscccssscsssssssssssssssssssss" /><path
       style="fill:#ffffff;stroke-width:1.28564;fill-opacity:1"
       d="m 11164.453,399.28214 c -6.71,-3.1238 -12.661,-9.44125 -20.361,-21.61234 l -3.656,-5.77891 -11.513,-0.74589 c -14.722,-0.95381 -23.35,-4.88135 -30.448,-13.86065 -8.716,-11.02631 -8.389,-7.10257 -8.389,-100.81051 0,-67.39713 0.352,-85.84754 1.713,-89.69151 2.917,-8.24139 10.887,-17.0287 19.105,-21.06432 l 7.466,-3.66584 h 128.564 c 128.004,0 128.589,0.0115 134.414,2.70711 8.554,3.95773 14.783,9.9969 18.846,18.27242 l 3.587,7.30448 v 86.13766 86.13767 l -3.587,7.30448 c -4.063,8.27553 -10.292,14.31468 -18.846,18.27242 -5.724,2.64857 -7.616,2.71551 -87.488,3.09582 l -81.638,0.3887 -3.857,6.58492 c -2.122,3.62169 -7.039,9.83732 -10.928,13.81248 -10.53,10.76266 -20.62,12.96883 -32.984,7.21181 z m 29.097,-130.35624 c 1.784,-1.31994 4.071,-4.73967 5.082,-7.59939 3.644,-10.31021 -3.675,-20.28031 -14.887,-20.28031 -5.044,0 -6.357,0.61871 -10.191,4.80227 -3.628,3.95919 -4.401,5.8039 -4.401,10.50785 0,6.11498 4.202,12.72444 9.537,15.00227 3.751,1.6011 11.014,0.41196 14.86,-2.43269 z m 59.864,1.57918 c 5.669,-2.69014 8.733,-7.61331 8.733,-14.03124 0,-6.51008 -3.077,-11.34718 -9.009,-14.16218 -8.26,-3.91944 -16.932,-0.10013 -20.401,8.985 -2.01,5.2621 -1.99,5.82897 0.394,11.21752 1.713,3.87427 3.894,6.35708 6.871,7.82348 5.476,2.69776 8.013,2.72942 13.412,0.16742 z m 67.123,-3.68269 c 4.87,-5.27516 5.644,-12.61172 1.984,-18.80746 -9.636,-16.31328 -35.218,-1.76084 -26.485,15.0666 5.324,10.26023 16.856,12.02085 24.501,3.74086 z"
       id="path9-7"
       sodipodi:nodetypes="sscssssscssscccssscsssssssssssssssssssss" /><path
       style="fill:#000000;stroke-width:0.650969"
       d="m 4392.2699,359.55016 c -37.0863,-62.96792 -44.0912,-75.46331 -51.303,-91.51541 -7.5192,-16.73608 -14.1355,-35.6401 -16.7266,-47.7909 -2.5079,-11.76058 -1.841,-27.50766 1.7824,-42.08503 10.9684,-44.12814 48.2503,-77.57592 93.6936,-84.058198 7.5292,-1.074001 24.3684,-1.074001 31.8976,0 45.4817,6.487748 82.7159,39.892768 93.6936,84.058198 3.6218,14.57133 4.2901,30.32544 1.7847,42.07337 -3.7535,17.60026 -14.712,42.94982 -28.284,65.42798 -4.5549,7.54382 -86.9085,139.95768 -87.2273,140.25022 -0.081,0.0743 -17.7709,-29.78786 -39.311,-66.36023 z m 53.463,-93.19932 c 13.7486,-2.39755 25.1254,-8.23268 34.8751,-17.88732 23.0672,-22.84251 25.7645,-58.52385 6.4043,-84.71985 -7.0864,-9.5884 -18.0142,-17.8678 -28.8424,-21.85228 -10.9581,-4.03229 -24.7866,-5.17496 -35.5242,-2.9354 -12.9406,2.69902 -24.3434,8.83824 -33.3979,17.98131 -8.1076,8.18696 -12.9799,16.47765 -16.4881,28.0567 -1.6395,5.41134 -1.7759,6.72864 -1.7851,17.25069 -0.01,9.679 0.2004,12.14803 1.3884,16.42008 5.0207,18.05562 16.6946,32.67187 32.8737,41.15921 12.6849,6.6544 26.7581,8.92259 40.4962,6.52686 z"
       id="path10" /><circle
       style="fill:#f9f9f9;stroke-width:6.4252;stroke-linecap:round;stroke-linejoin:round;stroke-dasharray:none;stroke-dashoffset:5.1584"
       id="path2-7-1-9-4"
       cx="5476"
       cy="256"
       r="256" /><ellipse
       style="fill:none;stroke:#ffffff;stroke-width:31.3759;stroke-linecap:butt;stroke-linejoin:round;stroke-dasharray:none;stroke-dashoffset:5.1584;stroke-opacity:1;paint-order:normal"
       id="path2-7-1-9-5"
       cx="4954.0225"
       cy="256"
       rx="240.30119"
       ry="240.26939" /><path
       style="fill:#ffffff;stroke-width:0.650969;fill-opacity:1"
       d="m 4914.2699,355.94734 c -37.0863,-62.96792 -44.0912,-75.46331 -51.303,-91.51541 -7.5192,-16.73608 -14.1355,-35.6401 -16.7266,-47.7909 -2.5079,-11.76058 -1.841,-27.50766 1.7824,-42.08503 10.9684,-44.12814 48.2503,-77.575924 93.6936,-84.058204 7.5292,-1.074 24.3684,-1.074 31.8976,0 45.4817,6.48775 82.7159,39.892774 93.6936,84.058204 3.6218,14.57133 4.2901,30.32544 1.7847,42.07337 -3.7535,17.60026 -14.712,42.94982 -28.284,65.42798 -4.5549,7.54382 -86.9085,139.95768 -87.2273,140.25022 -0.081,0.0743 -17.7709,-29.78786 -39.311,-66.36023 z m 53.463,-93.19932 c 13.7486,-2.39755 25.1254,-8.23268 34.8751,-17.88732 23.0672,-22.84251 25.7645,-58.52385 6.4043,-84.71985 -7.0864,-9.5884 -18.0142,-17.8678 -28.8424,-21.85228 -10.9581,-4.03229 -24.7866,-5.17496 -35.5242,-2.9354 -12.9406,2.69902 -24.3434,8.83824 -33.3979,17.98131 -8.1076,8.18696 -12.9799,16.47765 -16.4881,28.0567 -1.6395,5.41134 -1.7759,6.72864 -1.7851,17.25069 -0.01,9.679 0.2004,12.14803 1.3884,16.42008 5.0207,18.05562 16.6946,32.67187 32.8737,41.15921 12.6849,6.6544 26.7581,8.92259 40.4962,6.52686 z"
       id="path10-2" /><ellipse
       style="fill:none;stroke:#ffffff;stroke-width:31.3759;stroke-linecap:butt;stroke-linejoin:round;stroke-dasharray:none;stroke-dashoffset:5.1584;stroke-opacity:1;paint-order:normal"
       id="path2-7-1-9-5-3"
       cx="5997.9775"
       cy="256"
       rx="240.30119"
       ry="240.26939" /><path
       style="fill:#000000"
       d="m 5308.2307,410.10203 c -3.3483,-3.3484 0.4134,-8.8 6.0722,-8.8 3.2314,0 6.0337,-1.3183 13.5298,-6.3651 11.9132,-8.0206 23.6614,-7.5218 36.5655,1.5526 5.8221,4.0942 6.4889,4.3125 13.1723,4.3125 6.7371,0 7.3391,-0.2024 14,-4.7075 8.0007,-5.4113 14.3301,-7.2922 21.9074,-6.5101 5.8698,0.6058 9.4152,2.1423 17.3352,7.5128 4.1799,2.8343 6.4922,3.6694 11.0786,4.0011 6.1961,0.4482 7.5457,-0.07 18.997,-7.2977 10.2625,-6.4772 21.8947,-5.7559 33.8328,2.0981 7.9831,5.252 9.7466,5.8079 16.3963,5.169 3.5171,-0.338 6.5099,-1.5166 10.1957,-4.0154 7.8537,-5.3244 11.4126,-6.8634 17.2701,-7.4679 7.5642,-0.7807 13.9042,1.0972 21.8525,6.4726 6.0153,4.0681 7.6908,4.716 13,5.0266 5.5777,0.3263 6.5612,0.056 11.5946,-3.1889 8.7246,-5.624 13.8594,-7.77 19.8866,-8.3111 7.1964,-0.6461 12.6374,0.8599 19.2914,5.3398 7.7469,5.2156 10.321,6.3786 14.1174,6.3786 3.7506,0 6.7046,2.48 6.7046,5.6288 0,3.1363 -2.043,4.3712 -7.2321,4.3712 -5.7228,0 -9.1142,-1.3084 -17.5436,-6.7681 -9.7756,-6.3316 -17.4808,-6.5284 -25.2506,-0.6449 -6.7073,5.079 -12.9813,7.3927 -20.0744,7.4032 -8.193,0.012 -11.6576,-1.1362 -19.8993,-6.5953 -10.4468,-6.9198 -17.3635,-6.8573 -27.142,0.2452 -6.9367,5.0385 -10.9219,6.3625 -19.0758,6.3379 -8.0652,-0.024 -12.207,-1.4856 -20.627,-7.2775 -8.6662,-5.9613 -16.5325,-5.8317 -25.1551,0.4144 -7.2473,5.2499 -11.8038,6.8434 -19.5001,6.8193 -8.3101,-0.026 -12.6526,-1.4202 -19.1662,-6.1534 -9.9175,-7.2065 -17.2995,-7.3745 -26.9512,-0.6135 -7.558,5.2944 -12.1483,6.8376 -20.2583,6.8107 -7.3675,-0.024 -11.7616,-1.6317 -20.0534,-7.3355 -9.0344,-6.2145 -14.9824,-6.0898 -25.2012,0.5287 -3.5033,2.2691 -7.8177,4.7338 -9.5875,5.4772 -3.987,1.6746 -12.4678,1.766 -14.0822,0.1516 z m 196.279,-35.8832 c -5.3386,-0.6832 -10.7844,-3.1197 -16.4526,-7.361 -7.5914,-5.6803 -15.7847,-5.6313 -24.1815,0.1447 -8.42,5.7919 -12.5618,7.2532 -20.627,7.2775 -8.1824,0.025 -12.143,-1.2997 -19.3329,-6.4652 -9.4147,-6.7638 -17.7102,-6.7343 -27.027,0.096 -6.7797,4.9704 -10.9321,6.3914 -18.6766,6.3914 -8.4696,0 -11.9382,-1.1453 -19.9153,-6.5753 -9.8533,-6.7073 -17.3131,-6.7953 -26.266,-0.3098 -6.4968,4.7062 -11.9499,6.8387 -17.5501,6.8631 -5.5165,0.024 -7.45,-1.1754 -7.45,-4.6213 0,-2.8216 3.5188,-5.3517 7.4726,-5.3732 1.6651,-0.01 4.6746,-1.0215 6.6877,-2.25 2.0132,-1.2285 5.6752,-3.4842 8.1378,-5.0128 10.8083,-6.7089 22.2411,-6.0329 34.1583,2.0197 6.7818,4.5826 7.3103,4.7596 14.2183,4.7596 6.8105,0 7.4756,-0.2123 13.1052,-4.1824 8.0577,-5.6825 14.7116,-7.7602 22.3086,-6.9662 6.4847,0.6778 8.7872,1.6616 18.1915,7.773 5.9053,3.8375 6.5496,4.0242 12.7321,3.6896 5.7755,-0.3127 7.2045,-0.8382 12.6326,-4.6458 12.6965,-8.9061 25.884,-9.3631 37.0375,-1.2835 6.684,4.8418 9.9466,6.1153 15.6677,6.1153 4.6013,0 6.2817,-0.5609 10.7997,-3.6042 10.2158,-6.8815 12.6847,-7.7877 21.3504,-7.8364 8.6711,-0.049 10.5146,0.6115 20.3717,7.2972 4.9362,3.348 5.9495,3.6434 12.5,3.6434 6.8527,0 7.4007,-0.1841 14.172,-4.7596 11.9172,-8.0526 23.35,-8.7286 34.1583,-2.0197 2.4626,1.5286 6.1246,3.7843 8.1378,5.0128 2.0131,1.2285 5.278,2.241 7.2553,2.25 3.9873,0.018 6.9049,2.4363 6.9049,5.7227 0,7.1063 -13.5395,5.7106 -24.9769,-2.5746 -8.6465,-6.2635 -16.5039,-6.398 -25.1782,-0.4311 -8.1686,5.6189 -12.6298,7.2537 -19.8449,7.2719 -8.7735,0.022 -12.4556,-1.16 -19.8656,-6.3778 -8.5038,-5.9881 -13.9704,-6.8017 -21.3499,-3.1776 -2.9064,1.4274 -7.3401,3.9567 -9.8527,5.6206 -5.2087,3.4496 -12.0891,4.8216 -19.4528,3.8792 z m -154.812,-78.16678 c -13.5894,-34.2375 -24.6987,-63.1765 -24.6874,-64.30887 0.011,-1.13238 0.5829,-2.81992 1.2704,-3.75008 1.8513,-2.50464 145.1061,-62.74134 145.8575,-61.33109 0.3341,0.62702 1.1953,9.12754 1.9137,18.89004 0.7184,9.7625 1.6047,17.75 1.9695,17.75 0.3648,0 1.2565,-7.7625 1.9815,-17.25 0.725,-9.4875 1.5903,-17.98537 1.923,-18.88414 0.5175,-1.39804 2.772,-0.71666 15.6048,4.71616 8.25,3.49266 40.65,17.16398 72,30.38071 31.35,13.21673 57.5625,24.79297 58.25,25.72497 0.6875,0.93201 1.26,2.62105 1.2721,3.75343 0.012,1.13237 -11.0879,30.07137 -24.6668,64.30887 l -24.689,62.24998 h -3.63 c -2.6217,0 -5.5372,-1.2526 -10.4961,-4.5096 -15.3063,-10.0532 -28.774,-10.0532 -44.0803,0 -9.1847,6.0325 -12.9044,6.1064 -20.8537,0.414 -14.5033,-10.3856 -29.4027,-10.5979 -44.0933,-0.6283 -4.2302,2.8708 -7.3114,4.1815 -10.5,4.4668 -4.017,0.3593 -5.2724,-0.1 -11.4258,-4.1793 -15.2818,-10.131 -28.7799,-10.1534 -44.1272,-0.073 -4.9408,3.2451 -7.8782,4.5097 -10.4755,4.5097 h -3.6095 z m 105.5043,-82.40499 c 3.3221,-3.00644 1.7808,-8.41798 -2.7819,-9.76719 -3.0131,-0.89102 -6.6394,2.33389 -6.6394,5.90462 0,4.92832 5.6735,7.25433 9.4213,3.86257 z m 48.429,0.88967 c 2.3003,-1.53594 3.5115,-5.15734 2.412,-7.21177 -3.1556,-5.89632 -11.0123,-3.94853 -11.0123,2.73013 0,3.74932 5.4465,6.5875 8.6003,4.48164 z m -114.6003,-56.67798 v -35.4433 l 2.2226,-1.5567 c 1.7723,-1.24137 5.2665,-1.55655 17.25,-1.55596 l 15.0274,7.4e-4 -0.3263,-9.42388 c -0.4809,-13.890345 -0.8232,-13.577605 14.8615,-13.577605 h 12.9648 v -8.56575 c 0,-13.354352 -1.8499,-12.434252 25,-12.434252 26.85,0 25,-0.9201 25,12.434252 v 8.56575 h 12.9649 c 11.3284,0 13.0815,0.22088 13.8897,1.75 0.5088,0.9625 0.9888,6.001695 1.0668,11.198215 0.078,5.19651 0.3238,9.63032 0.5464,9.8529 0.2226,0.22258 6.7794,0.33675 14.5706,0.25371 11.3791,-0.12128 14.6377,0.15811 16.5638,1.42015 l 2.3978,1.57113 v 35.47695 c 0,19.51232 -0.18,35.47695 -0.4,35.47695 -0.2201,0 -19.1076,-7.875 -41.9723,-17.5 -23.3971,-9.84911 -42.9154,-17.5 -44.6446,-17.5 -1.7316,0 -21.1882,7.63734 -44.5822,17.5 -22.8304,9.625 -41.7103,17.5 -41.9553,17.5 -0.2451,0 -0.4456,-15.94949 -0.4456,-35.4433 z m 43.5,-14.5567 v -2.5 l -13.1043,-0.27801 c -10.7281,-0.2276 -13.3323,-0.003 -14.3618,1.23726 -0.6917,0.8334 -0.9915,2.20877 -0.6662,3.05636 0.5004,1.30418 2.7083,1.4983 14.3618,1.26274 l 13.7705,-0.27835 z m 57.2532,1.8468 c 0.7935,-0.79342 0.8449,-1.72937 0.1649,-3 -0.8829,-1.64955 -2.3694,-1.8468 -13.9181,-1.8468 -11.5486,0 -13.0352,0.19725 -13.918,1.8468 -1.839,3.43625 0.5636,4.1532 13.918,4.1532 8.1826,0 13.0043,-0.4043 13.7532,-1.1532 z m 57.8901,-0.35954 c 0.3193,-0.832 0.025,-2.182 -0.6538,-3 -1.8205,-2.19348 -26.7856,-2.18198 -27.6278,0.0127 -1.5384,4.00903 0,4.5 14.1383,4.5 11.1841,0 13.6646,-0.26532 14.1433,-1.51274 z"
       id="path12" /><path
       style="fill:#ffffff;fill-opacity:1"
       d="m 5830.2307,410.10203 c -3.3483,-3.3484 0.4134,-8.8 6.0722,-8.8 3.2314,0 6.0337,-1.3183 13.5298,-6.3651 11.9132,-8.0206 23.6614,-7.5218 36.5655,1.5526 5.8221,4.0942 6.4889,4.3125 13.1723,4.3125 6.7371,0 7.3391,-0.2024 14,-4.7075 8.0007,-5.4113 14.3301,-7.2922 21.9074,-6.5101 5.8698,0.6058 9.4152,2.1423 17.3352,7.5128 4.1799,2.8343 6.4922,3.6694 11.0786,4.0011 6.1961,0.4482 7.5457,-0.07 18.997,-7.2977 10.2625,-6.4772 21.8947,-5.7559 33.8328,2.0981 7.9831,5.252 9.7466,5.8079 16.3963,5.169 3.5171,-0.338 6.5099,-1.5166 10.1957,-4.0154 7.8537,-5.3244 11.4126,-6.8634 17.2701,-7.4679 7.5642,-0.7807 13.9042,1.0972 21.8525,6.4726 6.0153,4.0681 7.6908,4.716 13,5.0266 5.5777,0.3263 6.5612,0.056 11.5946,-3.1889 8.7246,-5.624 13.8594,-7.77 19.8866,-8.3111 7.1964,-0.6461 12.6374,0.8599 19.2914,5.3398 7.7469,5.2156 10.321,6.3786 14.1174,6.3786 3.7506,0 6.7046,2.48 6.7046,5.6288 0,3.1363 -2.043,4.3712 -7.2321,4.3712 -5.7228,0 -9.1142,-1.3084 -17.5436,-6.7681 -9.7756,-6.3316 -17.4808,-6.5284 -25.2506,-0.6449 -6.7073,5.079 -12.9813,7.3927 -20.0744,7.4032 -8.193,0.012 -11.6576,-1.1362 -19.8993,-6.5953 -10.4468,-6.9198 -17.3635,-6.8573 -27.142,0.2452 -6.9367,5.0385 -10.9219,6.3625 -19.0758,6.3379 -8.0652,-0.024 -12.207,-1.4856 -20.627,-7.2775 -8.6662,-5.9613 -16.5325,-5.8317 -25.1551,0.4144 -7.2473,5.2499 -11.8038,6.8434 -19.5001,6.8193 -8.3101,-0.026 -12.6526,-1.4202 -19.1662,-6.1534 -9.9175,-7.2065 -17.2995,-7.3745 -26.9512,-0.6135 -7.558,5.2944 -12.1483,6.8376 -20.2583,6.8107 -7.3675,-0.024 -11.7616,-1.6317 -20.0534,-7.3355 -9.0344,-6.2145 -14.9824,-6.0898 -25.2012,0.5287 -3.5033,2.2691 -7.8177,4.7338 -9.5875,5.4772 -3.987,1.6746 -12.4678,1.766 -14.0822,0.1516 z m 196.279,-35.8832 c -5.3386,-0.6832 -10.7844,-3.1197 -16.4526,-7.361 -7.5914,-5.6803 -15.7847,-5.6313 -24.1815,0.1447 -8.42,5.7919 -12.5618,7.2532 -20.627,7.2775 -8.1824,0.025 -12.143,-1.2997 -19.3329,-6.4652 -9.4147,-6.7638 -17.7102,-6.7343 -27.027,0.096 -6.7797,4.9704 -10.9321,6.3914 -18.6766,6.3914 -8.4696,0 -11.9382,-1.1453 -19.9153,-6.5753 -9.8533,-6.7073 -17.3131,-6.7953 -26.266,-0.3098 -6.4968,4.7062 -11.9499,6.8387 -17.5501,6.8631 -5.5165,0.024 -7.45,-1.1754 -7.45,-4.6213 0,-2.8216 3.5188,-5.3517 7.4726,-5.3732 1.6651,-0.01 4.6746,-1.0215 6.6877,-2.25 2.0132,-1.2285 5.6752,-3.4842 8.1378,-5.0128 10.8083,-6.7089 22.2411,-6.0329 34.1583,2.0197 6.7818,4.5826 7.3103,4.7596 14.2183,4.7596 6.8105,0 7.4756,-0.2123 13.1052,-4.1824 8.0577,-5.6825 14.7116,-7.7602 22.3086,-6.9662 6.4847,0.6778 8.7872,1.6616 18.1915,7.773 5.9053,3.8375 6.5496,4.0242 12.7321,3.6896 5.7755,-0.3127 7.2045,-0.8382 12.6326,-4.6458 12.6965,-8.9061 25.884,-9.3631 37.0375,-1.2835 6.684,4.8418 9.9466,6.1153 15.6677,6.1153 4.6013,0 6.2817,-0.5609 10.7997,-3.6042 10.2158,-6.8815 12.6847,-7.7877 21.3504,-7.8364 8.6711,-0.049 10.5146,0.6115 20.3717,7.2972 4.9362,3.348 5.9495,3.6434 12.5,3.6434 6.8527,0 7.4007,-0.1841 14.172,-4.7596 11.9172,-8.0526 23.35,-8.7286 34.1583,-2.0197 2.4626,1.5286 6.1246,3.7843 8.1378,5.0128 2.0131,1.2285 5.278,2.241 7.2553,2.25 3.9873,0.018 6.9049,2.4363 6.9049,5.7227 0,7.1063 -13.5395,5.7106 -24.9769,-2.5746 -8.6465,-6.2635 -16.5039,-6.398 -25.1782,-0.4311 -8.1686,5.6189 -12.6298,7.2537 -19.8449,7.2719 -8.7735,0.022 -12.4556,-1.16 -19.8656,-6.3778 -8.5038,-5.9881 -13.9704,-6.8017 -21.3499,-3.1776 -2.9064,1.4274 -7.3401,3.9567 -9.8527,5.6206 -5.2087,3.4496 -12.0891,4.8216 -19.4528,3.8792 z m -154.812,-78.16678 c -13.5894,-34.2375 -24.6987,-63.1765 -24.6874,-64.30887 0.011,-1.13238 0.5829,-2.81992 1.2704,-3.75008 1.8513,-2.50464 145.1061,-62.74134 145.8575,-61.33109 0.3341,0.62702 1.1953,9.12754 1.9137,18.89004 0.7184,9.7625 1.6047,17.75 1.9695,17.75 0.3648,0 1.2565,-7.7625 1.9815,-17.25 0.725,-9.4875 1.5903,-17.98537 1.923,-18.88414 0.5175,-1.39804 2.772,-0.71666 15.6048,4.71616 8.25,3.49266 40.65,17.16398 72,30.38071 31.35,13.21673 57.5625,24.79297 58.25,25.72497 0.6875,0.93201 1.26,2.62105 1.2721,3.75343 0.012,1.13237 -11.0879,30.07137 -24.6668,64.30887 l -24.689,62.24998 h -3.63 c -2.6217,0 -5.5372,-1.2526 -10.4961,-4.5096 -15.3063,-10.0532 -28.774,-10.0532 -44.0803,0 -9.1847,6.0325 -12.9044,6.1064 -20.8537,0.414 -14.5033,-10.3856 -29.4027,-10.5979 -44.0933,-0.6283 -4.2302,2.8708 -7.3114,4.1815 -10.5,4.4668 -4.017,0.3593 -5.2724,-0.1 -11.4258,-4.1793 -15.2818,-10.131 -28.7799,-10.1534 -44.1272,-0.073 -4.9408,3.2451 -7.8782,4.5097 -10.4755,4.5097 h -3.6095 z m 105.5043,-82.40499 c 3.3221,-3.00644 1.7808,-8.41798 -2.7819,-9.76719 -3.0131,-0.89102 -6.6394,2.33389 -6.6394,5.90462 0,4.92832 5.6735,7.25433 9.4213,3.86257 z m 48.429,0.88967 c 2.3003,-1.53594 3.5115,-5.15734 2.412,-7.21177 -3.1556,-5.89632 -11.0123,-3.94853 -11.0123,2.73013 0,3.74932 5.4465,6.5875 8.6003,4.48164 z m -114.6003,-56.67798 v -35.4433 l 2.2226,-1.5567 c 1.7723,-1.24137 5.2665,-1.55655 17.25,-1.55596 l 15.0274,7.4e-4 -0.3263,-9.42388 c -0.4809,-13.890345 -0.8232,-13.577605 14.8615,-13.577605 h 12.9648 v -8.56575 c 0,-13.35435 -1.8499,-12.43425 25,-12.43425 26.85,0 25,-0.9201 25,12.43425 v 8.56575 h 12.9649 c 11.3284,0 13.0815,0.22088 13.8897,1.75 0.5088,0.9625 0.9888,6.001695 1.0668,11.198215 0.078,5.19651 0.3238,9.63032 0.5464,9.8529 0.2226,0.22258 6.7794,0.33675 14.5706,0.25371 11.3791,-0.12128 14.6377,0.15811 16.5638,1.42015 l 2.3978,1.57113 v 35.47695 c 0,19.51232 -0.18,35.47695 -0.4,35.47695 -0.2201,0 -19.1076,-7.875 -41.9723,-17.5 -23.3971,-9.84911 -42.9154,-17.5 -44.6446,-17.5 -1.7316,0 -21.1882,7.63734 -44.5822,17.5 -22.8304,9.625 -41.7103,17.5 -41.9553,17.5 -0.2451,0 -0.4456,-15.94949 -0.4456,-35.4433 z m 43.5,-14.5567 v -2.5 l -13.1043,-0.27801 c -10.7281,-0.2276 -13.3323,-0.003 -14.3618,1.23726 -0.6917,0.8334 -0.9915,2.20877 -0.6662,3.05636 0.5004,1.30418 2.7083,1.4983 14.3618,1.26274 l 13.7705,-0.27835 z m 57.2532,1.8468 c 0.7935,-0.79342 0.8449,-1.72937 0.1649,-3 -0.8829,-1.64955 -2.3694,-1.8468 -13.9181,-1.8468 -11.5486,0 -13.0352,0.19725 -13.918,1.8468 -1.839,3.43625 0.5636,4.1532 13.918,4.1532 8.1826,0 13.0043,-0.4043 13.7532,-1.1532 z m 57.8901,-0.35954 c 0.3193,-0.832 0.025,-2.182 -0.6538,-3 -1.8205,-2.19348 -26.7856,-2.18198 -27.6278,0.0127 -1.5384,4.00903 0,4.5 14.1383,4.5 11.1841,0 13.6646,-0.26532 14.1433,-1.51274 z"
       id="path12-0" /><g
       id="text23"
       style="font-size:192px;line-height:1.1;font-family:WWF;-inkscape-font-specification:WWF;letter-spacing:-0.19px;fill:#f9f9f9;stroke:#ffffff;stroke-width:0.982677;stroke-linejoin:round"
       aria-label="SATELLITE&#10;TRACKS"><path
         d="m 6360.1638,226.09898 c 22.08,0 34.368,-14.976 34.368,-39.744 0,-24 -11.136,-33.792 -24.576,-43.776 -11.328,-8.448 -17.664,-14.4 -17.664,-25.92 0,-12.096 7.104,-16.32 13.824,-16.32 6.528,0 10.56,3.84 12.864,6.72 l 12.672,-12.095998 c -4.992,-7.872 -14.016,-12.288 -25.536,-12.288 -17.472,0 -33.024,10.368 -33.024,35.519998 0,20.928 10.944,30.144 24.192,40.128 10.56,7.872 17.856,14.4 17.856,29.76 0,15.168 -7.68,20.16 -15.168,20.16 -7.488,0 -12.288,-4.032 -16.128,-8.64 l -12.864,12.672 c 4.032,7.104 13.44,13.824 29.184,13.824 z m 60.6738,-2.496 4.992,-33.024 h 23.424 l 5.184,33.024 h 20.544 l -25.728,-138.239998 h -24 l -24,138.239998 z m 16.128,-109.44 9.216,58.56 h -17.856 z m 78.9137,109.44 v -120 h 26.112 V 85.362982 h -71.232 v 18.239998 h 26.112 v 120 z m 91.97,0 v -18.432 h -36.096 v -43.968 h 33.216 v -18.048 h -33.216 v -39.552 h 34.752 V 85.362982 h -53.76 V 223.60298 Z m 63.17,0 v -18.432 h -32.832 V 85.362982 h -19.008 V 223.60298 Z m 63.17,0 v -18.432 h -32.832 V 85.362982 h -19.008 V 223.60298 Z m 30.3379,0 V 85.362982 h -19.008 V 223.60298 Z m 55.8741,0 v -120 h 26.112 V 85.362982 h -71.232 v 18.239998 h 26.112 v 120 z m 91.9699,0 v -18.432 h -36.096 v -43.968 h 33.216 v -18.048 h -33.216 v -39.552 h 34.752 V 85.362982 h -53.76 V 223.60298 Z"
         id="path26" /><path
         d="m 6375.5238,434.80299 v -120 h 26.112 v -18.24 h -71.232 v 18.24 h 26.112 v 120 z m 55.8739,0 v -57.408 h 5.568 c 9.408,0 13.056,3.264 14.784,19.2 l 4.224,38.208 h 20.16 l -6.144,-41.472 c -2.496,-17.088 -4.416,-23.424 -14.208,-25.152 11.904,-2.112 17.664,-10.176 17.664,-25.344 v -17.088 c 0,-16.128 -7.872,-29.184 -32.448,-29.184 h -28.608 v 138.24 z m 0,-120.192 h 8.64 c 12.48,0 14.016,6.144 14.016,16.32 v 9.024 c 0,16.32 -2.688,19.776 -17.088,19.776 h -5.568 z m 70.466,120.192 4.992,-33.024 h 23.424 l 5.184,33.024 h 20.544 l -25.728,-138.24 h -24 l -24,138.24 z m 16.128,-109.44 9.216,58.56 h -17.856 z m 77.762,111.936 c 14.784,0 24,-7.488 28.032,-14.4 l -13.248,-12.096 c -3.648,4.8 -7.488,8.448 -14.784,8.448 -9.792,0 -12.288,-7.296 -12.288,-16.32 v -74.688 c 0,-9.024 2.496,-16.32 12.288,-16.32 7.104,0 11.136,4.224 14.208,8.256 l 13.632,-12.48 c -4.224,-7.488 -13.056,-13.824 -27.84,-13.824 -22.848,0 -32.448,13.824 -32.448,32.64 v 78.144 c 0,18.816 9.6,32.64 32.448,32.64 z m 55.4901,-2.496 v -64.32 l 24.192,64.32 h 22.08 l -27.84,-68.736 25.536,-69.504 h -19.584 l -24.384,66.816 v -66.816 h -19.008 v 138.24 z m 77.5698,2.496 c 22.08,0 34.368,-14.976 34.368,-39.744 0,-24 -11.136,-33.792 -24.576,-43.776 -11.328,-8.448 -17.664,-14.4 -17.664,-25.92 0,-12.096 7.104,-16.32 13.824,-16.32 6.528,0 10.56,3.84 12.864,6.72 l 12.672,-12.096 c -4.992,-7.872 -14.016,-12.288 -25.536,-12.288 -17.472,0 -33.024,10.368 -33.024,35.52 0,20.928 10.944,30.144 24.192,40.128 10.56,7.872 17.856,14.4 17.856,29.76 0,15.168 -7.68,20.16 -15.168,20.16 -7.488,0 -12.288,-4.032 -16.128,-8.64 l -12.864,12.672 c 4.032,7.104 13.44,13.824 29.184,13.824 z"
         id="path27" /></g><g
       id="text23-5"
       style="font-size:192px;line-height:1.1;font-family:WWF;-inkscape-font-specification:WWF;letter-spacing:-0.19px;fill:#f9f9f9;stroke:#ffffff;stroke-width:0.982677;stroke-linejoin:round"
       aria-label="MIGRATION&#10;CORRIDORS"><path
         d="M 8080.3224,219.616 V 110.944 l 21.312,108.672 h 17.28 l 21.312,-108.672 v 108.672 h 17.472 V 81.375997 h -27.264 L 8110.8504,181.792 8091.2664,81.375997 h -27.648 V 219.616 Z m 111.1701,0 V 81.375997 h -19.008 V 219.616 Z m 46.658,2.496 c 13.632,0 23.424,-5.184 28.224,-9.408 V 139.36 h -30.336 v 18.048 h 12.288 v 43.968 c -2.88,1.728 -6.528,2.688 -10.176,2.688 -9.792,0 -12.288,-7.296 -12.288,-16.32 v -74.688 c 0,-9.024 2.496,-16.320003 12.288,-16.320003 7.104,0 11.136,4.224003 14.208,8.256003 l 13.248,-12.480003 c -3.84,-7.488 -12.672,-13.824 -27.456,-13.824 -22.848,0 -32.448,13.824 -32.448,32.640003 v 78.144 c 0,18.816 9.6,32.64 32.448,32.64 z m 61.058,-2.496 v -57.408 h 5.568 c 9.408,0 13.056,3.264 14.784,19.2 l 4.224,38.208 h 20.16 l -6.144,-41.472 c -2.496,-17.088 -4.416,-23.424 -14.208,-25.152 11.904,-2.112 17.664,-10.176 17.664,-25.344 V 110.56 c 0,-16.128003 -7.872,-29.184003 -32.448,-29.184003 h -28.608 V 219.616 Z m 0,-120.192003 h 8.64 c 12.48,0 14.016,6.144003 14.016,16.320003 v 9.024 c 0,16.32 -2.688,19.776 -17.088,19.776 h -5.568 z m 70.4659,120.192003 4.992,-33.024 h 23.424 l 5.184,33.024 h 20.544 l -25.728,-138.240003 h -24 l -24,138.240003 z m 16.128,-109.44 9.216,58.56 h -17.856 z m 78.9138,109.44 V 99.615997 h 26.112 v -18.24 h -71.232 v 18.24 h 26.112 V 219.616 Z m 55.8739,0 V 81.375997 h -19.008 V 219.616 Z m 46.6581,2.496 c 22.656,0 32.256,-13.824 32.256,-32.64 v -78.144 c 0,-18.816003 -9.6,-32.640003 -32.256,-32.640003 -22.848,0 -32.448,13.824 -32.448,32.640003 v 78.144 c 0,18.816 9.6,32.64 32.448,32.64 z m 0,-18.048 c -9.792,0 -12.288,-7.296 -12.288,-16.32 v -74.688 c 0,-9.024 2.496,-16.320003 12.288,-16.320003 10.368,0 12.096,7.488003 12.096,16.320003 v 74.688 c 0,8.832 -1.728,16.32 -12.096,16.32 z m 63.17,15.552 v -87.552 l 25.152,87.552 h 20.352 V 81.375997 h -16.704 V 168.16 l -25.152,-86.784003 h -20.352 V 219.616 Z"
         id="path31" /><path
         d="m 8095.4904,433.312 c 14.784,0 24,-7.488 28.032,-14.4 l -13.248,-12.096 c -3.648,4.8 -7.488,8.448 -14.784,8.448 -9.792,0 -12.288,-7.296 -12.288,-16.32 v -74.688 c 0,-9.024 2.496,-16.32 12.288,-16.32 7.104,0 11.136,4.224 14.208,8.256 l 13.632,-12.48 c -4.224,-7.488 -13.056,-13.824 -27.84,-13.824 -22.848,0 -32.448,13.824 -32.448,32.64 v 78.144 c 0,18.816 9.6,32.64 32.448,32.64 z m 67.2019,0 c 22.656,0 32.256,-13.824 32.256,-32.64 v -78.144 c 0,-18.816 -9.6,-32.64 -32.256,-32.64 -22.848,0 -32.448,13.824 -32.448,32.64 v 78.144 c 0,18.816 9.6,32.64 32.448,32.64 z m 0,-18.048 c -9.792,0 -12.288,-7.296 -12.288,-16.32 v -74.688 c 0,-9.024 2.496,-16.32 12.288,-16.32 10.368,0 12.096,7.488 12.096,16.32 v 74.688 c 0,8.832 -1.728,16.32 -12.096,16.32 z m 65.4741,15.552 v -57.408 h 5.568 c 9.408,0 13.056,3.264 14.784,19.2 l 4.224,38.208 h 20.16 l -6.144,-41.472 c -2.496,-17.088 -4.416,-23.424 -14.208,-25.152 11.904,-2.112 17.664,-10.176 17.664,-25.344 V 321.76 c 0,-16.128 -7.872,-29.184 -32.448,-29.184 h -28.608 v 138.24 z m 0,-120.192 h 8.64 c 12.48,0 14.016,6.144 14.016,16.32 v 9.024 c 0,16.32 -2.688,19.776 -17.088,19.776 h -5.568 z m 74.498,120.192 v -57.408 h 5.568 c 9.408,0 13.056,3.264 14.784,19.2 l 4.224,38.208 h 20.16 l -6.144,-41.472 c -2.496,-17.088 -4.416,-23.424 -14.208,-25.152 11.904,-2.112 17.664,-10.176 17.664,-25.344 V 321.76 c 0,-16.128 -7.872,-29.184 -32.448,-29.184 h -28.608 v 138.24 z m 0,-120.192 h 8.64 c 12.48,0 14.016,6.144 14.016,16.32 v 9.024 c 0,16.32 -2.688,19.776 -17.088,19.776 h -5.568 z m 74.498,120.192 v -138.24 h -19.008 v 138.24 z m 45.314,0 c 24.576,0 32.448,-12.864 32.448,-28.992 V 321.76 c 0,-16.128 -7.872,-29.184 -32.448,-29.184 h -30.528 v 138.24 z m -11.52,-120.192 h 10.368 c 12.48,0 14.016,6.144 14.016,16.32 v 69.312 c 0,10.176 -1.536,16.32 -14.016,16.32 h -10.368 z m 90.05,122.688 c 22.656,0 32.256,-13.824 32.256,-32.64 v -78.144 c 0,-18.816 -9.6,-32.64 -32.256,-32.64 -22.848,0 -32.448,13.824 -32.448,32.64 v 78.144 c 0,18.816 9.6,32.64 32.448,32.64 z m 0,-18.048 c -9.792,0 -12.288,-7.296 -12.288,-16.32 v -74.688 c 0,-9.024 2.496,-16.32 12.288,-16.32 10.368,0 12.096,7.488 12.096,16.32 v 74.688 c 0,8.832 -1.728,16.32 -12.096,16.32 z m 65.4741,15.552 v -57.408 h 5.568 c 9.408,0 13.056,3.264 14.784,19.2 l 4.224,38.208 h 20.16 l -6.144,-41.472 c -2.496,-17.088 -4.416,-23.424 -14.208,-25.152 11.904,-2.112 17.664,-10.176 17.664,-25.344 V 321.76 c 0,-16.128 -7.872,-29.184 -32.448,-29.184 h -28.608 v 138.24 z m 0,-120.192 h 8.64 c 12.48,0 14.016,6.144 14.016,16.32 v 9.024 c 0,16.32 -2.688,19.776 -17.088,19.776 h -5.568 z m 80.0658,122.688 c 22.08,0 34.368,-14.976 34.368,-39.744 0,-24 -11.136,-33.792 -24.576,-43.776 -11.328,-8.448 -17.664,-14.4 -17.664,-25.92 0,-12.096 7.104,-16.32 13.824,-16.32 6.528,0 10.56,3.84 12.864,6.72 l 12.672,-12.096 c -4.992,-7.872 -14.016,-12.288 -25.536,-12.288 -17.472,0 -33.024,10.368 -33.024,35.52 0,20.928 10.944,30.144 24.192,40.128 10.56,7.872 17.856,14.4 17.856,29.76 0,15.168 -7.68,20.16 -15.168,20.16 -7.488,0 -12.288,-4.032 -16.128,-8.64 l -12.864,12.672 c 4.032,7.104 13.44,13.824 29.184,13.824 z"
         id="path32" /></g><path
       style="opacity:1;fill:none;fill-opacity:1;stroke:#83ddec;stroke-width:26.4567;stroke-linecap:butt;stroke-linejoin:round;stroke-dasharray:none;stroke-opacity:1;paint-order:normal"
       d="m 7107.8163,276.69457 c 219.1996,0 438.3991,0 657.5987,0"
       id="path23"
       inkscape:path-effect="#path-effect23"
       inkscape:original-d="m 7107.8163,276.69457 c 219.1996,0 438.3991,0 657.5987,0"
       transform="matrix(0.69398904,0,0,1,2066.0336,-7.4662203)" /><path
       style="opacity:1;fill:#525aff;fill-opacity:0.454936;stroke:none;stroke-width:26.4567;stroke-linecap:butt;stroke-linejoin:round;stroke-dasharray:none;stroke-opacity:1;paint-order:normal"
       d="m 9256.655,102.90819 c -46.5839,-12.281226 -126.2001,-18.210093 -195.6531,13.1289 -69.4531,31.33899 -128.7406,99.94309 -110.953,162.19672 17.7875,62.25363 112.6475,118.15327 224.8738,139.75117 112.2262,21.59789 241.8117,8.89343 304.4883,-20.75137 62.6765,-29.6448 58.4417,-76.22782 78.3462,-122.81225 19.9045,-46.58442 63.9466,-93.16743 63.9462,-130.43486 -4e-4,-37.26742 -44.0426,-65.217271 -99.944,-62.252503 -55.9014,2.964768 -123.6585,36.843323 -164.3137,44.465963 -40.6553,7.62265 -54.2067,-11.01055 -100.7907,-23.29177 z"
       id="path24"
       inkscape:path-effect="#path-effect24"
       inkscape:original-d="m 9289.6873,96.555831 c -79.6162,-5.928867 -159.2324,-11.857734 -238.8486,-17.786601 -59.2899,68.60683 -118.5774,137.21092 -177.866,205.81638 94.8637,55.90186 189.7237,111.80148 284.5856,167.70223 129.5906,-12.70497 259.1761,-25.40943 388.7642,-38.11415 -4.235,-46.58488 -8.4698,-93.1679 -12.7047,-139.75186 44.0439,-46.58488 88.086,-93.1679 132.129,-139.75186 -44.0438,-27.95093 -88.086,-55.90074 -132.129,-83.851112 -67.7598,33.879917 -135.5169,67.758482 -203.2754,101.637712 -13.552,-18.63395 -27.1034,-37.26716 -40.6551,-55.900739 z"
       transform="matrix(0.57908911,0,0,0.96853489,3576.8552,8.8678906)" /><ellipse
       style="fill:none;stroke:#ffffff;stroke-width:31.3759;stroke-linecap:butt;stroke-linejoin:round;stroke-dasharray:none;stroke-dashoffset:5.1584;stroke-opacity:1;paint-order:normal"
       id="path2-7-1-9-5-3-8"
       cx="11246.944"
       cy="256.04266"
       rx="240.30119"
       ry="240.26939" /><ellipse
       style="fill:none;stroke:#ffffff;stroke-width:31.3759;stroke-linecap:butt;stroke-linejoin:round;stroke-dasharray:none;stroke-dashoffset:5.1584;stroke-opacity:1;paint-order:normal"
       id="path2-7-1-9-5-3-8-5"
       cx="12290.944"
       cy="256.04266"
       rx="240.30119"
       ry="240.26939" /><path
       style="opacity:0.746244;fill:none;stroke:#141e4b;stroke-width:128;stroke-linecap:round;stroke-linejoin:round;stroke-dasharray:128, 128;stroke-dashoffset:0;stroke-opacity:1"
       d="m 10417.866,-175.32506 c 151.609,0 303.219,0 454.829,0"
       id="path11"
       inkscape:path-effect="#path-effect11"
       inkscape:original-d="m 10417.866,-175.32506 c 151.609,0 303.219,0 454.829,0"
       transform="translate(36.530096,431.32506)" /><g
       id="text11"
       style="font-size:192px;line-height:1.1;font-family:WWF;-inkscape-font-specification:WWF;letter-spacing:-0.19px;fill:#f9f9f9;stroke-width:50;stroke-linecap:round;stroke-linejoin:round;stroke-dasharray:50, 50"
       aria-label="SHIPPING&#10;ROUTES"><path
         d="m 9828.4601,222.112 c 22.08,0 34.368,-14.976 34.368,-39.744 0,-24 -11.136,-33.792 -24.576,-43.776 -11.328,-8.448 -17.664,-14.4 -17.664,-25.92 0,-12.096 7.104,-16.320003 13.824,-16.320003 6.528,0 10.56,3.840003 12.864,6.720003 l 12.672,-12.096003 c -4.992,-7.872 -14.016,-12.288 -25.536,-12.288 -17.472,0 -33.024,10.368 -33.024,35.520003 0,20.928 10.944,30.144 24.192,40.128 10.56,7.872 17.856,14.4 17.856,29.76 0,15.168 -7.68,20.16 -15.168,20.16 -7.488,0 -12.288,-4.032 -16.128,-8.64 l -12.864,12.672 c 4.032,7.104 13.44,13.824 29.184,13.824 z m 65.858,-2.496 V 157.6 h 24.192 v 62.016 h 19.008 V 81.375997 h -19.008 V 139.168 h -24.192 V 81.375997 h -19.008 V 219.616 Z m 76.9941,0 V 81.375997 h -19.008 V 219.616 Z m 33.7938,0 V 168.16 h 11.328 c 24.576,0 32.448,-12.864 32.448,-28.992 V 110.56 c 0,-16.128003 -7.872,-29.184003 -32.448,-29.184003 h -30.3358 V 219.616 Z m 0,-120.192003 h 10.368 c 12.48,0 14.016,6.144003 14.016,16.320003 v 18.24 c 0,10.176 -1.536,16.32 -14.016,16.32 h -10.368 z M 10080.948,219.616 V 168.16 h 11.328 c 24.576,0 32.448,-12.864 32.448,-28.992 V 110.56 c 0,-16.128003 -7.872,-29.184003 -32.448,-29.184003 h -30.336 V 219.616 Z m 0,-120.192003 h 10.368 c 12.48,0 14.016,6.144003 14.016,16.320003 v 18.24 c 0,10.176 -1.536,16.32 -14.016,16.32 h -10.368 z M 10156.79,219.616 V 81.375997 h -19.008 V 219.616 Z m 31.49,0 v -87.552 l 25.152,87.552 h 20.352 V 81.375997 h -16.704 V 168.16 l -25.152,-86.784003 h -20.352 V 219.616 Z m 92.162,2.496 c 13.632,0 23.424,-5.184 28.224,-9.408 V 139.36 h -30.336 v 18.048 h 12.288 v 43.968 c -2.88,1.728 -6.528,2.688 -10.176,2.688 -9.792,0 -12.288,-7.296 -12.288,-16.32 v -74.688 c 0,-9.024 2.496,-16.320003 12.288,-16.320003 7.104,0 11.136,4.224003 14.208,8.256003 l 13.248,-12.480003 c -3.84,-7.488 -12.672,-13.824 -27.456,-13.824 -22.848,0 -32.448,13.824 -32.448,32.640003 v 78.144 c 0,18.816 9.6,32.64 32.448,32.64 z"
         id="path13" /><path
         d="m 9821.7401,430.816 v -57.408 h 5.568 c 9.408,0 13.056,3.264 14.784,19.2 l 4.224,38.208 h 20.16 l -6.144,-41.472 c -2.496,-17.088 -4.416,-23.424 -14.208,-25.152 11.904,-2.112 17.664,-10.176 17.664,-25.344 V 321.76 c 0,-16.128 -7.872,-29.184 -32.448,-29.184 h -28.608 v 138.24 z m 0,-120.192 h 8.64 c 12.48,0 14.016,6.144 14.016,16.32 v 9.024 c 0,16.32 -2.688,19.776 -17.088,19.776 h -5.568 z m 87.362,122.688 c 22.656,0 32.256,-13.824 32.256,-32.64 v -78.144 c 0,-18.816 -9.6,-32.64 -32.256,-32.64 -22.848,0 -32.448,13.824 -32.448,32.64 v 78.144 c 0,18.816 9.6,32.64 32.448,32.64 z m 0,-18.048 c -9.792,0 -12.288,-7.296 -12.288,-16.32 v -74.688 c 0,-9.024 2.496,-16.32 12.288,-16.32 10.368,0 12.096,7.488 12.096,16.32 v 74.688 c 0,8.832 -1.728,16.32 -12.096,16.32 z m 78.1461,18.048 c 22.6558,0 31.6798,-13.824 31.6798,-32.64 V 292.576 h -19.0078 v 105.216 c 0,9.408 -1.728,17.472 -12.672,17.472 -10.368,0 -12.672,-7.872 -12.672,-17.472 V 292.576 h -19.008 v 108.096 c 0,18.816 8.832,32.64 31.68,32.64 z m 87.5538,-2.496 v -120 h 26.112 v -18.24 h -71.232 v 18.24 h 26.112 v 120 z m 91.97,0 v -18.432 h -36.096 v -43.968 h 33.216 v -18.048 h -33.216 v -39.552 h 34.752 v -18.24 h -53.76 v 138.24 z m 35.33,2.496 c 22.08,0 34.368,-14.976 34.368,-39.744 0,-24 -11.136,-33.792 -24.576,-43.776 -11.328,-8.448 -17.664,-14.4 -17.664,-25.92 0,-12.096 7.104,-16.32 13.824,-16.32 6.528,0 10.56,3.84 12.864,6.72 l 12.672,-12.096 c -4.992,-7.872 -14.016,-12.288 -25.536,-12.288 -17.472,0 -33.024,10.368 -33.024,35.52 0,20.928 10.944,30.144 24.192,40.128 10.56,7.872 17.856,14.4 17.856,29.76 0,15.168 -7.68,20.16 -15.168,20.16 -7.488,0 -12.288,-4.032 -16.128,-8.64 l -12.864,12.672 c 4.032,7.104 13.44,13.824 29.184,13.824 z"
         id="path14" /></g><path
       sodipodi:type="star"
       style="fill:#000000;fill-opacity:1;stroke:none;stroke-width:12.074;stroke-linecap:round;stroke-linejoin:round;stroke-dasharray:none;stroke-dashoffset:0;stroke-opacity:1"
       id="path16"
       inkscape:flatsided="true"
       sodipodi:sides="3"
       sodipodi:cx="11579.847"
       sodipodi:cy="-147.33087"
       sodipodi:r1="122.34845"
       sodipodi:r2="61.174225"
       sodipodi:arg1="0.52359878"
       sodipodi:arg2="1.5707963"
       inkscape:rounded="0"
       inkscape:randomized="0"
       d="m 11685.804,-86.156646 -211.914,-1e-6 105.957,-183.522673 z"
       inkscape:transform-center-y="2.6541117e-05"
       transform="matrix(0,1.4408844,-1.4408844,0,11533.289,-16429.22)"
       inkscape:transform-center-x="-44.072358" /><path
       sodipodi:type="star"
       style="fill:#f9f9f9;fill-opacity:1;stroke:none;stroke-width:12.074;stroke-linecap:round;stroke-linejoin:round;stroke-dasharray:none;stroke-dashoffset:0;stroke-opacity:1"
       id="path16-5"
       inkscape:flatsided="true"
       sodipodi:sides="3"
       sodipodi:cx="11579.847"
       sodipodi:cy="-147.33087"
       sodipodi:r1="122.34845"
       sodipodi:r2="61.174225"
       sodipodi:arg1="0.52359878"
       sodipodi:arg2="1.5707963"
       inkscape:rounded="0"
       inkscape:randomized="0"
       d="m 11685.804,-86.156646 -211.914,-1e-6 105.957,-183.522673 z"
       inkscape:transform-center-y="2.6541117e-05"
       transform="matrix(0,1.4408844,-1.4408844,0,12055.289,-16429.22)"
       inkscape:transform-center-x="-44.072358" /></g></svg>
